G04 (Genere par PCBnew (20080825c)) le 29/9/2009-04:26:48*
G01*
G70*
G90*
%MOIN*%
G04 Gerber Fmt 3.4, Leading zero omitted, Abs format*
%FSLAX34Y34*%
G04 APERTURE LIST*
%ADD10C,0.015000*%
%ADD11O,0.062000X0.090000*%
%ADD12R,0.100000X0.100000*%
%ADD13C,0.100000*%
%ADD14C,0.055000*%
%ADD15R,0.055000X0.055000*%
%ADD16R,0.060000X0.060000*%
%ADD17C,0.060000*%
%ADD18O,0.060000X0.120000*%
%ADD19C,0.078700*%
%ADD20C,0.047200*%
%ADD21C,0.017000*%
%ADD22C,0.039400*%
%ADD23C,0.002500*%
%ADD24C,0.012000*%
%ADD25C,0.005000*%
%ADD26C,0.002600*%
%ADD27C,0.006000*%
%ADD28C,0.001000*%
%ADD29C,0.008000*%
%ADD30C,0.003500*%
G04 APERTURE END LIST*
G54D10*
X73000Y-49500D02*
X65000Y-49500D01*
X65000Y-47500D02*
X73000Y-47500D01*
X73000Y-47500D02*
X73000Y-49500D01*
X73000Y-49000D02*
X72500Y-49000D01*
X72500Y-49000D02*
X72500Y-48000D01*
X72500Y-48000D02*
X73000Y-48000D01*
X65000Y-49500D02*
X65000Y-47500D01*
X73500Y-48000D02*
X73500Y-48000D01*
X73500Y-48000D02*
X74000Y-48000D01*
X74000Y-48000D02*
X74000Y-49000D01*
X74000Y-49000D02*
X73500Y-49000D01*
X73500Y-47500D02*
X82500Y-47500D01*
X82500Y-47500D02*
X82500Y-49500D01*
X82500Y-49500D02*
X73500Y-49500D01*
X73500Y-49500D02*
X73500Y-47500D01*
G54D24*
X66000Y-52000D02*
X66000Y-56000D01*
X66500Y-52000D02*
X63500Y-52000D01*
X63500Y-52000D02*
X63500Y-56000D01*
X63500Y-56000D02*
X66500Y-56000D01*
X66500Y-56000D02*
X66500Y-52000D01*
X71000Y-55500D02*
X67000Y-55500D01*
X71000Y-56000D02*
X71000Y-53000D01*
X71000Y-53000D02*
X67000Y-53000D01*
X67000Y-53000D02*
X67000Y-56000D01*
X67000Y-56000D02*
X71000Y-56000D01*
X69000Y-36000D02*
X69000Y-40000D01*
X69500Y-36000D02*
X66500Y-36000D01*
X66500Y-36000D02*
X66500Y-40000D01*
X66500Y-40000D02*
X69500Y-40000D01*
X69500Y-40000D02*
X69500Y-36000D01*
X71500Y-56000D02*
X71500Y-53000D01*
X77500Y-56000D02*
X77500Y-53000D01*
X71500Y-55500D02*
X77500Y-55500D01*
X71500Y-53000D02*
X77500Y-53000D01*
X71500Y-56000D02*
X77500Y-56000D01*
X78000Y-56000D02*
X78000Y-53000D01*
X84000Y-56000D02*
X84000Y-53000D01*
X78000Y-55500D02*
X84000Y-55500D01*
X78000Y-53000D02*
X84000Y-53000D01*
X78000Y-56000D02*
X84000Y-56000D01*
X63000Y-45000D02*
X63000Y-42000D01*
X69000Y-45000D02*
X69000Y-42000D01*
X63000Y-44500D02*
X69000Y-44500D01*
X63000Y-42000D02*
X69000Y-42000D01*
X63000Y-45000D02*
X69000Y-45000D01*
X63020Y-40500D02*
X65000Y-40500D01*
X65000Y-40500D02*
X65000Y-41500D01*
X65000Y-41500D02*
X63000Y-41500D01*
X63000Y-41500D02*
X63000Y-40500D01*
X63000Y-40750D02*
X63250Y-40500D01*
X81000Y-41480D02*
X81000Y-39500D01*
X81000Y-39500D02*
X82000Y-39500D01*
X82000Y-39500D02*
X82000Y-41500D01*
X82000Y-41500D02*
X81000Y-41500D01*
X81250Y-41500D02*
X81000Y-41250D01*
X71500Y-41480D02*
X71500Y-39500D01*
X71500Y-39500D02*
X72500Y-39500D01*
X72500Y-39500D02*
X72500Y-41500D01*
X72500Y-41500D02*
X71500Y-41500D01*
X71750Y-41500D02*
X71500Y-41250D01*
X81980Y-46000D02*
X80000Y-46000D01*
X80000Y-46000D02*
X80000Y-45000D01*
X80000Y-45000D02*
X82000Y-45000D01*
X82000Y-45000D02*
X82000Y-46000D01*
X82000Y-45750D02*
X81750Y-46000D01*
X75000Y-45980D02*
X75000Y-44000D01*
X75000Y-44000D02*
X76000Y-44000D01*
X76000Y-44000D02*
X76000Y-46000D01*
X76000Y-46000D02*
X75000Y-46000D01*
X75250Y-46000D02*
X75000Y-45750D01*
X80020Y-51000D02*
X82000Y-51000D01*
X82000Y-51000D02*
X82000Y-52000D01*
X82000Y-52000D02*
X80000Y-52000D01*
X80000Y-52000D02*
X80000Y-51000D01*
X80000Y-51250D02*
X80250Y-51000D01*
G54D25*
X74001Y-45000D02*
X73979Y-45208D01*
X73979Y-45208D02*
X73914Y-45407D01*
X73914Y-45407D02*
X73809Y-45588D01*
X73809Y-45588D02*
X73669Y-45743D01*
X73669Y-45743D02*
X73500Y-45866D01*
X73500Y-45866D02*
X73309Y-45952D01*
X73309Y-45952D02*
X73104Y-45995D01*
X73104Y-45995D02*
X72896Y-45995D01*
X72896Y-45995D02*
X72691Y-45952D01*
X72691Y-45952D02*
X72500Y-45866D01*
X72500Y-45866D02*
X72331Y-45743D01*
X72331Y-45743D02*
X72191Y-45588D01*
X72191Y-45588D02*
X72086Y-45407D01*
X72086Y-45407D02*
X72021Y-45208D01*
X72021Y-45208D02*
X71999Y-45000D01*
X71999Y-45000D02*
X72021Y-44792D01*
X72021Y-44792D02*
X72086Y-44593D01*
X72086Y-44593D02*
X72191Y-44412D01*
X72191Y-44412D02*
X72331Y-44257D01*
X72331Y-44257D02*
X72500Y-44134D01*
X72500Y-44134D02*
X72691Y-44048D01*
X72691Y-44048D02*
X72896Y-44005D01*
X72896Y-44005D02*
X73104Y-44005D01*
X73104Y-44005D02*
X73309Y-44048D01*
X73309Y-44048D02*
X73500Y-44134D01*
X73500Y-44134D02*
X73669Y-44257D01*
X73669Y-44257D02*
X73809Y-44412D01*
X73809Y-44412D02*
X73914Y-44593D01*
X73914Y-44593D02*
X73979Y-44792D01*
X73979Y-44792D02*
X74001Y-45000D01*
X66250Y-38500D02*
X66222Y-38759D01*
X66222Y-38759D02*
X66141Y-39008D01*
X66141Y-39008D02*
X66011Y-39234D01*
X66011Y-39234D02*
X65836Y-39428D01*
X65836Y-39428D02*
X65625Y-39582D01*
X65625Y-39582D02*
X65386Y-39688D01*
X65386Y-39688D02*
X65130Y-39743D01*
X65130Y-39743D02*
X64870Y-39743D01*
X64870Y-39743D02*
X64614Y-39688D01*
X64614Y-39688D02*
X64375Y-39582D01*
X64375Y-39582D02*
X64164Y-39428D01*
X64164Y-39428D02*
X63989Y-39234D01*
X63989Y-39234D02*
X63859Y-39008D01*
X63859Y-39008D02*
X63778Y-38759D01*
X63778Y-38759D02*
X63750Y-38500D01*
X63750Y-38500D02*
X63778Y-38241D01*
X63778Y-38241D02*
X63859Y-37992D01*
X63859Y-37992D02*
X63989Y-37766D01*
X63989Y-37766D02*
X64164Y-37572D01*
X64164Y-37572D02*
X64375Y-37418D01*
X64375Y-37418D02*
X64614Y-37312D01*
X64614Y-37312D02*
X64870Y-37257D01*
X64870Y-37257D02*
X65130Y-37257D01*
X65130Y-37257D02*
X65386Y-37312D01*
X65386Y-37312D02*
X65625Y-37418D01*
X65625Y-37418D02*
X65836Y-37572D01*
X65836Y-37572D02*
X66011Y-37766D01*
X66011Y-37766D02*
X66141Y-37992D01*
X66141Y-37992D02*
X66222Y-38241D01*
X66222Y-38241D02*
X66250Y-38500D01*
G54D26*
X72618Y-38320D02*
X80717Y-38320D01*
X80717Y-38320D02*
X80717Y-37820D01*
X72618Y-37820D02*
X80717Y-37820D01*
X72618Y-38320D02*
X72618Y-37820D01*
X73168Y-41070D02*
X73468Y-41070D01*
X73468Y-41070D02*
X73468Y-39570D01*
X73168Y-39570D02*
X73468Y-39570D01*
X73168Y-41070D02*
X73168Y-39570D01*
X74508Y-41070D02*
X74808Y-41070D01*
X74808Y-41070D02*
X74808Y-39570D01*
X74508Y-39570D02*
X74808Y-39570D01*
X74508Y-41070D02*
X74508Y-39570D01*
X75848Y-41070D02*
X76148Y-41070D01*
X76148Y-41070D02*
X76148Y-39570D01*
X75848Y-39570D02*
X76148Y-39570D01*
X75848Y-41070D02*
X75848Y-39570D01*
X77187Y-41070D02*
X77487Y-41070D01*
X77487Y-41070D02*
X77487Y-39570D01*
X77187Y-39570D02*
X77487Y-39570D01*
X77187Y-41070D02*
X77187Y-39570D01*
X78527Y-41070D02*
X78827Y-41070D01*
X78827Y-41070D02*
X78827Y-39570D01*
X78527Y-39570D02*
X78827Y-39570D01*
X78527Y-41070D02*
X78527Y-39570D01*
X79867Y-41070D02*
X80167Y-41070D01*
X80167Y-41070D02*
X80167Y-39570D01*
X79867Y-39570D02*
X80167Y-39570D01*
X79867Y-41070D02*
X79867Y-39570D01*
X79867Y-41620D02*
X80167Y-41620D01*
X80167Y-41620D02*
X80167Y-41070D01*
X79867Y-41070D02*
X80167Y-41070D01*
X79867Y-41620D02*
X79867Y-41070D01*
X78527Y-41620D02*
X78827Y-41620D01*
X78827Y-41620D02*
X78827Y-41070D01*
X78527Y-41070D02*
X78827Y-41070D01*
X78527Y-41620D02*
X78527Y-41070D01*
X77187Y-41620D02*
X77487Y-41620D01*
X77487Y-41620D02*
X77487Y-41070D01*
X77187Y-41070D02*
X77487Y-41070D01*
X77187Y-41620D02*
X77187Y-41070D01*
X75848Y-41620D02*
X76148Y-41620D01*
X76148Y-41620D02*
X76148Y-41070D01*
X75848Y-41070D02*
X76148Y-41070D01*
X75848Y-41620D02*
X75848Y-41070D01*
X74508Y-41620D02*
X74808Y-41620D01*
X74808Y-41620D02*
X74808Y-41070D01*
X74508Y-41070D02*
X74808Y-41070D01*
X74508Y-41620D02*
X74508Y-41070D01*
X73168Y-41620D02*
X73468Y-41620D01*
X73468Y-41620D02*
X73468Y-41070D01*
X73168Y-41070D02*
X73468Y-41070D01*
X73168Y-41620D02*
X73168Y-41070D01*
G54D27*
X78497Y-39570D02*
X78857Y-39570D01*
X77157Y-39570D02*
X77517Y-39570D01*
X75818Y-39570D02*
X76178Y-39570D01*
X74478Y-39570D02*
X74838Y-39570D01*
X80667Y-38320D02*
X80667Y-39570D01*
X72668Y-38320D02*
X72668Y-39570D01*
X79837Y-39570D02*
X80667Y-39570D01*
X73498Y-39570D02*
X72668Y-39570D01*
X73498Y-39570D02*
X74478Y-39570D01*
X74838Y-39570D02*
X75818Y-39570D01*
X76178Y-39570D02*
X77157Y-39570D01*
X78497Y-39570D02*
X77517Y-39570D01*
X79837Y-39570D02*
X78857Y-39570D01*
G54D28*
X72948Y-39380D02*
X72942Y-39406D01*
X72942Y-39406D02*
X72927Y-39429D01*
X72927Y-39429D02*
X72904Y-39444D01*
X72904Y-39444D02*
X72878Y-39450D01*
X72878Y-39450D02*
X72852Y-39444D01*
X72852Y-39444D02*
X72829Y-39429D01*
X72829Y-39429D02*
X72814Y-39406D01*
X72814Y-39406D02*
X72808Y-39380D01*
X72808Y-39380D02*
X72814Y-39354D01*
X72814Y-39354D02*
X72829Y-39331D01*
X72829Y-39331D02*
X72852Y-39316D01*
X72852Y-39316D02*
X72878Y-39310D01*
X72878Y-39310D02*
X72904Y-39316D01*
X72904Y-39316D02*
X72927Y-39331D01*
X72927Y-39331D02*
X72942Y-39354D01*
X72942Y-39354D02*
X72948Y-39380D01*
G54D24*
X78000Y-44500D02*
X78200Y-44500D01*
X81000Y-44500D02*
X80800Y-44500D01*
X80800Y-44500D02*
X80800Y-44100D01*
X80800Y-44100D02*
X78200Y-44100D01*
X78200Y-44100D02*
X78200Y-44900D01*
X78200Y-44900D02*
X80800Y-44900D01*
X80800Y-44900D02*
X80800Y-44500D01*
X78200Y-44300D02*
X78400Y-44100D01*
X76000Y-43500D02*
X76200Y-43500D01*
X79000Y-43500D02*
X78800Y-43500D01*
X78800Y-43500D02*
X78800Y-43100D01*
X78800Y-43100D02*
X76200Y-43100D01*
X76200Y-43100D02*
X76200Y-43900D01*
X76200Y-43900D02*
X78800Y-43900D01*
X78800Y-43900D02*
X78800Y-43500D01*
X76200Y-43300D02*
X76400Y-43100D01*
X70000Y-51500D02*
X69800Y-51500D01*
X67000Y-51500D02*
X67200Y-51500D01*
X67200Y-51500D02*
X67200Y-51900D01*
X67200Y-51900D02*
X69800Y-51900D01*
X69800Y-51900D02*
X69800Y-51100D01*
X69800Y-51100D02*
X67200Y-51100D01*
X67200Y-51100D02*
X67200Y-51500D01*
X69800Y-51700D02*
X69600Y-51900D01*
X72000Y-51500D02*
X72200Y-51500D01*
X75000Y-51500D02*
X74800Y-51500D01*
X74800Y-51500D02*
X74800Y-51100D01*
X74800Y-51100D02*
X72200Y-51100D01*
X72200Y-51100D02*
X72200Y-51900D01*
X72200Y-51900D02*
X74800Y-51900D01*
X74800Y-51900D02*
X74800Y-51500D01*
X72200Y-51300D02*
X72400Y-51100D01*
X68000Y-45500D02*
X68200Y-45500D01*
X71000Y-45500D02*
X70800Y-45500D01*
X70800Y-45500D02*
X70800Y-45100D01*
X70800Y-45100D02*
X68200Y-45100D01*
X68200Y-45100D02*
X68200Y-45900D01*
X68200Y-45900D02*
X70800Y-45900D01*
X70800Y-45900D02*
X70800Y-45500D01*
X68200Y-45300D02*
X68400Y-45100D01*
X72000Y-52500D02*
X72200Y-52500D01*
X75000Y-52500D02*
X74800Y-52500D01*
X74800Y-52500D02*
X74800Y-52100D01*
X74800Y-52100D02*
X72200Y-52100D01*
X72200Y-52100D02*
X72200Y-52900D01*
X72200Y-52900D02*
X74800Y-52900D01*
X74800Y-52900D02*
X74800Y-52500D01*
X72200Y-52300D02*
X72400Y-52100D01*
G54D28*
X72310Y-46550D02*
X72310Y-47450D01*
X72310Y-47450D02*
X71690Y-47450D01*
X71690Y-47450D02*
X71690Y-46550D01*
X71690Y-46550D02*
X72310Y-46550D01*
X71310Y-46550D02*
X71310Y-47450D01*
X71310Y-47450D02*
X70690Y-47450D01*
X70690Y-47450D02*
X70690Y-46550D01*
X70690Y-46550D02*
X71310Y-46550D01*
X70310Y-46550D02*
X70310Y-47450D01*
X70310Y-47450D02*
X69690Y-47450D01*
X69690Y-47450D02*
X69690Y-46550D01*
X69690Y-46550D02*
X70310Y-46550D01*
X69310Y-46550D02*
X69310Y-47450D01*
X69310Y-47450D02*
X68690Y-47450D01*
X68690Y-47450D02*
X68690Y-46550D01*
X68690Y-46550D02*
X69310Y-46550D01*
X68310Y-46550D02*
X68310Y-47450D01*
X68310Y-47450D02*
X67690Y-47450D01*
X67690Y-47450D02*
X67690Y-46550D01*
X67690Y-46550D02*
X68310Y-46550D01*
X67310Y-46550D02*
X67310Y-47450D01*
X67310Y-47450D02*
X66690Y-47450D01*
X66690Y-47450D02*
X66690Y-46550D01*
X66690Y-46550D02*
X67310Y-46550D01*
X66310Y-46550D02*
X66310Y-47450D01*
X66310Y-47450D02*
X65690Y-47450D01*
X65690Y-47450D02*
X65690Y-46550D01*
X65690Y-46550D02*
X66310Y-46550D01*
X66310Y-49550D02*
X66310Y-50450D01*
X66310Y-50450D02*
X65690Y-50450D01*
X65690Y-50450D02*
X65690Y-49550D01*
X65690Y-49550D02*
X66310Y-49550D01*
X67310Y-49550D02*
X67310Y-50450D01*
X67310Y-50450D02*
X66690Y-50450D01*
X66690Y-50450D02*
X66690Y-49550D01*
X66690Y-49550D02*
X67310Y-49550D01*
X68310Y-49550D02*
X68310Y-50450D01*
X68310Y-50450D02*
X67690Y-50450D01*
X67690Y-50450D02*
X67690Y-49550D01*
X67690Y-49550D02*
X68310Y-49550D01*
X69310Y-49550D02*
X69310Y-50450D01*
X69310Y-50450D02*
X68690Y-50450D01*
X68690Y-50450D02*
X68690Y-49550D01*
X68690Y-49550D02*
X69310Y-49550D01*
X70310Y-49550D02*
X70310Y-50450D01*
X70310Y-50450D02*
X69690Y-50450D01*
X69690Y-50450D02*
X69690Y-49550D01*
X69690Y-49550D02*
X70310Y-49550D01*
X71310Y-49550D02*
X71310Y-50450D01*
X71310Y-50450D02*
X70690Y-50450D01*
X70690Y-50450D02*
X70690Y-49550D01*
X70690Y-49550D02*
X71310Y-49550D01*
X72310Y-49550D02*
X72310Y-50450D01*
X72310Y-50450D02*
X71690Y-50450D01*
X71690Y-50450D02*
X71690Y-49550D01*
X71690Y-49550D02*
X72310Y-49550D01*
X74190Y-50450D02*
X74190Y-49550D01*
X74190Y-49550D02*
X74810Y-49550D01*
X74810Y-49550D02*
X74810Y-50450D01*
X74810Y-50450D02*
X74190Y-50450D01*
X75190Y-50450D02*
X75190Y-49550D01*
X75190Y-49550D02*
X75810Y-49550D01*
X75810Y-49550D02*
X75810Y-50450D01*
X75810Y-50450D02*
X75190Y-50450D01*
X76190Y-50450D02*
X76190Y-49550D01*
X76190Y-49550D02*
X76810Y-49550D01*
X76810Y-49550D02*
X76810Y-50450D01*
X76810Y-50450D02*
X76190Y-50450D01*
X77190Y-50450D02*
X77190Y-49550D01*
X77190Y-49550D02*
X77810Y-49550D01*
X77810Y-49550D02*
X77810Y-50450D01*
X77810Y-50450D02*
X77190Y-50450D01*
X78190Y-50450D02*
X78190Y-49550D01*
X78190Y-49550D02*
X78810Y-49550D01*
X78810Y-49550D02*
X78810Y-50450D01*
X78810Y-50450D02*
X78190Y-50450D01*
X79190Y-50450D02*
X79190Y-49550D01*
X79190Y-49550D02*
X79810Y-49550D01*
X79810Y-49550D02*
X79810Y-50450D01*
X79810Y-50450D02*
X79190Y-50450D01*
X80190Y-50450D02*
X80190Y-49550D01*
X80190Y-49550D02*
X80810Y-49550D01*
X80810Y-49550D02*
X80810Y-50450D01*
X80810Y-50450D02*
X80190Y-50450D01*
X81190Y-50450D02*
X81190Y-49550D01*
X81190Y-49550D02*
X81810Y-49550D01*
X81810Y-49550D02*
X81810Y-50450D01*
X81810Y-50450D02*
X81190Y-50450D01*
X81190Y-47450D02*
X81190Y-46550D01*
X81190Y-46550D02*
X81810Y-46550D01*
X81810Y-46550D02*
X81810Y-47450D01*
X81810Y-47450D02*
X81190Y-47450D01*
X80190Y-47450D02*
X80190Y-46550D01*
X80190Y-46550D02*
X80810Y-46550D01*
X80810Y-46550D02*
X80810Y-47450D01*
X80810Y-47450D02*
X80190Y-47450D01*
X79190Y-47450D02*
X79190Y-46550D01*
X79190Y-46550D02*
X79810Y-46550D01*
X79810Y-46550D02*
X79810Y-47450D01*
X79810Y-47450D02*
X79190Y-47450D01*
X78190Y-47450D02*
X78190Y-46550D01*
X78190Y-46550D02*
X78810Y-46550D01*
X78810Y-46550D02*
X78810Y-47450D01*
X78810Y-47450D02*
X78190Y-47450D01*
X77190Y-47450D02*
X77190Y-46550D01*
X77190Y-46550D02*
X77810Y-46550D01*
X77810Y-46550D02*
X77810Y-47450D01*
X77810Y-47450D02*
X77190Y-47450D01*
X76190Y-47450D02*
X76190Y-46550D01*
X76190Y-46550D02*
X76810Y-46550D01*
X76810Y-46550D02*
X76810Y-47450D01*
X76810Y-47450D02*
X76190Y-47450D01*
X75190Y-47450D02*
X75190Y-46550D01*
X75190Y-46550D02*
X75810Y-46550D01*
X75810Y-46550D02*
X75810Y-47450D01*
X75810Y-47450D02*
X75190Y-47450D01*
X74190Y-47450D02*
X74190Y-46550D01*
X74190Y-46550D02*
X74810Y-46550D01*
X74810Y-46550D02*
X74810Y-47450D01*
X74810Y-47450D02*
X74190Y-47450D01*
X65500Y-55500D02*
X64500Y-55500D01*
X64500Y-55500D02*
X64500Y-54500D01*
X64500Y-54500D02*
X65500Y-54500D01*
X65500Y-54500D02*
X65500Y-55500D01*
X65500Y-53000D02*
X65489Y-53103D01*
X65489Y-53103D02*
X65456Y-53203D01*
X65456Y-53203D02*
X65404Y-53293D01*
X65404Y-53293D02*
X65334Y-53371D01*
X65334Y-53371D02*
X65250Y-53433D01*
X65250Y-53433D02*
X65154Y-53475D01*
X65154Y-53475D02*
X65052Y-53497D01*
X65052Y-53497D02*
X64948Y-53497D01*
X64948Y-53497D02*
X64846Y-53475D01*
X64846Y-53475D02*
X64750Y-53433D01*
X64750Y-53433D02*
X64666Y-53371D01*
X64666Y-53371D02*
X64596Y-53293D01*
X64596Y-53293D02*
X64544Y-53203D01*
X64544Y-53203D02*
X64511Y-53103D01*
X64511Y-53103D02*
X64500Y-53000D01*
X64500Y-53000D02*
X64511Y-52897D01*
X64511Y-52897D02*
X64544Y-52797D01*
X64544Y-52797D02*
X64596Y-52707D01*
X64596Y-52707D02*
X64666Y-52629D01*
X64666Y-52629D02*
X64750Y-52567D01*
X64750Y-52567D02*
X64846Y-52525D01*
X64846Y-52525D02*
X64948Y-52503D01*
X64948Y-52503D02*
X65052Y-52503D01*
X65052Y-52503D02*
X65154Y-52525D01*
X65154Y-52525D02*
X65250Y-52567D01*
X65250Y-52567D02*
X65334Y-52629D01*
X65334Y-52629D02*
X65404Y-52707D01*
X65404Y-52707D02*
X65456Y-52797D01*
X65456Y-52797D02*
X65489Y-52897D01*
X65489Y-52897D02*
X65500Y-53000D01*
X67500Y-55000D02*
X67500Y-54000D01*
X67500Y-54000D02*
X68500Y-54000D01*
X68500Y-54000D02*
X68500Y-55000D01*
X68500Y-55000D02*
X67500Y-55000D01*
X70500Y-54500D02*
X70489Y-54603D01*
X70489Y-54603D02*
X70456Y-54703D01*
X70456Y-54703D02*
X70404Y-54793D01*
X70404Y-54793D02*
X70334Y-54871D01*
X70334Y-54871D02*
X70250Y-54933D01*
X70250Y-54933D02*
X70154Y-54975D01*
X70154Y-54975D02*
X70052Y-54997D01*
X70052Y-54997D02*
X69948Y-54997D01*
X69948Y-54997D02*
X69846Y-54975D01*
X69846Y-54975D02*
X69750Y-54933D01*
X69750Y-54933D02*
X69666Y-54871D01*
X69666Y-54871D02*
X69596Y-54793D01*
X69596Y-54793D02*
X69544Y-54703D01*
X69544Y-54703D02*
X69511Y-54603D01*
X69511Y-54603D02*
X69500Y-54500D01*
X69500Y-54500D02*
X69511Y-54397D01*
X69511Y-54397D02*
X69544Y-54297D01*
X69544Y-54297D02*
X69596Y-54207D01*
X69596Y-54207D02*
X69666Y-54129D01*
X69666Y-54129D02*
X69750Y-54067D01*
X69750Y-54067D02*
X69846Y-54025D01*
X69846Y-54025D02*
X69948Y-54003D01*
X69948Y-54003D02*
X70052Y-54003D01*
X70052Y-54003D02*
X70154Y-54025D01*
X70154Y-54025D02*
X70250Y-54067D01*
X70250Y-54067D02*
X70334Y-54129D01*
X70334Y-54129D02*
X70404Y-54207D01*
X70404Y-54207D02*
X70456Y-54297D01*
X70456Y-54297D02*
X70489Y-54397D01*
X70489Y-54397D02*
X70500Y-54500D01*
X68500Y-39500D02*
X67500Y-39500D01*
X67500Y-39500D02*
X67500Y-38500D01*
X67500Y-38500D02*
X68500Y-38500D01*
X68500Y-38500D02*
X68500Y-39500D01*
X68500Y-37000D02*
X68489Y-37103D01*
X68489Y-37103D02*
X68456Y-37203D01*
X68456Y-37203D02*
X68404Y-37293D01*
X68404Y-37293D02*
X68334Y-37371D01*
X68334Y-37371D02*
X68250Y-37433D01*
X68250Y-37433D02*
X68154Y-37475D01*
X68154Y-37475D02*
X68052Y-37497D01*
X68052Y-37497D02*
X67948Y-37497D01*
X67948Y-37497D02*
X67846Y-37475D01*
X67846Y-37475D02*
X67750Y-37433D01*
X67750Y-37433D02*
X67666Y-37371D01*
X67666Y-37371D02*
X67596Y-37293D01*
X67596Y-37293D02*
X67544Y-37203D01*
X67544Y-37203D02*
X67511Y-37103D01*
X67511Y-37103D02*
X67500Y-37000D01*
X67500Y-37000D02*
X67511Y-36897D01*
X67511Y-36897D02*
X67544Y-36797D01*
X67544Y-36797D02*
X67596Y-36707D01*
X67596Y-36707D02*
X67666Y-36629D01*
X67666Y-36629D02*
X67750Y-36567D01*
X67750Y-36567D02*
X67846Y-36525D01*
X67846Y-36525D02*
X67948Y-36503D01*
X67948Y-36503D02*
X68052Y-36503D01*
X68052Y-36503D02*
X68154Y-36525D01*
X68154Y-36525D02*
X68250Y-36567D01*
X68250Y-36567D02*
X68334Y-36629D01*
X68334Y-36629D02*
X68404Y-36707D01*
X68404Y-36707D02*
X68456Y-36797D01*
X68456Y-36797D02*
X68489Y-36897D01*
X68489Y-36897D02*
X68500Y-37000D01*
X72000Y-55000D02*
X72000Y-54000D01*
X72000Y-54000D02*
X73000Y-54000D01*
X73000Y-54000D02*
X73000Y-55000D01*
X73000Y-55000D02*
X72000Y-55000D01*
X75000Y-54500D02*
X74989Y-54603D01*
X74989Y-54603D02*
X74956Y-54703D01*
X74956Y-54703D02*
X74904Y-54793D01*
X74904Y-54793D02*
X74834Y-54871D01*
X74834Y-54871D02*
X74750Y-54933D01*
X74750Y-54933D02*
X74654Y-54975D01*
X74654Y-54975D02*
X74552Y-54997D01*
X74552Y-54997D02*
X74448Y-54997D01*
X74448Y-54997D02*
X74346Y-54975D01*
X74346Y-54975D02*
X74250Y-54933D01*
X74250Y-54933D02*
X74166Y-54871D01*
X74166Y-54871D02*
X74096Y-54793D01*
X74096Y-54793D02*
X74044Y-54703D01*
X74044Y-54703D02*
X74011Y-54603D01*
X74011Y-54603D02*
X74000Y-54500D01*
X74000Y-54500D02*
X74011Y-54397D01*
X74011Y-54397D02*
X74044Y-54297D01*
X74044Y-54297D02*
X74096Y-54207D01*
X74096Y-54207D02*
X74166Y-54129D01*
X74166Y-54129D02*
X74250Y-54067D01*
X74250Y-54067D02*
X74346Y-54025D01*
X74346Y-54025D02*
X74448Y-54003D01*
X74448Y-54003D02*
X74552Y-54003D01*
X74552Y-54003D02*
X74654Y-54025D01*
X74654Y-54025D02*
X74750Y-54067D01*
X74750Y-54067D02*
X74834Y-54129D01*
X74834Y-54129D02*
X74904Y-54207D01*
X74904Y-54207D02*
X74956Y-54297D01*
X74956Y-54297D02*
X74989Y-54397D01*
X74989Y-54397D02*
X75000Y-54500D01*
X77000Y-54500D02*
X76989Y-54603D01*
X76989Y-54603D02*
X76956Y-54703D01*
X76956Y-54703D02*
X76904Y-54793D01*
X76904Y-54793D02*
X76834Y-54871D01*
X76834Y-54871D02*
X76750Y-54933D01*
X76750Y-54933D02*
X76654Y-54975D01*
X76654Y-54975D02*
X76552Y-54997D01*
X76552Y-54997D02*
X76448Y-54997D01*
X76448Y-54997D02*
X76346Y-54975D01*
X76346Y-54975D02*
X76250Y-54933D01*
X76250Y-54933D02*
X76166Y-54871D01*
X76166Y-54871D02*
X76096Y-54793D01*
X76096Y-54793D02*
X76044Y-54703D01*
X76044Y-54703D02*
X76011Y-54603D01*
X76011Y-54603D02*
X76000Y-54500D01*
X76000Y-54500D02*
X76011Y-54397D01*
X76011Y-54397D02*
X76044Y-54297D01*
X76044Y-54297D02*
X76096Y-54207D01*
X76096Y-54207D02*
X76166Y-54129D01*
X76166Y-54129D02*
X76250Y-54067D01*
X76250Y-54067D02*
X76346Y-54025D01*
X76346Y-54025D02*
X76448Y-54003D01*
X76448Y-54003D02*
X76552Y-54003D01*
X76552Y-54003D02*
X76654Y-54025D01*
X76654Y-54025D02*
X76750Y-54067D01*
X76750Y-54067D02*
X76834Y-54129D01*
X76834Y-54129D02*
X76904Y-54207D01*
X76904Y-54207D02*
X76956Y-54297D01*
X76956Y-54297D02*
X76989Y-54397D01*
X76989Y-54397D02*
X77000Y-54500D01*
X78500Y-55000D02*
X78500Y-54000D01*
X78500Y-54000D02*
X79500Y-54000D01*
X79500Y-54000D02*
X79500Y-55000D01*
X79500Y-55000D02*
X78500Y-55000D01*
X81500Y-54500D02*
X81489Y-54603D01*
X81489Y-54603D02*
X81456Y-54703D01*
X81456Y-54703D02*
X81404Y-54793D01*
X81404Y-54793D02*
X81334Y-54871D01*
X81334Y-54871D02*
X81250Y-54933D01*
X81250Y-54933D02*
X81154Y-54975D01*
X81154Y-54975D02*
X81052Y-54997D01*
X81052Y-54997D02*
X80948Y-54997D01*
X80948Y-54997D02*
X80846Y-54975D01*
X80846Y-54975D02*
X80750Y-54933D01*
X80750Y-54933D02*
X80666Y-54871D01*
X80666Y-54871D02*
X80596Y-54793D01*
X80596Y-54793D02*
X80544Y-54703D01*
X80544Y-54703D02*
X80511Y-54603D01*
X80511Y-54603D02*
X80500Y-54500D01*
X80500Y-54500D02*
X80511Y-54397D01*
X80511Y-54397D02*
X80544Y-54297D01*
X80544Y-54297D02*
X80596Y-54207D01*
X80596Y-54207D02*
X80666Y-54129D01*
X80666Y-54129D02*
X80750Y-54067D01*
X80750Y-54067D02*
X80846Y-54025D01*
X80846Y-54025D02*
X80948Y-54003D01*
X80948Y-54003D02*
X81052Y-54003D01*
X81052Y-54003D02*
X81154Y-54025D01*
X81154Y-54025D02*
X81250Y-54067D01*
X81250Y-54067D02*
X81334Y-54129D01*
X81334Y-54129D02*
X81404Y-54207D01*
X81404Y-54207D02*
X81456Y-54297D01*
X81456Y-54297D02*
X81489Y-54397D01*
X81489Y-54397D02*
X81500Y-54500D01*
X83500Y-54500D02*
X83489Y-54603D01*
X83489Y-54603D02*
X83456Y-54703D01*
X83456Y-54703D02*
X83404Y-54793D01*
X83404Y-54793D02*
X83334Y-54871D01*
X83334Y-54871D02*
X83250Y-54933D01*
X83250Y-54933D02*
X83154Y-54975D01*
X83154Y-54975D02*
X83052Y-54997D01*
X83052Y-54997D02*
X82948Y-54997D01*
X82948Y-54997D02*
X82846Y-54975D01*
X82846Y-54975D02*
X82750Y-54933D01*
X82750Y-54933D02*
X82666Y-54871D01*
X82666Y-54871D02*
X82596Y-54793D01*
X82596Y-54793D02*
X82544Y-54703D01*
X82544Y-54703D02*
X82511Y-54603D01*
X82511Y-54603D02*
X82500Y-54500D01*
X82500Y-54500D02*
X82511Y-54397D01*
X82511Y-54397D02*
X82544Y-54297D01*
X82544Y-54297D02*
X82596Y-54207D01*
X82596Y-54207D02*
X82666Y-54129D01*
X82666Y-54129D02*
X82750Y-54067D01*
X82750Y-54067D02*
X82846Y-54025D01*
X82846Y-54025D02*
X82948Y-54003D01*
X82948Y-54003D02*
X83052Y-54003D01*
X83052Y-54003D02*
X83154Y-54025D01*
X83154Y-54025D02*
X83250Y-54067D01*
X83250Y-54067D02*
X83334Y-54129D01*
X83334Y-54129D02*
X83404Y-54207D01*
X83404Y-54207D02*
X83456Y-54297D01*
X83456Y-54297D02*
X83489Y-54397D01*
X83489Y-54397D02*
X83500Y-54500D01*
X63500Y-44000D02*
X63500Y-43000D01*
X63500Y-43000D02*
X64500Y-43000D01*
X64500Y-43000D02*
X64500Y-44000D01*
X64500Y-44000D02*
X63500Y-44000D01*
X66500Y-43500D02*
X66489Y-43603D01*
X66489Y-43603D02*
X66456Y-43703D01*
X66456Y-43703D02*
X66404Y-43793D01*
X66404Y-43793D02*
X66334Y-43871D01*
X66334Y-43871D02*
X66250Y-43933D01*
X66250Y-43933D02*
X66154Y-43975D01*
X66154Y-43975D02*
X66052Y-43997D01*
X66052Y-43997D02*
X65948Y-43997D01*
X65948Y-43997D02*
X65846Y-43975D01*
X65846Y-43975D02*
X65750Y-43933D01*
X65750Y-43933D02*
X65666Y-43871D01*
X65666Y-43871D02*
X65596Y-43793D01*
X65596Y-43793D02*
X65544Y-43703D01*
X65544Y-43703D02*
X65511Y-43603D01*
X65511Y-43603D02*
X65500Y-43500D01*
X65500Y-43500D02*
X65511Y-43397D01*
X65511Y-43397D02*
X65544Y-43297D01*
X65544Y-43297D02*
X65596Y-43207D01*
X65596Y-43207D02*
X65666Y-43129D01*
X65666Y-43129D02*
X65750Y-43067D01*
X65750Y-43067D02*
X65846Y-43025D01*
X65846Y-43025D02*
X65948Y-43003D01*
X65948Y-43003D02*
X66052Y-43003D01*
X66052Y-43003D02*
X66154Y-43025D01*
X66154Y-43025D02*
X66250Y-43067D01*
X66250Y-43067D02*
X66334Y-43129D01*
X66334Y-43129D02*
X66404Y-43207D01*
X66404Y-43207D02*
X66456Y-43297D01*
X66456Y-43297D02*
X66489Y-43397D01*
X66489Y-43397D02*
X66500Y-43500D01*
X68500Y-43500D02*
X68489Y-43603D01*
X68489Y-43603D02*
X68456Y-43703D01*
X68456Y-43703D02*
X68404Y-43793D01*
X68404Y-43793D02*
X68334Y-43871D01*
X68334Y-43871D02*
X68250Y-43933D01*
X68250Y-43933D02*
X68154Y-43975D01*
X68154Y-43975D02*
X68052Y-43997D01*
X68052Y-43997D02*
X67948Y-43997D01*
X67948Y-43997D02*
X67846Y-43975D01*
X67846Y-43975D02*
X67750Y-43933D01*
X67750Y-43933D02*
X67666Y-43871D01*
X67666Y-43871D02*
X67596Y-43793D01*
X67596Y-43793D02*
X67544Y-43703D01*
X67544Y-43703D02*
X67511Y-43603D01*
X67511Y-43603D02*
X67500Y-43500D01*
X67500Y-43500D02*
X67511Y-43397D01*
X67511Y-43397D02*
X67544Y-43297D01*
X67544Y-43297D02*
X67596Y-43207D01*
X67596Y-43207D02*
X67666Y-43129D01*
X67666Y-43129D02*
X67750Y-43067D01*
X67750Y-43067D02*
X67846Y-43025D01*
X67846Y-43025D02*
X67948Y-43003D01*
X67948Y-43003D02*
X68052Y-43003D01*
X68052Y-43003D02*
X68154Y-43025D01*
X68154Y-43025D02*
X68250Y-43067D01*
X68250Y-43067D02*
X68334Y-43129D01*
X68334Y-43129D02*
X68404Y-43207D01*
X68404Y-43207D02*
X68456Y-43297D01*
X68456Y-43297D02*
X68489Y-43397D01*
X68489Y-43397D02*
X68500Y-43500D01*
X63775Y-41000D02*
X63768Y-41057D01*
X63768Y-41057D02*
X63751Y-41111D01*
X63751Y-41111D02*
X63722Y-41161D01*
X63722Y-41161D02*
X63684Y-41204D01*
X63684Y-41204D02*
X63637Y-41238D01*
X63637Y-41238D02*
X63584Y-41261D01*
X63584Y-41261D02*
X63528Y-41273D01*
X63528Y-41273D02*
X63472Y-41273D01*
X63472Y-41273D02*
X63416Y-41261D01*
X63416Y-41261D02*
X63363Y-41238D01*
X63363Y-41238D02*
X63316Y-41204D01*
X63316Y-41204D02*
X63278Y-41161D01*
X63278Y-41161D02*
X63249Y-41111D01*
X63249Y-41111D02*
X63232Y-41057D01*
X63232Y-41057D02*
X63225Y-41000D01*
X63225Y-41000D02*
X63232Y-40943D01*
X63232Y-40943D02*
X63249Y-40889D01*
X63249Y-40889D02*
X63278Y-40839D01*
X63278Y-40839D02*
X63316Y-40796D01*
X63316Y-40796D02*
X63363Y-40762D01*
X63363Y-40762D02*
X63416Y-40739D01*
X63416Y-40739D02*
X63472Y-40727D01*
X63472Y-40727D02*
X63528Y-40727D01*
X63528Y-40727D02*
X63584Y-40739D01*
X63584Y-40739D02*
X63637Y-40762D01*
X63637Y-40762D02*
X63684Y-40796D01*
X63684Y-40796D02*
X63722Y-40839D01*
X63722Y-40839D02*
X63751Y-40889D01*
X63751Y-40889D02*
X63768Y-40943D01*
X63768Y-40943D02*
X63775Y-41000D01*
X64775Y-41000D02*
X64768Y-41057D01*
X64768Y-41057D02*
X64751Y-41111D01*
X64751Y-41111D02*
X64722Y-41161D01*
X64722Y-41161D02*
X64684Y-41204D01*
X64684Y-41204D02*
X64637Y-41238D01*
X64637Y-41238D02*
X64584Y-41261D01*
X64584Y-41261D02*
X64528Y-41273D01*
X64528Y-41273D02*
X64472Y-41273D01*
X64472Y-41273D02*
X64416Y-41261D01*
X64416Y-41261D02*
X64363Y-41238D01*
X64363Y-41238D02*
X64316Y-41204D01*
X64316Y-41204D02*
X64278Y-41161D01*
X64278Y-41161D02*
X64249Y-41111D01*
X64249Y-41111D02*
X64232Y-41057D01*
X64232Y-41057D02*
X64225Y-41000D01*
X64225Y-41000D02*
X64232Y-40943D01*
X64232Y-40943D02*
X64249Y-40889D01*
X64249Y-40889D02*
X64278Y-40839D01*
X64278Y-40839D02*
X64316Y-40796D01*
X64316Y-40796D02*
X64363Y-40762D01*
X64363Y-40762D02*
X64416Y-40739D01*
X64416Y-40739D02*
X64472Y-40727D01*
X64472Y-40727D02*
X64528Y-40727D01*
X64528Y-40727D02*
X64584Y-40739D01*
X64584Y-40739D02*
X64637Y-40762D01*
X64637Y-40762D02*
X64684Y-40796D01*
X64684Y-40796D02*
X64722Y-40839D01*
X64722Y-40839D02*
X64751Y-40889D01*
X64751Y-40889D02*
X64768Y-40943D01*
X64768Y-40943D02*
X64775Y-41000D01*
X81775Y-41000D02*
X81768Y-41057D01*
X81768Y-41057D02*
X81751Y-41111D01*
X81751Y-41111D02*
X81722Y-41161D01*
X81722Y-41161D02*
X81684Y-41204D01*
X81684Y-41204D02*
X81637Y-41238D01*
X81637Y-41238D02*
X81584Y-41261D01*
X81584Y-41261D02*
X81528Y-41273D01*
X81528Y-41273D02*
X81472Y-41273D01*
X81472Y-41273D02*
X81416Y-41261D01*
X81416Y-41261D02*
X81363Y-41238D01*
X81363Y-41238D02*
X81316Y-41204D01*
X81316Y-41204D02*
X81278Y-41161D01*
X81278Y-41161D02*
X81249Y-41111D01*
X81249Y-41111D02*
X81232Y-41057D01*
X81232Y-41057D02*
X81225Y-41000D01*
X81225Y-41000D02*
X81232Y-40943D01*
X81232Y-40943D02*
X81249Y-40889D01*
X81249Y-40889D02*
X81278Y-40839D01*
X81278Y-40839D02*
X81316Y-40796D01*
X81316Y-40796D02*
X81363Y-40762D01*
X81363Y-40762D02*
X81416Y-40739D01*
X81416Y-40739D02*
X81472Y-40727D01*
X81472Y-40727D02*
X81528Y-40727D01*
X81528Y-40727D02*
X81584Y-40739D01*
X81584Y-40739D02*
X81637Y-40762D01*
X81637Y-40762D02*
X81684Y-40796D01*
X81684Y-40796D02*
X81722Y-40839D01*
X81722Y-40839D02*
X81751Y-40889D01*
X81751Y-40889D02*
X81768Y-40943D01*
X81768Y-40943D02*
X81775Y-41000D01*
X81775Y-40000D02*
X81768Y-40057D01*
X81768Y-40057D02*
X81751Y-40111D01*
X81751Y-40111D02*
X81722Y-40161D01*
X81722Y-40161D02*
X81684Y-40204D01*
X81684Y-40204D02*
X81637Y-40238D01*
X81637Y-40238D02*
X81584Y-40261D01*
X81584Y-40261D02*
X81528Y-40273D01*
X81528Y-40273D02*
X81472Y-40273D01*
X81472Y-40273D02*
X81416Y-40261D01*
X81416Y-40261D02*
X81363Y-40238D01*
X81363Y-40238D02*
X81316Y-40204D01*
X81316Y-40204D02*
X81278Y-40161D01*
X81278Y-40161D02*
X81249Y-40111D01*
X81249Y-40111D02*
X81232Y-40057D01*
X81232Y-40057D02*
X81225Y-40000D01*
X81225Y-40000D02*
X81232Y-39943D01*
X81232Y-39943D02*
X81249Y-39889D01*
X81249Y-39889D02*
X81278Y-39839D01*
X81278Y-39839D02*
X81316Y-39796D01*
X81316Y-39796D02*
X81363Y-39762D01*
X81363Y-39762D02*
X81416Y-39739D01*
X81416Y-39739D02*
X81472Y-39727D01*
X81472Y-39727D02*
X81528Y-39727D01*
X81528Y-39727D02*
X81584Y-39739D01*
X81584Y-39739D02*
X81637Y-39762D01*
X81637Y-39762D02*
X81684Y-39796D01*
X81684Y-39796D02*
X81722Y-39839D01*
X81722Y-39839D02*
X81751Y-39889D01*
X81751Y-39889D02*
X81768Y-39943D01*
X81768Y-39943D02*
X81775Y-40000D01*
X72275Y-41000D02*
X72268Y-41057D01*
X72268Y-41057D02*
X72251Y-41111D01*
X72251Y-41111D02*
X72222Y-41161D01*
X72222Y-41161D02*
X72184Y-41204D01*
X72184Y-41204D02*
X72137Y-41238D01*
X72137Y-41238D02*
X72084Y-41261D01*
X72084Y-41261D02*
X72028Y-41273D01*
X72028Y-41273D02*
X71972Y-41273D01*
X71972Y-41273D02*
X71916Y-41261D01*
X71916Y-41261D02*
X71863Y-41238D01*
X71863Y-41238D02*
X71816Y-41204D01*
X71816Y-41204D02*
X71778Y-41161D01*
X71778Y-41161D02*
X71749Y-41111D01*
X71749Y-41111D02*
X71732Y-41057D01*
X71732Y-41057D02*
X71725Y-41000D01*
X71725Y-41000D02*
X71732Y-40943D01*
X71732Y-40943D02*
X71749Y-40889D01*
X71749Y-40889D02*
X71778Y-40839D01*
X71778Y-40839D02*
X71816Y-40796D01*
X71816Y-40796D02*
X71863Y-40762D01*
X71863Y-40762D02*
X71916Y-40739D01*
X71916Y-40739D02*
X71972Y-40727D01*
X71972Y-40727D02*
X72028Y-40727D01*
X72028Y-40727D02*
X72084Y-40739D01*
X72084Y-40739D02*
X72137Y-40762D01*
X72137Y-40762D02*
X72184Y-40796D01*
X72184Y-40796D02*
X72222Y-40839D01*
X72222Y-40839D02*
X72251Y-40889D01*
X72251Y-40889D02*
X72268Y-40943D01*
X72268Y-40943D02*
X72275Y-41000D01*
X72275Y-40000D02*
X72268Y-40057D01*
X72268Y-40057D02*
X72251Y-40111D01*
X72251Y-40111D02*
X72222Y-40161D01*
X72222Y-40161D02*
X72184Y-40204D01*
X72184Y-40204D02*
X72137Y-40238D01*
X72137Y-40238D02*
X72084Y-40261D01*
X72084Y-40261D02*
X72028Y-40273D01*
X72028Y-40273D02*
X71972Y-40273D01*
X71972Y-40273D02*
X71916Y-40261D01*
X71916Y-40261D02*
X71863Y-40238D01*
X71863Y-40238D02*
X71816Y-40204D01*
X71816Y-40204D02*
X71778Y-40161D01*
X71778Y-40161D02*
X71749Y-40111D01*
X71749Y-40111D02*
X71732Y-40057D01*
X71732Y-40057D02*
X71725Y-40000D01*
X71725Y-40000D02*
X71732Y-39943D01*
X71732Y-39943D02*
X71749Y-39889D01*
X71749Y-39889D02*
X71778Y-39839D01*
X71778Y-39839D02*
X71816Y-39796D01*
X71816Y-39796D02*
X71863Y-39762D01*
X71863Y-39762D02*
X71916Y-39739D01*
X71916Y-39739D02*
X71972Y-39727D01*
X71972Y-39727D02*
X72028Y-39727D01*
X72028Y-39727D02*
X72084Y-39739D01*
X72084Y-39739D02*
X72137Y-39762D01*
X72137Y-39762D02*
X72184Y-39796D01*
X72184Y-39796D02*
X72222Y-39839D01*
X72222Y-39839D02*
X72251Y-39889D01*
X72251Y-39889D02*
X72268Y-39943D01*
X72268Y-39943D02*
X72275Y-40000D01*
X81775Y-45500D02*
X81768Y-45557D01*
X81768Y-45557D02*
X81751Y-45611D01*
X81751Y-45611D02*
X81722Y-45661D01*
X81722Y-45661D02*
X81684Y-45704D01*
X81684Y-45704D02*
X81637Y-45738D01*
X81637Y-45738D02*
X81584Y-45761D01*
X81584Y-45761D02*
X81528Y-45773D01*
X81528Y-45773D02*
X81472Y-45773D01*
X81472Y-45773D02*
X81416Y-45761D01*
X81416Y-45761D02*
X81363Y-45738D01*
X81363Y-45738D02*
X81316Y-45704D01*
X81316Y-45704D02*
X81278Y-45661D01*
X81278Y-45661D02*
X81249Y-45611D01*
X81249Y-45611D02*
X81232Y-45557D01*
X81232Y-45557D02*
X81225Y-45500D01*
X81225Y-45500D02*
X81232Y-45443D01*
X81232Y-45443D02*
X81249Y-45389D01*
X81249Y-45389D02*
X81278Y-45339D01*
X81278Y-45339D02*
X81316Y-45296D01*
X81316Y-45296D02*
X81363Y-45262D01*
X81363Y-45262D02*
X81416Y-45239D01*
X81416Y-45239D02*
X81472Y-45227D01*
X81472Y-45227D02*
X81528Y-45227D01*
X81528Y-45227D02*
X81584Y-45239D01*
X81584Y-45239D02*
X81637Y-45262D01*
X81637Y-45262D02*
X81684Y-45296D01*
X81684Y-45296D02*
X81722Y-45339D01*
X81722Y-45339D02*
X81751Y-45389D01*
X81751Y-45389D02*
X81768Y-45443D01*
X81768Y-45443D02*
X81775Y-45500D01*
X80775Y-45500D02*
X80768Y-45557D01*
X80768Y-45557D02*
X80751Y-45611D01*
X80751Y-45611D02*
X80722Y-45661D01*
X80722Y-45661D02*
X80684Y-45704D01*
X80684Y-45704D02*
X80637Y-45738D01*
X80637Y-45738D02*
X80584Y-45761D01*
X80584Y-45761D02*
X80528Y-45773D01*
X80528Y-45773D02*
X80472Y-45773D01*
X80472Y-45773D02*
X80416Y-45761D01*
X80416Y-45761D02*
X80363Y-45738D01*
X80363Y-45738D02*
X80316Y-45704D01*
X80316Y-45704D02*
X80278Y-45661D01*
X80278Y-45661D02*
X80249Y-45611D01*
X80249Y-45611D02*
X80232Y-45557D01*
X80232Y-45557D02*
X80225Y-45500D01*
X80225Y-45500D02*
X80232Y-45443D01*
X80232Y-45443D02*
X80249Y-45389D01*
X80249Y-45389D02*
X80278Y-45339D01*
X80278Y-45339D02*
X80316Y-45296D01*
X80316Y-45296D02*
X80363Y-45262D01*
X80363Y-45262D02*
X80416Y-45239D01*
X80416Y-45239D02*
X80472Y-45227D01*
X80472Y-45227D02*
X80528Y-45227D01*
X80528Y-45227D02*
X80584Y-45239D01*
X80584Y-45239D02*
X80637Y-45262D01*
X80637Y-45262D02*
X80684Y-45296D01*
X80684Y-45296D02*
X80722Y-45339D01*
X80722Y-45339D02*
X80751Y-45389D01*
X80751Y-45389D02*
X80768Y-45443D01*
X80768Y-45443D02*
X80775Y-45500D01*
X75775Y-45500D02*
X75768Y-45557D01*
X75768Y-45557D02*
X75751Y-45611D01*
X75751Y-45611D02*
X75722Y-45661D01*
X75722Y-45661D02*
X75684Y-45704D01*
X75684Y-45704D02*
X75637Y-45738D01*
X75637Y-45738D02*
X75584Y-45761D01*
X75584Y-45761D02*
X75528Y-45773D01*
X75528Y-45773D02*
X75472Y-45773D01*
X75472Y-45773D02*
X75416Y-45761D01*
X75416Y-45761D02*
X75363Y-45738D01*
X75363Y-45738D02*
X75316Y-45704D01*
X75316Y-45704D02*
X75278Y-45661D01*
X75278Y-45661D02*
X75249Y-45611D01*
X75249Y-45611D02*
X75232Y-45557D01*
X75232Y-45557D02*
X75225Y-45500D01*
X75225Y-45500D02*
X75232Y-45443D01*
X75232Y-45443D02*
X75249Y-45389D01*
X75249Y-45389D02*
X75278Y-45339D01*
X75278Y-45339D02*
X75316Y-45296D01*
X75316Y-45296D02*
X75363Y-45262D01*
X75363Y-45262D02*
X75416Y-45239D01*
X75416Y-45239D02*
X75472Y-45227D01*
X75472Y-45227D02*
X75528Y-45227D01*
X75528Y-45227D02*
X75584Y-45239D01*
X75584Y-45239D02*
X75637Y-45262D01*
X75637Y-45262D02*
X75684Y-45296D01*
X75684Y-45296D02*
X75722Y-45339D01*
X75722Y-45339D02*
X75751Y-45389D01*
X75751Y-45389D02*
X75768Y-45443D01*
X75768Y-45443D02*
X75775Y-45500D01*
X75775Y-44500D02*
X75768Y-44557D01*
X75768Y-44557D02*
X75751Y-44611D01*
X75751Y-44611D02*
X75722Y-44661D01*
X75722Y-44661D02*
X75684Y-44704D01*
X75684Y-44704D02*
X75637Y-44738D01*
X75637Y-44738D02*
X75584Y-44761D01*
X75584Y-44761D02*
X75528Y-44773D01*
X75528Y-44773D02*
X75472Y-44773D01*
X75472Y-44773D02*
X75416Y-44761D01*
X75416Y-44761D02*
X75363Y-44738D01*
X75363Y-44738D02*
X75316Y-44704D01*
X75316Y-44704D02*
X75278Y-44661D01*
X75278Y-44661D02*
X75249Y-44611D01*
X75249Y-44611D02*
X75232Y-44557D01*
X75232Y-44557D02*
X75225Y-44500D01*
X75225Y-44500D02*
X75232Y-44443D01*
X75232Y-44443D02*
X75249Y-44389D01*
X75249Y-44389D02*
X75278Y-44339D01*
X75278Y-44339D02*
X75316Y-44296D01*
X75316Y-44296D02*
X75363Y-44262D01*
X75363Y-44262D02*
X75416Y-44239D01*
X75416Y-44239D02*
X75472Y-44227D01*
X75472Y-44227D02*
X75528Y-44227D01*
X75528Y-44227D02*
X75584Y-44239D01*
X75584Y-44239D02*
X75637Y-44262D01*
X75637Y-44262D02*
X75684Y-44296D01*
X75684Y-44296D02*
X75722Y-44339D01*
X75722Y-44339D02*
X75751Y-44389D01*
X75751Y-44389D02*
X75768Y-44443D01*
X75768Y-44443D02*
X75775Y-44500D01*
X80775Y-51500D02*
X80768Y-51557D01*
X80768Y-51557D02*
X80751Y-51611D01*
X80751Y-51611D02*
X80722Y-51661D01*
X80722Y-51661D02*
X80684Y-51704D01*
X80684Y-51704D02*
X80637Y-51738D01*
X80637Y-51738D02*
X80584Y-51761D01*
X80584Y-51761D02*
X80528Y-51773D01*
X80528Y-51773D02*
X80472Y-51773D01*
X80472Y-51773D02*
X80416Y-51761D01*
X80416Y-51761D02*
X80363Y-51738D01*
X80363Y-51738D02*
X80316Y-51704D01*
X80316Y-51704D02*
X80278Y-51661D01*
X80278Y-51661D02*
X80249Y-51611D01*
X80249Y-51611D02*
X80232Y-51557D01*
X80232Y-51557D02*
X80225Y-51500D01*
X80225Y-51500D02*
X80232Y-51443D01*
X80232Y-51443D02*
X80249Y-51389D01*
X80249Y-51389D02*
X80278Y-51339D01*
X80278Y-51339D02*
X80316Y-51296D01*
X80316Y-51296D02*
X80363Y-51262D01*
X80363Y-51262D02*
X80416Y-51239D01*
X80416Y-51239D02*
X80472Y-51227D01*
X80472Y-51227D02*
X80528Y-51227D01*
X80528Y-51227D02*
X80584Y-51239D01*
X80584Y-51239D02*
X80637Y-51262D01*
X80637Y-51262D02*
X80684Y-51296D01*
X80684Y-51296D02*
X80722Y-51339D01*
X80722Y-51339D02*
X80751Y-51389D01*
X80751Y-51389D02*
X80768Y-51443D01*
X80768Y-51443D02*
X80775Y-51500D01*
X81775Y-51500D02*
X81768Y-51557D01*
X81768Y-51557D02*
X81751Y-51611D01*
X81751Y-51611D02*
X81722Y-51661D01*
X81722Y-51661D02*
X81684Y-51704D01*
X81684Y-51704D02*
X81637Y-51738D01*
X81637Y-51738D02*
X81584Y-51761D01*
X81584Y-51761D02*
X81528Y-51773D01*
X81528Y-51773D02*
X81472Y-51773D01*
X81472Y-51773D02*
X81416Y-51761D01*
X81416Y-51761D02*
X81363Y-51738D01*
X81363Y-51738D02*
X81316Y-51704D01*
X81316Y-51704D02*
X81278Y-51661D01*
X81278Y-51661D02*
X81249Y-51611D01*
X81249Y-51611D02*
X81232Y-51557D01*
X81232Y-51557D02*
X81225Y-51500D01*
X81225Y-51500D02*
X81232Y-51443D01*
X81232Y-51443D02*
X81249Y-51389D01*
X81249Y-51389D02*
X81278Y-51339D01*
X81278Y-51339D02*
X81316Y-51296D01*
X81316Y-51296D02*
X81363Y-51262D01*
X81363Y-51262D02*
X81416Y-51239D01*
X81416Y-51239D02*
X81472Y-51227D01*
X81472Y-51227D02*
X81528Y-51227D01*
X81528Y-51227D02*
X81584Y-51239D01*
X81584Y-51239D02*
X81637Y-51262D01*
X81637Y-51262D02*
X81684Y-51296D01*
X81684Y-51296D02*
X81722Y-51339D01*
X81722Y-51339D02*
X81751Y-51389D01*
X81751Y-51389D02*
X81768Y-51443D01*
X81768Y-51443D02*
X81775Y-51500D01*
X73275Y-45775D02*
X72725Y-45775D01*
X72725Y-45775D02*
X72725Y-45225D01*
X72725Y-45225D02*
X73275Y-45225D01*
X73275Y-45225D02*
X73275Y-45775D01*
X73275Y-44500D02*
X73268Y-44557D01*
X73268Y-44557D02*
X73251Y-44611D01*
X73251Y-44611D02*
X73222Y-44661D01*
X73222Y-44661D02*
X73184Y-44704D01*
X73184Y-44704D02*
X73137Y-44738D01*
X73137Y-44738D02*
X73084Y-44761D01*
X73084Y-44761D02*
X73028Y-44773D01*
X73028Y-44773D02*
X72972Y-44773D01*
X72972Y-44773D02*
X72916Y-44761D01*
X72916Y-44761D02*
X72863Y-44738D01*
X72863Y-44738D02*
X72816Y-44704D01*
X72816Y-44704D02*
X72778Y-44661D01*
X72778Y-44661D02*
X72749Y-44611D01*
X72749Y-44611D02*
X72732Y-44557D01*
X72732Y-44557D02*
X72725Y-44500D01*
X72725Y-44500D02*
X72732Y-44443D01*
X72732Y-44443D02*
X72749Y-44389D01*
X72749Y-44389D02*
X72778Y-44339D01*
X72778Y-44339D02*
X72816Y-44296D01*
X72816Y-44296D02*
X72863Y-44262D01*
X72863Y-44262D02*
X72916Y-44239D01*
X72916Y-44239D02*
X72972Y-44227D01*
X72972Y-44227D02*
X73028Y-44227D01*
X73028Y-44227D02*
X73084Y-44239D01*
X73084Y-44239D02*
X73137Y-44262D01*
X73137Y-44262D02*
X73184Y-44296D01*
X73184Y-44296D02*
X73222Y-44339D01*
X73222Y-44339D02*
X73251Y-44389D01*
X73251Y-44389D02*
X73268Y-44443D01*
X73268Y-44443D02*
X73275Y-44500D01*
X64700Y-37700D02*
X65300Y-37700D01*
X65300Y-37700D02*
X65300Y-38300D01*
X65300Y-38300D02*
X64700Y-38300D01*
X64700Y-38300D02*
X64700Y-37700D01*
X65300Y-39000D02*
X65293Y-39062D01*
X65293Y-39062D02*
X65274Y-39122D01*
X65274Y-39122D02*
X65242Y-39176D01*
X65242Y-39176D02*
X65200Y-39222D01*
X65200Y-39222D02*
X65150Y-39259D01*
X65150Y-39259D02*
X65092Y-39285D01*
X65092Y-39285D02*
X65031Y-39298D01*
X65031Y-39298D02*
X64969Y-39298D01*
X64969Y-39298D02*
X64908Y-39285D01*
X64908Y-39285D02*
X64850Y-39259D01*
X64850Y-39259D02*
X64800Y-39222D01*
X64800Y-39222D02*
X64758Y-39176D01*
X64758Y-39176D02*
X64726Y-39122D01*
X64726Y-39122D02*
X64707Y-39062D01*
X64707Y-39062D02*
X64700Y-39000D01*
X64700Y-39000D02*
X64707Y-38938D01*
X64707Y-38938D02*
X64726Y-38878D01*
X64726Y-38878D02*
X64758Y-38824D01*
X64758Y-38824D02*
X64800Y-38778D01*
X64800Y-38778D02*
X64850Y-38741D01*
X64850Y-38741D02*
X64908Y-38715D01*
X64908Y-38715D02*
X64969Y-38702D01*
X64969Y-38702D02*
X65031Y-38702D01*
X65031Y-38702D02*
X65092Y-38715D01*
X65092Y-38715D02*
X65150Y-38741D01*
X65150Y-38741D02*
X65200Y-38778D01*
X65200Y-38778D02*
X65242Y-38824D01*
X65242Y-38824D02*
X65274Y-38878D01*
X65274Y-38878D02*
X65293Y-38938D01*
X65293Y-38938D02*
X65300Y-39000D01*
X73018Y-42170D02*
X73018Y-40970D01*
X73018Y-40970D02*
X73618Y-40970D01*
X73618Y-40970D02*
X73618Y-42170D01*
X73618Y-42170D02*
X73018Y-42170D01*
X73688Y-40180D02*
X73688Y-38980D01*
X73688Y-38980D02*
X74288Y-38980D01*
X74288Y-38980D02*
X74288Y-40180D01*
X74288Y-40180D02*
X73688Y-40180D01*
X74358Y-42170D02*
X74358Y-40970D01*
X74358Y-40970D02*
X74958Y-40970D01*
X74958Y-40970D02*
X74958Y-42170D01*
X74958Y-42170D02*
X74358Y-42170D01*
X75028Y-40180D02*
X75028Y-38980D01*
X75028Y-38980D02*
X75628Y-38980D01*
X75628Y-38980D02*
X75628Y-40180D01*
X75628Y-40180D02*
X75028Y-40180D01*
X75698Y-42170D02*
X75698Y-40970D01*
X75698Y-40970D02*
X76298Y-40970D01*
X76298Y-40970D02*
X76298Y-42170D01*
X76298Y-42170D02*
X75698Y-42170D01*
X76367Y-40180D02*
X76367Y-38980D01*
X76367Y-38980D02*
X76967Y-38980D01*
X76967Y-38980D02*
X76967Y-40180D01*
X76967Y-40180D02*
X76367Y-40180D01*
X77037Y-42170D02*
X77037Y-40970D01*
X77037Y-40970D02*
X77637Y-40970D01*
X77637Y-40970D02*
X77637Y-42170D01*
X77637Y-42170D02*
X77037Y-42170D01*
X77707Y-40180D02*
X77707Y-38980D01*
X77707Y-38980D02*
X78307Y-38980D01*
X78307Y-38980D02*
X78307Y-40180D01*
X78307Y-40180D02*
X77707Y-40180D01*
X78377Y-42170D02*
X78377Y-40970D01*
X78377Y-40970D02*
X78977Y-40970D01*
X78977Y-40970D02*
X78977Y-42170D01*
X78977Y-42170D02*
X78377Y-42170D01*
X79047Y-40180D02*
X79047Y-38980D01*
X79047Y-38980D02*
X79647Y-38980D01*
X79647Y-38980D02*
X79647Y-40180D01*
X79647Y-40180D02*
X79047Y-40180D01*
X79717Y-42170D02*
X79717Y-40970D01*
X79717Y-40970D02*
X80317Y-40970D01*
X80317Y-40970D02*
X80317Y-42170D01*
X80317Y-42170D02*
X79717Y-42170D01*
X78275Y-44500D02*
X78268Y-44557D01*
X78268Y-44557D02*
X78251Y-44611D01*
X78251Y-44611D02*
X78222Y-44661D01*
X78222Y-44661D02*
X78184Y-44704D01*
X78184Y-44704D02*
X78137Y-44738D01*
X78137Y-44738D02*
X78084Y-44761D01*
X78084Y-44761D02*
X78028Y-44773D01*
X78028Y-44773D02*
X77972Y-44773D01*
X77972Y-44773D02*
X77916Y-44761D01*
X77916Y-44761D02*
X77863Y-44738D01*
X77863Y-44738D02*
X77816Y-44704D01*
X77816Y-44704D02*
X77778Y-44661D01*
X77778Y-44661D02*
X77749Y-44611D01*
X77749Y-44611D02*
X77732Y-44557D01*
X77732Y-44557D02*
X77725Y-44500D01*
X77725Y-44500D02*
X77732Y-44443D01*
X77732Y-44443D02*
X77749Y-44389D01*
X77749Y-44389D02*
X77778Y-44339D01*
X77778Y-44339D02*
X77816Y-44296D01*
X77816Y-44296D02*
X77863Y-44262D01*
X77863Y-44262D02*
X77916Y-44239D01*
X77916Y-44239D02*
X77972Y-44227D01*
X77972Y-44227D02*
X78028Y-44227D01*
X78028Y-44227D02*
X78084Y-44239D01*
X78084Y-44239D02*
X78137Y-44262D01*
X78137Y-44262D02*
X78184Y-44296D01*
X78184Y-44296D02*
X78222Y-44339D01*
X78222Y-44339D02*
X78251Y-44389D01*
X78251Y-44389D02*
X78268Y-44443D01*
X78268Y-44443D02*
X78275Y-44500D01*
X81275Y-44500D02*
X81268Y-44557D01*
X81268Y-44557D02*
X81251Y-44611D01*
X81251Y-44611D02*
X81222Y-44661D01*
X81222Y-44661D02*
X81184Y-44704D01*
X81184Y-44704D02*
X81137Y-44738D01*
X81137Y-44738D02*
X81084Y-44761D01*
X81084Y-44761D02*
X81028Y-44773D01*
X81028Y-44773D02*
X80972Y-44773D01*
X80972Y-44773D02*
X80916Y-44761D01*
X80916Y-44761D02*
X80863Y-44738D01*
X80863Y-44738D02*
X80816Y-44704D01*
X80816Y-44704D02*
X80778Y-44661D01*
X80778Y-44661D02*
X80749Y-44611D01*
X80749Y-44611D02*
X80732Y-44557D01*
X80732Y-44557D02*
X80725Y-44500D01*
X80725Y-44500D02*
X80732Y-44443D01*
X80732Y-44443D02*
X80749Y-44389D01*
X80749Y-44389D02*
X80778Y-44339D01*
X80778Y-44339D02*
X80816Y-44296D01*
X80816Y-44296D02*
X80863Y-44262D01*
X80863Y-44262D02*
X80916Y-44239D01*
X80916Y-44239D02*
X80972Y-44227D01*
X80972Y-44227D02*
X81028Y-44227D01*
X81028Y-44227D02*
X81084Y-44239D01*
X81084Y-44239D02*
X81137Y-44262D01*
X81137Y-44262D02*
X81184Y-44296D01*
X81184Y-44296D02*
X81222Y-44339D01*
X81222Y-44339D02*
X81251Y-44389D01*
X81251Y-44389D02*
X81268Y-44443D01*
X81268Y-44443D02*
X81275Y-44500D01*
X76275Y-43500D02*
X76268Y-43557D01*
X76268Y-43557D02*
X76251Y-43611D01*
X76251Y-43611D02*
X76222Y-43661D01*
X76222Y-43661D02*
X76184Y-43704D01*
X76184Y-43704D02*
X76137Y-43738D01*
X76137Y-43738D02*
X76084Y-43761D01*
X76084Y-43761D02*
X76028Y-43773D01*
X76028Y-43773D02*
X75972Y-43773D01*
X75972Y-43773D02*
X75916Y-43761D01*
X75916Y-43761D02*
X75863Y-43738D01*
X75863Y-43738D02*
X75816Y-43704D01*
X75816Y-43704D02*
X75778Y-43661D01*
X75778Y-43661D02*
X75749Y-43611D01*
X75749Y-43611D02*
X75732Y-43557D01*
X75732Y-43557D02*
X75725Y-43500D01*
X75725Y-43500D02*
X75732Y-43443D01*
X75732Y-43443D02*
X75749Y-43389D01*
X75749Y-43389D02*
X75778Y-43339D01*
X75778Y-43339D02*
X75816Y-43296D01*
X75816Y-43296D02*
X75863Y-43262D01*
X75863Y-43262D02*
X75916Y-43239D01*
X75916Y-43239D02*
X75972Y-43227D01*
X75972Y-43227D02*
X76028Y-43227D01*
X76028Y-43227D02*
X76084Y-43239D01*
X76084Y-43239D02*
X76137Y-43262D01*
X76137Y-43262D02*
X76184Y-43296D01*
X76184Y-43296D02*
X76222Y-43339D01*
X76222Y-43339D02*
X76251Y-43389D01*
X76251Y-43389D02*
X76268Y-43443D01*
X76268Y-43443D02*
X76275Y-43500D01*
X79275Y-43500D02*
X79268Y-43557D01*
X79268Y-43557D02*
X79251Y-43611D01*
X79251Y-43611D02*
X79222Y-43661D01*
X79222Y-43661D02*
X79184Y-43704D01*
X79184Y-43704D02*
X79137Y-43738D01*
X79137Y-43738D02*
X79084Y-43761D01*
X79084Y-43761D02*
X79028Y-43773D01*
X79028Y-43773D02*
X78972Y-43773D01*
X78972Y-43773D02*
X78916Y-43761D01*
X78916Y-43761D02*
X78863Y-43738D01*
X78863Y-43738D02*
X78816Y-43704D01*
X78816Y-43704D02*
X78778Y-43661D01*
X78778Y-43661D02*
X78749Y-43611D01*
X78749Y-43611D02*
X78732Y-43557D01*
X78732Y-43557D02*
X78725Y-43500D01*
X78725Y-43500D02*
X78732Y-43443D01*
X78732Y-43443D02*
X78749Y-43389D01*
X78749Y-43389D02*
X78778Y-43339D01*
X78778Y-43339D02*
X78816Y-43296D01*
X78816Y-43296D02*
X78863Y-43262D01*
X78863Y-43262D02*
X78916Y-43239D01*
X78916Y-43239D02*
X78972Y-43227D01*
X78972Y-43227D02*
X79028Y-43227D01*
X79028Y-43227D02*
X79084Y-43239D01*
X79084Y-43239D02*
X79137Y-43262D01*
X79137Y-43262D02*
X79184Y-43296D01*
X79184Y-43296D02*
X79222Y-43339D01*
X79222Y-43339D02*
X79251Y-43389D01*
X79251Y-43389D02*
X79268Y-43443D01*
X79268Y-43443D02*
X79275Y-43500D01*
X70275Y-51500D02*
X70268Y-51557D01*
X70268Y-51557D02*
X70251Y-51611D01*
X70251Y-51611D02*
X70222Y-51661D01*
X70222Y-51661D02*
X70184Y-51704D01*
X70184Y-51704D02*
X70137Y-51738D01*
X70137Y-51738D02*
X70084Y-51761D01*
X70084Y-51761D02*
X70028Y-51773D01*
X70028Y-51773D02*
X69972Y-51773D01*
X69972Y-51773D02*
X69916Y-51761D01*
X69916Y-51761D02*
X69863Y-51738D01*
X69863Y-51738D02*
X69816Y-51704D01*
X69816Y-51704D02*
X69778Y-51661D01*
X69778Y-51661D02*
X69749Y-51611D01*
X69749Y-51611D02*
X69732Y-51557D01*
X69732Y-51557D02*
X69725Y-51500D01*
X69725Y-51500D02*
X69732Y-51443D01*
X69732Y-51443D02*
X69749Y-51389D01*
X69749Y-51389D02*
X69778Y-51339D01*
X69778Y-51339D02*
X69816Y-51296D01*
X69816Y-51296D02*
X69863Y-51262D01*
X69863Y-51262D02*
X69916Y-51239D01*
X69916Y-51239D02*
X69972Y-51227D01*
X69972Y-51227D02*
X70028Y-51227D01*
X70028Y-51227D02*
X70084Y-51239D01*
X70084Y-51239D02*
X70137Y-51262D01*
X70137Y-51262D02*
X70184Y-51296D01*
X70184Y-51296D02*
X70222Y-51339D01*
X70222Y-51339D02*
X70251Y-51389D01*
X70251Y-51389D02*
X70268Y-51443D01*
X70268Y-51443D02*
X70275Y-51500D01*
X67275Y-51500D02*
X67268Y-51557D01*
X67268Y-51557D02*
X67251Y-51611D01*
X67251Y-51611D02*
X67222Y-51661D01*
X67222Y-51661D02*
X67184Y-51704D01*
X67184Y-51704D02*
X67137Y-51738D01*
X67137Y-51738D02*
X67084Y-51761D01*
X67084Y-51761D02*
X67028Y-51773D01*
X67028Y-51773D02*
X66972Y-51773D01*
X66972Y-51773D02*
X66916Y-51761D01*
X66916Y-51761D02*
X66863Y-51738D01*
X66863Y-51738D02*
X66816Y-51704D01*
X66816Y-51704D02*
X66778Y-51661D01*
X66778Y-51661D02*
X66749Y-51611D01*
X66749Y-51611D02*
X66732Y-51557D01*
X66732Y-51557D02*
X66725Y-51500D01*
X66725Y-51500D02*
X66732Y-51443D01*
X66732Y-51443D02*
X66749Y-51389D01*
X66749Y-51389D02*
X66778Y-51339D01*
X66778Y-51339D02*
X66816Y-51296D01*
X66816Y-51296D02*
X66863Y-51262D01*
X66863Y-51262D02*
X66916Y-51239D01*
X66916Y-51239D02*
X66972Y-51227D01*
X66972Y-51227D02*
X67028Y-51227D01*
X67028Y-51227D02*
X67084Y-51239D01*
X67084Y-51239D02*
X67137Y-51262D01*
X67137Y-51262D02*
X67184Y-51296D01*
X67184Y-51296D02*
X67222Y-51339D01*
X67222Y-51339D02*
X67251Y-51389D01*
X67251Y-51389D02*
X67268Y-51443D01*
X67268Y-51443D02*
X67275Y-51500D01*
X72275Y-51500D02*
X72268Y-51557D01*
X72268Y-51557D02*
X72251Y-51611D01*
X72251Y-51611D02*
X72222Y-51661D01*
X72222Y-51661D02*
X72184Y-51704D01*
X72184Y-51704D02*
X72137Y-51738D01*
X72137Y-51738D02*
X72084Y-51761D01*
X72084Y-51761D02*
X72028Y-51773D01*
X72028Y-51773D02*
X71972Y-51773D01*
X71972Y-51773D02*
X71916Y-51761D01*
X71916Y-51761D02*
X71863Y-51738D01*
X71863Y-51738D02*
X71816Y-51704D01*
X71816Y-51704D02*
X71778Y-51661D01*
X71778Y-51661D02*
X71749Y-51611D01*
X71749Y-51611D02*
X71732Y-51557D01*
X71732Y-51557D02*
X71725Y-51500D01*
X71725Y-51500D02*
X71732Y-51443D01*
X71732Y-51443D02*
X71749Y-51389D01*
X71749Y-51389D02*
X71778Y-51339D01*
X71778Y-51339D02*
X71816Y-51296D01*
X71816Y-51296D02*
X71863Y-51262D01*
X71863Y-51262D02*
X71916Y-51239D01*
X71916Y-51239D02*
X71972Y-51227D01*
X71972Y-51227D02*
X72028Y-51227D01*
X72028Y-51227D02*
X72084Y-51239D01*
X72084Y-51239D02*
X72137Y-51262D01*
X72137Y-51262D02*
X72184Y-51296D01*
X72184Y-51296D02*
X72222Y-51339D01*
X72222Y-51339D02*
X72251Y-51389D01*
X72251Y-51389D02*
X72268Y-51443D01*
X72268Y-51443D02*
X72275Y-51500D01*
X75275Y-51500D02*
X75268Y-51557D01*
X75268Y-51557D02*
X75251Y-51611D01*
X75251Y-51611D02*
X75222Y-51661D01*
X75222Y-51661D02*
X75184Y-51704D01*
X75184Y-51704D02*
X75137Y-51738D01*
X75137Y-51738D02*
X75084Y-51761D01*
X75084Y-51761D02*
X75028Y-51773D01*
X75028Y-51773D02*
X74972Y-51773D01*
X74972Y-51773D02*
X74916Y-51761D01*
X74916Y-51761D02*
X74863Y-51738D01*
X74863Y-51738D02*
X74816Y-51704D01*
X74816Y-51704D02*
X74778Y-51661D01*
X74778Y-51661D02*
X74749Y-51611D01*
X74749Y-51611D02*
X74732Y-51557D01*
X74732Y-51557D02*
X74725Y-51500D01*
X74725Y-51500D02*
X74732Y-51443D01*
X74732Y-51443D02*
X74749Y-51389D01*
X74749Y-51389D02*
X74778Y-51339D01*
X74778Y-51339D02*
X74816Y-51296D01*
X74816Y-51296D02*
X74863Y-51262D01*
X74863Y-51262D02*
X74916Y-51239D01*
X74916Y-51239D02*
X74972Y-51227D01*
X74972Y-51227D02*
X75028Y-51227D01*
X75028Y-51227D02*
X75084Y-51239D01*
X75084Y-51239D02*
X75137Y-51262D01*
X75137Y-51262D02*
X75184Y-51296D01*
X75184Y-51296D02*
X75222Y-51339D01*
X75222Y-51339D02*
X75251Y-51389D01*
X75251Y-51389D02*
X75268Y-51443D01*
X75268Y-51443D02*
X75275Y-51500D01*
X68275Y-45500D02*
X68268Y-45557D01*
X68268Y-45557D02*
X68251Y-45611D01*
X68251Y-45611D02*
X68222Y-45661D01*
X68222Y-45661D02*
X68184Y-45704D01*
X68184Y-45704D02*
X68137Y-45738D01*
X68137Y-45738D02*
X68084Y-45761D01*
X68084Y-45761D02*
X68028Y-45773D01*
X68028Y-45773D02*
X67972Y-45773D01*
X67972Y-45773D02*
X67916Y-45761D01*
X67916Y-45761D02*
X67863Y-45738D01*
X67863Y-45738D02*
X67816Y-45704D01*
X67816Y-45704D02*
X67778Y-45661D01*
X67778Y-45661D02*
X67749Y-45611D01*
X67749Y-45611D02*
X67732Y-45557D01*
X67732Y-45557D02*
X67725Y-45500D01*
X67725Y-45500D02*
X67732Y-45443D01*
X67732Y-45443D02*
X67749Y-45389D01*
X67749Y-45389D02*
X67778Y-45339D01*
X67778Y-45339D02*
X67816Y-45296D01*
X67816Y-45296D02*
X67863Y-45262D01*
X67863Y-45262D02*
X67916Y-45239D01*
X67916Y-45239D02*
X67972Y-45227D01*
X67972Y-45227D02*
X68028Y-45227D01*
X68028Y-45227D02*
X68084Y-45239D01*
X68084Y-45239D02*
X68137Y-45262D01*
X68137Y-45262D02*
X68184Y-45296D01*
X68184Y-45296D02*
X68222Y-45339D01*
X68222Y-45339D02*
X68251Y-45389D01*
X68251Y-45389D02*
X68268Y-45443D01*
X68268Y-45443D02*
X68275Y-45500D01*
X71275Y-45500D02*
X71268Y-45557D01*
X71268Y-45557D02*
X71251Y-45611D01*
X71251Y-45611D02*
X71222Y-45661D01*
X71222Y-45661D02*
X71184Y-45704D01*
X71184Y-45704D02*
X71137Y-45738D01*
X71137Y-45738D02*
X71084Y-45761D01*
X71084Y-45761D02*
X71028Y-45773D01*
X71028Y-45773D02*
X70972Y-45773D01*
X70972Y-45773D02*
X70916Y-45761D01*
X70916Y-45761D02*
X70863Y-45738D01*
X70863Y-45738D02*
X70816Y-45704D01*
X70816Y-45704D02*
X70778Y-45661D01*
X70778Y-45661D02*
X70749Y-45611D01*
X70749Y-45611D02*
X70732Y-45557D01*
X70732Y-45557D02*
X70725Y-45500D01*
X70725Y-45500D02*
X70732Y-45443D01*
X70732Y-45443D02*
X70749Y-45389D01*
X70749Y-45389D02*
X70778Y-45339D01*
X70778Y-45339D02*
X70816Y-45296D01*
X70816Y-45296D02*
X70863Y-45262D01*
X70863Y-45262D02*
X70916Y-45239D01*
X70916Y-45239D02*
X70972Y-45227D01*
X70972Y-45227D02*
X71028Y-45227D01*
X71028Y-45227D02*
X71084Y-45239D01*
X71084Y-45239D02*
X71137Y-45262D01*
X71137Y-45262D02*
X71184Y-45296D01*
X71184Y-45296D02*
X71222Y-45339D01*
X71222Y-45339D02*
X71251Y-45389D01*
X71251Y-45389D02*
X71268Y-45443D01*
X71268Y-45443D02*
X71275Y-45500D01*
X72275Y-52500D02*
X72268Y-52557D01*
X72268Y-52557D02*
X72251Y-52611D01*
X72251Y-52611D02*
X72222Y-52661D01*
X72222Y-52661D02*
X72184Y-52704D01*
X72184Y-52704D02*
X72137Y-52738D01*
X72137Y-52738D02*
X72084Y-52761D01*
X72084Y-52761D02*
X72028Y-52773D01*
X72028Y-52773D02*
X71972Y-52773D01*
X71972Y-52773D02*
X71916Y-52761D01*
X71916Y-52761D02*
X71863Y-52738D01*
X71863Y-52738D02*
X71816Y-52704D01*
X71816Y-52704D02*
X71778Y-52661D01*
X71778Y-52661D02*
X71749Y-52611D01*
X71749Y-52611D02*
X71732Y-52557D01*
X71732Y-52557D02*
X71725Y-52500D01*
X71725Y-52500D02*
X71732Y-52443D01*
X71732Y-52443D02*
X71749Y-52389D01*
X71749Y-52389D02*
X71778Y-52339D01*
X71778Y-52339D02*
X71816Y-52296D01*
X71816Y-52296D02*
X71863Y-52262D01*
X71863Y-52262D02*
X71916Y-52239D01*
X71916Y-52239D02*
X71972Y-52227D01*
X71972Y-52227D02*
X72028Y-52227D01*
X72028Y-52227D02*
X72084Y-52239D01*
X72084Y-52239D02*
X72137Y-52262D01*
X72137Y-52262D02*
X72184Y-52296D01*
X72184Y-52296D02*
X72222Y-52339D01*
X72222Y-52339D02*
X72251Y-52389D01*
X72251Y-52389D02*
X72268Y-52443D01*
X72268Y-52443D02*
X72275Y-52500D01*
X75275Y-52500D02*
X75268Y-52557D01*
X75268Y-52557D02*
X75251Y-52611D01*
X75251Y-52611D02*
X75222Y-52661D01*
X75222Y-52661D02*
X75184Y-52704D01*
X75184Y-52704D02*
X75137Y-52738D01*
X75137Y-52738D02*
X75084Y-52761D01*
X75084Y-52761D02*
X75028Y-52773D01*
X75028Y-52773D02*
X74972Y-52773D01*
X74972Y-52773D02*
X74916Y-52761D01*
X74916Y-52761D02*
X74863Y-52738D01*
X74863Y-52738D02*
X74816Y-52704D01*
X74816Y-52704D02*
X74778Y-52661D01*
X74778Y-52661D02*
X74749Y-52611D01*
X74749Y-52611D02*
X74732Y-52557D01*
X74732Y-52557D02*
X74725Y-52500D01*
X74725Y-52500D02*
X74732Y-52443D01*
X74732Y-52443D02*
X74749Y-52389D01*
X74749Y-52389D02*
X74778Y-52339D01*
X74778Y-52339D02*
X74816Y-52296D01*
X74816Y-52296D02*
X74863Y-52262D01*
X74863Y-52262D02*
X74916Y-52239D01*
X74916Y-52239D02*
X74972Y-52227D01*
X74972Y-52227D02*
X75028Y-52227D01*
X75028Y-52227D02*
X75084Y-52239D01*
X75084Y-52239D02*
X75137Y-52262D01*
X75137Y-52262D02*
X75184Y-52296D01*
X75184Y-52296D02*
X75222Y-52339D01*
X75222Y-52339D02*
X75251Y-52389D01*
X75251Y-52389D02*
X75268Y-52443D01*
X75268Y-52443D02*
X75275Y-52500D01*
G54D24*
X70504Y-48700D02*
X70504Y-49234D01*
X70504Y-49234D02*
X70560Y-49300D01*
X70560Y-49300D02*
X70841Y-49300D01*
X70841Y-49300D02*
X70898Y-49234D01*
X70898Y-49234D02*
X70898Y-48700D01*
X71236Y-49300D02*
X71461Y-49300D01*
X71349Y-49300D02*
X71349Y-48700D01*
X71349Y-48767D02*
X71236Y-48900D01*
X67665Y-48300D02*
X67665Y-47700D01*
X67665Y-47700D02*
X67384Y-48167D01*
X67384Y-48167D02*
X67778Y-48167D01*
X68004Y-48300D02*
X68398Y-47700D01*
X68004Y-48234D02*
X68004Y-47767D01*
X68004Y-47767D02*
X68060Y-47700D01*
X68060Y-47700D02*
X68341Y-47700D01*
X68341Y-47700D02*
X68398Y-47767D01*
X68398Y-47767D02*
X68398Y-48234D01*
X68398Y-48234D02*
X68341Y-48300D01*
X68341Y-48300D02*
X68060Y-48300D01*
X68060Y-48300D02*
X68004Y-48234D01*
X68624Y-47700D02*
X69018Y-47700D01*
X69018Y-47700D02*
X68624Y-48300D01*
X69244Y-48300D02*
X69638Y-47700D01*
X69244Y-48234D02*
X69244Y-47767D01*
X69244Y-47767D02*
X69300Y-47700D01*
X69300Y-47700D02*
X69581Y-47700D01*
X69581Y-47700D02*
X69638Y-47767D01*
X69638Y-47767D02*
X69638Y-48234D01*
X69638Y-48234D02*
X69581Y-48300D01*
X69581Y-48300D02*
X69300Y-48300D01*
X69300Y-48300D02*
X69244Y-48234D01*
X74750Y-48300D02*
X74975Y-48300D01*
X74863Y-48300D02*
X74863Y-47700D01*
X74750Y-47700D02*
X74975Y-47700D01*
X75708Y-48234D02*
X75651Y-48300D01*
X75651Y-48300D02*
X75370Y-48300D01*
X75370Y-48300D02*
X75314Y-48234D01*
X75314Y-48234D02*
X75314Y-47767D01*
X75314Y-47767D02*
X75370Y-47700D01*
X75370Y-47700D02*
X75651Y-47700D01*
X75651Y-47700D02*
X75708Y-47767D01*
X76046Y-48300D02*
X76271Y-48300D01*
X76159Y-48300D02*
X76159Y-47700D01*
X76159Y-47767D02*
X76046Y-47900D01*
X76454Y-48700D02*
X76454Y-49300D01*
X76454Y-49300D02*
X76904Y-49300D01*
X77074Y-49300D02*
X77074Y-48700D01*
X77074Y-48700D02*
X77299Y-48967D01*
X77299Y-48967D02*
X77524Y-48700D01*
X77524Y-48700D02*
X77524Y-49300D01*
X77694Y-48700D02*
X78088Y-48700D01*
X78088Y-48700D02*
X78088Y-48767D01*
X78088Y-48767D02*
X77863Y-48967D01*
X77863Y-48967D02*
X78031Y-48967D01*
X78031Y-48967D02*
X78088Y-49034D01*
X78088Y-49034D02*
X78088Y-49234D01*
X78088Y-49234D02*
X78031Y-49300D01*
X78031Y-49300D02*
X77750Y-49300D01*
X77750Y-49300D02*
X77694Y-49234D01*
X78314Y-49167D02*
X78314Y-49234D01*
X78314Y-49234D02*
X78370Y-49300D01*
X78370Y-49300D02*
X78651Y-49300D01*
X78651Y-49300D02*
X78708Y-49234D01*
X78708Y-49234D02*
X78708Y-49034D01*
X78708Y-49034D02*
X78595Y-48900D01*
X78595Y-48900D02*
X78314Y-48900D01*
X78314Y-48900D02*
X78314Y-48700D01*
X78314Y-48700D02*
X78708Y-48700D01*
X79328Y-49300D02*
X78934Y-49300D01*
X78934Y-49300D02*
X78934Y-49100D01*
X78934Y-49100D02*
X78990Y-49034D01*
X78990Y-49034D02*
X79271Y-49034D01*
X79271Y-49034D02*
X79328Y-48967D01*
X79328Y-48967D02*
X79328Y-48767D01*
X79328Y-48767D02*
X79271Y-48700D01*
X79271Y-48700D02*
X78990Y-48700D01*
X78990Y-48700D02*
X78934Y-48767D01*
X79835Y-49300D02*
X79835Y-48700D01*
X79835Y-48700D02*
X79554Y-49167D01*
X79554Y-49167D02*
X79948Y-49167D01*
X80230Y-49300D02*
X80230Y-48700D01*
X80174Y-48700D02*
X80511Y-48700D01*
X80511Y-48700D02*
X80568Y-48767D01*
X80568Y-48767D02*
X80568Y-49234D01*
X80568Y-49234D02*
X80511Y-49300D01*
X80511Y-49300D02*
X80174Y-49300D01*
X63234Y-55017D02*
X63300Y-54942D01*
X63300Y-54942D02*
X63300Y-54567D01*
X63300Y-54567D02*
X63234Y-54492D01*
X63234Y-54492D02*
X63034Y-54492D01*
X63034Y-54492D02*
X62967Y-54567D01*
X62967Y-54567D02*
X62967Y-54942D01*
X62967Y-54942D02*
X62900Y-55017D01*
X62900Y-55017D02*
X62767Y-55017D01*
X62767Y-55017D02*
X62700Y-54942D01*
X62700Y-54942D02*
X62700Y-54567D01*
X62700Y-54567D02*
X62767Y-54492D01*
X62700Y-54231D02*
X63300Y-54081D01*
X63300Y-54081D02*
X63100Y-53931D01*
X63100Y-53931D02*
X63300Y-53781D01*
X63300Y-53781D02*
X62700Y-53631D01*
X63300Y-52920D02*
X63300Y-53445D01*
X63300Y-53445D02*
X63100Y-53445D01*
X63100Y-53445D02*
X63034Y-53370D01*
X63034Y-53370D02*
X63034Y-52995D01*
X63034Y-52995D02*
X62967Y-52920D01*
X62967Y-52920D02*
X62767Y-52920D01*
X62767Y-52920D02*
X62700Y-52995D01*
X62700Y-52995D02*
X62700Y-53370D01*
X62700Y-53370D02*
X62767Y-53445D01*
X67300Y-54231D02*
X66700Y-54231D01*
X67300Y-53706D02*
X66700Y-53706D01*
X67034Y-54231D02*
X67034Y-53706D01*
X67983Y-52734D02*
X68058Y-52800D01*
X68058Y-52800D02*
X68433Y-52800D01*
X68433Y-52800D02*
X68508Y-52734D01*
X68508Y-52734D02*
X68508Y-52534D01*
X68508Y-52534D02*
X68433Y-52467D01*
X68433Y-52467D02*
X68058Y-52467D01*
X68058Y-52467D02*
X67983Y-52400D01*
X67983Y-52400D02*
X67983Y-52267D01*
X67983Y-52267D02*
X68058Y-52200D01*
X68058Y-52200D02*
X68433Y-52200D01*
X68433Y-52200D02*
X68508Y-52267D01*
X68769Y-52200D02*
X68919Y-52800D01*
X68919Y-52800D02*
X69069Y-52600D01*
X69069Y-52600D02*
X69219Y-52800D01*
X69219Y-52800D02*
X69369Y-52200D01*
X69705Y-52800D02*
X70005Y-52800D01*
X69855Y-52800D02*
X69855Y-52200D01*
X69855Y-52267D02*
X69705Y-52400D01*
X66150Y-56200D02*
X66150Y-56800D01*
X66150Y-56800D02*
X65700Y-56800D01*
X65700Y-56800D02*
X65625Y-56734D01*
X65625Y-56734D02*
X65625Y-56467D01*
X65625Y-56467D02*
X65700Y-56400D01*
X65700Y-56400D02*
X66150Y-56400D01*
X66636Y-56200D02*
X66636Y-56267D01*
X66636Y-56467D02*
X66636Y-56734D01*
X66636Y-56734D02*
X66711Y-56800D01*
X66711Y-56800D02*
X66786Y-56800D01*
X67197Y-56800D02*
X67197Y-56400D01*
X67197Y-56534D02*
X67347Y-56400D01*
X67347Y-56400D02*
X67572Y-56400D01*
X67572Y-56400D02*
X67722Y-56534D01*
X67983Y-56600D02*
X68508Y-56600D01*
X68508Y-56600D02*
X68508Y-56467D01*
X68508Y-56467D02*
X68433Y-56400D01*
X68433Y-56400D02*
X68058Y-56400D01*
X68058Y-56400D02*
X67983Y-56467D01*
X67983Y-56467D02*
X67983Y-56734D01*
X67983Y-56734D02*
X68058Y-56800D01*
X68058Y-56800D02*
X68433Y-56800D01*
X68433Y-56800D02*
X68508Y-56734D01*
X69294Y-56734D02*
X69219Y-56800D01*
X69219Y-56800D02*
X68844Y-56800D01*
X68844Y-56800D02*
X68769Y-56734D01*
X68769Y-56734D02*
X68769Y-56467D01*
X68769Y-56467D02*
X68844Y-56400D01*
X68844Y-56400D02*
X69219Y-56400D01*
X69219Y-56400D02*
X69294Y-56467D01*
X70080Y-56734D02*
X70005Y-56800D01*
X70005Y-56800D02*
X69630Y-56800D01*
X69630Y-56800D02*
X69555Y-56734D01*
X69555Y-56734D02*
X69555Y-56467D01*
X69555Y-56467D02*
X69630Y-56400D01*
X69630Y-56400D02*
X70005Y-56400D01*
X70005Y-56400D02*
X70080Y-56467D01*
X70566Y-56200D02*
X70566Y-56267D01*
X70566Y-56467D02*
X70566Y-56734D01*
X70566Y-56734D02*
X70641Y-56800D01*
X70641Y-56800D02*
X70716Y-56800D01*
X71202Y-56800D02*
X71127Y-56734D01*
X71127Y-56734D02*
X71127Y-56467D01*
X71127Y-56467D02*
X71202Y-56400D01*
X71202Y-56400D02*
X71577Y-56400D01*
X71577Y-56400D02*
X71652Y-56467D01*
X71652Y-56467D02*
X71652Y-56734D01*
X71652Y-56734D02*
X71577Y-56800D01*
X71577Y-56800D02*
X71202Y-56800D01*
X71913Y-56800D02*
X71913Y-56400D01*
X71913Y-56467D02*
X71988Y-56400D01*
X71988Y-56400D02*
X72288Y-56400D01*
X72288Y-56400D02*
X72363Y-56467D01*
X72363Y-56467D02*
X72363Y-56800D01*
X66300Y-38624D02*
X65700Y-38624D01*
X65700Y-38624D02*
X65700Y-38174D01*
X65700Y-38174D02*
X65767Y-38099D01*
X65767Y-38099D02*
X65967Y-38099D01*
X65967Y-38099D02*
X66034Y-38174D01*
X66034Y-38174D02*
X66034Y-38624D01*
X66300Y-37688D02*
X66300Y-37388D01*
X66300Y-37538D02*
X65700Y-37538D01*
X65767Y-37538D02*
X65900Y-37688D01*
X70300Y-39803D02*
X69700Y-39803D01*
X69700Y-39803D02*
X69967Y-39503D01*
X69967Y-39503D02*
X69700Y-39203D01*
X69700Y-39203D02*
X70300Y-39203D01*
X70300Y-38942D02*
X70234Y-39017D01*
X70234Y-39017D02*
X69767Y-39017D01*
X69767Y-39017D02*
X69700Y-38942D01*
X69700Y-38942D02*
X69700Y-38567D01*
X69700Y-38567D02*
X69767Y-38492D01*
X69767Y-38492D02*
X70234Y-38492D01*
X70234Y-38492D02*
X70300Y-38567D01*
X70300Y-38567D02*
X70300Y-38942D01*
X69700Y-38231D02*
X69700Y-37631D01*
X69700Y-37931D02*
X70300Y-37931D01*
X70300Y-37370D02*
X70234Y-37445D01*
X70234Y-37445D02*
X69767Y-37445D01*
X69767Y-37445D02*
X69700Y-37370D01*
X69700Y-37370D02*
X69700Y-36995D01*
X69700Y-36995D02*
X69767Y-36920D01*
X69767Y-36920D02*
X70234Y-36920D01*
X70234Y-36920D02*
X70300Y-36995D01*
X70300Y-36995D02*
X70300Y-37370D01*
X70300Y-36659D02*
X69700Y-36659D01*
X69700Y-36659D02*
X69700Y-36209D01*
X69700Y-36209D02*
X69767Y-36134D01*
X69767Y-36134D02*
X69967Y-36134D01*
X69967Y-36134D02*
X70034Y-36209D01*
X70034Y-36209D02*
X70034Y-36659D01*
X70034Y-36434D02*
X70300Y-36134D01*
X73483Y-52800D02*
X73483Y-52200D01*
X73483Y-52200D02*
X73933Y-52200D01*
X73933Y-52200D02*
X74008Y-52267D01*
X74008Y-52267D02*
X74008Y-52467D01*
X74008Y-52467D02*
X73933Y-52534D01*
X73933Y-52534D02*
X73483Y-52534D01*
X73708Y-52534D02*
X74008Y-52800D01*
X74269Y-52200D02*
X74569Y-52800D01*
X74569Y-52800D02*
X74869Y-52200D01*
X75580Y-52800D02*
X75055Y-52800D01*
X75055Y-52800D02*
X75055Y-52600D01*
X75055Y-52600D02*
X75130Y-52534D01*
X75130Y-52534D02*
X75505Y-52534D01*
X75505Y-52534D02*
X75580Y-52467D01*
X75580Y-52467D02*
X75580Y-52267D01*
X75580Y-52267D02*
X75505Y-52200D01*
X75505Y-52200D02*
X75130Y-52200D01*
X75130Y-52200D02*
X75055Y-52267D01*
X74026Y-56800D02*
X74326Y-56800D01*
X74176Y-56800D02*
X74176Y-56200D01*
X74176Y-56267D02*
X74026Y-56400D01*
X74737Y-56800D02*
X74737Y-56200D01*
X74737Y-56600D02*
X74812Y-56600D01*
X74812Y-56600D02*
X75187Y-56400D01*
X74812Y-56600D02*
X75187Y-56800D01*
X79983Y-52800D02*
X79983Y-52200D01*
X79983Y-52200D02*
X80433Y-52200D01*
X80433Y-52200D02*
X80508Y-52267D01*
X80508Y-52267D02*
X80508Y-52467D01*
X80508Y-52467D02*
X80433Y-52534D01*
X80433Y-52534D02*
X79983Y-52534D01*
X80208Y-52534D02*
X80508Y-52800D01*
X80769Y-52200D02*
X81069Y-52800D01*
X81069Y-52800D02*
X81369Y-52200D01*
X81705Y-52800D02*
X82005Y-52800D01*
X81855Y-52800D02*
X81855Y-52200D01*
X81855Y-52267D02*
X81705Y-52400D01*
X80376Y-56667D02*
X80376Y-56734D01*
X80376Y-56734D02*
X80451Y-56800D01*
X80451Y-56800D02*
X80826Y-56800D01*
X80826Y-56800D02*
X80901Y-56734D01*
X80901Y-56734D02*
X80901Y-56534D01*
X80901Y-56534D02*
X80751Y-56400D01*
X80751Y-56400D02*
X80376Y-56400D01*
X80376Y-56400D02*
X80376Y-56200D01*
X80376Y-56200D02*
X80901Y-56200D01*
X81237Y-56800D02*
X81237Y-56200D01*
X81237Y-56600D02*
X81312Y-56600D01*
X81312Y-56600D02*
X81687Y-56400D01*
X81312Y-56600D02*
X81687Y-56800D01*
X65376Y-41800D02*
X65376Y-41200D01*
X65826Y-41200D02*
X65376Y-41467D01*
X65376Y-41467D02*
X65901Y-41800D01*
X66312Y-41800D02*
X66612Y-41800D01*
X66462Y-41800D02*
X66462Y-41200D01*
X66462Y-41267D02*
X66312Y-41400D01*
X63879Y-45800D02*
X63879Y-45267D01*
X63879Y-45267D02*
X63954Y-45200D01*
X63954Y-45200D02*
X64254Y-45200D01*
X64254Y-45200D02*
X64329Y-45267D01*
X63804Y-45467D02*
X64029Y-45467D01*
X64590Y-45400D02*
X64590Y-45667D01*
X64590Y-45667D02*
X64740Y-45800D01*
X64740Y-45800D02*
X64965Y-45800D01*
X64965Y-45800D02*
X65115Y-45667D01*
X65115Y-45667D02*
X65115Y-45400D01*
X65376Y-45600D02*
X65901Y-45600D01*
X65901Y-45600D02*
X65901Y-45467D01*
X65901Y-45467D02*
X65826Y-45400D01*
X65826Y-45400D02*
X65451Y-45400D01*
X65451Y-45400D02*
X65376Y-45467D01*
X65376Y-45467D02*
X65376Y-45734D01*
X65376Y-45734D02*
X65451Y-45800D01*
X65451Y-45800D02*
X65826Y-45800D01*
X65826Y-45800D02*
X65901Y-45734D01*
X66162Y-45800D02*
X66162Y-45400D01*
X66162Y-45467D02*
X66237Y-45400D01*
X66237Y-45400D02*
X66537Y-45400D01*
X66537Y-45400D02*
X66612Y-45467D01*
X66612Y-45467D02*
X66612Y-45800D01*
X67398Y-45734D02*
X67323Y-45800D01*
X67323Y-45800D02*
X67098Y-45800D01*
X67098Y-45800D02*
X67023Y-45734D01*
X67023Y-45734D02*
X67023Y-45200D01*
X67023Y-45400D02*
X67248Y-45400D01*
X67734Y-45600D02*
X68259Y-45600D01*
X68259Y-45600D02*
X68259Y-45467D01*
X68259Y-45467D02*
X68184Y-45400D01*
X68184Y-45400D02*
X67809Y-45400D01*
X67809Y-45400D02*
X67734Y-45467D01*
X67734Y-45467D02*
X67734Y-45734D01*
X67734Y-45734D02*
X67809Y-45800D01*
X67809Y-45800D02*
X68184Y-45800D01*
X68184Y-45800D02*
X68259Y-45734D01*
G54D29*
X64034Y-40256D02*
X63984Y-40300D01*
X63984Y-40300D02*
X63734Y-40300D01*
X63734Y-40300D02*
X63684Y-40256D01*
X63684Y-40256D02*
X63684Y-39945D01*
X63684Y-39945D02*
X63734Y-39900D01*
X63734Y-39900D02*
X63984Y-39900D01*
X63984Y-39900D02*
X64034Y-39945D01*
X64208Y-39900D02*
X64558Y-39900D01*
X64558Y-39900D02*
X64208Y-40300D01*
X80756Y-40466D02*
X80800Y-40516D01*
X80800Y-40516D02*
X80800Y-40766D01*
X80800Y-40766D02*
X80756Y-40816D01*
X80756Y-40816D02*
X80445Y-40816D01*
X80445Y-40816D02*
X80400Y-40766D01*
X80400Y-40766D02*
X80400Y-40516D01*
X80400Y-40516D02*
X80445Y-40466D01*
X80445Y-39942D02*
X80400Y-39992D01*
X80400Y-39992D02*
X80400Y-40242D01*
X80400Y-40242D02*
X80445Y-40292D01*
X80445Y-40292D02*
X80756Y-40292D01*
X80756Y-40292D02*
X80800Y-40242D01*
X80800Y-40242D02*
X80800Y-39992D01*
X80800Y-39992D02*
X80756Y-39942D01*
X80756Y-39942D02*
X80623Y-39942D01*
X80623Y-39942D02*
X80578Y-39992D01*
X80578Y-39992D02*
X80578Y-40242D01*
X80578Y-40242D02*
X80623Y-40292D01*
X71256Y-40466D02*
X71300Y-40516D01*
X71300Y-40516D02*
X71300Y-40766D01*
X71300Y-40766D02*
X71256Y-40816D01*
X71256Y-40816D02*
X70945Y-40816D01*
X70945Y-40816D02*
X70900Y-40766D01*
X70900Y-40766D02*
X70900Y-40516D01*
X70900Y-40516D02*
X70945Y-40466D01*
X71212Y-40292D02*
X71256Y-40292D01*
X71256Y-40292D02*
X71300Y-40242D01*
X71300Y-40242D02*
X71300Y-39992D01*
X71300Y-39992D02*
X71256Y-39942D01*
X71256Y-39942D02*
X71123Y-39942D01*
X71123Y-39942D02*
X71034Y-40042D01*
X71034Y-40042D02*
X71034Y-40292D01*
X71034Y-40292D02*
X70900Y-40292D01*
X70900Y-40292D02*
X70900Y-39942D01*
X80834Y-46556D02*
X80784Y-46600D01*
X80784Y-46600D02*
X80534Y-46600D01*
X80534Y-46600D02*
X80484Y-46556D01*
X80484Y-46556D02*
X80484Y-46245D01*
X80484Y-46245D02*
X80534Y-46200D01*
X80534Y-46200D02*
X80784Y-46200D01*
X80784Y-46200D02*
X80834Y-46245D01*
X81008Y-46200D02*
X81358Y-46200D01*
X81358Y-46200D02*
X81358Y-46245D01*
X81358Y-46245D02*
X81158Y-46378D01*
X81158Y-46378D02*
X81308Y-46378D01*
X81308Y-46378D02*
X81358Y-46423D01*
X81358Y-46423D02*
X81358Y-46556D01*
X81358Y-46556D02*
X81308Y-46600D01*
X81308Y-46600D02*
X81058Y-46600D01*
X81058Y-46600D02*
X81008Y-46556D01*
X74756Y-44966D02*
X74800Y-45016D01*
X74800Y-45016D02*
X74800Y-45266D01*
X74800Y-45266D02*
X74756Y-45316D01*
X74756Y-45316D02*
X74445Y-45316D01*
X74445Y-45316D02*
X74400Y-45266D01*
X74400Y-45266D02*
X74400Y-45016D01*
X74400Y-45016D02*
X74445Y-44966D01*
X74800Y-44442D02*
X74800Y-44792D01*
X74800Y-44792D02*
X74667Y-44792D01*
X74667Y-44792D02*
X74623Y-44742D01*
X74623Y-44742D02*
X74623Y-44492D01*
X74623Y-44492D02*
X74578Y-44442D01*
X74578Y-44442D02*
X74445Y-44442D01*
X74445Y-44442D02*
X74400Y-44492D01*
X74400Y-44492D02*
X74400Y-44742D01*
X74400Y-44742D02*
X74445Y-44792D01*
X81034Y-50756D02*
X80984Y-50800D01*
X80984Y-50800D02*
X80734Y-50800D01*
X80734Y-50800D02*
X80684Y-50756D01*
X80684Y-50756D02*
X80684Y-50445D01*
X80684Y-50445D02*
X80734Y-50400D01*
X80734Y-50400D02*
X80984Y-50400D01*
X80984Y-50400D02*
X81034Y-50445D01*
X81308Y-50800D02*
X81508Y-50800D01*
X81408Y-50800D02*
X81408Y-50400D01*
X81408Y-50445D02*
X81308Y-50534D01*
G54D25*
X72618Y-45041D02*
X72651Y-45079D01*
X72651Y-45079D02*
X72651Y-45266D01*
X72651Y-45266D02*
X72618Y-45304D01*
X72618Y-45304D02*
X72385Y-45304D01*
X72385Y-45304D02*
X72351Y-45266D01*
X72351Y-45266D02*
X72351Y-45079D01*
X72351Y-45079D02*
X72385Y-45041D01*
X72651Y-44733D02*
X72351Y-44733D01*
X72351Y-44733D02*
X72585Y-44921D01*
X72585Y-44921D02*
X72585Y-44658D01*
X73650Y-45204D02*
X73650Y-45423D01*
X73650Y-45423D02*
X73550Y-45423D01*
X73550Y-45423D02*
X73517Y-45392D01*
X73517Y-45392D02*
X73517Y-45236D01*
X73517Y-45236D02*
X73484Y-45204D01*
X73484Y-45204D02*
X73384Y-45204D01*
X73384Y-45204D02*
X73350Y-45236D01*
X73350Y-45236D02*
X73350Y-45392D01*
X73350Y-45392D02*
X73384Y-45423D01*
X73650Y-44877D02*
X73650Y-45096D01*
X73650Y-45096D02*
X73550Y-45096D01*
X73550Y-45096D02*
X73517Y-45065D01*
X73517Y-45065D02*
X73517Y-44909D01*
X73517Y-44909D02*
X73484Y-44877D01*
X73484Y-44877D02*
X73384Y-44877D01*
X73384Y-44877D02*
X73350Y-44909D01*
X73350Y-44909D02*
X73350Y-45065D01*
X73350Y-45065D02*
X73384Y-45096D01*
X73450Y-44769D02*
X73584Y-44769D01*
X73584Y-44769D02*
X73650Y-44707D01*
X73650Y-44707D02*
X73650Y-44613D01*
X73650Y-44613D02*
X73584Y-44550D01*
X73584Y-44550D02*
X73450Y-44550D01*
G54D29*
X73017Y-46024D02*
X73017Y-45799D01*
X73117Y-45911D02*
X72917Y-45911D01*
X64575Y-38566D02*
X64625Y-38610D01*
X64625Y-38610D02*
X64625Y-38829D01*
X64625Y-38829D02*
X64575Y-38873D01*
X64575Y-38873D02*
X64225Y-38873D01*
X64225Y-38873D02*
X64175Y-38829D01*
X64175Y-38829D02*
X64175Y-38610D01*
X64175Y-38610D02*
X64225Y-38566D01*
X64625Y-38361D02*
X64575Y-38405D01*
X64575Y-38405D02*
X64425Y-38405D01*
X64425Y-38405D02*
X64375Y-38361D01*
X64375Y-38361D02*
X64375Y-38142D01*
X64375Y-38142D02*
X64325Y-38098D01*
X64325Y-38098D02*
X64225Y-38098D01*
X64225Y-38098D02*
X64175Y-38142D01*
X64175Y-38142D02*
X64175Y-38361D01*
X64175Y-38361D02*
X64225Y-38405D01*
X64225Y-38405D02*
X64325Y-38405D01*
X64325Y-38405D02*
X64375Y-38361D01*
X64375Y-38142D02*
X64425Y-38098D01*
X64425Y-38098D02*
X64575Y-38098D01*
X64575Y-38098D02*
X64625Y-38142D01*
X64625Y-38142D02*
X64625Y-38361D01*
X65825Y-39034D02*
X65825Y-39341D01*
X65825Y-39341D02*
X65675Y-39341D01*
X65675Y-39341D02*
X65625Y-39297D01*
X65625Y-39297D02*
X65625Y-39078D01*
X65625Y-39078D02*
X65575Y-39034D01*
X65575Y-39034D02*
X65425Y-39034D01*
X65425Y-39034D02*
X65375Y-39078D01*
X65375Y-39078D02*
X65375Y-39297D01*
X65375Y-39297D02*
X65425Y-39341D01*
X65825Y-38566D02*
X65825Y-38873D01*
X65825Y-38873D02*
X65675Y-38873D01*
X65675Y-38873D02*
X65625Y-38829D01*
X65625Y-38829D02*
X65625Y-38610D01*
X65625Y-38610D02*
X65575Y-38566D01*
X65575Y-38566D02*
X65425Y-38566D01*
X65425Y-38566D02*
X65375Y-38610D01*
X65375Y-38610D02*
X65375Y-38829D01*
X65375Y-38829D02*
X65425Y-38873D01*
X65825Y-38405D02*
X65375Y-38098D01*
X65775Y-38405D02*
X65425Y-38405D01*
X65425Y-38405D02*
X65375Y-38361D01*
X65375Y-38361D02*
X65375Y-38142D01*
X65375Y-38142D02*
X65425Y-38098D01*
X65425Y-38098D02*
X65775Y-38098D01*
X65775Y-38098D02*
X65825Y-38142D01*
X65825Y-38142D02*
X65825Y-38361D01*
X65825Y-38361D02*
X65775Y-38405D01*
X65525Y-37937D02*
X65725Y-37937D01*
X65725Y-37937D02*
X65825Y-37849D01*
X65825Y-37849D02*
X65825Y-37718D01*
X65825Y-37718D02*
X65725Y-37630D01*
X65725Y-37630D02*
X65525Y-37630D01*
G54D24*
X65025Y-37686D02*
X65025Y-37349D01*
X65175Y-37517D02*
X64875Y-37517D01*
G54D30*
X73655Y-42220D02*
X73655Y-42665D01*
X73655Y-42665D02*
X73718Y-42720D01*
X73718Y-42720D02*
X74030Y-42720D01*
X74030Y-42720D02*
X74093Y-42665D01*
X74093Y-42665D02*
X74093Y-42220D01*
X74683Y-42720D02*
X74245Y-42720D01*
X74245Y-42720D02*
X74245Y-42554D01*
X74245Y-42554D02*
X74308Y-42498D01*
X74308Y-42498D02*
X74620Y-42498D01*
X74620Y-42498D02*
X74683Y-42443D01*
X74683Y-42443D02*
X74683Y-42276D01*
X74683Y-42276D02*
X74620Y-42220D01*
X74620Y-42220D02*
X74308Y-42220D01*
X74308Y-42220D02*
X74245Y-42276D01*
X74939Y-42220D02*
X74939Y-42720D01*
X74939Y-42720D02*
X75439Y-42720D01*
X75529Y-42720D02*
X75529Y-42220D01*
X75529Y-42220D02*
X75779Y-42443D01*
X75779Y-42443D02*
X76029Y-42220D01*
X76029Y-42220D02*
X76029Y-42720D01*
X76182Y-42720D02*
X76182Y-42220D01*
X76119Y-42220D02*
X76494Y-42220D01*
X76494Y-42220D02*
X76557Y-42276D01*
X76557Y-42276D02*
X76557Y-42665D01*
X76557Y-42665D02*
X76494Y-42720D01*
X76494Y-42720D02*
X76119Y-42720D01*
X76834Y-42720D02*
X77084Y-42720D01*
X76959Y-42720D02*
X76959Y-42220D01*
X76959Y-42276D02*
X76834Y-42387D01*
X77362Y-42720D02*
X77299Y-42665D01*
X77299Y-42665D02*
X77299Y-42498D01*
X77299Y-42498D02*
X77362Y-42443D01*
X77362Y-42443D02*
X77674Y-42443D01*
X77674Y-42443D02*
X77737Y-42387D01*
X77737Y-42387D02*
X77737Y-42276D01*
X77737Y-42276D02*
X77674Y-42220D01*
X77674Y-42220D02*
X77362Y-42220D01*
X77362Y-42220D02*
X77299Y-42276D01*
X77299Y-42276D02*
X77299Y-42387D01*
X77299Y-42387D02*
X77362Y-42443D01*
X77674Y-42443D02*
X77737Y-42498D01*
X77737Y-42498D02*
X77737Y-42665D01*
X77737Y-42665D02*
X77674Y-42720D01*
X77674Y-42720D02*
X77362Y-42720D01*
X78327Y-42720D02*
X77889Y-42720D01*
X77889Y-42720D02*
X77889Y-42554D01*
X77889Y-42554D02*
X77952Y-42498D01*
X77952Y-42498D02*
X78264Y-42498D01*
X78264Y-42498D02*
X78327Y-42443D01*
X78327Y-42443D02*
X78327Y-42276D01*
X78327Y-42276D02*
X78264Y-42220D01*
X78264Y-42220D02*
X77952Y-42220D01*
X77952Y-42220D02*
X77889Y-42276D01*
X78479Y-42720D02*
X78917Y-42220D01*
X78479Y-42665D02*
X78479Y-42276D01*
X78479Y-42276D02*
X78542Y-42220D01*
X78542Y-42220D02*
X78854Y-42220D01*
X78854Y-42220D02*
X78917Y-42276D01*
X78917Y-42276D02*
X78917Y-42665D01*
X78917Y-42665D02*
X78854Y-42720D01*
X78854Y-42720D02*
X78542Y-42720D01*
X78542Y-42720D02*
X78479Y-42665D01*
X79069Y-42720D02*
X79507Y-42220D01*
X79069Y-42665D02*
X79069Y-42276D01*
X79069Y-42276D02*
X79132Y-42220D01*
X79132Y-42220D02*
X79444Y-42220D01*
X79444Y-42220D02*
X79507Y-42276D01*
X79507Y-42276D02*
X79507Y-42665D01*
X79507Y-42665D02*
X79444Y-42720D01*
X79444Y-42720D02*
X79132Y-42720D01*
X79132Y-42720D02*
X79069Y-42665D01*
X79659Y-42220D02*
X80159Y-42220D01*
X79909Y-42220D02*
X79909Y-42720D01*
G54D29*
X78997Y-44775D02*
X78997Y-44225D01*
X78997Y-44225D02*
X79372Y-44225D01*
X79372Y-44225D02*
X79435Y-44287D01*
X79435Y-44287D02*
X79435Y-44470D01*
X79435Y-44470D02*
X79372Y-44531D01*
X79372Y-44531D02*
X78997Y-44531D01*
X79185Y-44531D02*
X79435Y-44775D01*
X80070Y-44287D02*
X80007Y-44225D01*
X80007Y-44225D02*
X79695Y-44225D01*
X79695Y-44225D02*
X79632Y-44287D01*
X79632Y-44287D02*
X79632Y-44714D01*
X79632Y-44714D02*
X79695Y-44775D01*
X79695Y-44775D02*
X80007Y-44775D01*
X80007Y-44775D02*
X80070Y-44714D01*
X80070Y-44714D02*
X80070Y-44531D01*
X80070Y-44531D02*
X80007Y-44470D01*
X80007Y-44470D02*
X79695Y-44470D01*
X79695Y-44470D02*
X79632Y-44531D01*
X76997Y-43775D02*
X76997Y-43225D01*
X76997Y-43225D02*
X77372Y-43225D01*
X77372Y-43225D02*
X77435Y-43287D01*
X77435Y-43287D02*
X77435Y-43470D01*
X77435Y-43470D02*
X77372Y-43531D01*
X77372Y-43531D02*
X76997Y-43531D01*
X77185Y-43531D02*
X77435Y-43775D01*
X77632Y-43653D02*
X77632Y-43714D01*
X77632Y-43714D02*
X77695Y-43775D01*
X77695Y-43775D02*
X78007Y-43775D01*
X78007Y-43775D02*
X78070Y-43714D01*
X78070Y-43714D02*
X78070Y-43531D01*
X78070Y-43531D02*
X77945Y-43409D01*
X77945Y-43409D02*
X77632Y-43409D01*
X77632Y-43409D02*
X77632Y-43225D01*
X77632Y-43225D02*
X78070Y-43225D01*
X67997Y-51775D02*
X67997Y-51225D01*
X67997Y-51225D02*
X68372Y-51225D01*
X68372Y-51225D02*
X68435Y-51287D01*
X68435Y-51287D02*
X68435Y-51470D01*
X68435Y-51470D02*
X68372Y-51531D01*
X68372Y-51531D02*
X67997Y-51531D01*
X68185Y-51531D02*
X68435Y-51775D01*
X68945Y-51775D02*
X68945Y-51225D01*
X68945Y-51225D02*
X68632Y-51653D01*
X68632Y-51653D02*
X69070Y-51653D01*
X72997Y-51775D02*
X72997Y-51225D01*
X72997Y-51225D02*
X73372Y-51225D01*
X73372Y-51225D02*
X73435Y-51287D01*
X73435Y-51287D02*
X73435Y-51470D01*
X73435Y-51470D02*
X73372Y-51531D01*
X73372Y-51531D02*
X72997Y-51531D01*
X73185Y-51531D02*
X73435Y-51775D01*
X73632Y-51225D02*
X74070Y-51225D01*
X74070Y-51225D02*
X74070Y-51287D01*
X74070Y-51287D02*
X73820Y-51470D01*
X73820Y-51470D02*
X74007Y-51470D01*
X74007Y-51470D02*
X74070Y-51531D01*
X74070Y-51531D02*
X74070Y-51714D01*
X74070Y-51714D02*
X74007Y-51775D01*
X74007Y-51775D02*
X73695Y-51775D01*
X73695Y-51775D02*
X73632Y-51714D01*
X68997Y-45775D02*
X68997Y-45225D01*
X68997Y-45225D02*
X69372Y-45225D01*
X69372Y-45225D02*
X69435Y-45287D01*
X69435Y-45287D02*
X69435Y-45470D01*
X69435Y-45470D02*
X69372Y-45531D01*
X69372Y-45531D02*
X68997Y-45531D01*
X69185Y-45531D02*
X69435Y-45775D01*
X70070Y-45775D02*
X69632Y-45775D01*
X69632Y-45775D02*
X69632Y-45592D01*
X69632Y-45592D02*
X69695Y-45531D01*
X69695Y-45531D02*
X70007Y-45531D01*
X70007Y-45531D02*
X70070Y-45470D01*
X70070Y-45470D02*
X70070Y-45287D01*
X70070Y-45287D02*
X70007Y-45225D01*
X70007Y-45225D02*
X69695Y-45225D01*
X69695Y-45225D02*
X69632Y-45287D01*
X72997Y-52775D02*
X72997Y-52225D01*
X72997Y-52225D02*
X73372Y-52225D01*
X73372Y-52225D02*
X73435Y-52287D01*
X73435Y-52287D02*
X73435Y-52470D01*
X73435Y-52470D02*
X73372Y-52531D01*
X73372Y-52531D02*
X72997Y-52531D01*
X73185Y-52531D02*
X73435Y-52775D01*
X73757Y-52775D02*
X74007Y-52775D01*
X73882Y-52775D02*
X73882Y-52225D01*
X73882Y-52287D02*
X73757Y-52409D01*
M02*
