G04 (Genere par PCBnew (20080825c)) le 29/9/2009-04:26:48*
G01*
G70*
G90*
%MOIN*%
G04 Gerber Fmt 3.4, Leading zero omitted, Abs format*
%FSLAX34Y34*%
G04 APERTURE LIST*
%ADD10R,0.062000X0.090000*%
%ADD11O,0.062000X0.090000*%
%ADD12R,0.100000X0.100000*%
%ADD13C,0.100000*%
%ADD14C,0.055000*%
%ADD15R,0.055000X0.055000*%
%ADD16R,0.060000X0.060000*%
%ADD17C,0.060000*%
%ADD18O,0.060000X0.120000*%
%ADD19C,0.078700*%
%ADD20C,0.047200*%
%ADD21C,0.017000*%
%ADD22C,0.039400*%
%ADD23C,0.002500*%
%ADD24C,0.012000*%
%ADD25C,0.005000*%
%ADD26C,0.002600*%
%ADD27C,0.006000*%
%ADD28C,0.001000*%
%ADD29C,0.008000*%
%ADD30C,0.003500*%
G04 APERTURE END LIST*
G54D10*
X72000Y-47000D03*
G54D11*
X71000Y-47000D03*
X70000Y-47000D03*
X69000Y-47000D03*
X68000Y-47000D03*
X67000Y-47000D03*
X66000Y-47000D03*
X66000Y-50000D03*
X67000Y-50000D03*
X68000Y-50000D03*
X69000Y-50000D03*
X70000Y-50000D03*
X71000Y-50000D03*
X72000Y-50000D03*
G54D10*
X74500Y-50000D03*
G54D11*
X75500Y-50000D03*
X76500Y-50000D03*
X77500Y-50000D03*
X78500Y-50000D03*
X79500Y-50000D03*
X80500Y-50000D03*
X81500Y-50000D03*
X81500Y-47000D03*
X80500Y-47000D03*
X79500Y-47000D03*
X78500Y-47000D03*
X77500Y-47000D03*
X76500Y-47000D03*
X75500Y-47000D03*
X74500Y-47000D03*
G54D12*
X65000Y-55000D03*
G54D13*
X65000Y-53000D03*
G54D12*
X68000Y-54500D03*
G54D13*
X70000Y-54500D03*
G54D12*
X68000Y-39000D03*
G54D13*
X68000Y-37000D03*
G54D12*
X72500Y-54500D03*
G54D13*
X74500Y-54500D03*
X76500Y-54500D03*
G54D12*
X79000Y-54500D03*
G54D13*
X81000Y-54500D03*
X83000Y-54500D03*
G54D12*
X64000Y-43500D03*
G54D13*
X66000Y-43500D03*
X68000Y-43500D03*
G54D14*
X63500Y-41000D03*
X64500Y-41000D03*
X81500Y-41000D03*
X81500Y-40000D03*
X72000Y-41000D03*
X72000Y-40000D03*
X81500Y-45500D03*
X80500Y-45500D03*
X75500Y-45500D03*
X75500Y-44500D03*
X80500Y-51500D03*
X81500Y-51500D03*
G54D15*
X73000Y-45500D03*
G54D14*
X73000Y-44500D03*
G54D16*
X65000Y-38000D03*
G54D17*
X65000Y-39000D03*
G54D18*
X73318Y-41570D03*
X73988Y-39580D03*
X74658Y-41570D03*
X75328Y-39580D03*
X75998Y-41570D03*
X76667Y-39580D03*
X77337Y-41570D03*
X78007Y-39580D03*
X78677Y-41570D03*
X79347Y-39580D03*
X80017Y-41570D03*
G54D14*
X78000Y-44500D03*
X81000Y-44500D03*
X76000Y-43500D03*
X79000Y-43500D03*
X70000Y-51500D03*
X67000Y-51500D03*
X72000Y-51500D03*
X75000Y-51500D03*
X68000Y-45500D03*
X71000Y-45500D03*
X72000Y-52500D03*
X75000Y-52500D03*
G54D19*
X70500Y-43000D03*
X70500Y-38000D03*
X72000Y-44000D03*
X72000Y-42000D03*
X77000Y-45500D03*
X79000Y-45500D03*
X76500Y-38000D03*
X76500Y-36000D03*
G54D20*
X70500Y-38000D02*
X70500Y-43000D01*
X72000Y-42000D02*
X72000Y-44000D01*
X79000Y-45500D02*
X77000Y-45500D01*
X76500Y-36000D02*
X76500Y-38000D01*
M02*
