G04 (Genere par PCBNEW (2006-06-26)) le 7/9/2008-04:06:59*
G01*
G70*
G90*
%MOIN*%
G04 Gerber Fmt 3.4, Leading zero omitted, Abs format*
%FSLAX34Y34*%
G04 APERTURE LIST*
%ADD10C,0.015000*%
%ADD11C,0.001000*%
G04 APERTURE END LIST*
G54D10*
X64250Y-49500D02*
X64154Y-49978D01*
X64154Y-49978D02*
X63883Y-50383D01*
X63883Y-50383D02*
X63478Y-50654D01*
X63478Y-50654D02*
X63000Y-50750D01*
X63000Y-50750D02*
X62522Y-50654D01*
X62522Y-50654D02*
X62117Y-50383D01*
X62117Y-50383D02*
X61846Y-49978D01*
X61846Y-49978D02*
X61750Y-49500D01*
X61750Y-49500D02*
X61846Y-49022D01*
X61846Y-49022D02*
X62117Y-48617D01*
X62117Y-48617D02*
X62522Y-48346D01*
X62522Y-48346D02*
X63000Y-48250D01*
X63000Y-48250D02*
X63478Y-48346D01*
X63478Y-48346D02*
X63883Y-48617D01*
X63883Y-48617D02*
X64154Y-49022D01*
X64154Y-49022D02*
X64250Y-49500D01*
X60500Y-49500D02*
X65500Y-49500D01*
X63000Y-47000D02*
X63000Y-52000D01*
G54D11*
X42690Y-29450D02*
X42690Y-28550D01*
X42690Y-28550D02*
X43310Y-28550D01*
X43310Y-28550D02*
X43310Y-29450D01*
X43310Y-29450D02*
X42690Y-29450D01*
X43690Y-29450D02*
X43690Y-28550D01*
X43690Y-28550D02*
X44310Y-28550D01*
X44310Y-28550D02*
X44310Y-29450D01*
X44310Y-29450D02*
X43690Y-29450D01*
X44690Y-29450D02*
X44690Y-28550D01*
X44690Y-28550D02*
X45310Y-28550D01*
X45310Y-28550D02*
X45310Y-29450D01*
X45310Y-29450D02*
X44690Y-29450D01*
X45690Y-29450D02*
X45690Y-28550D01*
X45690Y-28550D02*
X46310Y-28550D01*
X46310Y-28550D02*
X46310Y-29450D01*
X46310Y-29450D02*
X45690Y-29450D01*
X46690Y-29450D02*
X46690Y-28550D01*
X46690Y-28550D02*
X47310Y-28550D01*
X47310Y-28550D02*
X47310Y-29450D01*
X47310Y-29450D02*
X46690Y-29450D01*
X47690Y-29450D02*
X47690Y-28550D01*
X47690Y-28550D02*
X48310Y-28550D01*
X48310Y-28550D02*
X48310Y-29450D01*
X48310Y-29450D02*
X47690Y-29450D01*
X48690Y-29450D02*
X48690Y-28550D01*
X48690Y-28550D02*
X49310Y-28550D01*
X49310Y-28550D02*
X49310Y-29450D01*
X49310Y-29450D02*
X48690Y-29450D01*
X49690Y-29450D02*
X49690Y-28550D01*
X49690Y-28550D02*
X50310Y-28550D01*
X50310Y-28550D02*
X50310Y-29450D01*
X50310Y-29450D02*
X49690Y-29450D01*
X49690Y-26450D02*
X49690Y-25550D01*
X49690Y-25550D02*
X50310Y-25550D01*
X50310Y-25550D02*
X50310Y-26450D01*
X50310Y-26450D02*
X49690Y-26450D01*
X48690Y-26450D02*
X48690Y-25550D01*
X48690Y-25550D02*
X49310Y-25550D01*
X49310Y-25550D02*
X49310Y-26450D01*
X49310Y-26450D02*
X48690Y-26450D01*
X47690Y-26450D02*
X47690Y-25550D01*
X47690Y-25550D02*
X48310Y-25550D01*
X48310Y-25550D02*
X48310Y-26450D01*
X48310Y-26450D02*
X47690Y-26450D01*
X46690Y-26450D02*
X46690Y-25550D01*
X46690Y-25550D02*
X47310Y-25550D01*
X47310Y-25550D02*
X47310Y-26450D01*
X47310Y-26450D02*
X46690Y-26450D01*
X45690Y-26450D02*
X45690Y-25550D01*
X45690Y-25550D02*
X46310Y-25550D01*
X46310Y-25550D02*
X46310Y-26450D01*
X46310Y-26450D02*
X45690Y-26450D01*
X44690Y-26450D02*
X44690Y-25550D01*
X44690Y-25550D02*
X45310Y-25550D01*
X45310Y-25550D02*
X45310Y-26450D01*
X45310Y-26450D02*
X44690Y-26450D01*
X43690Y-26450D02*
X43690Y-25550D01*
X43690Y-25550D02*
X44310Y-25550D01*
X44310Y-25550D02*
X44310Y-26450D01*
X44310Y-26450D02*
X43690Y-26450D01*
X42690Y-26450D02*
X42690Y-25550D01*
X42690Y-25550D02*
X43310Y-25550D01*
X43310Y-25550D02*
X43310Y-26450D01*
X43310Y-26450D02*
X42690Y-26450D01*
X57050Y-31190D02*
X57950Y-31190D01*
X57950Y-31190D02*
X57950Y-31810D01*
X57950Y-31810D02*
X57050Y-31810D01*
X57050Y-31810D02*
X57050Y-31190D01*
X57050Y-32190D02*
X57950Y-32190D01*
X57950Y-32190D02*
X57950Y-32810D01*
X57950Y-32810D02*
X57050Y-32810D01*
X57050Y-32810D02*
X57050Y-32190D01*
X57050Y-33190D02*
X57950Y-33190D01*
X57950Y-33190D02*
X57950Y-33810D01*
X57950Y-33810D02*
X57050Y-33810D01*
X57050Y-33810D02*
X57050Y-33190D01*
X57050Y-34190D02*
X57950Y-34190D01*
X57950Y-34190D02*
X57950Y-34810D01*
X57950Y-34810D02*
X57050Y-34810D01*
X57050Y-34810D02*
X57050Y-34190D01*
X57050Y-35190D02*
X57950Y-35190D01*
X57950Y-35190D02*
X57950Y-35810D01*
X57950Y-35810D02*
X57050Y-35810D01*
X57050Y-35810D02*
X57050Y-35190D01*
X57050Y-36190D02*
X57950Y-36190D01*
X57950Y-36190D02*
X57950Y-36810D01*
X57950Y-36810D02*
X57050Y-36810D01*
X57050Y-36810D02*
X57050Y-36190D01*
X57050Y-37190D02*
X57950Y-37190D01*
X57950Y-37190D02*
X57950Y-37810D01*
X57950Y-37810D02*
X57050Y-37810D01*
X57050Y-37810D02*
X57050Y-37190D01*
X57050Y-38190D02*
X57950Y-38190D01*
X57950Y-38190D02*
X57950Y-38810D01*
X57950Y-38810D02*
X57050Y-38810D01*
X57050Y-38810D02*
X57050Y-38190D01*
X57050Y-39190D02*
X57950Y-39190D01*
X57950Y-39190D02*
X57950Y-39810D01*
X57950Y-39810D02*
X57050Y-39810D01*
X57050Y-39810D02*
X57050Y-39190D01*
X60050Y-39190D02*
X60950Y-39190D01*
X60950Y-39190D02*
X60950Y-39810D01*
X60950Y-39810D02*
X60050Y-39810D01*
X60050Y-39810D02*
X60050Y-39190D01*
X60050Y-38190D02*
X60950Y-38190D01*
X60950Y-38190D02*
X60950Y-38810D01*
X60950Y-38810D02*
X60050Y-38810D01*
X60050Y-38810D02*
X60050Y-38190D01*
X60050Y-37190D02*
X60950Y-37190D01*
X60950Y-37190D02*
X60950Y-37810D01*
X60950Y-37810D02*
X60050Y-37810D01*
X60050Y-37810D02*
X60050Y-37190D01*
X60050Y-36190D02*
X60950Y-36190D01*
X60950Y-36190D02*
X60950Y-36810D01*
X60950Y-36810D02*
X60050Y-36810D01*
X60050Y-36810D02*
X60050Y-36190D01*
X60050Y-35190D02*
X60950Y-35190D01*
X60950Y-35190D02*
X60950Y-35810D01*
X60950Y-35810D02*
X60050Y-35810D01*
X60050Y-35810D02*
X60050Y-35190D01*
X60050Y-34190D02*
X60950Y-34190D01*
X60950Y-34190D02*
X60950Y-34810D01*
X60950Y-34810D02*
X60050Y-34810D01*
X60050Y-34810D02*
X60050Y-34190D01*
X60050Y-33190D02*
X60950Y-33190D01*
X60950Y-33190D02*
X60950Y-33810D01*
X60950Y-33810D02*
X60050Y-33810D01*
X60050Y-33810D02*
X60050Y-33190D01*
X60050Y-32190D02*
X60950Y-32190D01*
X60950Y-32190D02*
X60950Y-32810D01*
X60950Y-32810D02*
X60050Y-32810D01*
X60050Y-32810D02*
X60050Y-32190D01*
X60050Y-31190D02*
X60950Y-31190D01*
X60950Y-31190D02*
X60950Y-31810D01*
X60950Y-31810D02*
X60050Y-31810D01*
X60050Y-31810D02*
X60050Y-31190D01*
X34690Y-40450D02*
X34690Y-39550D01*
X34690Y-39550D02*
X35310Y-39550D01*
X35310Y-39550D02*
X35310Y-40450D01*
X35310Y-40450D02*
X34690Y-40450D01*
X35690Y-40450D02*
X35690Y-39550D01*
X35690Y-39550D02*
X36310Y-39550D01*
X36310Y-39550D02*
X36310Y-40450D01*
X36310Y-40450D02*
X35690Y-40450D01*
X36690Y-40450D02*
X36690Y-39550D01*
X36690Y-39550D02*
X37310Y-39550D01*
X37310Y-39550D02*
X37310Y-40450D01*
X37310Y-40450D02*
X36690Y-40450D01*
X37690Y-40450D02*
X37690Y-39550D01*
X37690Y-39550D02*
X38310Y-39550D01*
X38310Y-39550D02*
X38310Y-40450D01*
X38310Y-40450D02*
X37690Y-40450D01*
X38690Y-40450D02*
X38690Y-39550D01*
X38690Y-39550D02*
X39310Y-39550D01*
X39310Y-39550D02*
X39310Y-40450D01*
X39310Y-40450D02*
X38690Y-40450D01*
X39690Y-40450D02*
X39690Y-39550D01*
X39690Y-39550D02*
X40310Y-39550D01*
X40310Y-39550D02*
X40310Y-40450D01*
X40310Y-40450D02*
X39690Y-40450D01*
X40690Y-40450D02*
X40690Y-39550D01*
X40690Y-39550D02*
X41310Y-39550D01*
X41310Y-39550D02*
X41310Y-40450D01*
X41310Y-40450D02*
X40690Y-40450D01*
X41690Y-40450D02*
X41690Y-39550D01*
X41690Y-39550D02*
X42310Y-39550D01*
X42310Y-39550D02*
X42310Y-40450D01*
X42310Y-40450D02*
X41690Y-40450D01*
X42690Y-40450D02*
X42690Y-39550D01*
X42690Y-39550D02*
X43310Y-39550D01*
X43310Y-39550D02*
X43310Y-40450D01*
X43310Y-40450D02*
X42690Y-40450D01*
X43690Y-40450D02*
X43690Y-39550D01*
X43690Y-39550D02*
X44310Y-39550D01*
X44310Y-39550D02*
X44310Y-40450D01*
X44310Y-40450D02*
X43690Y-40450D01*
X44690Y-40450D02*
X44690Y-39550D01*
X44690Y-39550D02*
X45310Y-39550D01*
X45310Y-39550D02*
X45310Y-40450D01*
X45310Y-40450D02*
X44690Y-40450D01*
X45690Y-40450D02*
X45690Y-39550D01*
X45690Y-39550D02*
X46310Y-39550D01*
X46310Y-39550D02*
X46310Y-40450D01*
X46310Y-40450D02*
X45690Y-40450D01*
X46690Y-40450D02*
X46690Y-39550D01*
X46690Y-39550D02*
X47310Y-39550D01*
X47310Y-39550D02*
X47310Y-40450D01*
X47310Y-40450D02*
X46690Y-40450D01*
X47690Y-40450D02*
X47690Y-39550D01*
X47690Y-39550D02*
X48310Y-39550D01*
X48310Y-39550D02*
X48310Y-40450D01*
X48310Y-40450D02*
X47690Y-40450D01*
X48690Y-40450D02*
X48690Y-39550D01*
X48690Y-39550D02*
X49310Y-39550D01*
X49310Y-39550D02*
X49310Y-40450D01*
X49310Y-40450D02*
X48690Y-40450D01*
X49690Y-40450D02*
X49690Y-39550D01*
X49690Y-39550D02*
X50310Y-39550D01*
X50310Y-39550D02*
X50310Y-40450D01*
X50310Y-40450D02*
X49690Y-40450D01*
X50690Y-40450D02*
X50690Y-39550D01*
X50690Y-39550D02*
X51310Y-39550D01*
X51310Y-39550D02*
X51310Y-40450D01*
X51310Y-40450D02*
X50690Y-40450D01*
X51690Y-40450D02*
X51690Y-39550D01*
X51690Y-39550D02*
X52310Y-39550D01*
X52310Y-39550D02*
X52310Y-40450D01*
X52310Y-40450D02*
X51690Y-40450D01*
X52690Y-40450D02*
X52690Y-39550D01*
X52690Y-39550D02*
X53310Y-39550D01*
X53310Y-39550D02*
X53310Y-40450D01*
X53310Y-40450D02*
X52690Y-40450D01*
X53690Y-40450D02*
X53690Y-39550D01*
X53690Y-39550D02*
X54310Y-39550D01*
X54310Y-39550D02*
X54310Y-40450D01*
X54310Y-40450D02*
X53690Y-40450D01*
X53690Y-34450D02*
X53690Y-33550D01*
X53690Y-33550D02*
X54310Y-33550D01*
X54310Y-33550D02*
X54310Y-34450D01*
X54310Y-34450D02*
X53690Y-34450D01*
X52690Y-34450D02*
X52690Y-33550D01*
X52690Y-33550D02*
X53310Y-33550D01*
X53310Y-33550D02*
X53310Y-34450D01*
X53310Y-34450D02*
X52690Y-34450D01*
X51690Y-34450D02*
X51690Y-33550D01*
X51690Y-33550D02*
X52310Y-33550D01*
X52310Y-33550D02*
X52310Y-34450D01*
X52310Y-34450D02*
X51690Y-34450D01*
X50690Y-34450D02*
X50690Y-33550D01*
X50690Y-33550D02*
X51310Y-33550D01*
X51310Y-33550D02*
X51310Y-34450D01*
X51310Y-34450D02*
X50690Y-34450D01*
X49690Y-34450D02*
X49690Y-33550D01*
X49690Y-33550D02*
X50310Y-33550D01*
X50310Y-33550D02*
X50310Y-34450D01*
X50310Y-34450D02*
X49690Y-34450D01*
X48690Y-34450D02*
X48690Y-33550D01*
X48690Y-33550D02*
X49310Y-33550D01*
X49310Y-33550D02*
X49310Y-34450D01*
X49310Y-34450D02*
X48690Y-34450D01*
X47690Y-34450D02*
X47690Y-33550D01*
X47690Y-33550D02*
X48310Y-33550D01*
X48310Y-33550D02*
X48310Y-34450D01*
X48310Y-34450D02*
X47690Y-34450D01*
X46690Y-34450D02*
X46690Y-33550D01*
X46690Y-33550D02*
X47310Y-33550D01*
X47310Y-33550D02*
X47310Y-34450D01*
X47310Y-34450D02*
X46690Y-34450D01*
X45690Y-34450D02*
X45690Y-33550D01*
X45690Y-33550D02*
X46310Y-33550D01*
X46310Y-33550D02*
X46310Y-34450D01*
X46310Y-34450D02*
X45690Y-34450D01*
X44690Y-34450D02*
X44690Y-33550D01*
X44690Y-33550D02*
X45310Y-33550D01*
X45310Y-33550D02*
X45310Y-34450D01*
X45310Y-34450D02*
X44690Y-34450D01*
X43690Y-34450D02*
X43690Y-33550D01*
X43690Y-33550D02*
X44310Y-33550D01*
X44310Y-33550D02*
X44310Y-34450D01*
X44310Y-34450D02*
X43690Y-34450D01*
X42690Y-34450D02*
X42690Y-33550D01*
X42690Y-33550D02*
X43310Y-33550D01*
X43310Y-33550D02*
X43310Y-34450D01*
X43310Y-34450D02*
X42690Y-34450D01*
X41690Y-34450D02*
X41690Y-33550D01*
X41690Y-33550D02*
X42310Y-33550D01*
X42310Y-33550D02*
X42310Y-34450D01*
X42310Y-34450D02*
X41690Y-34450D01*
X40690Y-34450D02*
X40690Y-33550D01*
X40690Y-33550D02*
X41310Y-33550D01*
X41310Y-33550D02*
X41310Y-34450D01*
X41310Y-34450D02*
X40690Y-34450D01*
X39690Y-34450D02*
X39690Y-33550D01*
X39690Y-33550D02*
X40310Y-33550D01*
X40310Y-33550D02*
X40310Y-34450D01*
X40310Y-34450D02*
X39690Y-34450D01*
X38690Y-34450D02*
X38690Y-33550D01*
X38690Y-33550D02*
X39310Y-33550D01*
X39310Y-33550D02*
X39310Y-34450D01*
X39310Y-34450D02*
X38690Y-34450D01*
X37690Y-34450D02*
X37690Y-33550D01*
X37690Y-33550D02*
X38310Y-33550D01*
X38310Y-33550D02*
X38310Y-34450D01*
X38310Y-34450D02*
X37690Y-34450D01*
X36690Y-34450D02*
X36690Y-33550D01*
X36690Y-33550D02*
X37310Y-33550D01*
X37310Y-33550D02*
X37310Y-34450D01*
X37310Y-34450D02*
X36690Y-34450D01*
X35690Y-34450D02*
X35690Y-33550D01*
X35690Y-33550D02*
X36310Y-33550D01*
X36310Y-33550D02*
X36310Y-34450D01*
X36310Y-34450D02*
X35690Y-34450D01*
X34690Y-34450D02*
X34690Y-33550D01*
X34690Y-33550D02*
X35310Y-33550D01*
X35310Y-33550D02*
X35310Y-34450D01*
X35310Y-34450D02*
X34690Y-34450D01*
X56950Y-46310D02*
X56050Y-46310D01*
X56050Y-46310D02*
X56050Y-45690D01*
X56050Y-45690D02*
X56950Y-45690D01*
X56950Y-45690D02*
X56950Y-46310D01*
X56950Y-45310D02*
X56050Y-45310D01*
X56050Y-45310D02*
X56050Y-44690D01*
X56050Y-44690D02*
X56950Y-44690D01*
X56950Y-44690D02*
X56950Y-45310D01*
X56950Y-44310D02*
X56050Y-44310D01*
X56050Y-44310D02*
X56050Y-43690D01*
X56050Y-43690D02*
X56950Y-43690D01*
X56950Y-43690D02*
X56950Y-44310D01*
X56950Y-43310D02*
X56050Y-43310D01*
X56050Y-43310D02*
X56050Y-42690D01*
X56050Y-42690D02*
X56950Y-42690D01*
X56950Y-42690D02*
X56950Y-43310D01*
X53950Y-43310D02*
X53050Y-43310D01*
X53050Y-43310D02*
X53050Y-42690D01*
X53050Y-42690D02*
X53950Y-42690D01*
X53950Y-42690D02*
X53950Y-43310D01*
X53950Y-44310D02*
X53050Y-44310D01*
X53050Y-44310D02*
X53050Y-43690D01*
X53050Y-43690D02*
X53950Y-43690D01*
X53950Y-43690D02*
X53950Y-44310D01*
X53950Y-45310D02*
X53050Y-45310D01*
X53050Y-45310D02*
X53050Y-44690D01*
X53050Y-44690D02*
X53950Y-44690D01*
X53950Y-44690D02*
X53950Y-45310D01*
X53950Y-46310D02*
X53050Y-46310D01*
X53050Y-46310D02*
X53050Y-45690D01*
X53050Y-45690D02*
X53950Y-45690D01*
X53950Y-45690D02*
X53950Y-46310D01*
X29550Y-43690D02*
X30450Y-43690D01*
X30450Y-43690D02*
X30450Y-44310D01*
X30450Y-44310D02*
X29550Y-44310D01*
X29550Y-44310D02*
X29550Y-43690D01*
X29550Y-44690D02*
X30450Y-44690D01*
X30450Y-44690D02*
X30450Y-45310D01*
X30450Y-45310D02*
X29550Y-45310D01*
X29550Y-45310D02*
X29550Y-44690D01*
X29550Y-45690D02*
X30450Y-45690D01*
X30450Y-45690D02*
X30450Y-46310D01*
X30450Y-46310D02*
X29550Y-46310D01*
X29550Y-46310D02*
X29550Y-45690D01*
X29550Y-46690D02*
X30450Y-46690D01*
X30450Y-46690D02*
X30450Y-47310D01*
X30450Y-47310D02*
X29550Y-47310D01*
X29550Y-47310D02*
X29550Y-46690D01*
X32550Y-46690D02*
X33450Y-46690D01*
X33450Y-46690D02*
X33450Y-47310D01*
X33450Y-47310D02*
X32550Y-47310D01*
X32550Y-47310D02*
X32550Y-46690D01*
X32550Y-45690D02*
X33450Y-45690D01*
X33450Y-45690D02*
X33450Y-46310D01*
X33450Y-46310D02*
X32550Y-46310D01*
X32550Y-46310D02*
X32550Y-45690D01*
X32550Y-44690D02*
X33450Y-44690D01*
X33450Y-44690D02*
X33450Y-45310D01*
X33450Y-45310D02*
X32550Y-45310D01*
X32550Y-45310D02*
X32550Y-44690D01*
X32550Y-43690D02*
X33450Y-43690D01*
X33450Y-43690D02*
X33450Y-44310D01*
X33450Y-44310D02*
X32550Y-44310D01*
X32550Y-44310D02*
X32550Y-43690D01*
X65275Y-32500D02*
X65268Y-32557D01*
X65268Y-32557D02*
X65251Y-32611D01*
X65251Y-32611D02*
X65222Y-32661D01*
X65222Y-32661D02*
X65184Y-32704D01*
X65184Y-32704D02*
X65137Y-32738D01*
X65137Y-32738D02*
X65084Y-32761D01*
X65084Y-32761D02*
X65028Y-32773D01*
X65028Y-32773D02*
X64972Y-32773D01*
X64972Y-32773D02*
X64916Y-32761D01*
X64916Y-32761D02*
X64863Y-32738D01*
X64863Y-32738D02*
X64816Y-32704D01*
X64816Y-32704D02*
X64778Y-32661D01*
X64778Y-32661D02*
X64749Y-32611D01*
X64749Y-32611D02*
X64732Y-32557D01*
X64732Y-32557D02*
X64725Y-32500D01*
X64725Y-32500D02*
X64732Y-32443D01*
X64732Y-32443D02*
X64749Y-32389D01*
X64749Y-32389D02*
X64778Y-32339D01*
X64778Y-32339D02*
X64816Y-32296D01*
X64816Y-32296D02*
X64863Y-32262D01*
X64863Y-32262D02*
X64916Y-32239D01*
X64916Y-32239D02*
X64972Y-32227D01*
X64972Y-32227D02*
X65028Y-32227D01*
X65028Y-32227D02*
X65084Y-32239D01*
X65084Y-32239D02*
X65137Y-32262D01*
X65137Y-32262D02*
X65184Y-32296D01*
X65184Y-32296D02*
X65222Y-32339D01*
X65222Y-32339D02*
X65251Y-32389D01*
X65251Y-32389D02*
X65268Y-32443D01*
X65268Y-32443D02*
X65275Y-32500D01*
X65275Y-33500D02*
X65268Y-33557D01*
X65268Y-33557D02*
X65251Y-33611D01*
X65251Y-33611D02*
X65222Y-33661D01*
X65222Y-33661D02*
X65184Y-33704D01*
X65184Y-33704D02*
X65137Y-33738D01*
X65137Y-33738D02*
X65084Y-33761D01*
X65084Y-33761D02*
X65028Y-33773D01*
X65028Y-33773D02*
X64972Y-33773D01*
X64972Y-33773D02*
X64916Y-33761D01*
X64916Y-33761D02*
X64863Y-33738D01*
X64863Y-33738D02*
X64816Y-33704D01*
X64816Y-33704D02*
X64778Y-33661D01*
X64778Y-33661D02*
X64749Y-33611D01*
X64749Y-33611D02*
X64732Y-33557D01*
X64732Y-33557D02*
X64725Y-33500D01*
X64725Y-33500D02*
X64732Y-33443D01*
X64732Y-33443D02*
X64749Y-33389D01*
X64749Y-33389D02*
X64778Y-33339D01*
X64778Y-33339D02*
X64816Y-33296D01*
X64816Y-33296D02*
X64863Y-33262D01*
X64863Y-33262D02*
X64916Y-33239D01*
X64916Y-33239D02*
X64972Y-33227D01*
X64972Y-33227D02*
X65028Y-33227D01*
X65028Y-33227D02*
X65084Y-33239D01*
X65084Y-33239D02*
X65137Y-33262D01*
X65137Y-33262D02*
X65184Y-33296D01*
X65184Y-33296D02*
X65222Y-33339D01*
X65222Y-33339D02*
X65251Y-33389D01*
X65251Y-33389D02*
X65268Y-33443D01*
X65268Y-33443D02*
X65275Y-33500D01*
X65275Y-36000D02*
X65268Y-36057D01*
X65268Y-36057D02*
X65251Y-36111D01*
X65251Y-36111D02*
X65222Y-36161D01*
X65222Y-36161D02*
X65184Y-36204D01*
X65184Y-36204D02*
X65137Y-36238D01*
X65137Y-36238D02*
X65084Y-36261D01*
X65084Y-36261D02*
X65028Y-36273D01*
X65028Y-36273D02*
X64972Y-36273D01*
X64972Y-36273D02*
X64916Y-36261D01*
X64916Y-36261D02*
X64863Y-36238D01*
X64863Y-36238D02*
X64816Y-36204D01*
X64816Y-36204D02*
X64778Y-36161D01*
X64778Y-36161D02*
X64749Y-36111D01*
X64749Y-36111D02*
X64732Y-36057D01*
X64732Y-36057D02*
X64725Y-36000D01*
X64725Y-36000D02*
X64732Y-35943D01*
X64732Y-35943D02*
X64749Y-35889D01*
X64749Y-35889D02*
X64778Y-35839D01*
X64778Y-35839D02*
X64816Y-35796D01*
X64816Y-35796D02*
X64863Y-35762D01*
X64863Y-35762D02*
X64916Y-35739D01*
X64916Y-35739D02*
X64972Y-35727D01*
X64972Y-35727D02*
X65028Y-35727D01*
X65028Y-35727D02*
X65084Y-35739D01*
X65084Y-35739D02*
X65137Y-35762D01*
X65137Y-35762D02*
X65184Y-35796D01*
X65184Y-35796D02*
X65222Y-35839D01*
X65222Y-35839D02*
X65251Y-35889D01*
X65251Y-35889D02*
X65268Y-35943D01*
X65268Y-35943D02*
X65275Y-36000D01*
X65275Y-35000D02*
X65268Y-35057D01*
X65268Y-35057D02*
X65251Y-35111D01*
X65251Y-35111D02*
X65222Y-35161D01*
X65222Y-35161D02*
X65184Y-35204D01*
X65184Y-35204D02*
X65137Y-35238D01*
X65137Y-35238D02*
X65084Y-35261D01*
X65084Y-35261D02*
X65028Y-35273D01*
X65028Y-35273D02*
X64972Y-35273D01*
X64972Y-35273D02*
X64916Y-35261D01*
X64916Y-35261D02*
X64863Y-35238D01*
X64863Y-35238D02*
X64816Y-35204D01*
X64816Y-35204D02*
X64778Y-35161D01*
X64778Y-35161D02*
X64749Y-35111D01*
X64749Y-35111D02*
X64732Y-35057D01*
X64732Y-35057D02*
X64725Y-35000D01*
X64725Y-35000D02*
X64732Y-34943D01*
X64732Y-34943D02*
X64749Y-34889D01*
X64749Y-34889D02*
X64778Y-34839D01*
X64778Y-34839D02*
X64816Y-34796D01*
X64816Y-34796D02*
X64863Y-34762D01*
X64863Y-34762D02*
X64916Y-34739D01*
X64916Y-34739D02*
X64972Y-34727D01*
X64972Y-34727D02*
X65028Y-34727D01*
X65028Y-34727D02*
X65084Y-34739D01*
X65084Y-34739D02*
X65137Y-34762D01*
X65137Y-34762D02*
X65184Y-34796D01*
X65184Y-34796D02*
X65222Y-34839D01*
X65222Y-34839D02*
X65251Y-34889D01*
X65251Y-34889D02*
X65268Y-34943D01*
X65268Y-34943D02*
X65275Y-35000D01*
X50275Y-44000D02*
X50268Y-44057D01*
X50268Y-44057D02*
X50251Y-44111D01*
X50251Y-44111D02*
X50222Y-44161D01*
X50222Y-44161D02*
X50184Y-44204D01*
X50184Y-44204D02*
X50137Y-44238D01*
X50137Y-44238D02*
X50084Y-44261D01*
X50084Y-44261D02*
X50028Y-44273D01*
X50028Y-44273D02*
X49972Y-44273D01*
X49972Y-44273D02*
X49916Y-44261D01*
X49916Y-44261D02*
X49863Y-44238D01*
X49863Y-44238D02*
X49816Y-44204D01*
X49816Y-44204D02*
X49778Y-44161D01*
X49778Y-44161D02*
X49749Y-44111D01*
X49749Y-44111D02*
X49732Y-44057D01*
X49732Y-44057D02*
X49725Y-44000D01*
X49725Y-44000D02*
X49732Y-43943D01*
X49732Y-43943D02*
X49749Y-43889D01*
X49749Y-43889D02*
X49778Y-43839D01*
X49778Y-43839D02*
X49816Y-43796D01*
X49816Y-43796D02*
X49863Y-43762D01*
X49863Y-43762D02*
X49916Y-43739D01*
X49916Y-43739D02*
X49972Y-43727D01*
X49972Y-43727D02*
X50028Y-43727D01*
X50028Y-43727D02*
X50084Y-43739D01*
X50084Y-43739D02*
X50137Y-43762D01*
X50137Y-43762D02*
X50184Y-43796D01*
X50184Y-43796D02*
X50222Y-43839D01*
X50222Y-43839D02*
X50251Y-43889D01*
X50251Y-43889D02*
X50268Y-43943D01*
X50268Y-43943D02*
X50275Y-44000D01*
X50275Y-45000D02*
X50268Y-45057D01*
X50268Y-45057D02*
X50251Y-45111D01*
X50251Y-45111D02*
X50222Y-45161D01*
X50222Y-45161D02*
X50184Y-45204D01*
X50184Y-45204D02*
X50137Y-45238D01*
X50137Y-45238D02*
X50084Y-45261D01*
X50084Y-45261D02*
X50028Y-45273D01*
X50028Y-45273D02*
X49972Y-45273D01*
X49972Y-45273D02*
X49916Y-45261D01*
X49916Y-45261D02*
X49863Y-45238D01*
X49863Y-45238D02*
X49816Y-45204D01*
X49816Y-45204D02*
X49778Y-45161D01*
X49778Y-45161D02*
X49749Y-45111D01*
X49749Y-45111D02*
X49732Y-45057D01*
X49732Y-45057D02*
X49725Y-45000D01*
X49725Y-45000D02*
X49732Y-44943D01*
X49732Y-44943D02*
X49749Y-44889D01*
X49749Y-44889D02*
X49778Y-44839D01*
X49778Y-44839D02*
X49816Y-44796D01*
X49816Y-44796D02*
X49863Y-44762D01*
X49863Y-44762D02*
X49916Y-44739D01*
X49916Y-44739D02*
X49972Y-44727D01*
X49972Y-44727D02*
X50028Y-44727D01*
X50028Y-44727D02*
X50084Y-44739D01*
X50084Y-44739D02*
X50137Y-44762D01*
X50137Y-44762D02*
X50184Y-44796D01*
X50184Y-44796D02*
X50222Y-44839D01*
X50222Y-44839D02*
X50251Y-44889D01*
X50251Y-44889D02*
X50268Y-44943D01*
X50268Y-44943D02*
X50275Y-45000D01*
X48275Y-44000D02*
X48268Y-44057D01*
X48268Y-44057D02*
X48251Y-44111D01*
X48251Y-44111D02*
X48222Y-44161D01*
X48222Y-44161D02*
X48184Y-44204D01*
X48184Y-44204D02*
X48137Y-44238D01*
X48137Y-44238D02*
X48084Y-44261D01*
X48084Y-44261D02*
X48028Y-44273D01*
X48028Y-44273D02*
X47972Y-44273D01*
X47972Y-44273D02*
X47916Y-44261D01*
X47916Y-44261D02*
X47863Y-44238D01*
X47863Y-44238D02*
X47816Y-44204D01*
X47816Y-44204D02*
X47778Y-44161D01*
X47778Y-44161D02*
X47749Y-44111D01*
X47749Y-44111D02*
X47732Y-44057D01*
X47732Y-44057D02*
X47725Y-44000D01*
X47725Y-44000D02*
X47732Y-43943D01*
X47732Y-43943D02*
X47749Y-43889D01*
X47749Y-43889D02*
X47778Y-43839D01*
X47778Y-43839D02*
X47816Y-43796D01*
X47816Y-43796D02*
X47863Y-43762D01*
X47863Y-43762D02*
X47916Y-43739D01*
X47916Y-43739D02*
X47972Y-43727D01*
X47972Y-43727D02*
X48028Y-43727D01*
X48028Y-43727D02*
X48084Y-43739D01*
X48084Y-43739D02*
X48137Y-43762D01*
X48137Y-43762D02*
X48184Y-43796D01*
X48184Y-43796D02*
X48222Y-43839D01*
X48222Y-43839D02*
X48251Y-43889D01*
X48251Y-43889D02*
X48268Y-43943D01*
X48268Y-43943D02*
X48275Y-44000D01*
X48275Y-45000D02*
X48268Y-45057D01*
X48268Y-45057D02*
X48251Y-45111D01*
X48251Y-45111D02*
X48222Y-45161D01*
X48222Y-45161D02*
X48184Y-45204D01*
X48184Y-45204D02*
X48137Y-45238D01*
X48137Y-45238D02*
X48084Y-45261D01*
X48084Y-45261D02*
X48028Y-45273D01*
X48028Y-45273D02*
X47972Y-45273D01*
X47972Y-45273D02*
X47916Y-45261D01*
X47916Y-45261D02*
X47863Y-45238D01*
X47863Y-45238D02*
X47816Y-45204D01*
X47816Y-45204D02*
X47778Y-45161D01*
X47778Y-45161D02*
X47749Y-45111D01*
X47749Y-45111D02*
X47732Y-45057D01*
X47732Y-45057D02*
X47725Y-45000D01*
X47725Y-45000D02*
X47732Y-44943D01*
X47732Y-44943D02*
X47749Y-44889D01*
X47749Y-44889D02*
X47778Y-44839D01*
X47778Y-44839D02*
X47816Y-44796D01*
X47816Y-44796D02*
X47863Y-44762D01*
X47863Y-44762D02*
X47916Y-44739D01*
X47916Y-44739D02*
X47972Y-44727D01*
X47972Y-44727D02*
X48028Y-44727D01*
X48028Y-44727D02*
X48084Y-44739D01*
X48084Y-44739D02*
X48137Y-44762D01*
X48137Y-44762D02*
X48184Y-44796D01*
X48184Y-44796D02*
X48222Y-44839D01*
X48222Y-44839D02*
X48251Y-44889D01*
X48251Y-44889D02*
X48268Y-44943D01*
X48268Y-44943D02*
X48275Y-45000D01*
X36775Y-42500D02*
X36768Y-42557D01*
X36768Y-42557D02*
X36751Y-42611D01*
X36751Y-42611D02*
X36722Y-42661D01*
X36722Y-42661D02*
X36684Y-42704D01*
X36684Y-42704D02*
X36637Y-42738D01*
X36637Y-42738D02*
X36584Y-42761D01*
X36584Y-42761D02*
X36528Y-42773D01*
X36528Y-42773D02*
X36472Y-42773D01*
X36472Y-42773D02*
X36416Y-42761D01*
X36416Y-42761D02*
X36363Y-42738D01*
X36363Y-42738D02*
X36316Y-42704D01*
X36316Y-42704D02*
X36278Y-42661D01*
X36278Y-42661D02*
X36249Y-42611D01*
X36249Y-42611D02*
X36232Y-42557D01*
X36232Y-42557D02*
X36225Y-42500D01*
X36225Y-42500D02*
X36232Y-42443D01*
X36232Y-42443D02*
X36249Y-42389D01*
X36249Y-42389D02*
X36278Y-42339D01*
X36278Y-42339D02*
X36316Y-42296D01*
X36316Y-42296D02*
X36363Y-42262D01*
X36363Y-42262D02*
X36416Y-42239D01*
X36416Y-42239D02*
X36472Y-42227D01*
X36472Y-42227D02*
X36528Y-42227D01*
X36528Y-42227D02*
X36584Y-42239D01*
X36584Y-42239D02*
X36637Y-42262D01*
X36637Y-42262D02*
X36684Y-42296D01*
X36684Y-42296D02*
X36722Y-42339D01*
X36722Y-42339D02*
X36751Y-42389D01*
X36751Y-42389D02*
X36768Y-42443D01*
X36768Y-42443D02*
X36775Y-42500D01*
X37775Y-42500D02*
X37768Y-42557D01*
X37768Y-42557D02*
X37751Y-42611D01*
X37751Y-42611D02*
X37722Y-42661D01*
X37722Y-42661D02*
X37684Y-42704D01*
X37684Y-42704D02*
X37637Y-42738D01*
X37637Y-42738D02*
X37584Y-42761D01*
X37584Y-42761D02*
X37528Y-42773D01*
X37528Y-42773D02*
X37472Y-42773D01*
X37472Y-42773D02*
X37416Y-42761D01*
X37416Y-42761D02*
X37363Y-42738D01*
X37363Y-42738D02*
X37316Y-42704D01*
X37316Y-42704D02*
X37278Y-42661D01*
X37278Y-42661D02*
X37249Y-42611D01*
X37249Y-42611D02*
X37232Y-42557D01*
X37232Y-42557D02*
X37225Y-42500D01*
X37225Y-42500D02*
X37232Y-42443D01*
X37232Y-42443D02*
X37249Y-42389D01*
X37249Y-42389D02*
X37278Y-42339D01*
X37278Y-42339D02*
X37316Y-42296D01*
X37316Y-42296D02*
X37363Y-42262D01*
X37363Y-42262D02*
X37416Y-42239D01*
X37416Y-42239D02*
X37472Y-42227D01*
X37472Y-42227D02*
X37528Y-42227D01*
X37528Y-42227D02*
X37584Y-42239D01*
X37584Y-42239D02*
X37637Y-42262D01*
X37637Y-42262D02*
X37684Y-42296D01*
X37684Y-42296D02*
X37722Y-42339D01*
X37722Y-42339D02*
X37751Y-42389D01*
X37751Y-42389D02*
X37768Y-42443D01*
X37768Y-42443D02*
X37775Y-42500D01*
X57725Y-44725D02*
X58275Y-44725D01*
X58275Y-44725D02*
X58275Y-45275D01*
X58275Y-45275D02*
X57725Y-45275D01*
X57725Y-45275D02*
X57725Y-44725D01*
X58275Y-46000D02*
X58268Y-46057D01*
X58268Y-46057D02*
X58251Y-46111D01*
X58251Y-46111D02*
X58222Y-46161D01*
X58222Y-46161D02*
X58184Y-46204D01*
X58184Y-46204D02*
X58137Y-46238D01*
X58137Y-46238D02*
X58084Y-46261D01*
X58084Y-46261D02*
X58028Y-46273D01*
X58028Y-46273D02*
X57972Y-46273D01*
X57972Y-46273D02*
X57916Y-46261D01*
X57916Y-46261D02*
X57863Y-46238D01*
X57863Y-46238D02*
X57816Y-46204D01*
X57816Y-46204D02*
X57778Y-46161D01*
X57778Y-46161D02*
X57749Y-46111D01*
X57749Y-46111D02*
X57732Y-46057D01*
X57732Y-46057D02*
X57725Y-46000D01*
X57725Y-46000D02*
X57732Y-45943D01*
X57732Y-45943D02*
X57749Y-45889D01*
X57749Y-45889D02*
X57778Y-45839D01*
X57778Y-45839D02*
X57816Y-45796D01*
X57816Y-45796D02*
X57863Y-45762D01*
X57863Y-45762D02*
X57916Y-45739D01*
X57916Y-45739D02*
X57972Y-45727D01*
X57972Y-45727D02*
X58028Y-45727D01*
X58028Y-45727D02*
X58084Y-45739D01*
X58084Y-45739D02*
X58137Y-45762D01*
X58137Y-45762D02*
X58184Y-45796D01*
X58184Y-45796D02*
X58222Y-45839D01*
X58222Y-45839D02*
X58251Y-45889D01*
X58251Y-45889D02*
X58268Y-45943D01*
X58268Y-45943D02*
X58275Y-46000D01*
X43725Y-31275D02*
X43725Y-30725D01*
X43725Y-30725D02*
X44275Y-30725D01*
X44275Y-30725D02*
X44275Y-31275D01*
X44275Y-31275D02*
X43725Y-31275D01*
X45275Y-31000D02*
X45268Y-31057D01*
X45268Y-31057D02*
X45251Y-31111D01*
X45251Y-31111D02*
X45222Y-31161D01*
X45222Y-31161D02*
X45184Y-31204D01*
X45184Y-31204D02*
X45137Y-31238D01*
X45137Y-31238D02*
X45084Y-31261D01*
X45084Y-31261D02*
X45028Y-31273D01*
X45028Y-31273D02*
X44972Y-31273D01*
X44972Y-31273D02*
X44916Y-31261D01*
X44916Y-31261D02*
X44863Y-31238D01*
X44863Y-31238D02*
X44816Y-31204D01*
X44816Y-31204D02*
X44778Y-31161D01*
X44778Y-31161D02*
X44749Y-31111D01*
X44749Y-31111D02*
X44732Y-31057D01*
X44732Y-31057D02*
X44725Y-31000D01*
X44725Y-31000D02*
X44732Y-30943D01*
X44732Y-30943D02*
X44749Y-30889D01*
X44749Y-30889D02*
X44778Y-30839D01*
X44778Y-30839D02*
X44816Y-30796D01*
X44816Y-30796D02*
X44863Y-30762D01*
X44863Y-30762D02*
X44916Y-30739D01*
X44916Y-30739D02*
X44972Y-30727D01*
X44972Y-30727D02*
X45028Y-30727D01*
X45028Y-30727D02*
X45084Y-30739D01*
X45084Y-30739D02*
X45137Y-30762D01*
X45137Y-30762D02*
X45184Y-30796D01*
X45184Y-30796D02*
X45222Y-30839D01*
X45222Y-30839D02*
X45251Y-30889D01*
X45251Y-30889D02*
X45268Y-30943D01*
X45268Y-30943D02*
X45275Y-31000D01*
X46225Y-31275D02*
X46225Y-30725D01*
X46225Y-30725D02*
X46775Y-30725D01*
X46775Y-30725D02*
X46775Y-31275D01*
X46775Y-31275D02*
X46225Y-31275D01*
X47775Y-31000D02*
X47768Y-31057D01*
X47768Y-31057D02*
X47751Y-31111D01*
X47751Y-31111D02*
X47722Y-31161D01*
X47722Y-31161D02*
X47684Y-31204D01*
X47684Y-31204D02*
X47637Y-31238D01*
X47637Y-31238D02*
X47584Y-31261D01*
X47584Y-31261D02*
X47528Y-31273D01*
X47528Y-31273D02*
X47472Y-31273D01*
X47472Y-31273D02*
X47416Y-31261D01*
X47416Y-31261D02*
X47363Y-31238D01*
X47363Y-31238D02*
X47316Y-31204D01*
X47316Y-31204D02*
X47278Y-31161D01*
X47278Y-31161D02*
X47249Y-31111D01*
X47249Y-31111D02*
X47232Y-31057D01*
X47232Y-31057D02*
X47225Y-31000D01*
X47225Y-31000D02*
X47232Y-30943D01*
X47232Y-30943D02*
X47249Y-30889D01*
X47249Y-30889D02*
X47278Y-30839D01*
X47278Y-30839D02*
X47316Y-30796D01*
X47316Y-30796D02*
X47363Y-30762D01*
X47363Y-30762D02*
X47416Y-30739D01*
X47416Y-30739D02*
X47472Y-30727D01*
X47472Y-30727D02*
X47528Y-30727D01*
X47528Y-30727D02*
X47584Y-30739D01*
X47584Y-30739D02*
X47637Y-30762D01*
X47637Y-30762D02*
X47684Y-30796D01*
X47684Y-30796D02*
X47722Y-30839D01*
X47722Y-30839D02*
X47751Y-30889D01*
X47751Y-30889D02*
X47768Y-30943D01*
X47768Y-30943D02*
X47775Y-31000D01*
X36725Y-46725D02*
X37275Y-46725D01*
X37275Y-46725D02*
X37275Y-47275D01*
X37275Y-47275D02*
X36725Y-47275D01*
X36725Y-47275D02*
X36725Y-46725D01*
X37275Y-48000D02*
X37268Y-48057D01*
X37268Y-48057D02*
X37251Y-48111D01*
X37251Y-48111D02*
X37222Y-48161D01*
X37222Y-48161D02*
X37184Y-48204D01*
X37184Y-48204D02*
X37137Y-48238D01*
X37137Y-48238D02*
X37084Y-48261D01*
X37084Y-48261D02*
X37028Y-48273D01*
X37028Y-48273D02*
X36972Y-48273D01*
X36972Y-48273D02*
X36916Y-48261D01*
X36916Y-48261D02*
X36863Y-48238D01*
X36863Y-48238D02*
X36816Y-48204D01*
X36816Y-48204D02*
X36778Y-48161D01*
X36778Y-48161D02*
X36749Y-48111D01*
X36749Y-48111D02*
X36732Y-48057D01*
X36732Y-48057D02*
X36725Y-48000D01*
X36725Y-48000D02*
X36732Y-47943D01*
X36732Y-47943D02*
X36749Y-47889D01*
X36749Y-47889D02*
X36778Y-47839D01*
X36778Y-47839D02*
X36816Y-47796D01*
X36816Y-47796D02*
X36863Y-47762D01*
X36863Y-47762D02*
X36916Y-47739D01*
X36916Y-47739D02*
X36972Y-47727D01*
X36972Y-47727D02*
X37028Y-47727D01*
X37028Y-47727D02*
X37084Y-47739D01*
X37084Y-47739D02*
X37137Y-47762D01*
X37137Y-47762D02*
X37184Y-47796D01*
X37184Y-47796D02*
X37222Y-47839D01*
X37222Y-47839D02*
X37251Y-47889D01*
X37251Y-47889D02*
X37268Y-47943D01*
X37268Y-47943D02*
X37275Y-48000D01*
X52775Y-50275D02*
X52225Y-50275D01*
X52225Y-50275D02*
X52225Y-49725D01*
X52225Y-49725D02*
X52775Y-49725D01*
X52775Y-49725D02*
X52775Y-50275D01*
X52775Y-49000D02*
X52768Y-49057D01*
X52768Y-49057D02*
X52751Y-49111D01*
X52751Y-49111D02*
X52722Y-49161D01*
X52722Y-49161D02*
X52684Y-49204D01*
X52684Y-49204D02*
X52637Y-49238D01*
X52637Y-49238D02*
X52584Y-49261D01*
X52584Y-49261D02*
X52528Y-49273D01*
X52528Y-49273D02*
X52472Y-49273D01*
X52472Y-49273D02*
X52416Y-49261D01*
X52416Y-49261D02*
X52363Y-49238D01*
X52363Y-49238D02*
X52316Y-49204D01*
X52316Y-49204D02*
X52278Y-49161D01*
X52278Y-49161D02*
X52249Y-49111D01*
X52249Y-49111D02*
X52232Y-49057D01*
X52232Y-49057D02*
X52225Y-49000D01*
X52225Y-49000D02*
X52232Y-48943D01*
X52232Y-48943D02*
X52249Y-48889D01*
X52249Y-48889D02*
X52278Y-48839D01*
X52278Y-48839D02*
X52316Y-48796D01*
X52316Y-48796D02*
X52363Y-48762D01*
X52363Y-48762D02*
X52416Y-48739D01*
X52416Y-48739D02*
X52472Y-48727D01*
X52472Y-48727D02*
X52528Y-48727D01*
X52528Y-48727D02*
X52584Y-48739D01*
X52584Y-48739D02*
X52637Y-48762D01*
X52637Y-48762D02*
X52684Y-48796D01*
X52684Y-48796D02*
X52722Y-48839D01*
X52722Y-48839D02*
X52751Y-48889D01*
X52751Y-48889D02*
X52768Y-48943D01*
X52768Y-48943D02*
X52775Y-49000D01*
X41725Y-30225D02*
X42275Y-30225D01*
X42275Y-30225D02*
X42275Y-30775D01*
X42275Y-30775D02*
X41725Y-30775D01*
X41725Y-30775D02*
X41725Y-30225D01*
X42275Y-31500D02*
X42268Y-31557D01*
X42268Y-31557D02*
X42251Y-31611D01*
X42251Y-31611D02*
X42222Y-31661D01*
X42222Y-31661D02*
X42184Y-31704D01*
X42184Y-31704D02*
X42137Y-31738D01*
X42137Y-31738D02*
X42084Y-31761D01*
X42084Y-31761D02*
X42028Y-31773D01*
X42028Y-31773D02*
X41972Y-31773D01*
X41972Y-31773D02*
X41916Y-31761D01*
X41916Y-31761D02*
X41863Y-31738D01*
X41863Y-31738D02*
X41816Y-31704D01*
X41816Y-31704D02*
X41778Y-31661D01*
X41778Y-31661D02*
X41749Y-31611D01*
X41749Y-31611D02*
X41732Y-31557D01*
X41732Y-31557D02*
X41725Y-31500D01*
X41725Y-31500D02*
X41732Y-31443D01*
X41732Y-31443D02*
X41749Y-31389D01*
X41749Y-31389D02*
X41778Y-31339D01*
X41778Y-31339D02*
X41816Y-31296D01*
X41816Y-31296D02*
X41863Y-31262D01*
X41863Y-31262D02*
X41916Y-31239D01*
X41916Y-31239D02*
X41972Y-31227D01*
X41972Y-31227D02*
X42028Y-31227D01*
X42028Y-31227D02*
X42084Y-31239D01*
X42084Y-31239D02*
X42137Y-31262D01*
X42137Y-31262D02*
X42184Y-31296D01*
X42184Y-31296D02*
X42222Y-31339D01*
X42222Y-31339D02*
X42251Y-31389D01*
X42251Y-31389D02*
X42268Y-31443D01*
X42268Y-31443D02*
X42275Y-31500D01*
X49775Y-31775D02*
X49225Y-31775D01*
X49225Y-31775D02*
X49225Y-31225D01*
X49225Y-31225D02*
X49775Y-31225D01*
X49775Y-31225D02*
X49775Y-31775D01*
X49775Y-30500D02*
X49768Y-30557D01*
X49768Y-30557D02*
X49751Y-30611D01*
X49751Y-30611D02*
X49722Y-30661D01*
X49722Y-30661D02*
X49684Y-30704D01*
X49684Y-30704D02*
X49637Y-30738D01*
X49637Y-30738D02*
X49584Y-30761D01*
X49584Y-30761D02*
X49528Y-30773D01*
X49528Y-30773D02*
X49472Y-30773D01*
X49472Y-30773D02*
X49416Y-30761D01*
X49416Y-30761D02*
X49363Y-30738D01*
X49363Y-30738D02*
X49316Y-30704D01*
X49316Y-30704D02*
X49278Y-30661D01*
X49278Y-30661D02*
X49249Y-30611D01*
X49249Y-30611D02*
X49232Y-30557D01*
X49232Y-30557D02*
X49225Y-30500D01*
X49225Y-30500D02*
X49232Y-30443D01*
X49232Y-30443D02*
X49249Y-30389D01*
X49249Y-30389D02*
X49278Y-30339D01*
X49278Y-30339D02*
X49316Y-30296D01*
X49316Y-30296D02*
X49363Y-30262D01*
X49363Y-30262D02*
X49416Y-30239D01*
X49416Y-30239D02*
X49472Y-30227D01*
X49472Y-30227D02*
X49528Y-30227D01*
X49528Y-30227D02*
X49584Y-30239D01*
X49584Y-30239D02*
X49637Y-30262D01*
X49637Y-30262D02*
X49684Y-30296D01*
X49684Y-30296D02*
X49722Y-30339D01*
X49722Y-30339D02*
X49751Y-30389D01*
X49751Y-30389D02*
X49768Y-30443D01*
X49768Y-30443D02*
X49775Y-30500D01*
X45275Y-43725D02*
X45275Y-44275D01*
X45275Y-44275D02*
X44725Y-44275D01*
X44725Y-44275D02*
X44725Y-43725D01*
X44725Y-43725D02*
X45275Y-43725D01*
X44275Y-44000D02*
X44268Y-44057D01*
X44268Y-44057D02*
X44251Y-44111D01*
X44251Y-44111D02*
X44222Y-44161D01*
X44222Y-44161D02*
X44184Y-44204D01*
X44184Y-44204D02*
X44137Y-44238D01*
X44137Y-44238D02*
X44084Y-44261D01*
X44084Y-44261D02*
X44028Y-44273D01*
X44028Y-44273D02*
X43972Y-44273D01*
X43972Y-44273D02*
X43916Y-44261D01*
X43916Y-44261D02*
X43863Y-44238D01*
X43863Y-44238D02*
X43816Y-44204D01*
X43816Y-44204D02*
X43778Y-44161D01*
X43778Y-44161D02*
X43749Y-44111D01*
X43749Y-44111D02*
X43732Y-44057D01*
X43732Y-44057D02*
X43725Y-44000D01*
X43725Y-44000D02*
X43732Y-43943D01*
X43732Y-43943D02*
X43749Y-43889D01*
X43749Y-43889D02*
X43778Y-43839D01*
X43778Y-43839D02*
X43816Y-43796D01*
X43816Y-43796D02*
X43863Y-43762D01*
X43863Y-43762D02*
X43916Y-43739D01*
X43916Y-43739D02*
X43972Y-43727D01*
X43972Y-43727D02*
X44028Y-43727D01*
X44028Y-43727D02*
X44084Y-43739D01*
X44084Y-43739D02*
X44137Y-43762D01*
X44137Y-43762D02*
X44184Y-43796D01*
X44184Y-43796D02*
X44222Y-43839D01*
X44222Y-43839D02*
X44251Y-43889D01*
X44251Y-43889D02*
X44268Y-43943D01*
X44268Y-43943D02*
X44275Y-44000D01*
X33725Y-31275D02*
X33725Y-30725D01*
X33725Y-30725D02*
X34275Y-30725D01*
X34275Y-30725D02*
X34275Y-31275D01*
X34275Y-31275D02*
X33725Y-31275D01*
X31275Y-31000D02*
X31268Y-31057D01*
X31268Y-31057D02*
X31251Y-31111D01*
X31251Y-31111D02*
X31222Y-31161D01*
X31222Y-31161D02*
X31184Y-31204D01*
X31184Y-31204D02*
X31137Y-31238D01*
X31137Y-31238D02*
X31084Y-31261D01*
X31084Y-31261D02*
X31028Y-31273D01*
X31028Y-31273D02*
X30972Y-31273D01*
X30972Y-31273D02*
X30916Y-31261D01*
X30916Y-31261D02*
X30863Y-31238D01*
X30863Y-31238D02*
X30816Y-31204D01*
X30816Y-31204D02*
X30778Y-31161D01*
X30778Y-31161D02*
X30749Y-31111D01*
X30749Y-31111D02*
X30732Y-31057D01*
X30732Y-31057D02*
X30725Y-31000D01*
X30725Y-31000D02*
X30732Y-30943D01*
X30732Y-30943D02*
X30749Y-30889D01*
X30749Y-30889D02*
X30778Y-30839D01*
X30778Y-30839D02*
X30816Y-30796D01*
X30816Y-30796D02*
X30863Y-30762D01*
X30863Y-30762D02*
X30916Y-30739D01*
X30916Y-30739D02*
X30972Y-30727D01*
X30972Y-30727D02*
X31028Y-30727D01*
X31028Y-30727D02*
X31084Y-30739D01*
X31084Y-30739D02*
X31137Y-30762D01*
X31137Y-30762D02*
X31184Y-30796D01*
X31184Y-30796D02*
X31222Y-30839D01*
X31222Y-30839D02*
X31251Y-30889D01*
X31251Y-30889D02*
X31268Y-30943D01*
X31268Y-30943D02*
X31275Y-31000D01*
X47850Y-42000D02*
X47842Y-42072D01*
X47842Y-42072D02*
X47819Y-42142D01*
X47819Y-42142D02*
X47783Y-42205D01*
X47783Y-42205D02*
X47734Y-42260D01*
X47734Y-42260D02*
X47675Y-42303D01*
X47675Y-42303D02*
X47608Y-42332D01*
X47608Y-42332D02*
X47536Y-42348D01*
X47536Y-42348D02*
X47464Y-42348D01*
X47464Y-42348D02*
X47392Y-42332D01*
X47392Y-42332D02*
X47325Y-42303D01*
X47325Y-42303D02*
X47266Y-42260D01*
X47266Y-42260D02*
X47217Y-42205D01*
X47217Y-42205D02*
X47181Y-42142D01*
X47181Y-42142D02*
X47158Y-42072D01*
X47158Y-42072D02*
X47150Y-42000D01*
X47150Y-42000D02*
X47158Y-41928D01*
X47158Y-41928D02*
X47181Y-41858D01*
X47181Y-41858D02*
X47217Y-41795D01*
X47217Y-41795D02*
X47266Y-41740D01*
X47266Y-41740D02*
X47325Y-41697D01*
X47325Y-41697D02*
X47392Y-41668D01*
X47392Y-41668D02*
X47464Y-41652D01*
X47464Y-41652D02*
X47536Y-41652D01*
X47536Y-41652D02*
X47608Y-41668D01*
X47608Y-41668D02*
X47675Y-41697D01*
X47675Y-41697D02*
X47734Y-41740D01*
X47734Y-41740D02*
X47783Y-41795D01*
X47783Y-41795D02*
X47819Y-41858D01*
X47819Y-41858D02*
X47842Y-41928D01*
X47842Y-41928D02*
X47850Y-42000D01*
X49850Y-42000D02*
X49842Y-42072D01*
X49842Y-42072D02*
X49819Y-42142D01*
X49819Y-42142D02*
X49783Y-42205D01*
X49783Y-42205D02*
X49734Y-42260D01*
X49734Y-42260D02*
X49675Y-42303D01*
X49675Y-42303D02*
X49608Y-42332D01*
X49608Y-42332D02*
X49536Y-42348D01*
X49536Y-42348D02*
X49464Y-42348D01*
X49464Y-42348D02*
X49392Y-42332D01*
X49392Y-42332D02*
X49325Y-42303D01*
X49325Y-42303D02*
X49266Y-42260D01*
X49266Y-42260D02*
X49217Y-42205D01*
X49217Y-42205D02*
X49181Y-42142D01*
X49181Y-42142D02*
X49158Y-42072D01*
X49158Y-42072D02*
X49150Y-42000D01*
X49150Y-42000D02*
X49158Y-41928D01*
X49158Y-41928D02*
X49181Y-41858D01*
X49181Y-41858D02*
X49217Y-41795D01*
X49217Y-41795D02*
X49266Y-41740D01*
X49266Y-41740D02*
X49325Y-41697D01*
X49325Y-41697D02*
X49392Y-41668D01*
X49392Y-41668D02*
X49464Y-41652D01*
X49464Y-41652D02*
X49536Y-41652D01*
X49536Y-41652D02*
X49608Y-41668D01*
X49608Y-41668D02*
X49675Y-41697D01*
X49675Y-41697D02*
X49734Y-41740D01*
X49734Y-41740D02*
X49783Y-41795D01*
X49783Y-41795D02*
X49819Y-41858D01*
X49819Y-41858D02*
X49842Y-41928D01*
X49842Y-41928D02*
X49850Y-42000D01*
X62350Y-35500D02*
X62342Y-35572D01*
X62342Y-35572D02*
X62319Y-35642D01*
X62319Y-35642D02*
X62283Y-35705D01*
X62283Y-35705D02*
X62234Y-35760D01*
X62234Y-35760D02*
X62175Y-35803D01*
X62175Y-35803D02*
X62108Y-35832D01*
X62108Y-35832D02*
X62036Y-35848D01*
X62036Y-35848D02*
X61964Y-35848D01*
X61964Y-35848D02*
X61892Y-35832D01*
X61892Y-35832D02*
X61825Y-35803D01*
X61825Y-35803D02*
X61766Y-35760D01*
X61766Y-35760D02*
X61717Y-35705D01*
X61717Y-35705D02*
X61681Y-35642D01*
X61681Y-35642D02*
X61658Y-35572D01*
X61658Y-35572D02*
X61650Y-35500D01*
X61650Y-35500D02*
X61658Y-35428D01*
X61658Y-35428D02*
X61681Y-35358D01*
X61681Y-35358D02*
X61717Y-35295D01*
X61717Y-35295D02*
X61766Y-35240D01*
X61766Y-35240D02*
X61825Y-35197D01*
X61825Y-35197D02*
X61892Y-35168D01*
X61892Y-35168D02*
X61964Y-35152D01*
X61964Y-35152D02*
X62036Y-35152D01*
X62036Y-35152D02*
X62108Y-35168D01*
X62108Y-35168D02*
X62175Y-35197D01*
X62175Y-35197D02*
X62234Y-35240D01*
X62234Y-35240D02*
X62283Y-35295D01*
X62283Y-35295D02*
X62319Y-35358D01*
X62319Y-35358D02*
X62342Y-35428D01*
X62342Y-35428D02*
X62350Y-35500D01*
X62350Y-33500D02*
X62342Y-33572D01*
X62342Y-33572D02*
X62319Y-33642D01*
X62319Y-33642D02*
X62283Y-33705D01*
X62283Y-33705D02*
X62234Y-33760D01*
X62234Y-33760D02*
X62175Y-33803D01*
X62175Y-33803D02*
X62108Y-33832D01*
X62108Y-33832D02*
X62036Y-33848D01*
X62036Y-33848D02*
X61964Y-33848D01*
X61964Y-33848D02*
X61892Y-33832D01*
X61892Y-33832D02*
X61825Y-33803D01*
X61825Y-33803D02*
X61766Y-33760D01*
X61766Y-33760D02*
X61717Y-33705D01*
X61717Y-33705D02*
X61681Y-33642D01*
X61681Y-33642D02*
X61658Y-33572D01*
X61658Y-33572D02*
X61650Y-33500D01*
X61650Y-33500D02*
X61658Y-33428D01*
X61658Y-33428D02*
X61681Y-33358D01*
X61681Y-33358D02*
X61717Y-33295D01*
X61717Y-33295D02*
X61766Y-33240D01*
X61766Y-33240D02*
X61825Y-33197D01*
X61825Y-33197D02*
X61892Y-33168D01*
X61892Y-33168D02*
X61964Y-33152D01*
X61964Y-33152D02*
X62036Y-33152D01*
X62036Y-33152D02*
X62108Y-33168D01*
X62108Y-33168D02*
X62175Y-33197D01*
X62175Y-33197D02*
X62234Y-33240D01*
X62234Y-33240D02*
X62283Y-33295D01*
X62283Y-33295D02*
X62319Y-33358D01*
X62319Y-33358D02*
X62342Y-33428D01*
X62342Y-33428D02*
X62350Y-33500D01*
X45800Y-45700D02*
X45800Y-46300D01*
X45800Y-46300D02*
X45200Y-46300D01*
X45200Y-46300D02*
X45200Y-45700D01*
X45200Y-45700D02*
X45800Y-45700D01*
X44800Y-46000D02*
X44793Y-46062D01*
X44793Y-46062D02*
X44774Y-46122D01*
X44774Y-46122D02*
X44742Y-46176D01*
X44742Y-46176D02*
X44700Y-46222D01*
X44700Y-46222D02*
X44650Y-46259D01*
X44650Y-46259D02*
X44592Y-46285D01*
X44592Y-46285D02*
X44531Y-46298D01*
X44531Y-46298D02*
X44469Y-46298D01*
X44469Y-46298D02*
X44408Y-46285D01*
X44408Y-46285D02*
X44350Y-46259D01*
X44350Y-46259D02*
X44300Y-46222D01*
X44300Y-46222D02*
X44258Y-46176D01*
X44258Y-46176D02*
X44226Y-46122D01*
X44226Y-46122D02*
X44207Y-46062D01*
X44207Y-46062D02*
X44200Y-46000D01*
X44200Y-46000D02*
X44207Y-45938D01*
X44207Y-45938D02*
X44226Y-45878D01*
X44226Y-45878D02*
X44258Y-45824D01*
X44258Y-45824D02*
X44300Y-45778D01*
X44300Y-45778D02*
X44350Y-45741D01*
X44350Y-45741D02*
X44408Y-45715D01*
X44408Y-45715D02*
X44469Y-45702D01*
X44469Y-45702D02*
X44531Y-45702D01*
X44531Y-45702D02*
X44592Y-45715D01*
X44592Y-45715D02*
X44650Y-45741D01*
X44650Y-45741D02*
X44700Y-45778D01*
X44700Y-45778D02*
X44742Y-45824D01*
X44742Y-45824D02*
X44774Y-45878D01*
X44774Y-45878D02*
X44793Y-45938D01*
X44793Y-45938D02*
X44800Y-46000D01*
X49200Y-49800D02*
X49200Y-49200D01*
X49200Y-49200D02*
X49800Y-49200D01*
X49800Y-49200D02*
X49800Y-49800D01*
X49800Y-49800D02*
X49200Y-49800D01*
X50800Y-49500D02*
X50793Y-49562D01*
X50793Y-49562D02*
X50774Y-49622D01*
X50774Y-49622D02*
X50742Y-49676D01*
X50742Y-49676D02*
X50700Y-49722D01*
X50700Y-49722D02*
X50650Y-49759D01*
X50650Y-49759D02*
X50592Y-49785D01*
X50592Y-49785D02*
X50531Y-49798D01*
X50531Y-49798D02*
X50469Y-49798D01*
X50469Y-49798D02*
X50408Y-49785D01*
X50408Y-49785D02*
X50350Y-49759D01*
X50350Y-49759D02*
X50300Y-49722D01*
X50300Y-49722D02*
X50258Y-49676D01*
X50258Y-49676D02*
X50226Y-49622D01*
X50226Y-49622D02*
X50207Y-49562D01*
X50207Y-49562D02*
X50200Y-49500D01*
X50200Y-49500D02*
X50207Y-49438D01*
X50207Y-49438D02*
X50226Y-49378D01*
X50226Y-49378D02*
X50258Y-49324D01*
X50258Y-49324D02*
X50300Y-49278D01*
X50300Y-49278D02*
X50350Y-49241D01*
X50350Y-49241D02*
X50408Y-49215D01*
X50408Y-49215D02*
X50469Y-49202D01*
X50469Y-49202D02*
X50531Y-49202D01*
X50531Y-49202D02*
X50592Y-49215D01*
X50592Y-49215D02*
X50650Y-49241D01*
X50650Y-49241D02*
X50700Y-49278D01*
X50700Y-49278D02*
X50742Y-49324D01*
X50742Y-49324D02*
X50774Y-49378D01*
X50774Y-49378D02*
X50793Y-49438D01*
X50793Y-49438D02*
X50800Y-49500D01*
X40200Y-25700D02*
X40800Y-25700D01*
X40800Y-25700D02*
X40800Y-26300D01*
X40800Y-26300D02*
X40200Y-26300D01*
X40200Y-26300D02*
X40200Y-25700D01*
X40800Y-27000D02*
X40793Y-27062D01*
X40793Y-27062D02*
X40774Y-27122D01*
X40774Y-27122D02*
X40742Y-27176D01*
X40742Y-27176D02*
X40700Y-27222D01*
X40700Y-27222D02*
X40650Y-27259D01*
X40650Y-27259D02*
X40592Y-27285D01*
X40592Y-27285D02*
X40531Y-27298D01*
X40531Y-27298D02*
X40469Y-27298D01*
X40469Y-27298D02*
X40408Y-27285D01*
X40408Y-27285D02*
X40350Y-27259D01*
X40350Y-27259D02*
X40300Y-27222D01*
X40300Y-27222D02*
X40258Y-27176D01*
X40258Y-27176D02*
X40226Y-27122D01*
X40226Y-27122D02*
X40207Y-27062D01*
X40207Y-27062D02*
X40200Y-27000D01*
X40200Y-27000D02*
X40207Y-26938D01*
X40207Y-26938D02*
X40226Y-26878D01*
X40226Y-26878D02*
X40258Y-26824D01*
X40258Y-26824D02*
X40300Y-26778D01*
X40300Y-26778D02*
X40350Y-26741D01*
X40350Y-26741D02*
X40408Y-26715D01*
X40408Y-26715D02*
X40469Y-26702D01*
X40469Y-26702D02*
X40531Y-26702D01*
X40531Y-26702D02*
X40592Y-26715D01*
X40592Y-26715D02*
X40650Y-26741D01*
X40650Y-26741D02*
X40700Y-26778D01*
X40700Y-26778D02*
X40742Y-26824D01*
X40742Y-26824D02*
X40774Y-26878D01*
X40774Y-26878D02*
X40793Y-26938D01*
X40793Y-26938D02*
X40800Y-27000D01*
X40800Y-28000D02*
X40793Y-28062D01*
X40793Y-28062D02*
X40774Y-28122D01*
X40774Y-28122D02*
X40742Y-28176D01*
X40742Y-28176D02*
X40700Y-28222D01*
X40700Y-28222D02*
X40650Y-28259D01*
X40650Y-28259D02*
X40592Y-28285D01*
X40592Y-28285D02*
X40531Y-28298D01*
X40531Y-28298D02*
X40469Y-28298D01*
X40469Y-28298D02*
X40408Y-28285D01*
X40408Y-28285D02*
X40350Y-28259D01*
X40350Y-28259D02*
X40300Y-28222D01*
X40300Y-28222D02*
X40258Y-28176D01*
X40258Y-28176D02*
X40226Y-28122D01*
X40226Y-28122D02*
X40207Y-28062D01*
X40207Y-28062D02*
X40200Y-28000D01*
X40200Y-28000D02*
X40207Y-27938D01*
X40207Y-27938D02*
X40226Y-27878D01*
X40226Y-27878D02*
X40258Y-27824D01*
X40258Y-27824D02*
X40300Y-27778D01*
X40300Y-27778D02*
X40350Y-27741D01*
X40350Y-27741D02*
X40408Y-27715D01*
X40408Y-27715D02*
X40469Y-27702D01*
X40469Y-27702D02*
X40531Y-27702D01*
X40531Y-27702D02*
X40592Y-27715D01*
X40592Y-27715D02*
X40650Y-27741D01*
X40650Y-27741D02*
X40700Y-27778D01*
X40700Y-27778D02*
X40742Y-27824D01*
X40742Y-27824D02*
X40774Y-27878D01*
X40774Y-27878D02*
X40793Y-27938D01*
X40793Y-27938D02*
X40800Y-28000D01*
X63200Y-42800D02*
X63200Y-42200D01*
X63200Y-42200D02*
X63800Y-42200D01*
X63800Y-42200D02*
X63800Y-42800D01*
X63800Y-42800D02*
X63200Y-42800D01*
X64800Y-42500D02*
X64793Y-42562D01*
X64793Y-42562D02*
X64774Y-42622D01*
X64774Y-42622D02*
X64742Y-42676D01*
X64742Y-42676D02*
X64700Y-42722D01*
X64700Y-42722D02*
X64650Y-42759D01*
X64650Y-42759D02*
X64592Y-42785D01*
X64592Y-42785D02*
X64531Y-42798D01*
X64531Y-42798D02*
X64469Y-42798D01*
X64469Y-42798D02*
X64408Y-42785D01*
X64408Y-42785D02*
X64350Y-42759D01*
X64350Y-42759D02*
X64300Y-42722D01*
X64300Y-42722D02*
X64258Y-42676D01*
X64258Y-42676D02*
X64226Y-42622D01*
X64226Y-42622D02*
X64207Y-42562D01*
X64207Y-42562D02*
X64200Y-42500D01*
X64200Y-42500D02*
X64207Y-42438D01*
X64207Y-42438D02*
X64226Y-42378D01*
X64226Y-42378D02*
X64258Y-42324D01*
X64258Y-42324D02*
X64300Y-42278D01*
X64300Y-42278D02*
X64350Y-42241D01*
X64350Y-42241D02*
X64408Y-42215D01*
X64408Y-42215D02*
X64469Y-42202D01*
X64469Y-42202D02*
X64531Y-42202D01*
X64531Y-42202D02*
X64592Y-42215D01*
X64592Y-42215D02*
X64650Y-42241D01*
X64650Y-42241D02*
X64700Y-42278D01*
X64700Y-42278D02*
X64742Y-42324D01*
X64742Y-42324D02*
X64774Y-42378D01*
X64774Y-42378D02*
X64793Y-42438D01*
X64793Y-42438D02*
X64800Y-42500D01*
X65800Y-42500D02*
X65793Y-42562D01*
X65793Y-42562D02*
X65774Y-42622D01*
X65774Y-42622D02*
X65742Y-42676D01*
X65742Y-42676D02*
X65700Y-42722D01*
X65700Y-42722D02*
X65650Y-42759D01*
X65650Y-42759D02*
X65592Y-42785D01*
X65592Y-42785D02*
X65531Y-42798D01*
X65531Y-42798D02*
X65469Y-42798D01*
X65469Y-42798D02*
X65408Y-42785D01*
X65408Y-42785D02*
X65350Y-42759D01*
X65350Y-42759D02*
X65300Y-42722D01*
X65300Y-42722D02*
X65258Y-42676D01*
X65258Y-42676D02*
X65226Y-42622D01*
X65226Y-42622D02*
X65207Y-42562D01*
X65207Y-42562D02*
X65200Y-42500D01*
X65200Y-42500D02*
X65207Y-42438D01*
X65207Y-42438D02*
X65226Y-42378D01*
X65226Y-42378D02*
X65258Y-42324D01*
X65258Y-42324D02*
X65300Y-42278D01*
X65300Y-42278D02*
X65350Y-42241D01*
X65350Y-42241D02*
X65408Y-42215D01*
X65408Y-42215D02*
X65469Y-42202D01*
X65469Y-42202D02*
X65531Y-42202D01*
X65531Y-42202D02*
X65592Y-42215D01*
X65592Y-42215D02*
X65650Y-42241D01*
X65650Y-42241D02*
X65700Y-42278D01*
X65700Y-42278D02*
X65742Y-42324D01*
X65742Y-42324D02*
X65774Y-42378D01*
X65774Y-42378D02*
X65793Y-42438D01*
X65793Y-42438D02*
X65800Y-42500D01*
X63200Y-40300D02*
X63200Y-39700D01*
X63200Y-39700D02*
X63800Y-39700D01*
X63800Y-39700D02*
X63800Y-40300D01*
X63800Y-40300D02*
X63200Y-40300D01*
X64800Y-40000D02*
X64793Y-40062D01*
X64793Y-40062D02*
X64774Y-40122D01*
X64774Y-40122D02*
X64742Y-40176D01*
X64742Y-40176D02*
X64700Y-40222D01*
X64700Y-40222D02*
X64650Y-40259D01*
X64650Y-40259D02*
X64592Y-40285D01*
X64592Y-40285D02*
X64531Y-40298D01*
X64531Y-40298D02*
X64469Y-40298D01*
X64469Y-40298D02*
X64408Y-40285D01*
X64408Y-40285D02*
X64350Y-40259D01*
X64350Y-40259D02*
X64300Y-40222D01*
X64300Y-40222D02*
X64258Y-40176D01*
X64258Y-40176D02*
X64226Y-40122D01*
X64226Y-40122D02*
X64207Y-40062D01*
X64207Y-40062D02*
X64200Y-40000D01*
X64200Y-40000D02*
X64207Y-39938D01*
X64207Y-39938D02*
X64226Y-39878D01*
X64226Y-39878D02*
X64258Y-39824D01*
X64258Y-39824D02*
X64300Y-39778D01*
X64300Y-39778D02*
X64350Y-39741D01*
X64350Y-39741D02*
X64408Y-39715D01*
X64408Y-39715D02*
X64469Y-39702D01*
X64469Y-39702D02*
X64531Y-39702D01*
X64531Y-39702D02*
X64592Y-39715D01*
X64592Y-39715D02*
X64650Y-39741D01*
X64650Y-39741D02*
X64700Y-39778D01*
X64700Y-39778D02*
X64742Y-39824D01*
X64742Y-39824D02*
X64774Y-39878D01*
X64774Y-39878D02*
X64793Y-39938D01*
X64793Y-39938D02*
X64800Y-40000D01*
X65800Y-40000D02*
X65793Y-40062D01*
X65793Y-40062D02*
X65774Y-40122D01*
X65774Y-40122D02*
X65742Y-40176D01*
X65742Y-40176D02*
X65700Y-40222D01*
X65700Y-40222D02*
X65650Y-40259D01*
X65650Y-40259D02*
X65592Y-40285D01*
X65592Y-40285D02*
X65531Y-40298D01*
X65531Y-40298D02*
X65469Y-40298D01*
X65469Y-40298D02*
X65408Y-40285D01*
X65408Y-40285D02*
X65350Y-40259D01*
X65350Y-40259D02*
X65300Y-40222D01*
X65300Y-40222D02*
X65258Y-40176D01*
X65258Y-40176D02*
X65226Y-40122D01*
X65226Y-40122D02*
X65207Y-40062D01*
X65207Y-40062D02*
X65200Y-40000D01*
X65200Y-40000D02*
X65207Y-39938D01*
X65207Y-39938D02*
X65226Y-39878D01*
X65226Y-39878D02*
X65258Y-39824D01*
X65258Y-39824D02*
X65300Y-39778D01*
X65300Y-39778D02*
X65350Y-39741D01*
X65350Y-39741D02*
X65408Y-39715D01*
X65408Y-39715D02*
X65469Y-39702D01*
X65469Y-39702D02*
X65531Y-39702D01*
X65531Y-39702D02*
X65592Y-39715D01*
X65592Y-39715D02*
X65650Y-39741D01*
X65650Y-39741D02*
X65700Y-39778D01*
X65700Y-39778D02*
X65742Y-39824D01*
X65742Y-39824D02*
X65774Y-39878D01*
X65774Y-39878D02*
X65793Y-39938D01*
X65793Y-39938D02*
X65800Y-40000D01*
X63200Y-37800D02*
X63200Y-37200D01*
X63200Y-37200D02*
X63800Y-37200D01*
X63800Y-37200D02*
X63800Y-37800D01*
X63800Y-37800D02*
X63200Y-37800D01*
X64800Y-37500D02*
X64793Y-37562D01*
X64793Y-37562D02*
X64774Y-37622D01*
X64774Y-37622D02*
X64742Y-37676D01*
X64742Y-37676D02*
X64700Y-37722D01*
X64700Y-37722D02*
X64650Y-37759D01*
X64650Y-37759D02*
X64592Y-37785D01*
X64592Y-37785D02*
X64531Y-37798D01*
X64531Y-37798D02*
X64469Y-37798D01*
X64469Y-37798D02*
X64408Y-37785D01*
X64408Y-37785D02*
X64350Y-37759D01*
X64350Y-37759D02*
X64300Y-37722D01*
X64300Y-37722D02*
X64258Y-37676D01*
X64258Y-37676D02*
X64226Y-37622D01*
X64226Y-37622D02*
X64207Y-37562D01*
X64207Y-37562D02*
X64200Y-37500D01*
X64200Y-37500D02*
X64207Y-37438D01*
X64207Y-37438D02*
X64226Y-37378D01*
X64226Y-37378D02*
X64258Y-37324D01*
X64258Y-37324D02*
X64300Y-37278D01*
X64300Y-37278D02*
X64350Y-37241D01*
X64350Y-37241D02*
X64408Y-37215D01*
X64408Y-37215D02*
X64469Y-37202D01*
X64469Y-37202D02*
X64531Y-37202D01*
X64531Y-37202D02*
X64592Y-37215D01*
X64592Y-37215D02*
X64650Y-37241D01*
X64650Y-37241D02*
X64700Y-37278D01*
X64700Y-37278D02*
X64742Y-37324D01*
X64742Y-37324D02*
X64774Y-37378D01*
X64774Y-37378D02*
X64793Y-37438D01*
X64793Y-37438D02*
X64800Y-37500D01*
X65800Y-37500D02*
X65793Y-37562D01*
X65793Y-37562D02*
X65774Y-37622D01*
X65774Y-37622D02*
X65742Y-37676D01*
X65742Y-37676D02*
X65700Y-37722D01*
X65700Y-37722D02*
X65650Y-37759D01*
X65650Y-37759D02*
X65592Y-37785D01*
X65592Y-37785D02*
X65531Y-37798D01*
X65531Y-37798D02*
X65469Y-37798D01*
X65469Y-37798D02*
X65408Y-37785D01*
X65408Y-37785D02*
X65350Y-37759D01*
X65350Y-37759D02*
X65300Y-37722D01*
X65300Y-37722D02*
X65258Y-37676D01*
X65258Y-37676D02*
X65226Y-37622D01*
X65226Y-37622D02*
X65207Y-37562D01*
X65207Y-37562D02*
X65200Y-37500D01*
X65200Y-37500D02*
X65207Y-37438D01*
X65207Y-37438D02*
X65226Y-37378D01*
X65226Y-37378D02*
X65258Y-37324D01*
X65258Y-37324D02*
X65300Y-37278D01*
X65300Y-37278D02*
X65350Y-37241D01*
X65350Y-37241D02*
X65408Y-37215D01*
X65408Y-37215D02*
X65469Y-37202D01*
X65469Y-37202D02*
X65531Y-37202D01*
X65531Y-37202D02*
X65592Y-37215D01*
X65592Y-37215D02*
X65650Y-37241D01*
X65650Y-37241D02*
X65700Y-37278D01*
X65700Y-37278D02*
X65742Y-37324D01*
X65742Y-37324D02*
X65774Y-37378D01*
X65774Y-37378D02*
X65793Y-37438D01*
X65793Y-37438D02*
X65800Y-37500D01*
X35800Y-31700D02*
X35800Y-32300D01*
X35800Y-32300D02*
X35200Y-32300D01*
X35200Y-32300D02*
X35200Y-31700D01*
X35200Y-31700D02*
X35800Y-31700D01*
X34800Y-32000D02*
X34793Y-32062D01*
X34793Y-32062D02*
X34774Y-32122D01*
X34774Y-32122D02*
X34742Y-32176D01*
X34742Y-32176D02*
X34700Y-32222D01*
X34700Y-32222D02*
X34650Y-32259D01*
X34650Y-32259D02*
X34592Y-32285D01*
X34592Y-32285D02*
X34531Y-32298D01*
X34531Y-32298D02*
X34469Y-32298D01*
X34469Y-32298D02*
X34408Y-32285D01*
X34408Y-32285D02*
X34350Y-32259D01*
X34350Y-32259D02*
X34300Y-32222D01*
X34300Y-32222D02*
X34258Y-32176D01*
X34258Y-32176D02*
X34226Y-32122D01*
X34226Y-32122D02*
X34207Y-32062D01*
X34207Y-32062D02*
X34200Y-32000D01*
X34200Y-32000D02*
X34207Y-31938D01*
X34207Y-31938D02*
X34226Y-31878D01*
X34226Y-31878D02*
X34258Y-31824D01*
X34258Y-31824D02*
X34300Y-31778D01*
X34300Y-31778D02*
X34350Y-31741D01*
X34350Y-31741D02*
X34408Y-31715D01*
X34408Y-31715D02*
X34469Y-31702D01*
X34469Y-31702D02*
X34531Y-31702D01*
X34531Y-31702D02*
X34592Y-31715D01*
X34592Y-31715D02*
X34650Y-31741D01*
X34650Y-31741D02*
X34700Y-31778D01*
X34700Y-31778D02*
X34742Y-31824D01*
X34742Y-31824D02*
X34774Y-31878D01*
X34774Y-31878D02*
X34793Y-31938D01*
X34793Y-31938D02*
X34800Y-32000D01*
X33800Y-32000D02*
X33793Y-32062D01*
X33793Y-32062D02*
X33774Y-32122D01*
X33774Y-32122D02*
X33742Y-32176D01*
X33742Y-32176D02*
X33700Y-32222D01*
X33700Y-32222D02*
X33650Y-32259D01*
X33650Y-32259D02*
X33592Y-32285D01*
X33592Y-32285D02*
X33531Y-32298D01*
X33531Y-32298D02*
X33469Y-32298D01*
X33469Y-32298D02*
X33408Y-32285D01*
X33408Y-32285D02*
X33350Y-32259D01*
X33350Y-32259D02*
X33300Y-32222D01*
X33300Y-32222D02*
X33258Y-32176D01*
X33258Y-32176D02*
X33226Y-32122D01*
X33226Y-32122D02*
X33207Y-32062D01*
X33207Y-32062D02*
X33200Y-32000D01*
X33200Y-32000D02*
X33207Y-31938D01*
X33207Y-31938D02*
X33226Y-31878D01*
X33226Y-31878D02*
X33258Y-31824D01*
X33258Y-31824D02*
X33300Y-31778D01*
X33300Y-31778D02*
X33350Y-31741D01*
X33350Y-31741D02*
X33408Y-31715D01*
X33408Y-31715D02*
X33469Y-31702D01*
X33469Y-31702D02*
X33531Y-31702D01*
X33531Y-31702D02*
X33592Y-31715D01*
X33592Y-31715D02*
X33650Y-31741D01*
X33650Y-31741D02*
X33700Y-31778D01*
X33700Y-31778D02*
X33742Y-31824D01*
X33742Y-31824D02*
X33774Y-31878D01*
X33774Y-31878D02*
X33793Y-31938D01*
X33793Y-31938D02*
X33800Y-32000D01*
X32800Y-32000D02*
X32793Y-32062D01*
X32793Y-32062D02*
X32774Y-32122D01*
X32774Y-32122D02*
X32742Y-32176D01*
X32742Y-32176D02*
X32700Y-32222D01*
X32700Y-32222D02*
X32650Y-32259D01*
X32650Y-32259D02*
X32592Y-32285D01*
X32592Y-32285D02*
X32531Y-32298D01*
X32531Y-32298D02*
X32469Y-32298D01*
X32469Y-32298D02*
X32408Y-32285D01*
X32408Y-32285D02*
X32350Y-32259D01*
X32350Y-32259D02*
X32300Y-32222D01*
X32300Y-32222D02*
X32258Y-32176D01*
X32258Y-32176D02*
X32226Y-32122D01*
X32226Y-32122D02*
X32207Y-32062D01*
X32207Y-32062D02*
X32200Y-32000D01*
X32200Y-32000D02*
X32207Y-31938D01*
X32207Y-31938D02*
X32226Y-31878D01*
X32226Y-31878D02*
X32258Y-31824D01*
X32258Y-31824D02*
X32300Y-31778D01*
X32300Y-31778D02*
X32350Y-31741D01*
X32350Y-31741D02*
X32408Y-31715D01*
X32408Y-31715D02*
X32469Y-31702D01*
X32469Y-31702D02*
X32531Y-31702D01*
X32531Y-31702D02*
X32592Y-31715D01*
X32592Y-31715D02*
X32650Y-31741D01*
X32650Y-31741D02*
X32700Y-31778D01*
X32700Y-31778D02*
X32742Y-31824D01*
X32742Y-31824D02*
X32774Y-31878D01*
X32774Y-31878D02*
X32793Y-31938D01*
X32793Y-31938D02*
X32800Y-32000D01*
X31800Y-32000D02*
X31793Y-32062D01*
X31793Y-32062D02*
X31774Y-32122D01*
X31774Y-32122D02*
X31742Y-32176D01*
X31742Y-32176D02*
X31700Y-32222D01*
X31700Y-32222D02*
X31650Y-32259D01*
X31650Y-32259D02*
X31592Y-32285D01*
X31592Y-32285D02*
X31531Y-32298D01*
X31531Y-32298D02*
X31469Y-32298D01*
X31469Y-32298D02*
X31408Y-32285D01*
X31408Y-32285D02*
X31350Y-32259D01*
X31350Y-32259D02*
X31300Y-32222D01*
X31300Y-32222D02*
X31258Y-32176D01*
X31258Y-32176D02*
X31226Y-32122D01*
X31226Y-32122D02*
X31207Y-32062D01*
X31207Y-32062D02*
X31200Y-32000D01*
X31200Y-32000D02*
X31207Y-31938D01*
X31207Y-31938D02*
X31226Y-31878D01*
X31226Y-31878D02*
X31258Y-31824D01*
X31258Y-31824D02*
X31300Y-31778D01*
X31300Y-31778D02*
X31350Y-31741D01*
X31350Y-31741D02*
X31408Y-31715D01*
X31408Y-31715D02*
X31469Y-31702D01*
X31469Y-31702D02*
X31531Y-31702D01*
X31531Y-31702D02*
X31592Y-31715D01*
X31592Y-31715D02*
X31650Y-31741D01*
X31650Y-31741D02*
X31700Y-31778D01*
X31700Y-31778D02*
X31742Y-31824D01*
X31742Y-31824D02*
X31774Y-31878D01*
X31774Y-31878D02*
X31793Y-31938D01*
X31793Y-31938D02*
X31800Y-32000D01*
X35800Y-29200D02*
X35800Y-29800D01*
X35800Y-29800D02*
X35200Y-29800D01*
X35200Y-29800D02*
X35200Y-29200D01*
X35200Y-29200D02*
X35800Y-29200D01*
X34800Y-29500D02*
X34793Y-29562D01*
X34793Y-29562D02*
X34774Y-29622D01*
X34774Y-29622D02*
X34742Y-29676D01*
X34742Y-29676D02*
X34700Y-29722D01*
X34700Y-29722D02*
X34650Y-29759D01*
X34650Y-29759D02*
X34592Y-29785D01*
X34592Y-29785D02*
X34531Y-29798D01*
X34531Y-29798D02*
X34469Y-29798D01*
X34469Y-29798D02*
X34408Y-29785D01*
X34408Y-29785D02*
X34350Y-29759D01*
X34350Y-29759D02*
X34300Y-29722D01*
X34300Y-29722D02*
X34258Y-29676D01*
X34258Y-29676D02*
X34226Y-29622D01*
X34226Y-29622D02*
X34207Y-29562D01*
X34207Y-29562D02*
X34200Y-29500D01*
X34200Y-29500D02*
X34207Y-29438D01*
X34207Y-29438D02*
X34226Y-29378D01*
X34226Y-29378D02*
X34258Y-29324D01*
X34258Y-29324D02*
X34300Y-29278D01*
X34300Y-29278D02*
X34350Y-29241D01*
X34350Y-29241D02*
X34408Y-29215D01*
X34408Y-29215D02*
X34469Y-29202D01*
X34469Y-29202D02*
X34531Y-29202D01*
X34531Y-29202D02*
X34592Y-29215D01*
X34592Y-29215D02*
X34650Y-29241D01*
X34650Y-29241D02*
X34700Y-29278D01*
X34700Y-29278D02*
X34742Y-29324D01*
X34742Y-29324D02*
X34774Y-29378D01*
X34774Y-29378D02*
X34793Y-29438D01*
X34793Y-29438D02*
X34800Y-29500D01*
X33800Y-29500D02*
X33793Y-29562D01*
X33793Y-29562D02*
X33774Y-29622D01*
X33774Y-29622D02*
X33742Y-29676D01*
X33742Y-29676D02*
X33700Y-29722D01*
X33700Y-29722D02*
X33650Y-29759D01*
X33650Y-29759D02*
X33592Y-29785D01*
X33592Y-29785D02*
X33531Y-29798D01*
X33531Y-29798D02*
X33469Y-29798D01*
X33469Y-29798D02*
X33408Y-29785D01*
X33408Y-29785D02*
X33350Y-29759D01*
X33350Y-29759D02*
X33300Y-29722D01*
X33300Y-29722D02*
X33258Y-29676D01*
X33258Y-29676D02*
X33226Y-29622D01*
X33226Y-29622D02*
X33207Y-29562D01*
X33207Y-29562D02*
X33200Y-29500D01*
X33200Y-29500D02*
X33207Y-29438D01*
X33207Y-29438D02*
X33226Y-29378D01*
X33226Y-29378D02*
X33258Y-29324D01*
X33258Y-29324D02*
X33300Y-29278D01*
X33300Y-29278D02*
X33350Y-29241D01*
X33350Y-29241D02*
X33408Y-29215D01*
X33408Y-29215D02*
X33469Y-29202D01*
X33469Y-29202D02*
X33531Y-29202D01*
X33531Y-29202D02*
X33592Y-29215D01*
X33592Y-29215D02*
X33650Y-29241D01*
X33650Y-29241D02*
X33700Y-29278D01*
X33700Y-29278D02*
X33742Y-29324D01*
X33742Y-29324D02*
X33774Y-29378D01*
X33774Y-29378D02*
X33793Y-29438D01*
X33793Y-29438D02*
X33800Y-29500D01*
X32800Y-29500D02*
X32793Y-29562D01*
X32793Y-29562D02*
X32774Y-29622D01*
X32774Y-29622D02*
X32742Y-29676D01*
X32742Y-29676D02*
X32700Y-29722D01*
X32700Y-29722D02*
X32650Y-29759D01*
X32650Y-29759D02*
X32592Y-29785D01*
X32592Y-29785D02*
X32531Y-29798D01*
X32531Y-29798D02*
X32469Y-29798D01*
X32469Y-29798D02*
X32408Y-29785D01*
X32408Y-29785D02*
X32350Y-29759D01*
X32350Y-29759D02*
X32300Y-29722D01*
X32300Y-29722D02*
X32258Y-29676D01*
X32258Y-29676D02*
X32226Y-29622D01*
X32226Y-29622D02*
X32207Y-29562D01*
X32207Y-29562D02*
X32200Y-29500D01*
X32200Y-29500D02*
X32207Y-29438D01*
X32207Y-29438D02*
X32226Y-29378D01*
X32226Y-29378D02*
X32258Y-29324D01*
X32258Y-29324D02*
X32300Y-29278D01*
X32300Y-29278D02*
X32350Y-29241D01*
X32350Y-29241D02*
X32408Y-29215D01*
X32408Y-29215D02*
X32469Y-29202D01*
X32469Y-29202D02*
X32531Y-29202D01*
X32531Y-29202D02*
X32592Y-29215D01*
X32592Y-29215D02*
X32650Y-29241D01*
X32650Y-29241D02*
X32700Y-29278D01*
X32700Y-29278D02*
X32742Y-29324D01*
X32742Y-29324D02*
X32774Y-29378D01*
X32774Y-29378D02*
X32793Y-29438D01*
X32793Y-29438D02*
X32800Y-29500D01*
X31800Y-29500D02*
X31793Y-29562D01*
X31793Y-29562D02*
X31774Y-29622D01*
X31774Y-29622D02*
X31742Y-29676D01*
X31742Y-29676D02*
X31700Y-29722D01*
X31700Y-29722D02*
X31650Y-29759D01*
X31650Y-29759D02*
X31592Y-29785D01*
X31592Y-29785D02*
X31531Y-29798D01*
X31531Y-29798D02*
X31469Y-29798D01*
X31469Y-29798D02*
X31408Y-29785D01*
X31408Y-29785D02*
X31350Y-29759D01*
X31350Y-29759D02*
X31300Y-29722D01*
X31300Y-29722D02*
X31258Y-29676D01*
X31258Y-29676D02*
X31226Y-29622D01*
X31226Y-29622D02*
X31207Y-29562D01*
X31207Y-29562D02*
X31200Y-29500D01*
X31200Y-29500D02*
X31207Y-29438D01*
X31207Y-29438D02*
X31226Y-29378D01*
X31226Y-29378D02*
X31258Y-29324D01*
X31258Y-29324D02*
X31300Y-29278D01*
X31300Y-29278D02*
X31350Y-29241D01*
X31350Y-29241D02*
X31408Y-29215D01*
X31408Y-29215D02*
X31469Y-29202D01*
X31469Y-29202D02*
X31531Y-29202D01*
X31531Y-29202D02*
X31592Y-29215D01*
X31592Y-29215D02*
X31650Y-29241D01*
X31650Y-29241D02*
X31700Y-29278D01*
X31700Y-29278D02*
X31742Y-29324D01*
X31742Y-29324D02*
X31774Y-29378D01*
X31774Y-29378D02*
X31793Y-29438D01*
X31793Y-29438D02*
X31800Y-29500D01*
X38700Y-41800D02*
X38700Y-41200D01*
X38700Y-41200D02*
X39300Y-41200D01*
X39300Y-41200D02*
X39300Y-41800D01*
X39300Y-41800D02*
X38700Y-41800D01*
X40300Y-41500D02*
X40293Y-41562D01*
X40293Y-41562D02*
X40274Y-41622D01*
X40274Y-41622D02*
X40242Y-41676D01*
X40242Y-41676D02*
X40200Y-41722D01*
X40200Y-41722D02*
X40150Y-41759D01*
X40150Y-41759D02*
X40092Y-41785D01*
X40092Y-41785D02*
X40031Y-41798D01*
X40031Y-41798D02*
X39969Y-41798D01*
X39969Y-41798D02*
X39908Y-41785D01*
X39908Y-41785D02*
X39850Y-41759D01*
X39850Y-41759D02*
X39800Y-41722D01*
X39800Y-41722D02*
X39758Y-41676D01*
X39758Y-41676D02*
X39726Y-41622D01*
X39726Y-41622D02*
X39707Y-41562D01*
X39707Y-41562D02*
X39700Y-41500D01*
X39700Y-41500D02*
X39707Y-41438D01*
X39707Y-41438D02*
X39726Y-41378D01*
X39726Y-41378D02*
X39758Y-41324D01*
X39758Y-41324D02*
X39800Y-41278D01*
X39800Y-41278D02*
X39850Y-41241D01*
X39850Y-41241D02*
X39908Y-41215D01*
X39908Y-41215D02*
X39969Y-41202D01*
X39969Y-41202D02*
X40031Y-41202D01*
X40031Y-41202D02*
X40092Y-41215D01*
X40092Y-41215D02*
X40150Y-41241D01*
X40150Y-41241D02*
X40200Y-41278D01*
X40200Y-41278D02*
X40242Y-41324D01*
X40242Y-41324D02*
X40274Y-41378D01*
X40274Y-41378D02*
X40293Y-41438D01*
X40293Y-41438D02*
X40300Y-41500D01*
X41300Y-41500D02*
X41293Y-41562D01*
X41293Y-41562D02*
X41274Y-41622D01*
X41274Y-41622D02*
X41242Y-41676D01*
X41242Y-41676D02*
X41200Y-41722D01*
X41200Y-41722D02*
X41150Y-41759D01*
X41150Y-41759D02*
X41092Y-41785D01*
X41092Y-41785D02*
X41031Y-41798D01*
X41031Y-41798D02*
X40969Y-41798D01*
X40969Y-41798D02*
X40908Y-41785D01*
X40908Y-41785D02*
X40850Y-41759D01*
X40850Y-41759D02*
X40800Y-41722D01*
X40800Y-41722D02*
X40758Y-41676D01*
X40758Y-41676D02*
X40726Y-41622D01*
X40726Y-41622D02*
X40707Y-41562D01*
X40707Y-41562D02*
X40700Y-41500D01*
X40700Y-41500D02*
X40707Y-41438D01*
X40707Y-41438D02*
X40726Y-41378D01*
X40726Y-41378D02*
X40758Y-41324D01*
X40758Y-41324D02*
X40800Y-41278D01*
X40800Y-41278D02*
X40850Y-41241D01*
X40850Y-41241D02*
X40908Y-41215D01*
X40908Y-41215D02*
X40969Y-41202D01*
X40969Y-41202D02*
X41031Y-41202D01*
X41031Y-41202D02*
X41092Y-41215D01*
X41092Y-41215D02*
X41150Y-41241D01*
X41150Y-41241D02*
X41200Y-41278D01*
X41200Y-41278D02*
X41242Y-41324D01*
X41242Y-41324D02*
X41274Y-41378D01*
X41274Y-41378D02*
X41293Y-41438D01*
X41293Y-41438D02*
X41300Y-41500D01*
X42300Y-41500D02*
X42293Y-41562D01*
X42293Y-41562D02*
X42274Y-41622D01*
X42274Y-41622D02*
X42242Y-41676D01*
X42242Y-41676D02*
X42200Y-41722D01*
X42200Y-41722D02*
X42150Y-41759D01*
X42150Y-41759D02*
X42092Y-41785D01*
X42092Y-41785D02*
X42031Y-41798D01*
X42031Y-41798D02*
X41969Y-41798D01*
X41969Y-41798D02*
X41908Y-41785D01*
X41908Y-41785D02*
X41850Y-41759D01*
X41850Y-41759D02*
X41800Y-41722D01*
X41800Y-41722D02*
X41758Y-41676D01*
X41758Y-41676D02*
X41726Y-41622D01*
X41726Y-41622D02*
X41707Y-41562D01*
X41707Y-41562D02*
X41700Y-41500D01*
X41700Y-41500D02*
X41707Y-41438D01*
X41707Y-41438D02*
X41726Y-41378D01*
X41726Y-41378D02*
X41758Y-41324D01*
X41758Y-41324D02*
X41800Y-41278D01*
X41800Y-41278D02*
X41850Y-41241D01*
X41850Y-41241D02*
X41908Y-41215D01*
X41908Y-41215D02*
X41969Y-41202D01*
X41969Y-41202D02*
X42031Y-41202D01*
X42031Y-41202D02*
X42092Y-41215D01*
X42092Y-41215D02*
X42150Y-41241D01*
X42150Y-41241D02*
X42200Y-41278D01*
X42200Y-41278D02*
X42242Y-41324D01*
X42242Y-41324D02*
X42274Y-41378D01*
X42274Y-41378D02*
X42293Y-41438D01*
X42293Y-41438D02*
X42300Y-41500D01*
X43300Y-41500D02*
X43293Y-41562D01*
X43293Y-41562D02*
X43274Y-41622D01*
X43274Y-41622D02*
X43242Y-41676D01*
X43242Y-41676D02*
X43200Y-41722D01*
X43200Y-41722D02*
X43150Y-41759D01*
X43150Y-41759D02*
X43092Y-41785D01*
X43092Y-41785D02*
X43031Y-41798D01*
X43031Y-41798D02*
X42969Y-41798D01*
X42969Y-41798D02*
X42908Y-41785D01*
X42908Y-41785D02*
X42850Y-41759D01*
X42850Y-41759D02*
X42800Y-41722D01*
X42800Y-41722D02*
X42758Y-41676D01*
X42758Y-41676D02*
X42726Y-41622D01*
X42726Y-41622D02*
X42707Y-41562D01*
X42707Y-41562D02*
X42700Y-41500D01*
X42700Y-41500D02*
X42707Y-41438D01*
X42707Y-41438D02*
X42726Y-41378D01*
X42726Y-41378D02*
X42758Y-41324D01*
X42758Y-41324D02*
X42800Y-41278D01*
X42800Y-41278D02*
X42850Y-41241D01*
X42850Y-41241D02*
X42908Y-41215D01*
X42908Y-41215D02*
X42969Y-41202D01*
X42969Y-41202D02*
X43031Y-41202D01*
X43031Y-41202D02*
X43092Y-41215D01*
X43092Y-41215D02*
X43150Y-41241D01*
X43150Y-41241D02*
X43200Y-41278D01*
X43200Y-41278D02*
X43242Y-41324D01*
X43242Y-41324D02*
X43274Y-41378D01*
X43274Y-41378D02*
X43293Y-41438D01*
X43293Y-41438D02*
X43300Y-41500D01*
X32800Y-41800D02*
X32200Y-41800D01*
X32200Y-41800D02*
X32200Y-41200D01*
X32200Y-41200D02*
X32800Y-41200D01*
X32800Y-41200D02*
X32800Y-41800D01*
X31800Y-41500D02*
X31793Y-41562D01*
X31793Y-41562D02*
X31774Y-41622D01*
X31774Y-41622D02*
X31742Y-41676D01*
X31742Y-41676D02*
X31700Y-41722D01*
X31700Y-41722D02*
X31650Y-41759D01*
X31650Y-41759D02*
X31592Y-41785D01*
X31592Y-41785D02*
X31531Y-41798D01*
X31531Y-41798D02*
X31469Y-41798D01*
X31469Y-41798D02*
X31408Y-41785D01*
X31408Y-41785D02*
X31350Y-41759D01*
X31350Y-41759D02*
X31300Y-41722D01*
X31300Y-41722D02*
X31258Y-41676D01*
X31258Y-41676D02*
X31226Y-41622D01*
X31226Y-41622D02*
X31207Y-41562D01*
X31207Y-41562D02*
X31200Y-41500D01*
X31200Y-41500D02*
X31207Y-41438D01*
X31207Y-41438D02*
X31226Y-41378D01*
X31226Y-41378D02*
X31258Y-41324D01*
X31258Y-41324D02*
X31300Y-41278D01*
X31300Y-41278D02*
X31350Y-41241D01*
X31350Y-41241D02*
X31408Y-41215D01*
X31408Y-41215D02*
X31469Y-41202D01*
X31469Y-41202D02*
X31531Y-41202D01*
X31531Y-41202D02*
X31592Y-41215D01*
X31592Y-41215D02*
X31650Y-41241D01*
X31650Y-41241D02*
X31700Y-41278D01*
X31700Y-41278D02*
X31742Y-41324D01*
X31742Y-41324D02*
X31774Y-41378D01*
X31774Y-41378D02*
X31793Y-41438D01*
X31793Y-41438D02*
X31800Y-41500D01*
X32800Y-40500D02*
X32793Y-40562D01*
X32793Y-40562D02*
X32774Y-40622D01*
X32774Y-40622D02*
X32742Y-40676D01*
X32742Y-40676D02*
X32700Y-40722D01*
X32700Y-40722D02*
X32650Y-40759D01*
X32650Y-40759D02*
X32592Y-40785D01*
X32592Y-40785D02*
X32531Y-40798D01*
X32531Y-40798D02*
X32469Y-40798D01*
X32469Y-40798D02*
X32408Y-40785D01*
X32408Y-40785D02*
X32350Y-40759D01*
X32350Y-40759D02*
X32300Y-40722D01*
X32300Y-40722D02*
X32258Y-40676D01*
X32258Y-40676D02*
X32226Y-40622D01*
X32226Y-40622D02*
X32207Y-40562D01*
X32207Y-40562D02*
X32200Y-40500D01*
X32200Y-40500D02*
X32207Y-40438D01*
X32207Y-40438D02*
X32226Y-40378D01*
X32226Y-40378D02*
X32258Y-40324D01*
X32258Y-40324D02*
X32300Y-40278D01*
X32300Y-40278D02*
X32350Y-40241D01*
X32350Y-40241D02*
X32408Y-40215D01*
X32408Y-40215D02*
X32469Y-40202D01*
X32469Y-40202D02*
X32531Y-40202D01*
X32531Y-40202D02*
X32592Y-40215D01*
X32592Y-40215D02*
X32650Y-40241D01*
X32650Y-40241D02*
X32700Y-40278D01*
X32700Y-40278D02*
X32742Y-40324D01*
X32742Y-40324D02*
X32774Y-40378D01*
X32774Y-40378D02*
X32793Y-40438D01*
X32793Y-40438D02*
X32800Y-40500D01*
X31800Y-40500D02*
X31793Y-40562D01*
X31793Y-40562D02*
X31774Y-40622D01*
X31774Y-40622D02*
X31742Y-40676D01*
X31742Y-40676D02*
X31700Y-40722D01*
X31700Y-40722D02*
X31650Y-40759D01*
X31650Y-40759D02*
X31592Y-40785D01*
X31592Y-40785D02*
X31531Y-40798D01*
X31531Y-40798D02*
X31469Y-40798D01*
X31469Y-40798D02*
X31408Y-40785D01*
X31408Y-40785D02*
X31350Y-40759D01*
X31350Y-40759D02*
X31300Y-40722D01*
X31300Y-40722D02*
X31258Y-40676D01*
X31258Y-40676D02*
X31226Y-40622D01*
X31226Y-40622D02*
X31207Y-40562D01*
X31207Y-40562D02*
X31200Y-40500D01*
X31200Y-40500D02*
X31207Y-40438D01*
X31207Y-40438D02*
X31226Y-40378D01*
X31226Y-40378D02*
X31258Y-40324D01*
X31258Y-40324D02*
X31300Y-40278D01*
X31300Y-40278D02*
X31350Y-40241D01*
X31350Y-40241D02*
X31408Y-40215D01*
X31408Y-40215D02*
X31469Y-40202D01*
X31469Y-40202D02*
X31531Y-40202D01*
X31531Y-40202D02*
X31592Y-40215D01*
X31592Y-40215D02*
X31650Y-40241D01*
X31650Y-40241D02*
X31700Y-40278D01*
X31700Y-40278D02*
X31742Y-40324D01*
X31742Y-40324D02*
X31774Y-40378D01*
X31774Y-40378D02*
X31793Y-40438D01*
X31793Y-40438D02*
X31800Y-40500D01*
X32800Y-39500D02*
X32793Y-39562D01*
X32793Y-39562D02*
X32774Y-39622D01*
X32774Y-39622D02*
X32742Y-39676D01*
X32742Y-39676D02*
X32700Y-39722D01*
X32700Y-39722D02*
X32650Y-39759D01*
X32650Y-39759D02*
X32592Y-39785D01*
X32592Y-39785D02*
X32531Y-39798D01*
X32531Y-39798D02*
X32469Y-39798D01*
X32469Y-39798D02*
X32408Y-39785D01*
X32408Y-39785D02*
X32350Y-39759D01*
X32350Y-39759D02*
X32300Y-39722D01*
X32300Y-39722D02*
X32258Y-39676D01*
X32258Y-39676D02*
X32226Y-39622D01*
X32226Y-39622D02*
X32207Y-39562D01*
X32207Y-39562D02*
X32200Y-39500D01*
X32200Y-39500D02*
X32207Y-39438D01*
X32207Y-39438D02*
X32226Y-39378D01*
X32226Y-39378D02*
X32258Y-39324D01*
X32258Y-39324D02*
X32300Y-39278D01*
X32300Y-39278D02*
X32350Y-39241D01*
X32350Y-39241D02*
X32408Y-39215D01*
X32408Y-39215D02*
X32469Y-39202D01*
X32469Y-39202D02*
X32531Y-39202D01*
X32531Y-39202D02*
X32592Y-39215D01*
X32592Y-39215D02*
X32650Y-39241D01*
X32650Y-39241D02*
X32700Y-39278D01*
X32700Y-39278D02*
X32742Y-39324D01*
X32742Y-39324D02*
X32774Y-39378D01*
X32774Y-39378D02*
X32793Y-39438D01*
X32793Y-39438D02*
X32800Y-39500D01*
X31800Y-39500D02*
X31793Y-39562D01*
X31793Y-39562D02*
X31774Y-39622D01*
X31774Y-39622D02*
X31742Y-39676D01*
X31742Y-39676D02*
X31700Y-39722D01*
X31700Y-39722D02*
X31650Y-39759D01*
X31650Y-39759D02*
X31592Y-39785D01*
X31592Y-39785D02*
X31531Y-39798D01*
X31531Y-39798D02*
X31469Y-39798D01*
X31469Y-39798D02*
X31408Y-39785D01*
X31408Y-39785D02*
X31350Y-39759D01*
X31350Y-39759D02*
X31300Y-39722D01*
X31300Y-39722D02*
X31258Y-39676D01*
X31258Y-39676D02*
X31226Y-39622D01*
X31226Y-39622D02*
X31207Y-39562D01*
X31207Y-39562D02*
X31200Y-39500D01*
X31200Y-39500D02*
X31207Y-39438D01*
X31207Y-39438D02*
X31226Y-39378D01*
X31226Y-39378D02*
X31258Y-39324D01*
X31258Y-39324D02*
X31300Y-39278D01*
X31300Y-39278D02*
X31350Y-39241D01*
X31350Y-39241D02*
X31408Y-39215D01*
X31408Y-39215D02*
X31469Y-39202D01*
X31469Y-39202D02*
X31531Y-39202D01*
X31531Y-39202D02*
X31592Y-39215D01*
X31592Y-39215D02*
X31650Y-39241D01*
X31650Y-39241D02*
X31700Y-39278D01*
X31700Y-39278D02*
X31742Y-39324D01*
X31742Y-39324D02*
X31774Y-39378D01*
X31774Y-39378D02*
X31793Y-39438D01*
X31793Y-39438D02*
X31800Y-39500D01*
X32800Y-38500D02*
X32793Y-38562D01*
X32793Y-38562D02*
X32774Y-38622D01*
X32774Y-38622D02*
X32742Y-38676D01*
X32742Y-38676D02*
X32700Y-38722D01*
X32700Y-38722D02*
X32650Y-38759D01*
X32650Y-38759D02*
X32592Y-38785D01*
X32592Y-38785D02*
X32531Y-38798D01*
X32531Y-38798D02*
X32469Y-38798D01*
X32469Y-38798D02*
X32408Y-38785D01*
X32408Y-38785D02*
X32350Y-38759D01*
X32350Y-38759D02*
X32300Y-38722D01*
X32300Y-38722D02*
X32258Y-38676D01*
X32258Y-38676D02*
X32226Y-38622D01*
X32226Y-38622D02*
X32207Y-38562D01*
X32207Y-38562D02*
X32200Y-38500D01*
X32200Y-38500D02*
X32207Y-38438D01*
X32207Y-38438D02*
X32226Y-38378D01*
X32226Y-38378D02*
X32258Y-38324D01*
X32258Y-38324D02*
X32300Y-38278D01*
X32300Y-38278D02*
X32350Y-38241D01*
X32350Y-38241D02*
X32408Y-38215D01*
X32408Y-38215D02*
X32469Y-38202D01*
X32469Y-38202D02*
X32531Y-38202D01*
X32531Y-38202D02*
X32592Y-38215D01*
X32592Y-38215D02*
X32650Y-38241D01*
X32650Y-38241D02*
X32700Y-38278D01*
X32700Y-38278D02*
X32742Y-38324D01*
X32742Y-38324D02*
X32774Y-38378D01*
X32774Y-38378D02*
X32793Y-38438D01*
X32793Y-38438D02*
X32800Y-38500D01*
X31800Y-38500D02*
X31793Y-38562D01*
X31793Y-38562D02*
X31774Y-38622D01*
X31774Y-38622D02*
X31742Y-38676D01*
X31742Y-38676D02*
X31700Y-38722D01*
X31700Y-38722D02*
X31650Y-38759D01*
X31650Y-38759D02*
X31592Y-38785D01*
X31592Y-38785D02*
X31531Y-38798D01*
X31531Y-38798D02*
X31469Y-38798D01*
X31469Y-38798D02*
X31408Y-38785D01*
X31408Y-38785D02*
X31350Y-38759D01*
X31350Y-38759D02*
X31300Y-38722D01*
X31300Y-38722D02*
X31258Y-38676D01*
X31258Y-38676D02*
X31226Y-38622D01*
X31226Y-38622D02*
X31207Y-38562D01*
X31207Y-38562D02*
X31200Y-38500D01*
X31200Y-38500D02*
X31207Y-38438D01*
X31207Y-38438D02*
X31226Y-38378D01*
X31226Y-38378D02*
X31258Y-38324D01*
X31258Y-38324D02*
X31300Y-38278D01*
X31300Y-38278D02*
X31350Y-38241D01*
X31350Y-38241D02*
X31408Y-38215D01*
X31408Y-38215D02*
X31469Y-38202D01*
X31469Y-38202D02*
X31531Y-38202D01*
X31531Y-38202D02*
X31592Y-38215D01*
X31592Y-38215D02*
X31650Y-38241D01*
X31650Y-38241D02*
X31700Y-38278D01*
X31700Y-38278D02*
X31742Y-38324D01*
X31742Y-38324D02*
X31774Y-38378D01*
X31774Y-38378D02*
X31793Y-38438D01*
X31793Y-38438D02*
X31800Y-38500D01*
X32800Y-37500D02*
X32793Y-37562D01*
X32793Y-37562D02*
X32774Y-37622D01*
X32774Y-37622D02*
X32742Y-37676D01*
X32742Y-37676D02*
X32700Y-37722D01*
X32700Y-37722D02*
X32650Y-37759D01*
X32650Y-37759D02*
X32592Y-37785D01*
X32592Y-37785D02*
X32531Y-37798D01*
X32531Y-37798D02*
X32469Y-37798D01*
X32469Y-37798D02*
X32408Y-37785D01*
X32408Y-37785D02*
X32350Y-37759D01*
X32350Y-37759D02*
X32300Y-37722D01*
X32300Y-37722D02*
X32258Y-37676D01*
X32258Y-37676D02*
X32226Y-37622D01*
X32226Y-37622D02*
X32207Y-37562D01*
X32207Y-37562D02*
X32200Y-37500D01*
X32200Y-37500D02*
X32207Y-37438D01*
X32207Y-37438D02*
X32226Y-37378D01*
X32226Y-37378D02*
X32258Y-37324D01*
X32258Y-37324D02*
X32300Y-37278D01*
X32300Y-37278D02*
X32350Y-37241D01*
X32350Y-37241D02*
X32408Y-37215D01*
X32408Y-37215D02*
X32469Y-37202D01*
X32469Y-37202D02*
X32531Y-37202D01*
X32531Y-37202D02*
X32592Y-37215D01*
X32592Y-37215D02*
X32650Y-37241D01*
X32650Y-37241D02*
X32700Y-37278D01*
X32700Y-37278D02*
X32742Y-37324D01*
X32742Y-37324D02*
X32774Y-37378D01*
X32774Y-37378D02*
X32793Y-37438D01*
X32793Y-37438D02*
X32800Y-37500D01*
X31800Y-37500D02*
X31793Y-37562D01*
X31793Y-37562D02*
X31774Y-37622D01*
X31774Y-37622D02*
X31742Y-37676D01*
X31742Y-37676D02*
X31700Y-37722D01*
X31700Y-37722D02*
X31650Y-37759D01*
X31650Y-37759D02*
X31592Y-37785D01*
X31592Y-37785D02*
X31531Y-37798D01*
X31531Y-37798D02*
X31469Y-37798D01*
X31469Y-37798D02*
X31408Y-37785D01*
X31408Y-37785D02*
X31350Y-37759D01*
X31350Y-37759D02*
X31300Y-37722D01*
X31300Y-37722D02*
X31258Y-37676D01*
X31258Y-37676D02*
X31226Y-37622D01*
X31226Y-37622D02*
X31207Y-37562D01*
X31207Y-37562D02*
X31200Y-37500D01*
X31200Y-37500D02*
X31207Y-37438D01*
X31207Y-37438D02*
X31226Y-37378D01*
X31226Y-37378D02*
X31258Y-37324D01*
X31258Y-37324D02*
X31300Y-37278D01*
X31300Y-37278D02*
X31350Y-37241D01*
X31350Y-37241D02*
X31408Y-37215D01*
X31408Y-37215D02*
X31469Y-37202D01*
X31469Y-37202D02*
X31531Y-37202D01*
X31531Y-37202D02*
X31592Y-37215D01*
X31592Y-37215D02*
X31650Y-37241D01*
X31650Y-37241D02*
X31700Y-37278D01*
X31700Y-37278D02*
X31742Y-37324D01*
X31742Y-37324D02*
X31774Y-37378D01*
X31774Y-37378D02*
X31793Y-37438D01*
X31793Y-37438D02*
X31800Y-37500D01*
X32800Y-36500D02*
X32793Y-36562D01*
X32793Y-36562D02*
X32774Y-36622D01*
X32774Y-36622D02*
X32742Y-36676D01*
X32742Y-36676D02*
X32700Y-36722D01*
X32700Y-36722D02*
X32650Y-36759D01*
X32650Y-36759D02*
X32592Y-36785D01*
X32592Y-36785D02*
X32531Y-36798D01*
X32531Y-36798D02*
X32469Y-36798D01*
X32469Y-36798D02*
X32408Y-36785D01*
X32408Y-36785D02*
X32350Y-36759D01*
X32350Y-36759D02*
X32300Y-36722D01*
X32300Y-36722D02*
X32258Y-36676D01*
X32258Y-36676D02*
X32226Y-36622D01*
X32226Y-36622D02*
X32207Y-36562D01*
X32207Y-36562D02*
X32200Y-36500D01*
X32200Y-36500D02*
X32207Y-36438D01*
X32207Y-36438D02*
X32226Y-36378D01*
X32226Y-36378D02*
X32258Y-36324D01*
X32258Y-36324D02*
X32300Y-36278D01*
X32300Y-36278D02*
X32350Y-36241D01*
X32350Y-36241D02*
X32408Y-36215D01*
X32408Y-36215D02*
X32469Y-36202D01*
X32469Y-36202D02*
X32531Y-36202D01*
X32531Y-36202D02*
X32592Y-36215D01*
X32592Y-36215D02*
X32650Y-36241D01*
X32650Y-36241D02*
X32700Y-36278D01*
X32700Y-36278D02*
X32742Y-36324D01*
X32742Y-36324D02*
X32774Y-36378D01*
X32774Y-36378D02*
X32793Y-36438D01*
X32793Y-36438D02*
X32800Y-36500D01*
X31800Y-36500D02*
X31793Y-36562D01*
X31793Y-36562D02*
X31774Y-36622D01*
X31774Y-36622D02*
X31742Y-36676D01*
X31742Y-36676D02*
X31700Y-36722D01*
X31700Y-36722D02*
X31650Y-36759D01*
X31650Y-36759D02*
X31592Y-36785D01*
X31592Y-36785D02*
X31531Y-36798D01*
X31531Y-36798D02*
X31469Y-36798D01*
X31469Y-36798D02*
X31408Y-36785D01*
X31408Y-36785D02*
X31350Y-36759D01*
X31350Y-36759D02*
X31300Y-36722D01*
X31300Y-36722D02*
X31258Y-36676D01*
X31258Y-36676D02*
X31226Y-36622D01*
X31226Y-36622D02*
X31207Y-36562D01*
X31207Y-36562D02*
X31200Y-36500D01*
X31200Y-36500D02*
X31207Y-36438D01*
X31207Y-36438D02*
X31226Y-36378D01*
X31226Y-36378D02*
X31258Y-36324D01*
X31258Y-36324D02*
X31300Y-36278D01*
X31300Y-36278D02*
X31350Y-36241D01*
X31350Y-36241D02*
X31408Y-36215D01*
X31408Y-36215D02*
X31469Y-36202D01*
X31469Y-36202D02*
X31531Y-36202D01*
X31531Y-36202D02*
X31592Y-36215D01*
X31592Y-36215D02*
X31650Y-36241D01*
X31650Y-36241D02*
X31700Y-36278D01*
X31700Y-36278D02*
X31742Y-36324D01*
X31742Y-36324D02*
X31774Y-36378D01*
X31774Y-36378D02*
X31793Y-36438D01*
X31793Y-36438D02*
X31800Y-36500D01*
X32800Y-35500D02*
X32793Y-35562D01*
X32793Y-35562D02*
X32774Y-35622D01*
X32774Y-35622D02*
X32742Y-35676D01*
X32742Y-35676D02*
X32700Y-35722D01*
X32700Y-35722D02*
X32650Y-35759D01*
X32650Y-35759D02*
X32592Y-35785D01*
X32592Y-35785D02*
X32531Y-35798D01*
X32531Y-35798D02*
X32469Y-35798D01*
X32469Y-35798D02*
X32408Y-35785D01*
X32408Y-35785D02*
X32350Y-35759D01*
X32350Y-35759D02*
X32300Y-35722D01*
X32300Y-35722D02*
X32258Y-35676D01*
X32258Y-35676D02*
X32226Y-35622D01*
X32226Y-35622D02*
X32207Y-35562D01*
X32207Y-35562D02*
X32200Y-35500D01*
X32200Y-35500D02*
X32207Y-35438D01*
X32207Y-35438D02*
X32226Y-35378D01*
X32226Y-35378D02*
X32258Y-35324D01*
X32258Y-35324D02*
X32300Y-35278D01*
X32300Y-35278D02*
X32350Y-35241D01*
X32350Y-35241D02*
X32408Y-35215D01*
X32408Y-35215D02*
X32469Y-35202D01*
X32469Y-35202D02*
X32531Y-35202D01*
X32531Y-35202D02*
X32592Y-35215D01*
X32592Y-35215D02*
X32650Y-35241D01*
X32650Y-35241D02*
X32700Y-35278D01*
X32700Y-35278D02*
X32742Y-35324D01*
X32742Y-35324D02*
X32774Y-35378D01*
X32774Y-35378D02*
X32793Y-35438D01*
X32793Y-35438D02*
X32800Y-35500D01*
X31800Y-35500D02*
X31793Y-35562D01*
X31793Y-35562D02*
X31774Y-35622D01*
X31774Y-35622D02*
X31742Y-35676D01*
X31742Y-35676D02*
X31700Y-35722D01*
X31700Y-35722D02*
X31650Y-35759D01*
X31650Y-35759D02*
X31592Y-35785D01*
X31592Y-35785D02*
X31531Y-35798D01*
X31531Y-35798D02*
X31469Y-35798D01*
X31469Y-35798D02*
X31408Y-35785D01*
X31408Y-35785D02*
X31350Y-35759D01*
X31350Y-35759D02*
X31300Y-35722D01*
X31300Y-35722D02*
X31258Y-35676D01*
X31258Y-35676D02*
X31226Y-35622D01*
X31226Y-35622D02*
X31207Y-35562D01*
X31207Y-35562D02*
X31200Y-35500D01*
X31200Y-35500D02*
X31207Y-35438D01*
X31207Y-35438D02*
X31226Y-35378D01*
X31226Y-35378D02*
X31258Y-35324D01*
X31258Y-35324D02*
X31300Y-35278D01*
X31300Y-35278D02*
X31350Y-35241D01*
X31350Y-35241D02*
X31408Y-35215D01*
X31408Y-35215D02*
X31469Y-35202D01*
X31469Y-35202D02*
X31531Y-35202D01*
X31531Y-35202D02*
X31592Y-35215D01*
X31592Y-35215D02*
X31650Y-35241D01*
X31650Y-35241D02*
X31700Y-35278D01*
X31700Y-35278D02*
X31742Y-35324D01*
X31742Y-35324D02*
X31774Y-35378D01*
X31774Y-35378D02*
X31793Y-35438D01*
X31793Y-35438D02*
X31800Y-35500D01*
X32800Y-34500D02*
X32793Y-34562D01*
X32793Y-34562D02*
X32774Y-34622D01*
X32774Y-34622D02*
X32742Y-34676D01*
X32742Y-34676D02*
X32700Y-34722D01*
X32700Y-34722D02*
X32650Y-34759D01*
X32650Y-34759D02*
X32592Y-34785D01*
X32592Y-34785D02*
X32531Y-34798D01*
X32531Y-34798D02*
X32469Y-34798D01*
X32469Y-34798D02*
X32408Y-34785D01*
X32408Y-34785D02*
X32350Y-34759D01*
X32350Y-34759D02*
X32300Y-34722D01*
X32300Y-34722D02*
X32258Y-34676D01*
X32258Y-34676D02*
X32226Y-34622D01*
X32226Y-34622D02*
X32207Y-34562D01*
X32207Y-34562D02*
X32200Y-34500D01*
X32200Y-34500D02*
X32207Y-34438D01*
X32207Y-34438D02*
X32226Y-34378D01*
X32226Y-34378D02*
X32258Y-34324D01*
X32258Y-34324D02*
X32300Y-34278D01*
X32300Y-34278D02*
X32350Y-34241D01*
X32350Y-34241D02*
X32408Y-34215D01*
X32408Y-34215D02*
X32469Y-34202D01*
X32469Y-34202D02*
X32531Y-34202D01*
X32531Y-34202D02*
X32592Y-34215D01*
X32592Y-34215D02*
X32650Y-34241D01*
X32650Y-34241D02*
X32700Y-34278D01*
X32700Y-34278D02*
X32742Y-34324D01*
X32742Y-34324D02*
X32774Y-34378D01*
X32774Y-34378D02*
X32793Y-34438D01*
X32793Y-34438D02*
X32800Y-34500D01*
X31800Y-34500D02*
X31793Y-34562D01*
X31793Y-34562D02*
X31774Y-34622D01*
X31774Y-34622D02*
X31742Y-34676D01*
X31742Y-34676D02*
X31700Y-34722D01*
X31700Y-34722D02*
X31650Y-34759D01*
X31650Y-34759D02*
X31592Y-34785D01*
X31592Y-34785D02*
X31531Y-34798D01*
X31531Y-34798D02*
X31469Y-34798D01*
X31469Y-34798D02*
X31408Y-34785D01*
X31408Y-34785D02*
X31350Y-34759D01*
X31350Y-34759D02*
X31300Y-34722D01*
X31300Y-34722D02*
X31258Y-34676D01*
X31258Y-34676D02*
X31226Y-34622D01*
X31226Y-34622D02*
X31207Y-34562D01*
X31207Y-34562D02*
X31200Y-34500D01*
X31200Y-34500D02*
X31207Y-34438D01*
X31207Y-34438D02*
X31226Y-34378D01*
X31226Y-34378D02*
X31258Y-34324D01*
X31258Y-34324D02*
X31300Y-34278D01*
X31300Y-34278D02*
X31350Y-34241D01*
X31350Y-34241D02*
X31408Y-34215D01*
X31408Y-34215D02*
X31469Y-34202D01*
X31469Y-34202D02*
X31531Y-34202D01*
X31531Y-34202D02*
X31592Y-34215D01*
X31592Y-34215D02*
X31650Y-34241D01*
X31650Y-34241D02*
X31700Y-34278D01*
X31700Y-34278D02*
X31742Y-34324D01*
X31742Y-34324D02*
X31774Y-34378D01*
X31774Y-34378D02*
X31793Y-34438D01*
X31793Y-34438D02*
X31800Y-34500D01*
X31775Y-49000D02*
X31768Y-49057D01*
X31768Y-49057D02*
X31751Y-49111D01*
X31751Y-49111D02*
X31722Y-49161D01*
X31722Y-49161D02*
X31684Y-49204D01*
X31684Y-49204D02*
X31637Y-49238D01*
X31637Y-49238D02*
X31584Y-49261D01*
X31584Y-49261D02*
X31528Y-49273D01*
X31528Y-49273D02*
X31472Y-49273D01*
X31472Y-49273D02*
X31416Y-49261D01*
X31416Y-49261D02*
X31363Y-49238D01*
X31363Y-49238D02*
X31316Y-49204D01*
X31316Y-49204D02*
X31278Y-49161D01*
X31278Y-49161D02*
X31249Y-49111D01*
X31249Y-49111D02*
X31232Y-49057D01*
X31232Y-49057D02*
X31225Y-49000D01*
X31225Y-49000D02*
X31232Y-48943D01*
X31232Y-48943D02*
X31249Y-48889D01*
X31249Y-48889D02*
X31278Y-48839D01*
X31278Y-48839D02*
X31316Y-48796D01*
X31316Y-48796D02*
X31363Y-48762D01*
X31363Y-48762D02*
X31416Y-48739D01*
X31416Y-48739D02*
X31472Y-48727D01*
X31472Y-48727D02*
X31528Y-48727D01*
X31528Y-48727D02*
X31584Y-48739D01*
X31584Y-48739D02*
X31637Y-48762D01*
X31637Y-48762D02*
X31684Y-48796D01*
X31684Y-48796D02*
X31722Y-48839D01*
X31722Y-48839D02*
X31751Y-48889D01*
X31751Y-48889D02*
X31768Y-48943D01*
X31768Y-48943D02*
X31775Y-49000D01*
X28775Y-49000D02*
X28768Y-49057D01*
X28768Y-49057D02*
X28751Y-49111D01*
X28751Y-49111D02*
X28722Y-49161D01*
X28722Y-49161D02*
X28684Y-49204D01*
X28684Y-49204D02*
X28637Y-49238D01*
X28637Y-49238D02*
X28584Y-49261D01*
X28584Y-49261D02*
X28528Y-49273D01*
X28528Y-49273D02*
X28472Y-49273D01*
X28472Y-49273D02*
X28416Y-49261D01*
X28416Y-49261D02*
X28363Y-49238D01*
X28363Y-49238D02*
X28316Y-49204D01*
X28316Y-49204D02*
X28278Y-49161D01*
X28278Y-49161D02*
X28249Y-49111D01*
X28249Y-49111D02*
X28232Y-49057D01*
X28232Y-49057D02*
X28225Y-49000D01*
X28225Y-49000D02*
X28232Y-48943D01*
X28232Y-48943D02*
X28249Y-48889D01*
X28249Y-48889D02*
X28278Y-48839D01*
X28278Y-48839D02*
X28316Y-48796D01*
X28316Y-48796D02*
X28363Y-48762D01*
X28363Y-48762D02*
X28416Y-48739D01*
X28416Y-48739D02*
X28472Y-48727D01*
X28472Y-48727D02*
X28528Y-48727D01*
X28528Y-48727D02*
X28584Y-48739D01*
X28584Y-48739D02*
X28637Y-48762D01*
X28637Y-48762D02*
X28684Y-48796D01*
X28684Y-48796D02*
X28722Y-48839D01*
X28722Y-48839D02*
X28751Y-48889D01*
X28751Y-48889D02*
X28768Y-48943D01*
X28768Y-48943D02*
X28775Y-49000D01*
X36275Y-45500D02*
X36268Y-45557D01*
X36268Y-45557D02*
X36251Y-45611D01*
X36251Y-45611D02*
X36222Y-45661D01*
X36222Y-45661D02*
X36184Y-45704D01*
X36184Y-45704D02*
X36137Y-45738D01*
X36137Y-45738D02*
X36084Y-45761D01*
X36084Y-45761D02*
X36028Y-45773D01*
X36028Y-45773D02*
X35972Y-45773D01*
X35972Y-45773D02*
X35916Y-45761D01*
X35916Y-45761D02*
X35863Y-45738D01*
X35863Y-45738D02*
X35816Y-45704D01*
X35816Y-45704D02*
X35778Y-45661D01*
X35778Y-45661D02*
X35749Y-45611D01*
X35749Y-45611D02*
X35732Y-45557D01*
X35732Y-45557D02*
X35725Y-45500D01*
X35725Y-45500D02*
X35732Y-45443D01*
X35732Y-45443D02*
X35749Y-45389D01*
X35749Y-45389D02*
X35778Y-45339D01*
X35778Y-45339D02*
X35816Y-45296D01*
X35816Y-45296D02*
X35863Y-45262D01*
X35863Y-45262D02*
X35916Y-45239D01*
X35916Y-45239D02*
X35972Y-45227D01*
X35972Y-45227D02*
X36028Y-45227D01*
X36028Y-45227D02*
X36084Y-45239D01*
X36084Y-45239D02*
X36137Y-45262D01*
X36137Y-45262D02*
X36184Y-45296D01*
X36184Y-45296D02*
X36222Y-45339D01*
X36222Y-45339D02*
X36251Y-45389D01*
X36251Y-45389D02*
X36268Y-45443D01*
X36268Y-45443D02*
X36275Y-45500D01*
X39275Y-45500D02*
X39268Y-45557D01*
X39268Y-45557D02*
X39251Y-45611D01*
X39251Y-45611D02*
X39222Y-45661D01*
X39222Y-45661D02*
X39184Y-45704D01*
X39184Y-45704D02*
X39137Y-45738D01*
X39137Y-45738D02*
X39084Y-45761D01*
X39084Y-45761D02*
X39028Y-45773D01*
X39028Y-45773D02*
X38972Y-45773D01*
X38972Y-45773D02*
X38916Y-45761D01*
X38916Y-45761D02*
X38863Y-45738D01*
X38863Y-45738D02*
X38816Y-45704D01*
X38816Y-45704D02*
X38778Y-45661D01*
X38778Y-45661D02*
X38749Y-45611D01*
X38749Y-45611D02*
X38732Y-45557D01*
X38732Y-45557D02*
X38725Y-45500D01*
X38725Y-45500D02*
X38732Y-45443D01*
X38732Y-45443D02*
X38749Y-45389D01*
X38749Y-45389D02*
X38778Y-45339D01*
X38778Y-45339D02*
X38816Y-45296D01*
X38816Y-45296D02*
X38863Y-45262D01*
X38863Y-45262D02*
X38916Y-45239D01*
X38916Y-45239D02*
X38972Y-45227D01*
X38972Y-45227D02*
X39028Y-45227D01*
X39028Y-45227D02*
X39084Y-45239D01*
X39084Y-45239D02*
X39137Y-45262D01*
X39137Y-45262D02*
X39184Y-45296D01*
X39184Y-45296D02*
X39222Y-45339D01*
X39222Y-45339D02*
X39251Y-45389D01*
X39251Y-45389D02*
X39268Y-45443D01*
X39268Y-45443D02*
X39275Y-45500D01*
X61775Y-41500D02*
X61768Y-41557D01*
X61768Y-41557D02*
X61751Y-41611D01*
X61751Y-41611D02*
X61722Y-41661D01*
X61722Y-41661D02*
X61684Y-41704D01*
X61684Y-41704D02*
X61637Y-41738D01*
X61637Y-41738D02*
X61584Y-41761D01*
X61584Y-41761D02*
X61528Y-41773D01*
X61528Y-41773D02*
X61472Y-41773D01*
X61472Y-41773D02*
X61416Y-41761D01*
X61416Y-41761D02*
X61363Y-41738D01*
X61363Y-41738D02*
X61316Y-41704D01*
X61316Y-41704D02*
X61278Y-41661D01*
X61278Y-41661D02*
X61249Y-41611D01*
X61249Y-41611D02*
X61232Y-41557D01*
X61232Y-41557D02*
X61225Y-41500D01*
X61225Y-41500D02*
X61232Y-41443D01*
X61232Y-41443D02*
X61249Y-41389D01*
X61249Y-41389D02*
X61278Y-41339D01*
X61278Y-41339D02*
X61316Y-41296D01*
X61316Y-41296D02*
X61363Y-41262D01*
X61363Y-41262D02*
X61416Y-41239D01*
X61416Y-41239D02*
X61472Y-41227D01*
X61472Y-41227D02*
X61528Y-41227D01*
X61528Y-41227D02*
X61584Y-41239D01*
X61584Y-41239D02*
X61637Y-41262D01*
X61637Y-41262D02*
X61684Y-41296D01*
X61684Y-41296D02*
X61722Y-41339D01*
X61722Y-41339D02*
X61751Y-41389D01*
X61751Y-41389D02*
X61768Y-41443D01*
X61768Y-41443D02*
X61775Y-41500D01*
X61775Y-38500D02*
X61768Y-38557D01*
X61768Y-38557D02*
X61751Y-38611D01*
X61751Y-38611D02*
X61722Y-38661D01*
X61722Y-38661D02*
X61684Y-38704D01*
X61684Y-38704D02*
X61637Y-38738D01*
X61637Y-38738D02*
X61584Y-38761D01*
X61584Y-38761D02*
X61528Y-38773D01*
X61528Y-38773D02*
X61472Y-38773D01*
X61472Y-38773D02*
X61416Y-38761D01*
X61416Y-38761D02*
X61363Y-38738D01*
X61363Y-38738D02*
X61316Y-38704D01*
X61316Y-38704D02*
X61278Y-38661D01*
X61278Y-38661D02*
X61249Y-38611D01*
X61249Y-38611D02*
X61232Y-38557D01*
X61232Y-38557D02*
X61225Y-38500D01*
X61225Y-38500D02*
X61232Y-38443D01*
X61232Y-38443D02*
X61249Y-38389D01*
X61249Y-38389D02*
X61278Y-38339D01*
X61278Y-38339D02*
X61316Y-38296D01*
X61316Y-38296D02*
X61363Y-38262D01*
X61363Y-38262D02*
X61416Y-38239D01*
X61416Y-38239D02*
X61472Y-38227D01*
X61472Y-38227D02*
X61528Y-38227D01*
X61528Y-38227D02*
X61584Y-38239D01*
X61584Y-38239D02*
X61637Y-38262D01*
X61637Y-38262D02*
X61684Y-38296D01*
X61684Y-38296D02*
X61722Y-38339D01*
X61722Y-38339D02*
X61751Y-38389D01*
X61751Y-38389D02*
X61768Y-38443D01*
X61768Y-38443D02*
X61775Y-38500D01*
X65775Y-38500D02*
X65768Y-38557D01*
X65768Y-38557D02*
X65751Y-38611D01*
X65751Y-38611D02*
X65722Y-38661D01*
X65722Y-38661D02*
X65684Y-38704D01*
X65684Y-38704D02*
X65637Y-38738D01*
X65637Y-38738D02*
X65584Y-38761D01*
X65584Y-38761D02*
X65528Y-38773D01*
X65528Y-38773D02*
X65472Y-38773D01*
X65472Y-38773D02*
X65416Y-38761D01*
X65416Y-38761D02*
X65363Y-38738D01*
X65363Y-38738D02*
X65316Y-38704D01*
X65316Y-38704D02*
X65278Y-38661D01*
X65278Y-38661D02*
X65249Y-38611D01*
X65249Y-38611D02*
X65232Y-38557D01*
X65232Y-38557D02*
X65225Y-38500D01*
X65225Y-38500D02*
X65232Y-38443D01*
X65232Y-38443D02*
X65249Y-38389D01*
X65249Y-38389D02*
X65278Y-38339D01*
X65278Y-38339D02*
X65316Y-38296D01*
X65316Y-38296D02*
X65363Y-38262D01*
X65363Y-38262D02*
X65416Y-38239D01*
X65416Y-38239D02*
X65472Y-38227D01*
X65472Y-38227D02*
X65528Y-38227D01*
X65528Y-38227D02*
X65584Y-38239D01*
X65584Y-38239D02*
X65637Y-38262D01*
X65637Y-38262D02*
X65684Y-38296D01*
X65684Y-38296D02*
X65722Y-38339D01*
X65722Y-38339D02*
X65751Y-38389D01*
X65751Y-38389D02*
X65768Y-38443D01*
X65768Y-38443D02*
X65775Y-38500D01*
X62775Y-38500D02*
X62768Y-38557D01*
X62768Y-38557D02*
X62751Y-38611D01*
X62751Y-38611D02*
X62722Y-38661D01*
X62722Y-38661D02*
X62684Y-38704D01*
X62684Y-38704D02*
X62637Y-38738D01*
X62637Y-38738D02*
X62584Y-38761D01*
X62584Y-38761D02*
X62528Y-38773D01*
X62528Y-38773D02*
X62472Y-38773D01*
X62472Y-38773D02*
X62416Y-38761D01*
X62416Y-38761D02*
X62363Y-38738D01*
X62363Y-38738D02*
X62316Y-38704D01*
X62316Y-38704D02*
X62278Y-38661D01*
X62278Y-38661D02*
X62249Y-38611D01*
X62249Y-38611D02*
X62232Y-38557D01*
X62232Y-38557D02*
X62225Y-38500D01*
X62225Y-38500D02*
X62232Y-38443D01*
X62232Y-38443D02*
X62249Y-38389D01*
X62249Y-38389D02*
X62278Y-38339D01*
X62278Y-38339D02*
X62316Y-38296D01*
X62316Y-38296D02*
X62363Y-38262D01*
X62363Y-38262D02*
X62416Y-38239D01*
X62416Y-38239D02*
X62472Y-38227D01*
X62472Y-38227D02*
X62528Y-38227D01*
X62528Y-38227D02*
X62584Y-38239D01*
X62584Y-38239D02*
X62637Y-38262D01*
X62637Y-38262D02*
X62684Y-38296D01*
X62684Y-38296D02*
X62722Y-38339D01*
X62722Y-38339D02*
X62751Y-38389D01*
X62751Y-38389D02*
X62768Y-38443D01*
X62768Y-38443D02*
X62775Y-38500D01*
X43275Y-43500D02*
X43268Y-43557D01*
X43268Y-43557D02*
X43251Y-43611D01*
X43251Y-43611D02*
X43222Y-43661D01*
X43222Y-43661D02*
X43184Y-43704D01*
X43184Y-43704D02*
X43137Y-43738D01*
X43137Y-43738D02*
X43084Y-43761D01*
X43084Y-43761D02*
X43028Y-43773D01*
X43028Y-43773D02*
X42972Y-43773D01*
X42972Y-43773D02*
X42916Y-43761D01*
X42916Y-43761D02*
X42863Y-43738D01*
X42863Y-43738D02*
X42816Y-43704D01*
X42816Y-43704D02*
X42778Y-43661D01*
X42778Y-43661D02*
X42749Y-43611D01*
X42749Y-43611D02*
X42732Y-43557D01*
X42732Y-43557D02*
X42725Y-43500D01*
X42725Y-43500D02*
X42732Y-43443D01*
X42732Y-43443D02*
X42749Y-43389D01*
X42749Y-43389D02*
X42778Y-43339D01*
X42778Y-43339D02*
X42816Y-43296D01*
X42816Y-43296D02*
X42863Y-43262D01*
X42863Y-43262D02*
X42916Y-43239D01*
X42916Y-43239D02*
X42972Y-43227D01*
X42972Y-43227D02*
X43028Y-43227D01*
X43028Y-43227D02*
X43084Y-43239D01*
X43084Y-43239D02*
X43137Y-43262D01*
X43137Y-43262D02*
X43184Y-43296D01*
X43184Y-43296D02*
X43222Y-43339D01*
X43222Y-43339D02*
X43251Y-43389D01*
X43251Y-43389D02*
X43268Y-43443D01*
X43268Y-43443D02*
X43275Y-43500D01*
X40275Y-43500D02*
X40268Y-43557D01*
X40268Y-43557D02*
X40251Y-43611D01*
X40251Y-43611D02*
X40222Y-43661D01*
X40222Y-43661D02*
X40184Y-43704D01*
X40184Y-43704D02*
X40137Y-43738D01*
X40137Y-43738D02*
X40084Y-43761D01*
X40084Y-43761D02*
X40028Y-43773D01*
X40028Y-43773D02*
X39972Y-43773D01*
X39972Y-43773D02*
X39916Y-43761D01*
X39916Y-43761D02*
X39863Y-43738D01*
X39863Y-43738D02*
X39816Y-43704D01*
X39816Y-43704D02*
X39778Y-43661D01*
X39778Y-43661D02*
X39749Y-43611D01*
X39749Y-43611D02*
X39732Y-43557D01*
X39732Y-43557D02*
X39725Y-43500D01*
X39725Y-43500D02*
X39732Y-43443D01*
X39732Y-43443D02*
X39749Y-43389D01*
X39749Y-43389D02*
X39778Y-43339D01*
X39778Y-43339D02*
X39816Y-43296D01*
X39816Y-43296D02*
X39863Y-43262D01*
X39863Y-43262D02*
X39916Y-43239D01*
X39916Y-43239D02*
X39972Y-43227D01*
X39972Y-43227D02*
X40028Y-43227D01*
X40028Y-43227D02*
X40084Y-43239D01*
X40084Y-43239D02*
X40137Y-43262D01*
X40137Y-43262D02*
X40184Y-43296D01*
X40184Y-43296D02*
X40222Y-43339D01*
X40222Y-43339D02*
X40251Y-43389D01*
X40251Y-43389D02*
X40268Y-43443D01*
X40268Y-43443D02*
X40275Y-43500D01*
X34775Y-45000D02*
X34768Y-45057D01*
X34768Y-45057D02*
X34751Y-45111D01*
X34751Y-45111D02*
X34722Y-45161D01*
X34722Y-45161D02*
X34684Y-45204D01*
X34684Y-45204D02*
X34637Y-45238D01*
X34637Y-45238D02*
X34584Y-45261D01*
X34584Y-45261D02*
X34528Y-45273D01*
X34528Y-45273D02*
X34472Y-45273D01*
X34472Y-45273D02*
X34416Y-45261D01*
X34416Y-45261D02*
X34363Y-45238D01*
X34363Y-45238D02*
X34316Y-45204D01*
X34316Y-45204D02*
X34278Y-45161D01*
X34278Y-45161D02*
X34249Y-45111D01*
X34249Y-45111D02*
X34232Y-45057D01*
X34232Y-45057D02*
X34225Y-45000D01*
X34225Y-45000D02*
X34232Y-44943D01*
X34232Y-44943D02*
X34249Y-44889D01*
X34249Y-44889D02*
X34278Y-44839D01*
X34278Y-44839D02*
X34316Y-44796D01*
X34316Y-44796D02*
X34363Y-44762D01*
X34363Y-44762D02*
X34416Y-44739D01*
X34416Y-44739D02*
X34472Y-44727D01*
X34472Y-44727D02*
X34528Y-44727D01*
X34528Y-44727D02*
X34584Y-44739D01*
X34584Y-44739D02*
X34637Y-44762D01*
X34637Y-44762D02*
X34684Y-44796D01*
X34684Y-44796D02*
X34722Y-44839D01*
X34722Y-44839D02*
X34751Y-44889D01*
X34751Y-44889D02*
X34768Y-44943D01*
X34768Y-44943D02*
X34775Y-45000D01*
X34775Y-48000D02*
X34768Y-48057D01*
X34768Y-48057D02*
X34751Y-48111D01*
X34751Y-48111D02*
X34722Y-48161D01*
X34722Y-48161D02*
X34684Y-48204D01*
X34684Y-48204D02*
X34637Y-48238D01*
X34637Y-48238D02*
X34584Y-48261D01*
X34584Y-48261D02*
X34528Y-48273D01*
X34528Y-48273D02*
X34472Y-48273D01*
X34472Y-48273D02*
X34416Y-48261D01*
X34416Y-48261D02*
X34363Y-48238D01*
X34363Y-48238D02*
X34316Y-48204D01*
X34316Y-48204D02*
X34278Y-48161D01*
X34278Y-48161D02*
X34249Y-48111D01*
X34249Y-48111D02*
X34232Y-48057D01*
X34232Y-48057D02*
X34225Y-48000D01*
X34225Y-48000D02*
X34232Y-47943D01*
X34232Y-47943D02*
X34249Y-47889D01*
X34249Y-47889D02*
X34278Y-47839D01*
X34278Y-47839D02*
X34316Y-47796D01*
X34316Y-47796D02*
X34363Y-47762D01*
X34363Y-47762D02*
X34416Y-47739D01*
X34416Y-47739D02*
X34472Y-47727D01*
X34472Y-47727D02*
X34528Y-47727D01*
X34528Y-47727D02*
X34584Y-47739D01*
X34584Y-47739D02*
X34637Y-47762D01*
X34637Y-47762D02*
X34684Y-47796D01*
X34684Y-47796D02*
X34722Y-47839D01*
X34722Y-47839D02*
X34751Y-47889D01*
X34751Y-47889D02*
X34768Y-47943D01*
X34768Y-47943D02*
X34775Y-48000D01*
X45275Y-42500D02*
X45268Y-42557D01*
X45268Y-42557D02*
X45251Y-42611D01*
X45251Y-42611D02*
X45222Y-42661D01*
X45222Y-42661D02*
X45184Y-42704D01*
X45184Y-42704D02*
X45137Y-42738D01*
X45137Y-42738D02*
X45084Y-42761D01*
X45084Y-42761D02*
X45028Y-42773D01*
X45028Y-42773D02*
X44972Y-42773D01*
X44972Y-42773D02*
X44916Y-42761D01*
X44916Y-42761D02*
X44863Y-42738D01*
X44863Y-42738D02*
X44816Y-42704D01*
X44816Y-42704D02*
X44778Y-42661D01*
X44778Y-42661D02*
X44749Y-42611D01*
X44749Y-42611D02*
X44732Y-42557D01*
X44732Y-42557D02*
X44725Y-42500D01*
X44725Y-42500D02*
X44732Y-42443D01*
X44732Y-42443D02*
X44749Y-42389D01*
X44749Y-42389D02*
X44778Y-42339D01*
X44778Y-42339D02*
X44816Y-42296D01*
X44816Y-42296D02*
X44863Y-42262D01*
X44863Y-42262D02*
X44916Y-42239D01*
X44916Y-42239D02*
X44972Y-42227D01*
X44972Y-42227D02*
X45028Y-42227D01*
X45028Y-42227D02*
X45084Y-42239D01*
X45084Y-42239D02*
X45137Y-42262D01*
X45137Y-42262D02*
X45184Y-42296D01*
X45184Y-42296D02*
X45222Y-42339D01*
X45222Y-42339D02*
X45251Y-42389D01*
X45251Y-42389D02*
X45268Y-42443D01*
X45268Y-42443D02*
X45275Y-42500D01*
X42275Y-42500D02*
X42268Y-42557D01*
X42268Y-42557D02*
X42251Y-42611D01*
X42251Y-42611D02*
X42222Y-42661D01*
X42222Y-42661D02*
X42184Y-42704D01*
X42184Y-42704D02*
X42137Y-42738D01*
X42137Y-42738D02*
X42084Y-42761D01*
X42084Y-42761D02*
X42028Y-42773D01*
X42028Y-42773D02*
X41972Y-42773D01*
X41972Y-42773D02*
X41916Y-42761D01*
X41916Y-42761D02*
X41863Y-42738D01*
X41863Y-42738D02*
X41816Y-42704D01*
X41816Y-42704D02*
X41778Y-42661D01*
X41778Y-42661D02*
X41749Y-42611D01*
X41749Y-42611D02*
X41732Y-42557D01*
X41732Y-42557D02*
X41725Y-42500D01*
X41725Y-42500D02*
X41732Y-42443D01*
X41732Y-42443D02*
X41749Y-42389D01*
X41749Y-42389D02*
X41778Y-42339D01*
X41778Y-42339D02*
X41816Y-42296D01*
X41816Y-42296D02*
X41863Y-42262D01*
X41863Y-42262D02*
X41916Y-42239D01*
X41916Y-42239D02*
X41972Y-42227D01*
X41972Y-42227D02*
X42028Y-42227D01*
X42028Y-42227D02*
X42084Y-42239D01*
X42084Y-42239D02*
X42137Y-42262D01*
X42137Y-42262D02*
X42184Y-42296D01*
X42184Y-42296D02*
X42222Y-42339D01*
X42222Y-42339D02*
X42251Y-42389D01*
X42251Y-42389D02*
X42268Y-42443D01*
X42268Y-42443D02*
X42275Y-42500D01*
X33275Y-42500D02*
X33268Y-42557D01*
X33268Y-42557D02*
X33251Y-42611D01*
X33251Y-42611D02*
X33222Y-42661D01*
X33222Y-42661D02*
X33184Y-42704D01*
X33184Y-42704D02*
X33137Y-42738D01*
X33137Y-42738D02*
X33084Y-42761D01*
X33084Y-42761D02*
X33028Y-42773D01*
X33028Y-42773D02*
X32972Y-42773D01*
X32972Y-42773D02*
X32916Y-42761D01*
X32916Y-42761D02*
X32863Y-42738D01*
X32863Y-42738D02*
X32816Y-42704D01*
X32816Y-42704D02*
X32778Y-42661D01*
X32778Y-42661D02*
X32749Y-42611D01*
X32749Y-42611D02*
X32732Y-42557D01*
X32732Y-42557D02*
X32725Y-42500D01*
X32725Y-42500D02*
X32732Y-42443D01*
X32732Y-42443D02*
X32749Y-42389D01*
X32749Y-42389D02*
X32778Y-42339D01*
X32778Y-42339D02*
X32816Y-42296D01*
X32816Y-42296D02*
X32863Y-42262D01*
X32863Y-42262D02*
X32916Y-42239D01*
X32916Y-42239D02*
X32972Y-42227D01*
X32972Y-42227D02*
X33028Y-42227D01*
X33028Y-42227D02*
X33084Y-42239D01*
X33084Y-42239D02*
X33137Y-42262D01*
X33137Y-42262D02*
X33184Y-42296D01*
X33184Y-42296D02*
X33222Y-42339D01*
X33222Y-42339D02*
X33251Y-42389D01*
X33251Y-42389D02*
X33268Y-42443D01*
X33268Y-42443D02*
X33275Y-42500D01*
X30275Y-42500D02*
X30268Y-42557D01*
X30268Y-42557D02*
X30251Y-42611D01*
X30251Y-42611D02*
X30222Y-42661D01*
X30222Y-42661D02*
X30184Y-42704D01*
X30184Y-42704D02*
X30137Y-42738D01*
X30137Y-42738D02*
X30084Y-42761D01*
X30084Y-42761D02*
X30028Y-42773D01*
X30028Y-42773D02*
X29972Y-42773D01*
X29972Y-42773D02*
X29916Y-42761D01*
X29916Y-42761D02*
X29863Y-42738D01*
X29863Y-42738D02*
X29816Y-42704D01*
X29816Y-42704D02*
X29778Y-42661D01*
X29778Y-42661D02*
X29749Y-42611D01*
X29749Y-42611D02*
X29732Y-42557D01*
X29732Y-42557D02*
X29725Y-42500D01*
X29725Y-42500D02*
X29732Y-42443D01*
X29732Y-42443D02*
X29749Y-42389D01*
X29749Y-42389D02*
X29778Y-42339D01*
X29778Y-42339D02*
X29816Y-42296D01*
X29816Y-42296D02*
X29863Y-42262D01*
X29863Y-42262D02*
X29916Y-42239D01*
X29916Y-42239D02*
X29972Y-42227D01*
X29972Y-42227D02*
X30028Y-42227D01*
X30028Y-42227D02*
X30084Y-42239D01*
X30084Y-42239D02*
X30137Y-42262D01*
X30137Y-42262D02*
X30184Y-42296D01*
X30184Y-42296D02*
X30222Y-42339D01*
X30222Y-42339D02*
X30251Y-42389D01*
X30251Y-42389D02*
X30268Y-42443D01*
X30268Y-42443D02*
X30275Y-42500D01*
X33775Y-33000D02*
X33768Y-33057D01*
X33768Y-33057D02*
X33751Y-33111D01*
X33751Y-33111D02*
X33722Y-33161D01*
X33722Y-33161D02*
X33684Y-33204D01*
X33684Y-33204D02*
X33637Y-33238D01*
X33637Y-33238D02*
X33584Y-33261D01*
X33584Y-33261D02*
X33528Y-33273D01*
X33528Y-33273D02*
X33472Y-33273D01*
X33472Y-33273D02*
X33416Y-33261D01*
X33416Y-33261D02*
X33363Y-33238D01*
X33363Y-33238D02*
X33316Y-33204D01*
X33316Y-33204D02*
X33278Y-33161D01*
X33278Y-33161D02*
X33249Y-33111D01*
X33249Y-33111D02*
X33232Y-33057D01*
X33232Y-33057D02*
X33225Y-33000D01*
X33225Y-33000D02*
X33232Y-32943D01*
X33232Y-32943D02*
X33249Y-32889D01*
X33249Y-32889D02*
X33278Y-32839D01*
X33278Y-32839D02*
X33316Y-32796D01*
X33316Y-32796D02*
X33363Y-32762D01*
X33363Y-32762D02*
X33416Y-32739D01*
X33416Y-32739D02*
X33472Y-32727D01*
X33472Y-32727D02*
X33528Y-32727D01*
X33528Y-32727D02*
X33584Y-32739D01*
X33584Y-32739D02*
X33637Y-32762D01*
X33637Y-32762D02*
X33684Y-32796D01*
X33684Y-32796D02*
X33722Y-32839D01*
X33722Y-32839D02*
X33751Y-32889D01*
X33751Y-32889D02*
X33768Y-32943D01*
X33768Y-32943D02*
X33775Y-33000D01*
X30775Y-33000D02*
X30768Y-33057D01*
X30768Y-33057D02*
X30751Y-33111D01*
X30751Y-33111D02*
X30722Y-33161D01*
X30722Y-33161D02*
X30684Y-33204D01*
X30684Y-33204D02*
X30637Y-33238D01*
X30637Y-33238D02*
X30584Y-33261D01*
X30584Y-33261D02*
X30528Y-33273D01*
X30528Y-33273D02*
X30472Y-33273D01*
X30472Y-33273D02*
X30416Y-33261D01*
X30416Y-33261D02*
X30363Y-33238D01*
X30363Y-33238D02*
X30316Y-33204D01*
X30316Y-33204D02*
X30278Y-33161D01*
X30278Y-33161D02*
X30249Y-33111D01*
X30249Y-33111D02*
X30232Y-33057D01*
X30232Y-33057D02*
X30225Y-33000D01*
X30225Y-33000D02*
X30232Y-32943D01*
X30232Y-32943D02*
X30249Y-32889D01*
X30249Y-32889D02*
X30278Y-32839D01*
X30278Y-32839D02*
X30316Y-32796D01*
X30316Y-32796D02*
X30363Y-32762D01*
X30363Y-32762D02*
X30416Y-32739D01*
X30416Y-32739D02*
X30472Y-32727D01*
X30472Y-32727D02*
X30528Y-32727D01*
X30528Y-32727D02*
X30584Y-32739D01*
X30584Y-32739D02*
X30637Y-32762D01*
X30637Y-32762D02*
X30684Y-32796D01*
X30684Y-32796D02*
X30722Y-32839D01*
X30722Y-32839D02*
X30751Y-32889D01*
X30751Y-32889D02*
X30768Y-32943D01*
X30768Y-32943D02*
X30775Y-33000D01*
X40275Y-44500D02*
X40268Y-44557D01*
X40268Y-44557D02*
X40251Y-44611D01*
X40251Y-44611D02*
X40222Y-44661D01*
X40222Y-44661D02*
X40184Y-44704D01*
X40184Y-44704D02*
X40137Y-44738D01*
X40137Y-44738D02*
X40084Y-44761D01*
X40084Y-44761D02*
X40028Y-44773D01*
X40028Y-44773D02*
X39972Y-44773D01*
X39972Y-44773D02*
X39916Y-44761D01*
X39916Y-44761D02*
X39863Y-44738D01*
X39863Y-44738D02*
X39816Y-44704D01*
X39816Y-44704D02*
X39778Y-44661D01*
X39778Y-44661D02*
X39749Y-44611D01*
X39749Y-44611D02*
X39732Y-44557D01*
X39732Y-44557D02*
X39725Y-44500D01*
X39725Y-44500D02*
X39732Y-44443D01*
X39732Y-44443D02*
X39749Y-44389D01*
X39749Y-44389D02*
X39778Y-44339D01*
X39778Y-44339D02*
X39816Y-44296D01*
X39816Y-44296D02*
X39863Y-44262D01*
X39863Y-44262D02*
X39916Y-44239D01*
X39916Y-44239D02*
X39972Y-44227D01*
X39972Y-44227D02*
X40028Y-44227D01*
X40028Y-44227D02*
X40084Y-44239D01*
X40084Y-44239D02*
X40137Y-44262D01*
X40137Y-44262D02*
X40184Y-44296D01*
X40184Y-44296D02*
X40222Y-44339D01*
X40222Y-44339D02*
X40251Y-44389D01*
X40251Y-44389D02*
X40268Y-44443D01*
X40268Y-44443D02*
X40275Y-44500D01*
X43275Y-44500D02*
X43268Y-44557D01*
X43268Y-44557D02*
X43251Y-44611D01*
X43251Y-44611D02*
X43222Y-44661D01*
X43222Y-44661D02*
X43184Y-44704D01*
X43184Y-44704D02*
X43137Y-44738D01*
X43137Y-44738D02*
X43084Y-44761D01*
X43084Y-44761D02*
X43028Y-44773D01*
X43028Y-44773D02*
X42972Y-44773D01*
X42972Y-44773D02*
X42916Y-44761D01*
X42916Y-44761D02*
X42863Y-44738D01*
X42863Y-44738D02*
X42816Y-44704D01*
X42816Y-44704D02*
X42778Y-44661D01*
X42778Y-44661D02*
X42749Y-44611D01*
X42749Y-44611D02*
X42732Y-44557D01*
X42732Y-44557D02*
X42725Y-44500D01*
X42725Y-44500D02*
X42732Y-44443D01*
X42732Y-44443D02*
X42749Y-44389D01*
X42749Y-44389D02*
X42778Y-44339D01*
X42778Y-44339D02*
X42816Y-44296D01*
X42816Y-44296D02*
X42863Y-44262D01*
X42863Y-44262D02*
X42916Y-44239D01*
X42916Y-44239D02*
X42972Y-44227D01*
X42972Y-44227D02*
X43028Y-44227D01*
X43028Y-44227D02*
X43084Y-44239D01*
X43084Y-44239D02*
X43137Y-44262D01*
X43137Y-44262D02*
X43184Y-44296D01*
X43184Y-44296D02*
X43222Y-44339D01*
X43222Y-44339D02*
X43251Y-44389D01*
X43251Y-44389D02*
X43268Y-44443D01*
X43268Y-44443D02*
X43275Y-44500D01*
X52275Y-45500D02*
X52268Y-45557D01*
X52268Y-45557D02*
X52251Y-45611D01*
X52251Y-45611D02*
X52222Y-45661D01*
X52222Y-45661D02*
X52184Y-45704D01*
X52184Y-45704D02*
X52137Y-45738D01*
X52137Y-45738D02*
X52084Y-45761D01*
X52084Y-45761D02*
X52028Y-45773D01*
X52028Y-45773D02*
X51972Y-45773D01*
X51972Y-45773D02*
X51916Y-45761D01*
X51916Y-45761D02*
X51863Y-45738D01*
X51863Y-45738D02*
X51816Y-45704D01*
X51816Y-45704D02*
X51778Y-45661D01*
X51778Y-45661D02*
X51749Y-45611D01*
X51749Y-45611D02*
X51732Y-45557D01*
X51732Y-45557D02*
X51725Y-45500D01*
X51725Y-45500D02*
X51732Y-45443D01*
X51732Y-45443D02*
X51749Y-45389D01*
X51749Y-45389D02*
X51778Y-45339D01*
X51778Y-45339D02*
X51816Y-45296D01*
X51816Y-45296D02*
X51863Y-45262D01*
X51863Y-45262D02*
X51916Y-45239D01*
X51916Y-45239D02*
X51972Y-45227D01*
X51972Y-45227D02*
X52028Y-45227D01*
X52028Y-45227D02*
X52084Y-45239D01*
X52084Y-45239D02*
X52137Y-45262D01*
X52137Y-45262D02*
X52184Y-45296D01*
X52184Y-45296D02*
X52222Y-45339D01*
X52222Y-45339D02*
X52251Y-45389D01*
X52251Y-45389D02*
X52268Y-45443D01*
X52268Y-45443D02*
X52275Y-45500D01*
X52275Y-42500D02*
X52268Y-42557D01*
X52268Y-42557D02*
X52251Y-42611D01*
X52251Y-42611D02*
X52222Y-42661D01*
X52222Y-42661D02*
X52184Y-42704D01*
X52184Y-42704D02*
X52137Y-42738D01*
X52137Y-42738D02*
X52084Y-42761D01*
X52084Y-42761D02*
X52028Y-42773D01*
X52028Y-42773D02*
X51972Y-42773D01*
X51972Y-42773D02*
X51916Y-42761D01*
X51916Y-42761D02*
X51863Y-42738D01*
X51863Y-42738D02*
X51816Y-42704D01*
X51816Y-42704D02*
X51778Y-42661D01*
X51778Y-42661D02*
X51749Y-42611D01*
X51749Y-42611D02*
X51732Y-42557D01*
X51732Y-42557D02*
X51725Y-42500D01*
X51725Y-42500D02*
X51732Y-42443D01*
X51732Y-42443D02*
X51749Y-42389D01*
X51749Y-42389D02*
X51778Y-42339D01*
X51778Y-42339D02*
X51816Y-42296D01*
X51816Y-42296D02*
X51863Y-42262D01*
X51863Y-42262D02*
X51916Y-42239D01*
X51916Y-42239D02*
X51972Y-42227D01*
X51972Y-42227D02*
X52028Y-42227D01*
X52028Y-42227D02*
X52084Y-42239D01*
X52084Y-42239D02*
X52137Y-42262D01*
X52137Y-42262D02*
X52184Y-42296D01*
X52184Y-42296D02*
X52222Y-42339D01*
X52222Y-42339D02*
X52251Y-42389D01*
X52251Y-42389D02*
X52268Y-42443D01*
X52268Y-42443D02*
X52275Y-42500D01*
X55275Y-32500D02*
X55268Y-32557D01*
X55268Y-32557D02*
X55251Y-32611D01*
X55251Y-32611D02*
X55222Y-32661D01*
X55222Y-32661D02*
X55184Y-32704D01*
X55184Y-32704D02*
X55137Y-32738D01*
X55137Y-32738D02*
X55084Y-32761D01*
X55084Y-32761D02*
X55028Y-32773D01*
X55028Y-32773D02*
X54972Y-32773D01*
X54972Y-32773D02*
X54916Y-32761D01*
X54916Y-32761D02*
X54863Y-32738D01*
X54863Y-32738D02*
X54816Y-32704D01*
X54816Y-32704D02*
X54778Y-32661D01*
X54778Y-32661D02*
X54749Y-32611D01*
X54749Y-32611D02*
X54732Y-32557D01*
X54732Y-32557D02*
X54725Y-32500D01*
X54725Y-32500D02*
X54732Y-32443D01*
X54732Y-32443D02*
X54749Y-32389D01*
X54749Y-32389D02*
X54778Y-32339D01*
X54778Y-32339D02*
X54816Y-32296D01*
X54816Y-32296D02*
X54863Y-32262D01*
X54863Y-32262D02*
X54916Y-32239D01*
X54916Y-32239D02*
X54972Y-32227D01*
X54972Y-32227D02*
X55028Y-32227D01*
X55028Y-32227D02*
X55084Y-32239D01*
X55084Y-32239D02*
X55137Y-32262D01*
X55137Y-32262D02*
X55184Y-32296D01*
X55184Y-32296D02*
X55222Y-32339D01*
X55222Y-32339D02*
X55251Y-32389D01*
X55251Y-32389D02*
X55268Y-32443D01*
X55268Y-32443D02*
X55275Y-32500D01*
X52275Y-32500D02*
X52268Y-32557D01*
X52268Y-32557D02*
X52251Y-32611D01*
X52251Y-32611D02*
X52222Y-32661D01*
X52222Y-32661D02*
X52184Y-32704D01*
X52184Y-32704D02*
X52137Y-32738D01*
X52137Y-32738D02*
X52084Y-32761D01*
X52084Y-32761D02*
X52028Y-32773D01*
X52028Y-32773D02*
X51972Y-32773D01*
X51972Y-32773D02*
X51916Y-32761D01*
X51916Y-32761D02*
X51863Y-32738D01*
X51863Y-32738D02*
X51816Y-32704D01*
X51816Y-32704D02*
X51778Y-32661D01*
X51778Y-32661D02*
X51749Y-32611D01*
X51749Y-32611D02*
X51732Y-32557D01*
X51732Y-32557D02*
X51725Y-32500D01*
X51725Y-32500D02*
X51732Y-32443D01*
X51732Y-32443D02*
X51749Y-32389D01*
X51749Y-32389D02*
X51778Y-32339D01*
X51778Y-32339D02*
X51816Y-32296D01*
X51816Y-32296D02*
X51863Y-32262D01*
X51863Y-32262D02*
X51916Y-32239D01*
X51916Y-32239D02*
X51972Y-32227D01*
X51972Y-32227D02*
X52028Y-32227D01*
X52028Y-32227D02*
X52084Y-32239D01*
X52084Y-32239D02*
X52137Y-32262D01*
X52137Y-32262D02*
X52184Y-32296D01*
X52184Y-32296D02*
X52222Y-32339D01*
X52222Y-32339D02*
X52251Y-32389D01*
X52251Y-32389D02*
X52268Y-32443D01*
X52268Y-32443D02*
X52275Y-32500D01*
X36275Y-44500D02*
X36268Y-44557D01*
X36268Y-44557D02*
X36251Y-44611D01*
X36251Y-44611D02*
X36222Y-44661D01*
X36222Y-44661D02*
X36184Y-44704D01*
X36184Y-44704D02*
X36137Y-44738D01*
X36137Y-44738D02*
X36084Y-44761D01*
X36084Y-44761D02*
X36028Y-44773D01*
X36028Y-44773D02*
X35972Y-44773D01*
X35972Y-44773D02*
X35916Y-44761D01*
X35916Y-44761D02*
X35863Y-44738D01*
X35863Y-44738D02*
X35816Y-44704D01*
X35816Y-44704D02*
X35778Y-44661D01*
X35778Y-44661D02*
X35749Y-44611D01*
X35749Y-44611D02*
X35732Y-44557D01*
X35732Y-44557D02*
X35725Y-44500D01*
X35725Y-44500D02*
X35732Y-44443D01*
X35732Y-44443D02*
X35749Y-44389D01*
X35749Y-44389D02*
X35778Y-44339D01*
X35778Y-44339D02*
X35816Y-44296D01*
X35816Y-44296D02*
X35863Y-44262D01*
X35863Y-44262D02*
X35916Y-44239D01*
X35916Y-44239D02*
X35972Y-44227D01*
X35972Y-44227D02*
X36028Y-44227D01*
X36028Y-44227D02*
X36084Y-44239D01*
X36084Y-44239D02*
X36137Y-44262D01*
X36137Y-44262D02*
X36184Y-44296D01*
X36184Y-44296D02*
X36222Y-44339D01*
X36222Y-44339D02*
X36251Y-44389D01*
X36251Y-44389D02*
X36268Y-44443D01*
X36268Y-44443D02*
X36275Y-44500D01*
X39275Y-44500D02*
X39268Y-44557D01*
X39268Y-44557D02*
X39251Y-44611D01*
X39251Y-44611D02*
X39222Y-44661D01*
X39222Y-44661D02*
X39184Y-44704D01*
X39184Y-44704D02*
X39137Y-44738D01*
X39137Y-44738D02*
X39084Y-44761D01*
X39084Y-44761D02*
X39028Y-44773D01*
X39028Y-44773D02*
X38972Y-44773D01*
X38972Y-44773D02*
X38916Y-44761D01*
X38916Y-44761D02*
X38863Y-44738D01*
X38863Y-44738D02*
X38816Y-44704D01*
X38816Y-44704D02*
X38778Y-44661D01*
X38778Y-44661D02*
X38749Y-44611D01*
X38749Y-44611D02*
X38732Y-44557D01*
X38732Y-44557D02*
X38725Y-44500D01*
X38725Y-44500D02*
X38732Y-44443D01*
X38732Y-44443D02*
X38749Y-44389D01*
X38749Y-44389D02*
X38778Y-44339D01*
X38778Y-44339D02*
X38816Y-44296D01*
X38816Y-44296D02*
X38863Y-44262D01*
X38863Y-44262D02*
X38916Y-44239D01*
X38916Y-44239D02*
X38972Y-44227D01*
X38972Y-44227D02*
X39028Y-44227D01*
X39028Y-44227D02*
X39084Y-44239D01*
X39084Y-44239D02*
X39137Y-44262D01*
X39137Y-44262D02*
X39184Y-44296D01*
X39184Y-44296D02*
X39222Y-44339D01*
X39222Y-44339D02*
X39251Y-44389D01*
X39251Y-44389D02*
X39268Y-44443D01*
X39268Y-44443D02*
X39275Y-44500D01*
X65775Y-41000D02*
X65768Y-41057D01*
X65768Y-41057D02*
X65751Y-41111D01*
X65751Y-41111D02*
X65722Y-41161D01*
X65722Y-41161D02*
X65684Y-41204D01*
X65684Y-41204D02*
X65637Y-41238D01*
X65637Y-41238D02*
X65584Y-41261D01*
X65584Y-41261D02*
X65528Y-41273D01*
X65528Y-41273D02*
X65472Y-41273D01*
X65472Y-41273D02*
X65416Y-41261D01*
X65416Y-41261D02*
X65363Y-41238D01*
X65363Y-41238D02*
X65316Y-41204D01*
X65316Y-41204D02*
X65278Y-41161D01*
X65278Y-41161D02*
X65249Y-41111D01*
X65249Y-41111D02*
X65232Y-41057D01*
X65232Y-41057D02*
X65225Y-41000D01*
X65225Y-41000D02*
X65232Y-40943D01*
X65232Y-40943D02*
X65249Y-40889D01*
X65249Y-40889D02*
X65278Y-40839D01*
X65278Y-40839D02*
X65316Y-40796D01*
X65316Y-40796D02*
X65363Y-40762D01*
X65363Y-40762D02*
X65416Y-40739D01*
X65416Y-40739D02*
X65472Y-40727D01*
X65472Y-40727D02*
X65528Y-40727D01*
X65528Y-40727D02*
X65584Y-40739D01*
X65584Y-40739D02*
X65637Y-40762D01*
X65637Y-40762D02*
X65684Y-40796D01*
X65684Y-40796D02*
X65722Y-40839D01*
X65722Y-40839D02*
X65751Y-40889D01*
X65751Y-40889D02*
X65768Y-40943D01*
X65768Y-40943D02*
X65775Y-41000D01*
X62775Y-41000D02*
X62768Y-41057D01*
X62768Y-41057D02*
X62751Y-41111D01*
X62751Y-41111D02*
X62722Y-41161D01*
X62722Y-41161D02*
X62684Y-41204D01*
X62684Y-41204D02*
X62637Y-41238D01*
X62637Y-41238D02*
X62584Y-41261D01*
X62584Y-41261D02*
X62528Y-41273D01*
X62528Y-41273D02*
X62472Y-41273D01*
X62472Y-41273D02*
X62416Y-41261D01*
X62416Y-41261D02*
X62363Y-41238D01*
X62363Y-41238D02*
X62316Y-41204D01*
X62316Y-41204D02*
X62278Y-41161D01*
X62278Y-41161D02*
X62249Y-41111D01*
X62249Y-41111D02*
X62232Y-41057D01*
X62232Y-41057D02*
X62225Y-41000D01*
X62225Y-41000D02*
X62232Y-40943D01*
X62232Y-40943D02*
X62249Y-40889D01*
X62249Y-40889D02*
X62278Y-40839D01*
X62278Y-40839D02*
X62316Y-40796D01*
X62316Y-40796D02*
X62363Y-40762D01*
X62363Y-40762D02*
X62416Y-40739D01*
X62416Y-40739D02*
X62472Y-40727D01*
X62472Y-40727D02*
X62528Y-40727D01*
X62528Y-40727D02*
X62584Y-40739D01*
X62584Y-40739D02*
X62637Y-40762D01*
X62637Y-40762D02*
X62684Y-40796D01*
X62684Y-40796D02*
X62722Y-40839D01*
X62722Y-40839D02*
X62751Y-40889D01*
X62751Y-40889D02*
X62768Y-40943D01*
X62768Y-40943D02*
X62775Y-41000D01*
X28225Y-44725D02*
X28775Y-44725D01*
X28775Y-44725D02*
X28775Y-45275D01*
X28775Y-45275D02*
X28225Y-45275D01*
X28225Y-45275D02*
X28225Y-44725D01*
X28775Y-46000D02*
X28768Y-46057D01*
X28768Y-46057D02*
X28751Y-46111D01*
X28751Y-46111D02*
X28722Y-46161D01*
X28722Y-46161D02*
X28684Y-46204D01*
X28684Y-46204D02*
X28637Y-46238D01*
X28637Y-46238D02*
X28584Y-46261D01*
X28584Y-46261D02*
X28528Y-46273D01*
X28528Y-46273D02*
X28472Y-46273D01*
X28472Y-46273D02*
X28416Y-46261D01*
X28416Y-46261D02*
X28363Y-46238D01*
X28363Y-46238D02*
X28316Y-46204D01*
X28316Y-46204D02*
X28278Y-46161D01*
X28278Y-46161D02*
X28249Y-46111D01*
X28249Y-46111D02*
X28232Y-46057D01*
X28232Y-46057D02*
X28225Y-46000D01*
X28225Y-46000D02*
X28232Y-45943D01*
X28232Y-45943D02*
X28249Y-45889D01*
X28249Y-45889D02*
X28278Y-45839D01*
X28278Y-45839D02*
X28316Y-45796D01*
X28316Y-45796D02*
X28363Y-45762D01*
X28363Y-45762D02*
X28416Y-45739D01*
X28416Y-45739D02*
X28472Y-45727D01*
X28472Y-45727D02*
X28528Y-45727D01*
X28528Y-45727D02*
X28584Y-45739D01*
X28584Y-45739D02*
X28637Y-45762D01*
X28637Y-45762D02*
X28684Y-45796D01*
X28684Y-45796D02*
X28722Y-45839D01*
X28722Y-45839D02*
X28751Y-45889D01*
X28751Y-45889D02*
X28768Y-45943D01*
X28768Y-45943D02*
X28775Y-46000D01*
X28775Y-47000D02*
X28768Y-47057D01*
X28768Y-47057D02*
X28751Y-47111D01*
X28751Y-47111D02*
X28722Y-47161D01*
X28722Y-47161D02*
X28684Y-47204D01*
X28684Y-47204D02*
X28637Y-47238D01*
X28637Y-47238D02*
X28584Y-47261D01*
X28584Y-47261D02*
X28528Y-47273D01*
X28528Y-47273D02*
X28472Y-47273D01*
X28472Y-47273D02*
X28416Y-47261D01*
X28416Y-47261D02*
X28363Y-47238D01*
X28363Y-47238D02*
X28316Y-47204D01*
X28316Y-47204D02*
X28278Y-47161D01*
X28278Y-47161D02*
X28249Y-47111D01*
X28249Y-47111D02*
X28232Y-47057D01*
X28232Y-47057D02*
X28225Y-47000D01*
X28225Y-47000D02*
X28232Y-46943D01*
X28232Y-46943D02*
X28249Y-46889D01*
X28249Y-46889D02*
X28278Y-46839D01*
X28278Y-46839D02*
X28316Y-46796D01*
X28316Y-46796D02*
X28363Y-46762D01*
X28363Y-46762D02*
X28416Y-46739D01*
X28416Y-46739D02*
X28472Y-46727D01*
X28472Y-46727D02*
X28528Y-46727D01*
X28528Y-46727D02*
X28584Y-46739D01*
X28584Y-46739D02*
X28637Y-46762D01*
X28637Y-46762D02*
X28684Y-46796D01*
X28684Y-46796D02*
X28722Y-46839D01*
X28722Y-46839D02*
X28751Y-46889D01*
X28751Y-46889D02*
X28768Y-46943D01*
X28768Y-46943D02*
X28775Y-47000D01*
X28775Y-48000D02*
X28768Y-48057D01*
X28768Y-48057D02*
X28751Y-48111D01*
X28751Y-48111D02*
X28722Y-48161D01*
X28722Y-48161D02*
X28684Y-48204D01*
X28684Y-48204D02*
X28637Y-48238D01*
X28637Y-48238D02*
X28584Y-48261D01*
X28584Y-48261D02*
X28528Y-48273D01*
X28528Y-48273D02*
X28472Y-48273D01*
X28472Y-48273D02*
X28416Y-48261D01*
X28416Y-48261D02*
X28363Y-48238D01*
X28363Y-48238D02*
X28316Y-48204D01*
X28316Y-48204D02*
X28278Y-48161D01*
X28278Y-48161D02*
X28249Y-48111D01*
X28249Y-48111D02*
X28232Y-48057D01*
X28232Y-48057D02*
X28225Y-48000D01*
X28225Y-48000D02*
X28232Y-47943D01*
X28232Y-47943D02*
X28249Y-47889D01*
X28249Y-47889D02*
X28278Y-47839D01*
X28278Y-47839D02*
X28316Y-47796D01*
X28316Y-47796D02*
X28363Y-47762D01*
X28363Y-47762D02*
X28416Y-47739D01*
X28416Y-47739D02*
X28472Y-47727D01*
X28472Y-47727D02*
X28528Y-47727D01*
X28528Y-47727D02*
X28584Y-47739D01*
X28584Y-47739D02*
X28637Y-47762D01*
X28637Y-47762D02*
X28684Y-47796D01*
X28684Y-47796D02*
X28722Y-47839D01*
X28722Y-47839D02*
X28751Y-47889D01*
X28751Y-47889D02*
X28768Y-47943D01*
X28768Y-47943D02*
X28775Y-48000D01*
X45850Y-47500D02*
X45842Y-47572D01*
X45842Y-47572D02*
X45819Y-47642D01*
X45819Y-47642D02*
X45783Y-47705D01*
X45783Y-47705D02*
X45734Y-47760D01*
X45734Y-47760D02*
X45675Y-47803D01*
X45675Y-47803D02*
X45608Y-47832D01*
X45608Y-47832D02*
X45536Y-47848D01*
X45536Y-47848D02*
X45464Y-47848D01*
X45464Y-47848D02*
X45392Y-47832D01*
X45392Y-47832D02*
X45325Y-47803D01*
X45325Y-47803D02*
X45266Y-47760D01*
X45266Y-47760D02*
X45217Y-47705D01*
X45217Y-47705D02*
X45181Y-47642D01*
X45181Y-47642D02*
X45158Y-47572D01*
X45158Y-47572D02*
X45150Y-47500D01*
X45150Y-47500D02*
X45158Y-47428D01*
X45158Y-47428D02*
X45181Y-47358D01*
X45181Y-47358D02*
X45217Y-47295D01*
X45217Y-47295D02*
X45266Y-47240D01*
X45266Y-47240D02*
X45325Y-47197D01*
X45325Y-47197D02*
X45392Y-47168D01*
X45392Y-47168D02*
X45464Y-47152D01*
X45464Y-47152D02*
X45536Y-47152D01*
X45536Y-47152D02*
X45608Y-47168D01*
X45608Y-47168D02*
X45675Y-47197D01*
X45675Y-47197D02*
X45734Y-47240D01*
X45734Y-47240D02*
X45783Y-47295D01*
X45783Y-47295D02*
X45819Y-47358D01*
X45819Y-47358D02*
X45842Y-47428D01*
X45842Y-47428D02*
X45850Y-47500D01*
X44850Y-47500D02*
X44842Y-47572D01*
X44842Y-47572D02*
X44819Y-47642D01*
X44819Y-47642D02*
X44783Y-47705D01*
X44783Y-47705D02*
X44734Y-47760D01*
X44734Y-47760D02*
X44675Y-47803D01*
X44675Y-47803D02*
X44608Y-47832D01*
X44608Y-47832D02*
X44536Y-47848D01*
X44536Y-47848D02*
X44464Y-47848D01*
X44464Y-47848D02*
X44392Y-47832D01*
X44392Y-47832D02*
X44325Y-47803D01*
X44325Y-47803D02*
X44266Y-47760D01*
X44266Y-47760D02*
X44217Y-47705D01*
X44217Y-47705D02*
X44181Y-47642D01*
X44181Y-47642D02*
X44158Y-47572D01*
X44158Y-47572D02*
X44150Y-47500D01*
X44150Y-47500D02*
X44158Y-47428D01*
X44158Y-47428D02*
X44181Y-47358D01*
X44181Y-47358D02*
X44217Y-47295D01*
X44217Y-47295D02*
X44266Y-47240D01*
X44266Y-47240D02*
X44325Y-47197D01*
X44325Y-47197D02*
X44392Y-47168D01*
X44392Y-47168D02*
X44464Y-47152D01*
X44464Y-47152D02*
X44536Y-47152D01*
X44536Y-47152D02*
X44608Y-47168D01*
X44608Y-47168D02*
X44675Y-47197D01*
X44675Y-47197D02*
X44734Y-47240D01*
X44734Y-47240D02*
X44783Y-47295D01*
X44783Y-47295D02*
X44819Y-47358D01*
X44819Y-47358D02*
X44842Y-47428D01*
X44842Y-47428D02*
X44850Y-47500D01*
X43150Y-47150D02*
X43850Y-47150D01*
X43850Y-47150D02*
X43850Y-47850D01*
X43850Y-47850D02*
X43150Y-47850D01*
X43150Y-47850D02*
X43150Y-47150D01*
X49850Y-47500D02*
X49842Y-47572D01*
X49842Y-47572D02*
X49819Y-47642D01*
X49819Y-47642D02*
X49783Y-47705D01*
X49783Y-47705D02*
X49734Y-47760D01*
X49734Y-47760D02*
X49675Y-47803D01*
X49675Y-47803D02*
X49608Y-47832D01*
X49608Y-47832D02*
X49536Y-47848D01*
X49536Y-47848D02*
X49464Y-47848D01*
X49464Y-47848D02*
X49392Y-47832D01*
X49392Y-47832D02*
X49325Y-47803D01*
X49325Y-47803D02*
X49266Y-47760D01*
X49266Y-47760D02*
X49217Y-47705D01*
X49217Y-47705D02*
X49181Y-47642D01*
X49181Y-47642D02*
X49158Y-47572D01*
X49158Y-47572D02*
X49150Y-47500D01*
X49150Y-47500D02*
X49158Y-47428D01*
X49158Y-47428D02*
X49181Y-47358D01*
X49181Y-47358D02*
X49217Y-47295D01*
X49217Y-47295D02*
X49266Y-47240D01*
X49266Y-47240D02*
X49325Y-47197D01*
X49325Y-47197D02*
X49392Y-47168D01*
X49392Y-47168D02*
X49464Y-47152D01*
X49464Y-47152D02*
X49536Y-47152D01*
X49536Y-47152D02*
X49608Y-47168D01*
X49608Y-47168D02*
X49675Y-47197D01*
X49675Y-47197D02*
X49734Y-47240D01*
X49734Y-47240D02*
X49783Y-47295D01*
X49783Y-47295D02*
X49819Y-47358D01*
X49819Y-47358D02*
X49842Y-47428D01*
X49842Y-47428D02*
X49850Y-47500D01*
X50850Y-47500D02*
X50842Y-47572D01*
X50842Y-47572D02*
X50819Y-47642D01*
X50819Y-47642D02*
X50783Y-47705D01*
X50783Y-47705D02*
X50734Y-47760D01*
X50734Y-47760D02*
X50675Y-47803D01*
X50675Y-47803D02*
X50608Y-47832D01*
X50608Y-47832D02*
X50536Y-47848D01*
X50536Y-47848D02*
X50464Y-47848D01*
X50464Y-47848D02*
X50392Y-47832D01*
X50392Y-47832D02*
X50325Y-47803D01*
X50325Y-47803D02*
X50266Y-47760D01*
X50266Y-47760D02*
X50217Y-47705D01*
X50217Y-47705D02*
X50181Y-47642D01*
X50181Y-47642D02*
X50158Y-47572D01*
X50158Y-47572D02*
X50150Y-47500D01*
X50150Y-47500D02*
X50158Y-47428D01*
X50158Y-47428D02*
X50181Y-47358D01*
X50181Y-47358D02*
X50217Y-47295D01*
X50217Y-47295D02*
X50266Y-47240D01*
X50266Y-47240D02*
X50325Y-47197D01*
X50325Y-47197D02*
X50392Y-47168D01*
X50392Y-47168D02*
X50464Y-47152D01*
X50464Y-47152D02*
X50536Y-47152D01*
X50536Y-47152D02*
X50608Y-47168D01*
X50608Y-47168D02*
X50675Y-47197D01*
X50675Y-47197D02*
X50734Y-47240D01*
X50734Y-47240D02*
X50783Y-47295D01*
X50783Y-47295D02*
X50819Y-47358D01*
X50819Y-47358D02*
X50842Y-47428D01*
X50842Y-47428D02*
X50850Y-47500D01*
X51850Y-47850D02*
X51150Y-47850D01*
X51150Y-47850D02*
X51150Y-47150D01*
X51150Y-47150D02*
X51850Y-47150D01*
X51850Y-47150D02*
X51850Y-47850D01*
X40725Y-46775D02*
X40725Y-46225D01*
X40725Y-46225D02*
X41275Y-46225D01*
X41275Y-46225D02*
X41275Y-46775D01*
X41275Y-46775D02*
X40725Y-46775D01*
X40275Y-46500D02*
X40268Y-46557D01*
X40268Y-46557D02*
X40251Y-46611D01*
X40251Y-46611D02*
X40222Y-46661D01*
X40222Y-46661D02*
X40184Y-46704D01*
X40184Y-46704D02*
X40137Y-46738D01*
X40137Y-46738D02*
X40084Y-46761D01*
X40084Y-46761D02*
X40028Y-46773D01*
X40028Y-46773D02*
X39972Y-46773D01*
X39972Y-46773D02*
X39916Y-46761D01*
X39916Y-46761D02*
X39863Y-46738D01*
X39863Y-46738D02*
X39816Y-46704D01*
X39816Y-46704D02*
X39778Y-46661D01*
X39778Y-46661D02*
X39749Y-46611D01*
X39749Y-46611D02*
X39732Y-46557D01*
X39732Y-46557D02*
X39725Y-46500D01*
X39725Y-46500D02*
X39732Y-46443D01*
X39732Y-46443D02*
X39749Y-46389D01*
X39749Y-46389D02*
X39778Y-46339D01*
X39778Y-46339D02*
X39816Y-46296D01*
X39816Y-46296D02*
X39863Y-46262D01*
X39863Y-46262D02*
X39916Y-46239D01*
X39916Y-46239D02*
X39972Y-46227D01*
X39972Y-46227D02*
X40028Y-46227D01*
X40028Y-46227D02*
X40084Y-46239D01*
X40084Y-46239D02*
X40137Y-46262D01*
X40137Y-46262D02*
X40184Y-46296D01*
X40184Y-46296D02*
X40222Y-46339D01*
X40222Y-46339D02*
X40251Y-46389D01*
X40251Y-46389D02*
X40268Y-46443D01*
X40268Y-46443D02*
X40275Y-46500D01*
X40275Y-47500D02*
X40268Y-47557D01*
X40268Y-47557D02*
X40251Y-47611D01*
X40251Y-47611D02*
X40222Y-47661D01*
X40222Y-47661D02*
X40184Y-47704D01*
X40184Y-47704D02*
X40137Y-47738D01*
X40137Y-47738D02*
X40084Y-47761D01*
X40084Y-47761D02*
X40028Y-47773D01*
X40028Y-47773D02*
X39972Y-47773D01*
X39972Y-47773D02*
X39916Y-47761D01*
X39916Y-47761D02*
X39863Y-47738D01*
X39863Y-47738D02*
X39816Y-47704D01*
X39816Y-47704D02*
X39778Y-47661D01*
X39778Y-47661D02*
X39749Y-47611D01*
X39749Y-47611D02*
X39732Y-47557D01*
X39732Y-47557D02*
X39725Y-47500D01*
X39725Y-47500D02*
X39732Y-47443D01*
X39732Y-47443D02*
X39749Y-47389D01*
X39749Y-47389D02*
X39778Y-47339D01*
X39778Y-47339D02*
X39816Y-47296D01*
X39816Y-47296D02*
X39863Y-47262D01*
X39863Y-47262D02*
X39916Y-47239D01*
X39916Y-47239D02*
X39972Y-47227D01*
X39972Y-47227D02*
X40028Y-47227D01*
X40028Y-47227D02*
X40084Y-47239D01*
X40084Y-47239D02*
X40137Y-47262D01*
X40137Y-47262D02*
X40184Y-47296D01*
X40184Y-47296D02*
X40222Y-47339D01*
X40222Y-47339D02*
X40251Y-47389D01*
X40251Y-47389D02*
X40268Y-47443D01*
X40268Y-47443D02*
X40275Y-47500D01*
X35275Y-44000D02*
X35268Y-44057D01*
X35268Y-44057D02*
X35251Y-44111D01*
X35251Y-44111D02*
X35222Y-44161D01*
X35222Y-44161D02*
X35184Y-44204D01*
X35184Y-44204D02*
X35137Y-44238D01*
X35137Y-44238D02*
X35084Y-44261D01*
X35084Y-44261D02*
X35028Y-44273D01*
X35028Y-44273D02*
X34972Y-44273D01*
X34972Y-44273D02*
X34916Y-44261D01*
X34916Y-44261D02*
X34863Y-44238D01*
X34863Y-44238D02*
X34816Y-44204D01*
X34816Y-44204D02*
X34778Y-44161D01*
X34778Y-44161D02*
X34749Y-44111D01*
X34749Y-44111D02*
X34732Y-44057D01*
X34732Y-44057D02*
X34725Y-44000D01*
X34725Y-44000D02*
X34732Y-43943D01*
X34732Y-43943D02*
X34749Y-43889D01*
X34749Y-43889D02*
X34778Y-43839D01*
X34778Y-43839D02*
X34816Y-43796D01*
X34816Y-43796D02*
X34863Y-43762D01*
X34863Y-43762D02*
X34916Y-43739D01*
X34916Y-43739D02*
X34972Y-43727D01*
X34972Y-43727D02*
X35028Y-43727D01*
X35028Y-43727D02*
X35084Y-43739D01*
X35084Y-43739D02*
X35137Y-43762D01*
X35137Y-43762D02*
X35184Y-43796D01*
X35184Y-43796D02*
X35222Y-43839D01*
X35222Y-43839D02*
X35251Y-43889D01*
X35251Y-43889D02*
X35268Y-43943D01*
X35268Y-43943D02*
X35275Y-44000D01*
X35275Y-42000D02*
X35268Y-42057D01*
X35268Y-42057D02*
X35251Y-42111D01*
X35251Y-42111D02*
X35222Y-42161D01*
X35222Y-42161D02*
X35184Y-42204D01*
X35184Y-42204D02*
X35137Y-42238D01*
X35137Y-42238D02*
X35084Y-42261D01*
X35084Y-42261D02*
X35028Y-42273D01*
X35028Y-42273D02*
X34972Y-42273D01*
X34972Y-42273D02*
X34916Y-42261D01*
X34916Y-42261D02*
X34863Y-42238D01*
X34863Y-42238D02*
X34816Y-42204D01*
X34816Y-42204D02*
X34778Y-42161D01*
X34778Y-42161D02*
X34749Y-42111D01*
X34749Y-42111D02*
X34732Y-42057D01*
X34732Y-42057D02*
X34725Y-42000D01*
X34725Y-42000D02*
X34732Y-41943D01*
X34732Y-41943D02*
X34749Y-41889D01*
X34749Y-41889D02*
X34778Y-41839D01*
X34778Y-41839D02*
X34816Y-41796D01*
X34816Y-41796D02*
X34863Y-41762D01*
X34863Y-41762D02*
X34916Y-41739D01*
X34916Y-41739D02*
X34972Y-41727D01*
X34972Y-41727D02*
X35028Y-41727D01*
X35028Y-41727D02*
X35084Y-41739D01*
X35084Y-41739D02*
X35137Y-41762D01*
X35137Y-41762D02*
X35184Y-41796D01*
X35184Y-41796D02*
X35222Y-41839D01*
X35222Y-41839D02*
X35251Y-41889D01*
X35251Y-41889D02*
X35268Y-41943D01*
X35268Y-41943D02*
X35275Y-42000D01*
X35275Y-43000D02*
X35268Y-43057D01*
X35268Y-43057D02*
X35251Y-43111D01*
X35251Y-43111D02*
X35222Y-43161D01*
X35222Y-43161D02*
X35184Y-43204D01*
X35184Y-43204D02*
X35137Y-43238D01*
X35137Y-43238D02*
X35084Y-43261D01*
X35084Y-43261D02*
X35028Y-43273D01*
X35028Y-43273D02*
X34972Y-43273D01*
X34972Y-43273D02*
X34916Y-43261D01*
X34916Y-43261D02*
X34863Y-43238D01*
X34863Y-43238D02*
X34816Y-43204D01*
X34816Y-43204D02*
X34778Y-43161D01*
X34778Y-43161D02*
X34749Y-43111D01*
X34749Y-43111D02*
X34732Y-43057D01*
X34732Y-43057D02*
X34725Y-43000D01*
X34725Y-43000D02*
X34732Y-42943D01*
X34732Y-42943D02*
X34749Y-42889D01*
X34749Y-42889D02*
X34778Y-42839D01*
X34778Y-42839D02*
X34816Y-42796D01*
X34816Y-42796D02*
X34863Y-42762D01*
X34863Y-42762D02*
X34916Y-42739D01*
X34916Y-42739D02*
X34972Y-42727D01*
X34972Y-42727D02*
X35028Y-42727D01*
X35028Y-42727D02*
X35084Y-42739D01*
X35084Y-42739D02*
X35137Y-42762D01*
X35137Y-42762D02*
X35184Y-42796D01*
X35184Y-42796D02*
X35222Y-42839D01*
X35222Y-42839D02*
X35251Y-42889D01*
X35251Y-42889D02*
X35268Y-42943D01*
X35268Y-42943D02*
X35275Y-43000D01*
M02*
