G04 (Genere par PCBNEW (2007-11-29-a)) le 11/9/2008-05:59:57*
G01*
G70*
G90*
%MOIN*%
G04 Gerber Fmt 3.4, Leading zero omitted, Abs format*
%FSLAX34Y34*%
G04 APERTURE LIST*
%ADD10C,0.012000*%
%ADD11C,0.012000*%
%ADD12R,0.060000X0.060000*%
%ADD13C,0.060000*%
%ADD14C,0.055000*%
%ADD15R,0.062000X0.090000*%
%ADD16O,0.062000X0.090000*%
%ADD17R,0.090000X0.062000*%
%ADD18O,0.090000X0.062000*%
%ADD19R,0.055000X0.055000*%
%ADD20C,0.070000*%
%ADD21R,0.070000X0.070000*%
%ADD22C,0.045000*%
%ADD23C,0.029500*%
%ADD24C,0.017000*%
%ADD25C,0.015000*%
%ADD26C,0.005000*%
%ADD27C,0.006000*%
%ADD28C,0.001000*%
%ADD29C,0.008000*%
G04 APERTURE END LIST*
G54D10*
X32900Y-41900D02*
X31100Y-41900D01*
X31100Y-41900D02*
X31100Y-34100D01*
X31100Y-34100D02*
X32900Y-34100D01*
X32900Y-34100D02*
X32900Y-41900D01*
X34600Y-44400D02*
X34600Y-41600D01*
X34600Y-41600D02*
X35400Y-41600D01*
X35400Y-41600D02*
X35400Y-44400D01*
X35400Y-44400D02*
X34600Y-44400D01*
X34800Y-44400D02*
X34600Y-44200D01*
G54D25*
X42000Y-27000D02*
X42000Y-27000D01*
X42000Y-27000D02*
X42500Y-27000D01*
X42500Y-27000D02*
X42500Y-28000D01*
X42500Y-28000D02*
X42000Y-28000D01*
X42000Y-26500D02*
X51000Y-26500D01*
X51000Y-26500D02*
X51000Y-28500D01*
X51000Y-28500D02*
X42000Y-28500D01*
X42000Y-28500D02*
X42000Y-26500D01*
X59500Y-30500D02*
X59500Y-31000D01*
X59500Y-31000D02*
X58500Y-31000D01*
X58500Y-31000D02*
X58500Y-30500D01*
X60000Y-30500D02*
X60000Y-40500D01*
X60000Y-40500D02*
X58000Y-40500D01*
X58000Y-40500D02*
X58000Y-30500D01*
X58000Y-30500D02*
X60000Y-30500D01*
X34000Y-36500D02*
X34500Y-36500D01*
X34500Y-36500D02*
X34500Y-37500D01*
X34500Y-37500D02*
X34000Y-37500D01*
X34000Y-34500D02*
X55000Y-34500D01*
X55000Y-34500D02*
X55000Y-39500D01*
X55000Y-39500D02*
X34000Y-39500D01*
X34000Y-39500D02*
X34000Y-34500D01*
X54500Y-46500D02*
X54500Y-46000D01*
X54500Y-46000D02*
X55500Y-46000D01*
X55500Y-46000D02*
X55500Y-46500D01*
X54000Y-46500D02*
X54000Y-42500D01*
X54000Y-42500D02*
X56000Y-42500D01*
X56000Y-42500D02*
X56000Y-46500D01*
X56000Y-46500D02*
X54000Y-46500D01*
X32000Y-43500D02*
X32000Y-44000D01*
X32000Y-44000D02*
X31000Y-44000D01*
X31000Y-44000D02*
X31000Y-43500D01*
X32500Y-43500D02*
X32500Y-47500D01*
X32500Y-47500D02*
X30500Y-47500D01*
X30500Y-47500D02*
X30500Y-43500D01*
X30500Y-43500D02*
X32500Y-43500D01*
G54D10*
X65500Y-32020D02*
X65500Y-34000D01*
X65500Y-34000D02*
X64500Y-34000D01*
X64500Y-34000D02*
X64500Y-32000D01*
X64500Y-32000D02*
X65500Y-32000D01*
X65250Y-32000D02*
X65500Y-32250D01*
X64500Y-36480D02*
X64500Y-34500D01*
X64500Y-34500D02*
X65500Y-34500D01*
X65500Y-34500D02*
X65500Y-36500D01*
X65500Y-36500D02*
X64500Y-36500D01*
X64750Y-36500D02*
X64500Y-36250D01*
X50500Y-43520D02*
X50500Y-45500D01*
X50500Y-45500D02*
X49500Y-45500D01*
X49500Y-45500D02*
X49500Y-43500D01*
X49500Y-43500D02*
X50500Y-43500D01*
X50250Y-43500D02*
X50500Y-43750D01*
X48500Y-43520D02*
X48500Y-45500D01*
X48500Y-45500D02*
X47500Y-45500D01*
X47500Y-45500D02*
X47500Y-43500D01*
X47500Y-43500D02*
X48500Y-43500D01*
X48250Y-43500D02*
X48500Y-43750D01*
X36020Y-42000D02*
X38000Y-42000D01*
X38000Y-42000D02*
X38000Y-43000D01*
X38000Y-43000D02*
X36000Y-43000D01*
X36000Y-43000D02*
X36000Y-42000D01*
X36000Y-42250D02*
X36250Y-42000D01*
G54D26*
X59001Y-45500D02*
X58979Y-45708D01*
X58979Y-45708D02*
X58914Y-45907D01*
X58914Y-45907D02*
X58809Y-46088D01*
X58809Y-46088D02*
X58669Y-46243D01*
X58669Y-46243D02*
X58500Y-46366D01*
X58500Y-46366D02*
X58309Y-46452D01*
X58309Y-46452D02*
X58104Y-46495D01*
X58104Y-46495D02*
X57896Y-46495D01*
X57896Y-46495D02*
X57691Y-46452D01*
X57691Y-46452D02*
X57500Y-46366D01*
X57500Y-46366D02*
X57331Y-46243D01*
X57331Y-46243D02*
X57191Y-46088D01*
X57191Y-46088D02*
X57086Y-45907D01*
X57086Y-45907D02*
X57021Y-45708D01*
X57021Y-45708D02*
X56999Y-45500D01*
X56999Y-45500D02*
X57021Y-45292D01*
X57021Y-45292D02*
X57086Y-45093D01*
X57086Y-45093D02*
X57191Y-44912D01*
X57191Y-44912D02*
X57331Y-44757D01*
X57331Y-44757D02*
X57500Y-44634D01*
X57500Y-44634D02*
X57691Y-44548D01*
X57691Y-44548D02*
X57896Y-44505D01*
X57896Y-44505D02*
X58104Y-44505D01*
X58104Y-44505D02*
X58309Y-44548D01*
X58309Y-44548D02*
X58500Y-44634D01*
X58500Y-44634D02*
X58669Y-44757D01*
X58669Y-44757D02*
X58809Y-44912D01*
X58809Y-44912D02*
X58914Y-45093D01*
X58914Y-45093D02*
X58979Y-45292D01*
X58979Y-45292D02*
X59001Y-45500D01*
X45501Y-31000D02*
X45479Y-31208D01*
X45479Y-31208D02*
X45414Y-31407D01*
X45414Y-31407D02*
X45309Y-31588D01*
X45309Y-31588D02*
X45169Y-31743D01*
X45169Y-31743D02*
X45000Y-31866D01*
X45000Y-31866D02*
X44809Y-31952D01*
X44809Y-31952D02*
X44604Y-31995D01*
X44604Y-31995D02*
X44396Y-31995D01*
X44396Y-31995D02*
X44191Y-31952D01*
X44191Y-31952D02*
X44000Y-31866D01*
X44000Y-31866D02*
X43831Y-31743D01*
X43831Y-31743D02*
X43691Y-31588D01*
X43691Y-31588D02*
X43586Y-31407D01*
X43586Y-31407D02*
X43521Y-31208D01*
X43521Y-31208D02*
X43499Y-31000D01*
X43499Y-31000D02*
X43521Y-30792D01*
X43521Y-30792D02*
X43586Y-30593D01*
X43586Y-30593D02*
X43691Y-30412D01*
X43691Y-30412D02*
X43831Y-30257D01*
X43831Y-30257D02*
X44000Y-30134D01*
X44000Y-30134D02*
X44191Y-30048D01*
X44191Y-30048D02*
X44396Y-30005D01*
X44396Y-30005D02*
X44604Y-30005D01*
X44604Y-30005D02*
X44809Y-30048D01*
X44809Y-30048D02*
X45000Y-30134D01*
X45000Y-30134D02*
X45169Y-30257D01*
X45169Y-30257D02*
X45309Y-30412D01*
X45309Y-30412D02*
X45414Y-30593D01*
X45414Y-30593D02*
X45479Y-30792D01*
X45479Y-30792D02*
X45501Y-31000D01*
X48001Y-31000D02*
X47979Y-31208D01*
X47979Y-31208D02*
X47914Y-31407D01*
X47914Y-31407D02*
X47809Y-31588D01*
X47809Y-31588D02*
X47669Y-31743D01*
X47669Y-31743D02*
X47500Y-31866D01*
X47500Y-31866D02*
X47309Y-31952D01*
X47309Y-31952D02*
X47104Y-31995D01*
X47104Y-31995D02*
X46896Y-31995D01*
X46896Y-31995D02*
X46691Y-31952D01*
X46691Y-31952D02*
X46500Y-31866D01*
X46500Y-31866D02*
X46331Y-31743D01*
X46331Y-31743D02*
X46191Y-31588D01*
X46191Y-31588D02*
X46086Y-31407D01*
X46086Y-31407D02*
X46021Y-31208D01*
X46021Y-31208D02*
X45999Y-31000D01*
X45999Y-31000D02*
X46021Y-30792D01*
X46021Y-30792D02*
X46086Y-30593D01*
X46086Y-30593D02*
X46191Y-30412D01*
X46191Y-30412D02*
X46331Y-30257D01*
X46331Y-30257D02*
X46500Y-30134D01*
X46500Y-30134D02*
X46691Y-30048D01*
X46691Y-30048D02*
X46896Y-30005D01*
X46896Y-30005D02*
X47104Y-30005D01*
X47104Y-30005D02*
X47309Y-30048D01*
X47309Y-30048D02*
X47500Y-30134D01*
X47500Y-30134D02*
X47669Y-30257D01*
X47669Y-30257D02*
X47809Y-30412D01*
X47809Y-30412D02*
X47914Y-30593D01*
X47914Y-30593D02*
X47979Y-30792D01*
X47979Y-30792D02*
X48001Y-31000D01*
X38001Y-47500D02*
X37979Y-47708D01*
X37979Y-47708D02*
X37914Y-47907D01*
X37914Y-47907D02*
X37809Y-48088D01*
X37809Y-48088D02*
X37669Y-48243D01*
X37669Y-48243D02*
X37500Y-48366D01*
X37500Y-48366D02*
X37309Y-48452D01*
X37309Y-48452D02*
X37104Y-48495D01*
X37104Y-48495D02*
X36896Y-48495D01*
X36896Y-48495D02*
X36691Y-48452D01*
X36691Y-48452D02*
X36500Y-48366D01*
X36500Y-48366D02*
X36331Y-48243D01*
X36331Y-48243D02*
X36191Y-48088D01*
X36191Y-48088D02*
X36086Y-47907D01*
X36086Y-47907D02*
X36021Y-47708D01*
X36021Y-47708D02*
X35999Y-47500D01*
X35999Y-47500D02*
X36021Y-47292D01*
X36021Y-47292D02*
X36086Y-47093D01*
X36086Y-47093D02*
X36191Y-46912D01*
X36191Y-46912D02*
X36331Y-46757D01*
X36331Y-46757D02*
X36500Y-46634D01*
X36500Y-46634D02*
X36691Y-46548D01*
X36691Y-46548D02*
X36896Y-46505D01*
X36896Y-46505D02*
X37104Y-46505D01*
X37104Y-46505D02*
X37309Y-46548D01*
X37309Y-46548D02*
X37500Y-46634D01*
X37500Y-46634D02*
X37669Y-46757D01*
X37669Y-46757D02*
X37809Y-46912D01*
X37809Y-46912D02*
X37914Y-47093D01*
X37914Y-47093D02*
X37979Y-47292D01*
X37979Y-47292D02*
X38001Y-47500D01*
X53501Y-49500D02*
X53479Y-49708D01*
X53479Y-49708D02*
X53414Y-49907D01*
X53414Y-49907D02*
X53309Y-50088D01*
X53309Y-50088D02*
X53169Y-50243D01*
X53169Y-50243D02*
X53000Y-50366D01*
X53000Y-50366D02*
X52809Y-50452D01*
X52809Y-50452D02*
X52604Y-50495D01*
X52604Y-50495D02*
X52396Y-50495D01*
X52396Y-50495D02*
X52191Y-50452D01*
X52191Y-50452D02*
X52000Y-50366D01*
X52000Y-50366D02*
X51831Y-50243D01*
X51831Y-50243D02*
X51691Y-50088D01*
X51691Y-50088D02*
X51586Y-49907D01*
X51586Y-49907D02*
X51521Y-49708D01*
X51521Y-49708D02*
X51499Y-49500D01*
X51499Y-49500D02*
X51521Y-49292D01*
X51521Y-49292D02*
X51586Y-49093D01*
X51586Y-49093D02*
X51691Y-48912D01*
X51691Y-48912D02*
X51831Y-48757D01*
X51831Y-48757D02*
X52000Y-48634D01*
X52000Y-48634D02*
X52191Y-48548D01*
X52191Y-48548D02*
X52396Y-48505D01*
X52396Y-48505D02*
X52604Y-48505D01*
X52604Y-48505D02*
X52809Y-48548D01*
X52809Y-48548D02*
X53000Y-48634D01*
X53000Y-48634D02*
X53169Y-48757D01*
X53169Y-48757D02*
X53309Y-48912D01*
X53309Y-48912D02*
X53414Y-49093D01*
X53414Y-49093D02*
X53479Y-49292D01*
X53479Y-49292D02*
X53501Y-49500D01*
X43001Y-31000D02*
X42979Y-31208D01*
X42979Y-31208D02*
X42914Y-31407D01*
X42914Y-31407D02*
X42809Y-31588D01*
X42809Y-31588D02*
X42669Y-31743D01*
X42669Y-31743D02*
X42500Y-31866D01*
X42500Y-31866D02*
X42309Y-31952D01*
X42309Y-31952D02*
X42104Y-31995D01*
X42104Y-31995D02*
X41896Y-31995D01*
X41896Y-31995D02*
X41691Y-31952D01*
X41691Y-31952D02*
X41500Y-31866D01*
X41500Y-31866D02*
X41331Y-31743D01*
X41331Y-31743D02*
X41191Y-31588D01*
X41191Y-31588D02*
X41086Y-31407D01*
X41086Y-31407D02*
X41021Y-31208D01*
X41021Y-31208D02*
X40999Y-31000D01*
X40999Y-31000D02*
X41021Y-30792D01*
X41021Y-30792D02*
X41086Y-30593D01*
X41086Y-30593D02*
X41191Y-30412D01*
X41191Y-30412D02*
X41331Y-30257D01*
X41331Y-30257D02*
X41500Y-30134D01*
X41500Y-30134D02*
X41691Y-30048D01*
X41691Y-30048D02*
X41896Y-30005D01*
X41896Y-30005D02*
X42104Y-30005D01*
X42104Y-30005D02*
X42309Y-30048D01*
X42309Y-30048D02*
X42500Y-30134D01*
X42500Y-30134D02*
X42669Y-30257D01*
X42669Y-30257D02*
X42809Y-30412D01*
X42809Y-30412D02*
X42914Y-30593D01*
X42914Y-30593D02*
X42979Y-30792D01*
X42979Y-30792D02*
X43001Y-31000D01*
X53001Y-28000D02*
X52979Y-28208D01*
X52979Y-28208D02*
X52914Y-28407D01*
X52914Y-28407D02*
X52809Y-28588D01*
X52809Y-28588D02*
X52669Y-28743D01*
X52669Y-28743D02*
X52500Y-28866D01*
X52500Y-28866D02*
X52309Y-28952D01*
X52309Y-28952D02*
X52104Y-28995D01*
X52104Y-28995D02*
X51896Y-28995D01*
X51896Y-28995D02*
X51691Y-28952D01*
X51691Y-28952D02*
X51500Y-28866D01*
X51500Y-28866D02*
X51331Y-28743D01*
X51331Y-28743D02*
X51191Y-28588D01*
X51191Y-28588D02*
X51086Y-28407D01*
X51086Y-28407D02*
X51021Y-28208D01*
X51021Y-28208D02*
X50999Y-28000D01*
X50999Y-28000D02*
X51021Y-27792D01*
X51021Y-27792D02*
X51086Y-27593D01*
X51086Y-27593D02*
X51191Y-27412D01*
X51191Y-27412D02*
X51331Y-27257D01*
X51331Y-27257D02*
X51500Y-27134D01*
X51500Y-27134D02*
X51691Y-27048D01*
X51691Y-27048D02*
X51896Y-27005D01*
X51896Y-27005D02*
X52104Y-27005D01*
X52104Y-27005D02*
X52309Y-27048D01*
X52309Y-27048D02*
X52500Y-27134D01*
X52500Y-27134D02*
X52669Y-27257D01*
X52669Y-27257D02*
X52809Y-27412D01*
X52809Y-27412D02*
X52914Y-27593D01*
X52914Y-27593D02*
X52979Y-27792D01*
X52979Y-27792D02*
X53001Y-28000D01*
X45501Y-44000D02*
X45479Y-44208D01*
X45479Y-44208D02*
X45414Y-44407D01*
X45414Y-44407D02*
X45309Y-44588D01*
X45309Y-44588D02*
X45169Y-44743D01*
X45169Y-44743D02*
X45000Y-44866D01*
X45000Y-44866D02*
X44809Y-44952D01*
X44809Y-44952D02*
X44604Y-44995D01*
X44604Y-44995D02*
X44396Y-44995D01*
X44396Y-44995D02*
X44191Y-44952D01*
X44191Y-44952D02*
X44000Y-44866D01*
X44000Y-44866D02*
X43831Y-44743D01*
X43831Y-44743D02*
X43691Y-44588D01*
X43691Y-44588D02*
X43586Y-44407D01*
X43586Y-44407D02*
X43521Y-44208D01*
X43521Y-44208D02*
X43499Y-44000D01*
X43499Y-44000D02*
X43521Y-43792D01*
X43521Y-43792D02*
X43586Y-43593D01*
X43586Y-43593D02*
X43691Y-43412D01*
X43691Y-43412D02*
X43831Y-43257D01*
X43831Y-43257D02*
X44000Y-43134D01*
X44000Y-43134D02*
X44191Y-43048D01*
X44191Y-43048D02*
X44396Y-43005D01*
X44396Y-43005D02*
X44604Y-43005D01*
X44604Y-43005D02*
X44809Y-43048D01*
X44809Y-43048D02*
X45000Y-43134D01*
X45000Y-43134D02*
X45169Y-43257D01*
X45169Y-43257D02*
X45309Y-43412D01*
X45309Y-43412D02*
X45414Y-43593D01*
X45414Y-43593D02*
X45479Y-43792D01*
X45479Y-43792D02*
X45501Y-44000D01*
G54D10*
X34000Y-31000D02*
X33700Y-31000D01*
X33700Y-31000D02*
X33700Y-30600D01*
X33700Y-30600D02*
X31300Y-30600D01*
X31300Y-30600D02*
X31300Y-31000D01*
X31300Y-31000D02*
X31000Y-31000D01*
X31300Y-31000D02*
X31300Y-31400D01*
X31300Y-31400D02*
X33700Y-31400D01*
X33700Y-31400D02*
X33700Y-31000D01*
X33500Y-30600D02*
X33500Y-31400D01*
X33400Y-31400D02*
X33400Y-30600D01*
G54D27*
X45750Y-41500D02*
X46250Y-41000D01*
X50750Y-41000D02*
X51250Y-41500D01*
X51250Y-42500D02*
X50750Y-43000D01*
X45750Y-42500D02*
X46250Y-43000D01*
X46250Y-41000D02*
X50750Y-41000D01*
X45750Y-41500D02*
X45750Y-42500D01*
X46250Y-43000D02*
X50750Y-43000D01*
X51250Y-42500D02*
X51250Y-41500D01*
X61500Y-37250D02*
X61000Y-36750D01*
X61000Y-32250D02*
X61500Y-31750D01*
X62500Y-31750D02*
X63000Y-32250D01*
X62500Y-37250D02*
X63000Y-36750D01*
X61000Y-36750D02*
X61000Y-32250D01*
X61500Y-37250D02*
X62500Y-37250D01*
X63000Y-36750D02*
X63000Y-32250D01*
X62500Y-31750D02*
X61500Y-31750D01*
X46000Y-45500D02*
X46000Y-46500D01*
X46000Y-46500D02*
X44000Y-46500D01*
X44000Y-46500D02*
X44000Y-45500D01*
X44000Y-45500D02*
X46000Y-45500D01*
X49000Y-50000D02*
X49000Y-49000D01*
X49000Y-49000D02*
X51000Y-49000D01*
X51000Y-49000D02*
X51000Y-50000D01*
X51000Y-50000D02*
X49000Y-50000D01*
X40000Y-25500D02*
X41000Y-25500D01*
X41000Y-25500D02*
X41000Y-28500D01*
X41000Y-28500D02*
X40000Y-28500D01*
X40000Y-28500D02*
X40000Y-25500D01*
X41000Y-26500D02*
X40000Y-26500D01*
X63000Y-43000D02*
X63000Y-42000D01*
X63000Y-42000D02*
X66000Y-42000D01*
X66000Y-42000D02*
X66000Y-43000D01*
X66000Y-43000D02*
X63000Y-43000D01*
X64000Y-42000D02*
X64000Y-43000D01*
X63000Y-40500D02*
X63000Y-39500D01*
X63000Y-39500D02*
X66000Y-39500D01*
X66000Y-39500D02*
X66000Y-40500D01*
X66000Y-40500D02*
X63000Y-40500D01*
X64000Y-39500D02*
X64000Y-40500D01*
X63000Y-38000D02*
X63000Y-37000D01*
X63000Y-37000D02*
X66000Y-37000D01*
X66000Y-37000D02*
X66000Y-38000D01*
X66000Y-38000D02*
X63000Y-38000D01*
X64000Y-37000D02*
X64000Y-38000D01*
G54D10*
X36000Y-32500D02*
X36000Y-31500D01*
X31000Y-31500D02*
X31000Y-32500D01*
X36000Y-32500D02*
X31000Y-32500D01*
X31000Y-31500D02*
X36000Y-31500D01*
X36000Y-30000D02*
X36000Y-29000D01*
X31000Y-29000D02*
X31000Y-30000D01*
X36000Y-30000D02*
X31000Y-30000D01*
X31000Y-29000D02*
X36000Y-29000D01*
X38500Y-41000D02*
X38500Y-42000D01*
X43500Y-42000D02*
X43500Y-41000D01*
X38500Y-41000D02*
X43500Y-41000D01*
X43500Y-42000D02*
X38500Y-42000D01*
X31500Y-49000D02*
X31300Y-49000D01*
X28500Y-49000D02*
X28700Y-49000D01*
X28700Y-49000D02*
X28700Y-49400D01*
X28700Y-49400D02*
X31300Y-49400D01*
X31300Y-49400D02*
X31300Y-48600D01*
X31300Y-48600D02*
X28700Y-48600D01*
X28700Y-48600D02*
X28700Y-49000D01*
X31300Y-49200D02*
X31100Y-49400D01*
X36000Y-45500D02*
X36200Y-45500D01*
X39000Y-45500D02*
X38800Y-45500D01*
X38800Y-45500D02*
X38800Y-45100D01*
X38800Y-45100D02*
X36200Y-45100D01*
X36200Y-45100D02*
X36200Y-45900D01*
X36200Y-45900D02*
X38800Y-45900D01*
X38800Y-45900D02*
X38800Y-45500D01*
X36200Y-45300D02*
X36400Y-45100D01*
X61500Y-41500D02*
X61500Y-41300D01*
X61500Y-38500D02*
X61500Y-38700D01*
X61500Y-38700D02*
X61100Y-38700D01*
X61100Y-38700D02*
X61100Y-41300D01*
X61100Y-41300D02*
X61900Y-41300D01*
X61900Y-41300D02*
X61900Y-38700D01*
X61900Y-38700D02*
X61500Y-38700D01*
X61300Y-41300D02*
X61100Y-41100D01*
X65500Y-38500D02*
X65300Y-38500D01*
X62500Y-38500D02*
X62700Y-38500D01*
X62700Y-38500D02*
X62700Y-38900D01*
X62700Y-38900D02*
X65300Y-38900D01*
X65300Y-38900D02*
X65300Y-38100D01*
X65300Y-38100D02*
X62700Y-38100D01*
X62700Y-38100D02*
X62700Y-38500D01*
X65300Y-38700D02*
X65100Y-38900D01*
X43000Y-43500D02*
X42800Y-43500D01*
X40000Y-43500D02*
X40200Y-43500D01*
X40200Y-43500D02*
X40200Y-43900D01*
X40200Y-43900D02*
X42800Y-43900D01*
X42800Y-43900D02*
X42800Y-43100D01*
X42800Y-43100D02*
X40200Y-43100D01*
X40200Y-43100D02*
X40200Y-43500D01*
X42800Y-43700D02*
X42600Y-43900D01*
X34500Y-45000D02*
X34500Y-45200D01*
X34500Y-48000D02*
X34500Y-47800D01*
X34500Y-47800D02*
X34900Y-47800D01*
X34900Y-47800D02*
X34900Y-45200D01*
X34900Y-45200D02*
X34100Y-45200D01*
X34100Y-45200D02*
X34100Y-47800D01*
X34100Y-47800D02*
X34500Y-47800D01*
X34700Y-45200D02*
X34900Y-45400D01*
X45000Y-42500D02*
X44800Y-42500D01*
X42000Y-42500D02*
X42200Y-42500D01*
X42200Y-42500D02*
X42200Y-42900D01*
X42200Y-42900D02*
X44800Y-42900D01*
X44800Y-42900D02*
X44800Y-42100D01*
X44800Y-42100D02*
X42200Y-42100D01*
X42200Y-42100D02*
X42200Y-42500D01*
X44800Y-42700D02*
X44600Y-42900D01*
X33000Y-42500D02*
X32800Y-42500D01*
X30000Y-42500D02*
X30200Y-42500D01*
X30200Y-42500D02*
X30200Y-42900D01*
X30200Y-42900D02*
X32800Y-42900D01*
X32800Y-42900D02*
X32800Y-42100D01*
X32800Y-42100D02*
X30200Y-42100D01*
X30200Y-42100D02*
X30200Y-42500D01*
X32800Y-42700D02*
X32600Y-42900D01*
X33500Y-33000D02*
X33300Y-33000D01*
X30500Y-33000D02*
X30700Y-33000D01*
X30700Y-33000D02*
X30700Y-33400D01*
X30700Y-33400D02*
X33300Y-33400D01*
X33300Y-33400D02*
X33300Y-32600D01*
X33300Y-32600D02*
X30700Y-32600D01*
X30700Y-32600D02*
X30700Y-33000D01*
X33300Y-33200D02*
X33100Y-33400D01*
X40000Y-44500D02*
X40200Y-44500D01*
X43000Y-44500D02*
X42800Y-44500D01*
X42800Y-44500D02*
X42800Y-44100D01*
X42800Y-44100D02*
X40200Y-44100D01*
X40200Y-44100D02*
X40200Y-44900D01*
X40200Y-44900D02*
X42800Y-44900D01*
X42800Y-44900D02*
X42800Y-44500D01*
X40200Y-44300D02*
X40400Y-44100D01*
X52000Y-45500D02*
X52000Y-45300D01*
X52000Y-42500D02*
X52000Y-42700D01*
X52000Y-42700D02*
X51600Y-42700D01*
X51600Y-42700D02*
X51600Y-45300D01*
X51600Y-45300D02*
X52400Y-45300D01*
X52400Y-45300D02*
X52400Y-42700D01*
X52400Y-42700D02*
X52000Y-42700D01*
X51800Y-45300D02*
X51600Y-45100D01*
X55000Y-32500D02*
X54800Y-32500D01*
X52000Y-32500D02*
X52200Y-32500D01*
X52200Y-32500D02*
X52200Y-32900D01*
X52200Y-32900D02*
X54800Y-32900D01*
X54800Y-32900D02*
X54800Y-32100D01*
X54800Y-32100D02*
X52200Y-32100D01*
X52200Y-32100D02*
X52200Y-32500D01*
X54800Y-32700D02*
X54600Y-32900D01*
X36000Y-44500D02*
X36200Y-44500D01*
X39000Y-44500D02*
X38800Y-44500D01*
X38800Y-44500D02*
X38800Y-44100D01*
X38800Y-44100D02*
X36200Y-44100D01*
X36200Y-44100D02*
X36200Y-44900D01*
X36200Y-44900D02*
X38800Y-44900D01*
X38800Y-44900D02*
X38800Y-44500D01*
X36200Y-44300D02*
X36400Y-44100D01*
X65500Y-41000D02*
X65300Y-41000D01*
X62500Y-41000D02*
X62700Y-41000D01*
X62700Y-41000D02*
X62700Y-41400D01*
X62700Y-41400D02*
X65300Y-41400D01*
X65300Y-41400D02*
X65300Y-40600D01*
X65300Y-40600D02*
X62700Y-40600D01*
X62700Y-40600D02*
X62700Y-41000D01*
X65300Y-41200D02*
X65100Y-41400D01*
X29000Y-44500D02*
X29000Y-44500D01*
X28000Y-44500D02*
X29000Y-44500D01*
X29000Y-44500D02*
X29000Y-44500D01*
X29000Y-44500D02*
X29000Y-48500D01*
X29000Y-48500D02*
X28000Y-48500D01*
X28000Y-48500D02*
X28000Y-44500D01*
X28000Y-45500D02*
X29000Y-45500D01*
G54D25*
X46500Y-48250D02*
X46500Y-48500D01*
X46500Y-48500D02*
X42500Y-48500D01*
X42500Y-48500D02*
X42500Y-48250D01*
X46500Y-46750D02*
X46500Y-48250D01*
X46500Y-48250D02*
X42500Y-48250D01*
X42500Y-48250D02*
X42500Y-46750D01*
X42500Y-46750D02*
X46500Y-46750D01*
X48500Y-46750D02*
X48500Y-46500D01*
X48500Y-46500D02*
X52500Y-46500D01*
X52500Y-46500D02*
X52500Y-46750D01*
X48500Y-48250D02*
X48500Y-46750D01*
X48500Y-46750D02*
X52500Y-46750D01*
X52500Y-46750D02*
X52500Y-48250D01*
X52500Y-48250D02*
X48500Y-48250D01*
G54D10*
X40000Y-48000D02*
X41500Y-46500D01*
X41500Y-46500D02*
X41500Y-46000D01*
X41500Y-46000D02*
X41000Y-45500D01*
X41000Y-45500D02*
X40000Y-45500D01*
X40000Y-45500D02*
X39000Y-46500D01*
X39000Y-46500D02*
X39000Y-47500D01*
X39000Y-47500D02*
X39500Y-48000D01*
X39500Y-48000D02*
X40000Y-48000D01*
G54D28*
X32800Y-41800D02*
X32200Y-41800D01*
X32200Y-41800D02*
X32200Y-41200D01*
X32200Y-41200D02*
X32800Y-41200D01*
X32800Y-41200D02*
X32800Y-41800D01*
X31800Y-41500D02*
X31793Y-41562D01*
X31793Y-41562D02*
X31774Y-41622D01*
X31774Y-41622D02*
X31742Y-41676D01*
X31742Y-41676D02*
X31700Y-41722D01*
X31700Y-41722D02*
X31650Y-41759D01*
X31650Y-41759D02*
X31592Y-41785D01*
X31592Y-41785D02*
X31531Y-41798D01*
X31531Y-41798D02*
X31469Y-41798D01*
X31469Y-41798D02*
X31408Y-41785D01*
X31408Y-41785D02*
X31350Y-41759D01*
X31350Y-41759D02*
X31300Y-41722D01*
X31300Y-41722D02*
X31258Y-41676D01*
X31258Y-41676D02*
X31226Y-41622D01*
X31226Y-41622D02*
X31207Y-41562D01*
X31207Y-41562D02*
X31200Y-41500D01*
X31200Y-41500D02*
X31207Y-41438D01*
X31207Y-41438D02*
X31226Y-41378D01*
X31226Y-41378D02*
X31258Y-41324D01*
X31258Y-41324D02*
X31300Y-41278D01*
X31300Y-41278D02*
X31350Y-41241D01*
X31350Y-41241D02*
X31408Y-41215D01*
X31408Y-41215D02*
X31469Y-41202D01*
X31469Y-41202D02*
X31531Y-41202D01*
X31531Y-41202D02*
X31592Y-41215D01*
X31592Y-41215D02*
X31650Y-41241D01*
X31650Y-41241D02*
X31700Y-41278D01*
X31700Y-41278D02*
X31742Y-41324D01*
X31742Y-41324D02*
X31774Y-41378D01*
X31774Y-41378D02*
X31793Y-41438D01*
X31793Y-41438D02*
X31800Y-41500D01*
X32800Y-40500D02*
X32793Y-40562D01*
X32793Y-40562D02*
X32774Y-40622D01*
X32774Y-40622D02*
X32742Y-40676D01*
X32742Y-40676D02*
X32700Y-40722D01*
X32700Y-40722D02*
X32650Y-40759D01*
X32650Y-40759D02*
X32592Y-40785D01*
X32592Y-40785D02*
X32531Y-40798D01*
X32531Y-40798D02*
X32469Y-40798D01*
X32469Y-40798D02*
X32408Y-40785D01*
X32408Y-40785D02*
X32350Y-40759D01*
X32350Y-40759D02*
X32300Y-40722D01*
X32300Y-40722D02*
X32258Y-40676D01*
X32258Y-40676D02*
X32226Y-40622D01*
X32226Y-40622D02*
X32207Y-40562D01*
X32207Y-40562D02*
X32200Y-40500D01*
X32200Y-40500D02*
X32207Y-40438D01*
X32207Y-40438D02*
X32226Y-40378D01*
X32226Y-40378D02*
X32258Y-40324D01*
X32258Y-40324D02*
X32300Y-40278D01*
X32300Y-40278D02*
X32350Y-40241D01*
X32350Y-40241D02*
X32408Y-40215D01*
X32408Y-40215D02*
X32469Y-40202D01*
X32469Y-40202D02*
X32531Y-40202D01*
X32531Y-40202D02*
X32592Y-40215D01*
X32592Y-40215D02*
X32650Y-40241D01*
X32650Y-40241D02*
X32700Y-40278D01*
X32700Y-40278D02*
X32742Y-40324D01*
X32742Y-40324D02*
X32774Y-40378D01*
X32774Y-40378D02*
X32793Y-40438D01*
X32793Y-40438D02*
X32800Y-40500D01*
X31800Y-40500D02*
X31793Y-40562D01*
X31793Y-40562D02*
X31774Y-40622D01*
X31774Y-40622D02*
X31742Y-40676D01*
X31742Y-40676D02*
X31700Y-40722D01*
X31700Y-40722D02*
X31650Y-40759D01*
X31650Y-40759D02*
X31592Y-40785D01*
X31592Y-40785D02*
X31531Y-40798D01*
X31531Y-40798D02*
X31469Y-40798D01*
X31469Y-40798D02*
X31408Y-40785D01*
X31408Y-40785D02*
X31350Y-40759D01*
X31350Y-40759D02*
X31300Y-40722D01*
X31300Y-40722D02*
X31258Y-40676D01*
X31258Y-40676D02*
X31226Y-40622D01*
X31226Y-40622D02*
X31207Y-40562D01*
X31207Y-40562D02*
X31200Y-40500D01*
X31200Y-40500D02*
X31207Y-40438D01*
X31207Y-40438D02*
X31226Y-40378D01*
X31226Y-40378D02*
X31258Y-40324D01*
X31258Y-40324D02*
X31300Y-40278D01*
X31300Y-40278D02*
X31350Y-40241D01*
X31350Y-40241D02*
X31408Y-40215D01*
X31408Y-40215D02*
X31469Y-40202D01*
X31469Y-40202D02*
X31531Y-40202D01*
X31531Y-40202D02*
X31592Y-40215D01*
X31592Y-40215D02*
X31650Y-40241D01*
X31650Y-40241D02*
X31700Y-40278D01*
X31700Y-40278D02*
X31742Y-40324D01*
X31742Y-40324D02*
X31774Y-40378D01*
X31774Y-40378D02*
X31793Y-40438D01*
X31793Y-40438D02*
X31800Y-40500D01*
X32800Y-39500D02*
X32793Y-39562D01*
X32793Y-39562D02*
X32774Y-39622D01*
X32774Y-39622D02*
X32742Y-39676D01*
X32742Y-39676D02*
X32700Y-39722D01*
X32700Y-39722D02*
X32650Y-39759D01*
X32650Y-39759D02*
X32592Y-39785D01*
X32592Y-39785D02*
X32531Y-39798D01*
X32531Y-39798D02*
X32469Y-39798D01*
X32469Y-39798D02*
X32408Y-39785D01*
X32408Y-39785D02*
X32350Y-39759D01*
X32350Y-39759D02*
X32300Y-39722D01*
X32300Y-39722D02*
X32258Y-39676D01*
X32258Y-39676D02*
X32226Y-39622D01*
X32226Y-39622D02*
X32207Y-39562D01*
X32207Y-39562D02*
X32200Y-39500D01*
X32200Y-39500D02*
X32207Y-39438D01*
X32207Y-39438D02*
X32226Y-39378D01*
X32226Y-39378D02*
X32258Y-39324D01*
X32258Y-39324D02*
X32300Y-39278D01*
X32300Y-39278D02*
X32350Y-39241D01*
X32350Y-39241D02*
X32408Y-39215D01*
X32408Y-39215D02*
X32469Y-39202D01*
X32469Y-39202D02*
X32531Y-39202D01*
X32531Y-39202D02*
X32592Y-39215D01*
X32592Y-39215D02*
X32650Y-39241D01*
X32650Y-39241D02*
X32700Y-39278D01*
X32700Y-39278D02*
X32742Y-39324D01*
X32742Y-39324D02*
X32774Y-39378D01*
X32774Y-39378D02*
X32793Y-39438D01*
X32793Y-39438D02*
X32800Y-39500D01*
X31800Y-39500D02*
X31793Y-39562D01*
X31793Y-39562D02*
X31774Y-39622D01*
X31774Y-39622D02*
X31742Y-39676D01*
X31742Y-39676D02*
X31700Y-39722D01*
X31700Y-39722D02*
X31650Y-39759D01*
X31650Y-39759D02*
X31592Y-39785D01*
X31592Y-39785D02*
X31531Y-39798D01*
X31531Y-39798D02*
X31469Y-39798D01*
X31469Y-39798D02*
X31408Y-39785D01*
X31408Y-39785D02*
X31350Y-39759D01*
X31350Y-39759D02*
X31300Y-39722D01*
X31300Y-39722D02*
X31258Y-39676D01*
X31258Y-39676D02*
X31226Y-39622D01*
X31226Y-39622D02*
X31207Y-39562D01*
X31207Y-39562D02*
X31200Y-39500D01*
X31200Y-39500D02*
X31207Y-39438D01*
X31207Y-39438D02*
X31226Y-39378D01*
X31226Y-39378D02*
X31258Y-39324D01*
X31258Y-39324D02*
X31300Y-39278D01*
X31300Y-39278D02*
X31350Y-39241D01*
X31350Y-39241D02*
X31408Y-39215D01*
X31408Y-39215D02*
X31469Y-39202D01*
X31469Y-39202D02*
X31531Y-39202D01*
X31531Y-39202D02*
X31592Y-39215D01*
X31592Y-39215D02*
X31650Y-39241D01*
X31650Y-39241D02*
X31700Y-39278D01*
X31700Y-39278D02*
X31742Y-39324D01*
X31742Y-39324D02*
X31774Y-39378D01*
X31774Y-39378D02*
X31793Y-39438D01*
X31793Y-39438D02*
X31800Y-39500D01*
X32800Y-38500D02*
X32793Y-38562D01*
X32793Y-38562D02*
X32774Y-38622D01*
X32774Y-38622D02*
X32742Y-38676D01*
X32742Y-38676D02*
X32700Y-38722D01*
X32700Y-38722D02*
X32650Y-38759D01*
X32650Y-38759D02*
X32592Y-38785D01*
X32592Y-38785D02*
X32531Y-38798D01*
X32531Y-38798D02*
X32469Y-38798D01*
X32469Y-38798D02*
X32408Y-38785D01*
X32408Y-38785D02*
X32350Y-38759D01*
X32350Y-38759D02*
X32300Y-38722D01*
X32300Y-38722D02*
X32258Y-38676D01*
X32258Y-38676D02*
X32226Y-38622D01*
X32226Y-38622D02*
X32207Y-38562D01*
X32207Y-38562D02*
X32200Y-38500D01*
X32200Y-38500D02*
X32207Y-38438D01*
X32207Y-38438D02*
X32226Y-38378D01*
X32226Y-38378D02*
X32258Y-38324D01*
X32258Y-38324D02*
X32300Y-38278D01*
X32300Y-38278D02*
X32350Y-38241D01*
X32350Y-38241D02*
X32408Y-38215D01*
X32408Y-38215D02*
X32469Y-38202D01*
X32469Y-38202D02*
X32531Y-38202D01*
X32531Y-38202D02*
X32592Y-38215D01*
X32592Y-38215D02*
X32650Y-38241D01*
X32650Y-38241D02*
X32700Y-38278D01*
X32700Y-38278D02*
X32742Y-38324D01*
X32742Y-38324D02*
X32774Y-38378D01*
X32774Y-38378D02*
X32793Y-38438D01*
X32793Y-38438D02*
X32800Y-38500D01*
X31800Y-38500D02*
X31793Y-38562D01*
X31793Y-38562D02*
X31774Y-38622D01*
X31774Y-38622D02*
X31742Y-38676D01*
X31742Y-38676D02*
X31700Y-38722D01*
X31700Y-38722D02*
X31650Y-38759D01*
X31650Y-38759D02*
X31592Y-38785D01*
X31592Y-38785D02*
X31531Y-38798D01*
X31531Y-38798D02*
X31469Y-38798D01*
X31469Y-38798D02*
X31408Y-38785D01*
X31408Y-38785D02*
X31350Y-38759D01*
X31350Y-38759D02*
X31300Y-38722D01*
X31300Y-38722D02*
X31258Y-38676D01*
X31258Y-38676D02*
X31226Y-38622D01*
X31226Y-38622D02*
X31207Y-38562D01*
X31207Y-38562D02*
X31200Y-38500D01*
X31200Y-38500D02*
X31207Y-38438D01*
X31207Y-38438D02*
X31226Y-38378D01*
X31226Y-38378D02*
X31258Y-38324D01*
X31258Y-38324D02*
X31300Y-38278D01*
X31300Y-38278D02*
X31350Y-38241D01*
X31350Y-38241D02*
X31408Y-38215D01*
X31408Y-38215D02*
X31469Y-38202D01*
X31469Y-38202D02*
X31531Y-38202D01*
X31531Y-38202D02*
X31592Y-38215D01*
X31592Y-38215D02*
X31650Y-38241D01*
X31650Y-38241D02*
X31700Y-38278D01*
X31700Y-38278D02*
X31742Y-38324D01*
X31742Y-38324D02*
X31774Y-38378D01*
X31774Y-38378D02*
X31793Y-38438D01*
X31793Y-38438D02*
X31800Y-38500D01*
X32800Y-37500D02*
X32793Y-37562D01*
X32793Y-37562D02*
X32774Y-37622D01*
X32774Y-37622D02*
X32742Y-37676D01*
X32742Y-37676D02*
X32700Y-37722D01*
X32700Y-37722D02*
X32650Y-37759D01*
X32650Y-37759D02*
X32592Y-37785D01*
X32592Y-37785D02*
X32531Y-37798D01*
X32531Y-37798D02*
X32469Y-37798D01*
X32469Y-37798D02*
X32408Y-37785D01*
X32408Y-37785D02*
X32350Y-37759D01*
X32350Y-37759D02*
X32300Y-37722D01*
X32300Y-37722D02*
X32258Y-37676D01*
X32258Y-37676D02*
X32226Y-37622D01*
X32226Y-37622D02*
X32207Y-37562D01*
X32207Y-37562D02*
X32200Y-37500D01*
X32200Y-37500D02*
X32207Y-37438D01*
X32207Y-37438D02*
X32226Y-37378D01*
X32226Y-37378D02*
X32258Y-37324D01*
X32258Y-37324D02*
X32300Y-37278D01*
X32300Y-37278D02*
X32350Y-37241D01*
X32350Y-37241D02*
X32408Y-37215D01*
X32408Y-37215D02*
X32469Y-37202D01*
X32469Y-37202D02*
X32531Y-37202D01*
X32531Y-37202D02*
X32592Y-37215D01*
X32592Y-37215D02*
X32650Y-37241D01*
X32650Y-37241D02*
X32700Y-37278D01*
X32700Y-37278D02*
X32742Y-37324D01*
X32742Y-37324D02*
X32774Y-37378D01*
X32774Y-37378D02*
X32793Y-37438D01*
X32793Y-37438D02*
X32800Y-37500D01*
X31800Y-37500D02*
X31793Y-37562D01*
X31793Y-37562D02*
X31774Y-37622D01*
X31774Y-37622D02*
X31742Y-37676D01*
X31742Y-37676D02*
X31700Y-37722D01*
X31700Y-37722D02*
X31650Y-37759D01*
X31650Y-37759D02*
X31592Y-37785D01*
X31592Y-37785D02*
X31531Y-37798D01*
X31531Y-37798D02*
X31469Y-37798D01*
X31469Y-37798D02*
X31408Y-37785D01*
X31408Y-37785D02*
X31350Y-37759D01*
X31350Y-37759D02*
X31300Y-37722D01*
X31300Y-37722D02*
X31258Y-37676D01*
X31258Y-37676D02*
X31226Y-37622D01*
X31226Y-37622D02*
X31207Y-37562D01*
X31207Y-37562D02*
X31200Y-37500D01*
X31200Y-37500D02*
X31207Y-37438D01*
X31207Y-37438D02*
X31226Y-37378D01*
X31226Y-37378D02*
X31258Y-37324D01*
X31258Y-37324D02*
X31300Y-37278D01*
X31300Y-37278D02*
X31350Y-37241D01*
X31350Y-37241D02*
X31408Y-37215D01*
X31408Y-37215D02*
X31469Y-37202D01*
X31469Y-37202D02*
X31531Y-37202D01*
X31531Y-37202D02*
X31592Y-37215D01*
X31592Y-37215D02*
X31650Y-37241D01*
X31650Y-37241D02*
X31700Y-37278D01*
X31700Y-37278D02*
X31742Y-37324D01*
X31742Y-37324D02*
X31774Y-37378D01*
X31774Y-37378D02*
X31793Y-37438D01*
X31793Y-37438D02*
X31800Y-37500D01*
X32800Y-36500D02*
X32793Y-36562D01*
X32793Y-36562D02*
X32774Y-36622D01*
X32774Y-36622D02*
X32742Y-36676D01*
X32742Y-36676D02*
X32700Y-36722D01*
X32700Y-36722D02*
X32650Y-36759D01*
X32650Y-36759D02*
X32592Y-36785D01*
X32592Y-36785D02*
X32531Y-36798D01*
X32531Y-36798D02*
X32469Y-36798D01*
X32469Y-36798D02*
X32408Y-36785D01*
X32408Y-36785D02*
X32350Y-36759D01*
X32350Y-36759D02*
X32300Y-36722D01*
X32300Y-36722D02*
X32258Y-36676D01*
X32258Y-36676D02*
X32226Y-36622D01*
X32226Y-36622D02*
X32207Y-36562D01*
X32207Y-36562D02*
X32200Y-36500D01*
X32200Y-36500D02*
X32207Y-36438D01*
X32207Y-36438D02*
X32226Y-36378D01*
X32226Y-36378D02*
X32258Y-36324D01*
X32258Y-36324D02*
X32300Y-36278D01*
X32300Y-36278D02*
X32350Y-36241D01*
X32350Y-36241D02*
X32408Y-36215D01*
X32408Y-36215D02*
X32469Y-36202D01*
X32469Y-36202D02*
X32531Y-36202D01*
X32531Y-36202D02*
X32592Y-36215D01*
X32592Y-36215D02*
X32650Y-36241D01*
X32650Y-36241D02*
X32700Y-36278D01*
X32700Y-36278D02*
X32742Y-36324D01*
X32742Y-36324D02*
X32774Y-36378D01*
X32774Y-36378D02*
X32793Y-36438D01*
X32793Y-36438D02*
X32800Y-36500D01*
X31800Y-36500D02*
X31793Y-36562D01*
X31793Y-36562D02*
X31774Y-36622D01*
X31774Y-36622D02*
X31742Y-36676D01*
X31742Y-36676D02*
X31700Y-36722D01*
X31700Y-36722D02*
X31650Y-36759D01*
X31650Y-36759D02*
X31592Y-36785D01*
X31592Y-36785D02*
X31531Y-36798D01*
X31531Y-36798D02*
X31469Y-36798D01*
X31469Y-36798D02*
X31408Y-36785D01*
X31408Y-36785D02*
X31350Y-36759D01*
X31350Y-36759D02*
X31300Y-36722D01*
X31300Y-36722D02*
X31258Y-36676D01*
X31258Y-36676D02*
X31226Y-36622D01*
X31226Y-36622D02*
X31207Y-36562D01*
X31207Y-36562D02*
X31200Y-36500D01*
X31200Y-36500D02*
X31207Y-36438D01*
X31207Y-36438D02*
X31226Y-36378D01*
X31226Y-36378D02*
X31258Y-36324D01*
X31258Y-36324D02*
X31300Y-36278D01*
X31300Y-36278D02*
X31350Y-36241D01*
X31350Y-36241D02*
X31408Y-36215D01*
X31408Y-36215D02*
X31469Y-36202D01*
X31469Y-36202D02*
X31531Y-36202D01*
X31531Y-36202D02*
X31592Y-36215D01*
X31592Y-36215D02*
X31650Y-36241D01*
X31650Y-36241D02*
X31700Y-36278D01*
X31700Y-36278D02*
X31742Y-36324D01*
X31742Y-36324D02*
X31774Y-36378D01*
X31774Y-36378D02*
X31793Y-36438D01*
X31793Y-36438D02*
X31800Y-36500D01*
X32800Y-35500D02*
X32793Y-35562D01*
X32793Y-35562D02*
X32774Y-35622D01*
X32774Y-35622D02*
X32742Y-35676D01*
X32742Y-35676D02*
X32700Y-35722D01*
X32700Y-35722D02*
X32650Y-35759D01*
X32650Y-35759D02*
X32592Y-35785D01*
X32592Y-35785D02*
X32531Y-35798D01*
X32531Y-35798D02*
X32469Y-35798D01*
X32469Y-35798D02*
X32408Y-35785D01*
X32408Y-35785D02*
X32350Y-35759D01*
X32350Y-35759D02*
X32300Y-35722D01*
X32300Y-35722D02*
X32258Y-35676D01*
X32258Y-35676D02*
X32226Y-35622D01*
X32226Y-35622D02*
X32207Y-35562D01*
X32207Y-35562D02*
X32200Y-35500D01*
X32200Y-35500D02*
X32207Y-35438D01*
X32207Y-35438D02*
X32226Y-35378D01*
X32226Y-35378D02*
X32258Y-35324D01*
X32258Y-35324D02*
X32300Y-35278D01*
X32300Y-35278D02*
X32350Y-35241D01*
X32350Y-35241D02*
X32408Y-35215D01*
X32408Y-35215D02*
X32469Y-35202D01*
X32469Y-35202D02*
X32531Y-35202D01*
X32531Y-35202D02*
X32592Y-35215D01*
X32592Y-35215D02*
X32650Y-35241D01*
X32650Y-35241D02*
X32700Y-35278D01*
X32700Y-35278D02*
X32742Y-35324D01*
X32742Y-35324D02*
X32774Y-35378D01*
X32774Y-35378D02*
X32793Y-35438D01*
X32793Y-35438D02*
X32800Y-35500D01*
X31800Y-35500D02*
X31793Y-35562D01*
X31793Y-35562D02*
X31774Y-35622D01*
X31774Y-35622D02*
X31742Y-35676D01*
X31742Y-35676D02*
X31700Y-35722D01*
X31700Y-35722D02*
X31650Y-35759D01*
X31650Y-35759D02*
X31592Y-35785D01*
X31592Y-35785D02*
X31531Y-35798D01*
X31531Y-35798D02*
X31469Y-35798D01*
X31469Y-35798D02*
X31408Y-35785D01*
X31408Y-35785D02*
X31350Y-35759D01*
X31350Y-35759D02*
X31300Y-35722D01*
X31300Y-35722D02*
X31258Y-35676D01*
X31258Y-35676D02*
X31226Y-35622D01*
X31226Y-35622D02*
X31207Y-35562D01*
X31207Y-35562D02*
X31200Y-35500D01*
X31200Y-35500D02*
X31207Y-35438D01*
X31207Y-35438D02*
X31226Y-35378D01*
X31226Y-35378D02*
X31258Y-35324D01*
X31258Y-35324D02*
X31300Y-35278D01*
X31300Y-35278D02*
X31350Y-35241D01*
X31350Y-35241D02*
X31408Y-35215D01*
X31408Y-35215D02*
X31469Y-35202D01*
X31469Y-35202D02*
X31531Y-35202D01*
X31531Y-35202D02*
X31592Y-35215D01*
X31592Y-35215D02*
X31650Y-35241D01*
X31650Y-35241D02*
X31700Y-35278D01*
X31700Y-35278D02*
X31742Y-35324D01*
X31742Y-35324D02*
X31774Y-35378D01*
X31774Y-35378D02*
X31793Y-35438D01*
X31793Y-35438D02*
X31800Y-35500D01*
X32800Y-34500D02*
X32793Y-34562D01*
X32793Y-34562D02*
X32774Y-34622D01*
X32774Y-34622D02*
X32742Y-34676D01*
X32742Y-34676D02*
X32700Y-34722D01*
X32700Y-34722D02*
X32650Y-34759D01*
X32650Y-34759D02*
X32592Y-34785D01*
X32592Y-34785D02*
X32531Y-34798D01*
X32531Y-34798D02*
X32469Y-34798D01*
X32469Y-34798D02*
X32408Y-34785D01*
X32408Y-34785D02*
X32350Y-34759D01*
X32350Y-34759D02*
X32300Y-34722D01*
X32300Y-34722D02*
X32258Y-34676D01*
X32258Y-34676D02*
X32226Y-34622D01*
X32226Y-34622D02*
X32207Y-34562D01*
X32207Y-34562D02*
X32200Y-34500D01*
X32200Y-34500D02*
X32207Y-34438D01*
X32207Y-34438D02*
X32226Y-34378D01*
X32226Y-34378D02*
X32258Y-34324D01*
X32258Y-34324D02*
X32300Y-34278D01*
X32300Y-34278D02*
X32350Y-34241D01*
X32350Y-34241D02*
X32408Y-34215D01*
X32408Y-34215D02*
X32469Y-34202D01*
X32469Y-34202D02*
X32531Y-34202D01*
X32531Y-34202D02*
X32592Y-34215D01*
X32592Y-34215D02*
X32650Y-34241D01*
X32650Y-34241D02*
X32700Y-34278D01*
X32700Y-34278D02*
X32742Y-34324D01*
X32742Y-34324D02*
X32774Y-34378D01*
X32774Y-34378D02*
X32793Y-34438D01*
X32793Y-34438D02*
X32800Y-34500D01*
X31800Y-34500D02*
X31793Y-34562D01*
X31793Y-34562D02*
X31774Y-34622D01*
X31774Y-34622D02*
X31742Y-34676D01*
X31742Y-34676D02*
X31700Y-34722D01*
X31700Y-34722D02*
X31650Y-34759D01*
X31650Y-34759D02*
X31592Y-34785D01*
X31592Y-34785D02*
X31531Y-34798D01*
X31531Y-34798D02*
X31469Y-34798D01*
X31469Y-34798D02*
X31408Y-34785D01*
X31408Y-34785D02*
X31350Y-34759D01*
X31350Y-34759D02*
X31300Y-34722D01*
X31300Y-34722D02*
X31258Y-34676D01*
X31258Y-34676D02*
X31226Y-34622D01*
X31226Y-34622D02*
X31207Y-34562D01*
X31207Y-34562D02*
X31200Y-34500D01*
X31200Y-34500D02*
X31207Y-34438D01*
X31207Y-34438D02*
X31226Y-34378D01*
X31226Y-34378D02*
X31258Y-34324D01*
X31258Y-34324D02*
X31300Y-34278D01*
X31300Y-34278D02*
X31350Y-34241D01*
X31350Y-34241D02*
X31408Y-34215D01*
X31408Y-34215D02*
X31469Y-34202D01*
X31469Y-34202D02*
X31531Y-34202D01*
X31531Y-34202D02*
X31592Y-34215D01*
X31592Y-34215D02*
X31650Y-34241D01*
X31650Y-34241D02*
X31700Y-34278D01*
X31700Y-34278D02*
X31742Y-34324D01*
X31742Y-34324D02*
X31774Y-34378D01*
X31774Y-34378D02*
X31793Y-34438D01*
X31793Y-34438D02*
X31800Y-34500D01*
X35275Y-44000D02*
X35268Y-44057D01*
X35268Y-44057D02*
X35251Y-44111D01*
X35251Y-44111D02*
X35222Y-44161D01*
X35222Y-44161D02*
X35184Y-44204D01*
X35184Y-44204D02*
X35137Y-44238D01*
X35137Y-44238D02*
X35084Y-44261D01*
X35084Y-44261D02*
X35028Y-44273D01*
X35028Y-44273D02*
X34972Y-44273D01*
X34972Y-44273D02*
X34916Y-44261D01*
X34916Y-44261D02*
X34863Y-44238D01*
X34863Y-44238D02*
X34816Y-44204D01*
X34816Y-44204D02*
X34778Y-44161D01*
X34778Y-44161D02*
X34749Y-44111D01*
X34749Y-44111D02*
X34732Y-44057D01*
X34732Y-44057D02*
X34725Y-44000D01*
X34725Y-44000D02*
X34732Y-43943D01*
X34732Y-43943D02*
X34749Y-43889D01*
X34749Y-43889D02*
X34778Y-43839D01*
X34778Y-43839D02*
X34816Y-43796D01*
X34816Y-43796D02*
X34863Y-43762D01*
X34863Y-43762D02*
X34916Y-43739D01*
X34916Y-43739D02*
X34972Y-43727D01*
X34972Y-43727D02*
X35028Y-43727D01*
X35028Y-43727D02*
X35084Y-43739D01*
X35084Y-43739D02*
X35137Y-43762D01*
X35137Y-43762D02*
X35184Y-43796D01*
X35184Y-43796D02*
X35222Y-43839D01*
X35222Y-43839D02*
X35251Y-43889D01*
X35251Y-43889D02*
X35268Y-43943D01*
X35268Y-43943D02*
X35275Y-44000D01*
X35275Y-42000D02*
X35268Y-42057D01*
X35268Y-42057D02*
X35251Y-42111D01*
X35251Y-42111D02*
X35222Y-42161D01*
X35222Y-42161D02*
X35184Y-42204D01*
X35184Y-42204D02*
X35137Y-42238D01*
X35137Y-42238D02*
X35084Y-42261D01*
X35084Y-42261D02*
X35028Y-42273D01*
X35028Y-42273D02*
X34972Y-42273D01*
X34972Y-42273D02*
X34916Y-42261D01*
X34916Y-42261D02*
X34863Y-42238D01*
X34863Y-42238D02*
X34816Y-42204D01*
X34816Y-42204D02*
X34778Y-42161D01*
X34778Y-42161D02*
X34749Y-42111D01*
X34749Y-42111D02*
X34732Y-42057D01*
X34732Y-42057D02*
X34725Y-42000D01*
X34725Y-42000D02*
X34732Y-41943D01*
X34732Y-41943D02*
X34749Y-41889D01*
X34749Y-41889D02*
X34778Y-41839D01*
X34778Y-41839D02*
X34816Y-41796D01*
X34816Y-41796D02*
X34863Y-41762D01*
X34863Y-41762D02*
X34916Y-41739D01*
X34916Y-41739D02*
X34972Y-41727D01*
X34972Y-41727D02*
X35028Y-41727D01*
X35028Y-41727D02*
X35084Y-41739D01*
X35084Y-41739D02*
X35137Y-41762D01*
X35137Y-41762D02*
X35184Y-41796D01*
X35184Y-41796D02*
X35222Y-41839D01*
X35222Y-41839D02*
X35251Y-41889D01*
X35251Y-41889D02*
X35268Y-41943D01*
X35268Y-41943D02*
X35275Y-42000D01*
X35275Y-43000D02*
X35268Y-43057D01*
X35268Y-43057D02*
X35251Y-43111D01*
X35251Y-43111D02*
X35222Y-43161D01*
X35222Y-43161D02*
X35184Y-43204D01*
X35184Y-43204D02*
X35137Y-43238D01*
X35137Y-43238D02*
X35084Y-43261D01*
X35084Y-43261D02*
X35028Y-43273D01*
X35028Y-43273D02*
X34972Y-43273D01*
X34972Y-43273D02*
X34916Y-43261D01*
X34916Y-43261D02*
X34863Y-43238D01*
X34863Y-43238D02*
X34816Y-43204D01*
X34816Y-43204D02*
X34778Y-43161D01*
X34778Y-43161D02*
X34749Y-43111D01*
X34749Y-43111D02*
X34732Y-43057D01*
X34732Y-43057D02*
X34725Y-43000D01*
X34725Y-43000D02*
X34732Y-42943D01*
X34732Y-42943D02*
X34749Y-42889D01*
X34749Y-42889D02*
X34778Y-42839D01*
X34778Y-42839D02*
X34816Y-42796D01*
X34816Y-42796D02*
X34863Y-42762D01*
X34863Y-42762D02*
X34916Y-42739D01*
X34916Y-42739D02*
X34972Y-42727D01*
X34972Y-42727D02*
X35028Y-42727D01*
X35028Y-42727D02*
X35084Y-42739D01*
X35084Y-42739D02*
X35137Y-42762D01*
X35137Y-42762D02*
X35184Y-42796D01*
X35184Y-42796D02*
X35222Y-42839D01*
X35222Y-42839D02*
X35251Y-42889D01*
X35251Y-42889D02*
X35268Y-42943D01*
X35268Y-42943D02*
X35275Y-43000D01*
X42690Y-29450D02*
X42690Y-28550D01*
X42690Y-28550D02*
X43310Y-28550D01*
X43310Y-28550D02*
X43310Y-29450D01*
X43310Y-29450D02*
X42690Y-29450D01*
X43690Y-29450D02*
X43690Y-28550D01*
X43690Y-28550D02*
X44310Y-28550D01*
X44310Y-28550D02*
X44310Y-29450D01*
X44310Y-29450D02*
X43690Y-29450D01*
X44690Y-29450D02*
X44690Y-28550D01*
X44690Y-28550D02*
X45310Y-28550D01*
X45310Y-28550D02*
X45310Y-29450D01*
X45310Y-29450D02*
X44690Y-29450D01*
X45690Y-29450D02*
X45690Y-28550D01*
X45690Y-28550D02*
X46310Y-28550D01*
X46310Y-28550D02*
X46310Y-29450D01*
X46310Y-29450D02*
X45690Y-29450D01*
X46690Y-29450D02*
X46690Y-28550D01*
X46690Y-28550D02*
X47310Y-28550D01*
X47310Y-28550D02*
X47310Y-29450D01*
X47310Y-29450D02*
X46690Y-29450D01*
X47690Y-29450D02*
X47690Y-28550D01*
X47690Y-28550D02*
X48310Y-28550D01*
X48310Y-28550D02*
X48310Y-29450D01*
X48310Y-29450D02*
X47690Y-29450D01*
X48690Y-29450D02*
X48690Y-28550D01*
X48690Y-28550D02*
X49310Y-28550D01*
X49310Y-28550D02*
X49310Y-29450D01*
X49310Y-29450D02*
X48690Y-29450D01*
X49690Y-29450D02*
X49690Y-28550D01*
X49690Y-28550D02*
X50310Y-28550D01*
X50310Y-28550D02*
X50310Y-29450D01*
X50310Y-29450D02*
X49690Y-29450D01*
X49690Y-26450D02*
X49690Y-25550D01*
X49690Y-25550D02*
X50310Y-25550D01*
X50310Y-25550D02*
X50310Y-26450D01*
X50310Y-26450D02*
X49690Y-26450D01*
X48690Y-26450D02*
X48690Y-25550D01*
X48690Y-25550D02*
X49310Y-25550D01*
X49310Y-25550D02*
X49310Y-26450D01*
X49310Y-26450D02*
X48690Y-26450D01*
X47690Y-26450D02*
X47690Y-25550D01*
X47690Y-25550D02*
X48310Y-25550D01*
X48310Y-25550D02*
X48310Y-26450D01*
X48310Y-26450D02*
X47690Y-26450D01*
X46690Y-26450D02*
X46690Y-25550D01*
X46690Y-25550D02*
X47310Y-25550D01*
X47310Y-25550D02*
X47310Y-26450D01*
X47310Y-26450D02*
X46690Y-26450D01*
X45690Y-26450D02*
X45690Y-25550D01*
X45690Y-25550D02*
X46310Y-25550D01*
X46310Y-25550D02*
X46310Y-26450D01*
X46310Y-26450D02*
X45690Y-26450D01*
X44690Y-26450D02*
X44690Y-25550D01*
X44690Y-25550D02*
X45310Y-25550D01*
X45310Y-25550D02*
X45310Y-26450D01*
X45310Y-26450D02*
X44690Y-26450D01*
X43690Y-26450D02*
X43690Y-25550D01*
X43690Y-25550D02*
X44310Y-25550D01*
X44310Y-25550D02*
X44310Y-26450D01*
X44310Y-26450D02*
X43690Y-26450D01*
X42690Y-26450D02*
X42690Y-25550D01*
X42690Y-25550D02*
X43310Y-25550D01*
X43310Y-25550D02*
X43310Y-26450D01*
X43310Y-26450D02*
X42690Y-26450D01*
X57050Y-31190D02*
X57950Y-31190D01*
X57950Y-31190D02*
X57950Y-31810D01*
X57950Y-31810D02*
X57050Y-31810D01*
X57050Y-31810D02*
X57050Y-31190D01*
X57050Y-32190D02*
X57950Y-32190D01*
X57950Y-32190D02*
X57950Y-32810D01*
X57950Y-32810D02*
X57050Y-32810D01*
X57050Y-32810D02*
X57050Y-32190D01*
X57050Y-33190D02*
X57950Y-33190D01*
X57950Y-33190D02*
X57950Y-33810D01*
X57950Y-33810D02*
X57050Y-33810D01*
X57050Y-33810D02*
X57050Y-33190D01*
X57050Y-34190D02*
X57950Y-34190D01*
X57950Y-34190D02*
X57950Y-34810D01*
X57950Y-34810D02*
X57050Y-34810D01*
X57050Y-34810D02*
X57050Y-34190D01*
X57050Y-35190D02*
X57950Y-35190D01*
X57950Y-35190D02*
X57950Y-35810D01*
X57950Y-35810D02*
X57050Y-35810D01*
X57050Y-35810D02*
X57050Y-35190D01*
X57050Y-36190D02*
X57950Y-36190D01*
X57950Y-36190D02*
X57950Y-36810D01*
X57950Y-36810D02*
X57050Y-36810D01*
X57050Y-36810D02*
X57050Y-36190D01*
X57050Y-37190D02*
X57950Y-37190D01*
X57950Y-37190D02*
X57950Y-37810D01*
X57950Y-37810D02*
X57050Y-37810D01*
X57050Y-37810D02*
X57050Y-37190D01*
X57050Y-38190D02*
X57950Y-38190D01*
X57950Y-38190D02*
X57950Y-38810D01*
X57950Y-38810D02*
X57050Y-38810D01*
X57050Y-38810D02*
X57050Y-38190D01*
X57050Y-39190D02*
X57950Y-39190D01*
X57950Y-39190D02*
X57950Y-39810D01*
X57950Y-39810D02*
X57050Y-39810D01*
X57050Y-39810D02*
X57050Y-39190D01*
X60050Y-39190D02*
X60950Y-39190D01*
X60950Y-39190D02*
X60950Y-39810D01*
X60950Y-39810D02*
X60050Y-39810D01*
X60050Y-39810D02*
X60050Y-39190D01*
X60050Y-38190D02*
X60950Y-38190D01*
X60950Y-38190D02*
X60950Y-38810D01*
X60950Y-38810D02*
X60050Y-38810D01*
X60050Y-38810D02*
X60050Y-38190D01*
X60050Y-37190D02*
X60950Y-37190D01*
X60950Y-37190D02*
X60950Y-37810D01*
X60950Y-37810D02*
X60050Y-37810D01*
X60050Y-37810D02*
X60050Y-37190D01*
X60050Y-36190D02*
X60950Y-36190D01*
X60950Y-36190D02*
X60950Y-36810D01*
X60950Y-36810D02*
X60050Y-36810D01*
X60050Y-36810D02*
X60050Y-36190D01*
X60050Y-35190D02*
X60950Y-35190D01*
X60950Y-35190D02*
X60950Y-35810D01*
X60950Y-35810D02*
X60050Y-35810D01*
X60050Y-35810D02*
X60050Y-35190D01*
X60050Y-34190D02*
X60950Y-34190D01*
X60950Y-34190D02*
X60950Y-34810D01*
X60950Y-34810D02*
X60050Y-34810D01*
X60050Y-34810D02*
X60050Y-34190D01*
X60050Y-33190D02*
X60950Y-33190D01*
X60950Y-33190D02*
X60950Y-33810D01*
X60950Y-33810D02*
X60050Y-33810D01*
X60050Y-33810D02*
X60050Y-33190D01*
X60050Y-32190D02*
X60950Y-32190D01*
X60950Y-32190D02*
X60950Y-32810D01*
X60950Y-32810D02*
X60050Y-32810D01*
X60050Y-32810D02*
X60050Y-32190D01*
X60050Y-31190D02*
X60950Y-31190D01*
X60950Y-31190D02*
X60950Y-31810D01*
X60950Y-31810D02*
X60050Y-31810D01*
X60050Y-31810D02*
X60050Y-31190D01*
X34690Y-40450D02*
X34690Y-39550D01*
X34690Y-39550D02*
X35310Y-39550D01*
X35310Y-39550D02*
X35310Y-40450D01*
X35310Y-40450D02*
X34690Y-40450D01*
X35690Y-40450D02*
X35690Y-39550D01*
X35690Y-39550D02*
X36310Y-39550D01*
X36310Y-39550D02*
X36310Y-40450D01*
X36310Y-40450D02*
X35690Y-40450D01*
X36690Y-40450D02*
X36690Y-39550D01*
X36690Y-39550D02*
X37310Y-39550D01*
X37310Y-39550D02*
X37310Y-40450D01*
X37310Y-40450D02*
X36690Y-40450D01*
X37690Y-40450D02*
X37690Y-39550D01*
X37690Y-39550D02*
X38310Y-39550D01*
X38310Y-39550D02*
X38310Y-40450D01*
X38310Y-40450D02*
X37690Y-40450D01*
X38690Y-40450D02*
X38690Y-39550D01*
X38690Y-39550D02*
X39310Y-39550D01*
X39310Y-39550D02*
X39310Y-40450D01*
X39310Y-40450D02*
X38690Y-40450D01*
X39690Y-40450D02*
X39690Y-39550D01*
X39690Y-39550D02*
X40310Y-39550D01*
X40310Y-39550D02*
X40310Y-40450D01*
X40310Y-40450D02*
X39690Y-40450D01*
X40690Y-40450D02*
X40690Y-39550D01*
X40690Y-39550D02*
X41310Y-39550D01*
X41310Y-39550D02*
X41310Y-40450D01*
X41310Y-40450D02*
X40690Y-40450D01*
X41690Y-40450D02*
X41690Y-39550D01*
X41690Y-39550D02*
X42310Y-39550D01*
X42310Y-39550D02*
X42310Y-40450D01*
X42310Y-40450D02*
X41690Y-40450D01*
X42690Y-40450D02*
X42690Y-39550D01*
X42690Y-39550D02*
X43310Y-39550D01*
X43310Y-39550D02*
X43310Y-40450D01*
X43310Y-40450D02*
X42690Y-40450D01*
X43690Y-40450D02*
X43690Y-39550D01*
X43690Y-39550D02*
X44310Y-39550D01*
X44310Y-39550D02*
X44310Y-40450D01*
X44310Y-40450D02*
X43690Y-40450D01*
X44690Y-40450D02*
X44690Y-39550D01*
X44690Y-39550D02*
X45310Y-39550D01*
X45310Y-39550D02*
X45310Y-40450D01*
X45310Y-40450D02*
X44690Y-40450D01*
X45690Y-40450D02*
X45690Y-39550D01*
X45690Y-39550D02*
X46310Y-39550D01*
X46310Y-39550D02*
X46310Y-40450D01*
X46310Y-40450D02*
X45690Y-40450D01*
X46690Y-40450D02*
X46690Y-39550D01*
X46690Y-39550D02*
X47310Y-39550D01*
X47310Y-39550D02*
X47310Y-40450D01*
X47310Y-40450D02*
X46690Y-40450D01*
X47690Y-40450D02*
X47690Y-39550D01*
X47690Y-39550D02*
X48310Y-39550D01*
X48310Y-39550D02*
X48310Y-40450D01*
X48310Y-40450D02*
X47690Y-40450D01*
X48690Y-40450D02*
X48690Y-39550D01*
X48690Y-39550D02*
X49310Y-39550D01*
X49310Y-39550D02*
X49310Y-40450D01*
X49310Y-40450D02*
X48690Y-40450D01*
X49690Y-40450D02*
X49690Y-39550D01*
X49690Y-39550D02*
X50310Y-39550D01*
X50310Y-39550D02*
X50310Y-40450D01*
X50310Y-40450D02*
X49690Y-40450D01*
X50690Y-40450D02*
X50690Y-39550D01*
X50690Y-39550D02*
X51310Y-39550D01*
X51310Y-39550D02*
X51310Y-40450D01*
X51310Y-40450D02*
X50690Y-40450D01*
X51690Y-40450D02*
X51690Y-39550D01*
X51690Y-39550D02*
X52310Y-39550D01*
X52310Y-39550D02*
X52310Y-40450D01*
X52310Y-40450D02*
X51690Y-40450D01*
X52690Y-40450D02*
X52690Y-39550D01*
X52690Y-39550D02*
X53310Y-39550D01*
X53310Y-39550D02*
X53310Y-40450D01*
X53310Y-40450D02*
X52690Y-40450D01*
X53690Y-40450D02*
X53690Y-39550D01*
X53690Y-39550D02*
X54310Y-39550D01*
X54310Y-39550D02*
X54310Y-40450D01*
X54310Y-40450D02*
X53690Y-40450D01*
X53690Y-34450D02*
X53690Y-33550D01*
X53690Y-33550D02*
X54310Y-33550D01*
X54310Y-33550D02*
X54310Y-34450D01*
X54310Y-34450D02*
X53690Y-34450D01*
X52690Y-34450D02*
X52690Y-33550D01*
X52690Y-33550D02*
X53310Y-33550D01*
X53310Y-33550D02*
X53310Y-34450D01*
X53310Y-34450D02*
X52690Y-34450D01*
X51690Y-34450D02*
X51690Y-33550D01*
X51690Y-33550D02*
X52310Y-33550D01*
X52310Y-33550D02*
X52310Y-34450D01*
X52310Y-34450D02*
X51690Y-34450D01*
X50690Y-34450D02*
X50690Y-33550D01*
X50690Y-33550D02*
X51310Y-33550D01*
X51310Y-33550D02*
X51310Y-34450D01*
X51310Y-34450D02*
X50690Y-34450D01*
X49690Y-34450D02*
X49690Y-33550D01*
X49690Y-33550D02*
X50310Y-33550D01*
X50310Y-33550D02*
X50310Y-34450D01*
X50310Y-34450D02*
X49690Y-34450D01*
X48690Y-34450D02*
X48690Y-33550D01*
X48690Y-33550D02*
X49310Y-33550D01*
X49310Y-33550D02*
X49310Y-34450D01*
X49310Y-34450D02*
X48690Y-34450D01*
X47690Y-34450D02*
X47690Y-33550D01*
X47690Y-33550D02*
X48310Y-33550D01*
X48310Y-33550D02*
X48310Y-34450D01*
X48310Y-34450D02*
X47690Y-34450D01*
X46690Y-34450D02*
X46690Y-33550D01*
X46690Y-33550D02*
X47310Y-33550D01*
X47310Y-33550D02*
X47310Y-34450D01*
X47310Y-34450D02*
X46690Y-34450D01*
X45690Y-34450D02*
X45690Y-33550D01*
X45690Y-33550D02*
X46310Y-33550D01*
X46310Y-33550D02*
X46310Y-34450D01*
X46310Y-34450D02*
X45690Y-34450D01*
X44690Y-34450D02*
X44690Y-33550D01*
X44690Y-33550D02*
X45310Y-33550D01*
X45310Y-33550D02*
X45310Y-34450D01*
X45310Y-34450D02*
X44690Y-34450D01*
X43690Y-34450D02*
X43690Y-33550D01*
X43690Y-33550D02*
X44310Y-33550D01*
X44310Y-33550D02*
X44310Y-34450D01*
X44310Y-34450D02*
X43690Y-34450D01*
X42690Y-34450D02*
X42690Y-33550D01*
X42690Y-33550D02*
X43310Y-33550D01*
X43310Y-33550D02*
X43310Y-34450D01*
X43310Y-34450D02*
X42690Y-34450D01*
X41690Y-34450D02*
X41690Y-33550D01*
X41690Y-33550D02*
X42310Y-33550D01*
X42310Y-33550D02*
X42310Y-34450D01*
X42310Y-34450D02*
X41690Y-34450D01*
X40690Y-34450D02*
X40690Y-33550D01*
X40690Y-33550D02*
X41310Y-33550D01*
X41310Y-33550D02*
X41310Y-34450D01*
X41310Y-34450D02*
X40690Y-34450D01*
X39690Y-34450D02*
X39690Y-33550D01*
X39690Y-33550D02*
X40310Y-33550D01*
X40310Y-33550D02*
X40310Y-34450D01*
X40310Y-34450D02*
X39690Y-34450D01*
X38690Y-34450D02*
X38690Y-33550D01*
X38690Y-33550D02*
X39310Y-33550D01*
X39310Y-33550D02*
X39310Y-34450D01*
X39310Y-34450D02*
X38690Y-34450D01*
X37690Y-34450D02*
X37690Y-33550D01*
X37690Y-33550D02*
X38310Y-33550D01*
X38310Y-33550D02*
X38310Y-34450D01*
X38310Y-34450D02*
X37690Y-34450D01*
X36690Y-34450D02*
X36690Y-33550D01*
X36690Y-33550D02*
X37310Y-33550D01*
X37310Y-33550D02*
X37310Y-34450D01*
X37310Y-34450D02*
X36690Y-34450D01*
X35690Y-34450D02*
X35690Y-33550D01*
X35690Y-33550D02*
X36310Y-33550D01*
X36310Y-33550D02*
X36310Y-34450D01*
X36310Y-34450D02*
X35690Y-34450D01*
X34690Y-34450D02*
X34690Y-33550D01*
X34690Y-33550D02*
X35310Y-33550D01*
X35310Y-33550D02*
X35310Y-34450D01*
X35310Y-34450D02*
X34690Y-34450D01*
X56950Y-46310D02*
X56050Y-46310D01*
X56050Y-46310D02*
X56050Y-45690D01*
X56050Y-45690D02*
X56950Y-45690D01*
X56950Y-45690D02*
X56950Y-46310D01*
X56950Y-45310D02*
X56050Y-45310D01*
X56050Y-45310D02*
X56050Y-44690D01*
X56050Y-44690D02*
X56950Y-44690D01*
X56950Y-44690D02*
X56950Y-45310D01*
X56950Y-44310D02*
X56050Y-44310D01*
X56050Y-44310D02*
X56050Y-43690D01*
X56050Y-43690D02*
X56950Y-43690D01*
X56950Y-43690D02*
X56950Y-44310D01*
X56950Y-43310D02*
X56050Y-43310D01*
X56050Y-43310D02*
X56050Y-42690D01*
X56050Y-42690D02*
X56950Y-42690D01*
X56950Y-42690D02*
X56950Y-43310D01*
X53950Y-43310D02*
X53050Y-43310D01*
X53050Y-43310D02*
X53050Y-42690D01*
X53050Y-42690D02*
X53950Y-42690D01*
X53950Y-42690D02*
X53950Y-43310D01*
X53950Y-44310D02*
X53050Y-44310D01*
X53050Y-44310D02*
X53050Y-43690D01*
X53050Y-43690D02*
X53950Y-43690D01*
X53950Y-43690D02*
X53950Y-44310D01*
X53950Y-45310D02*
X53050Y-45310D01*
X53050Y-45310D02*
X53050Y-44690D01*
X53050Y-44690D02*
X53950Y-44690D01*
X53950Y-44690D02*
X53950Y-45310D01*
X53950Y-46310D02*
X53050Y-46310D01*
X53050Y-46310D02*
X53050Y-45690D01*
X53050Y-45690D02*
X53950Y-45690D01*
X53950Y-45690D02*
X53950Y-46310D01*
X29550Y-43690D02*
X30450Y-43690D01*
X30450Y-43690D02*
X30450Y-44310D01*
X30450Y-44310D02*
X29550Y-44310D01*
X29550Y-44310D02*
X29550Y-43690D01*
X29550Y-44690D02*
X30450Y-44690D01*
X30450Y-44690D02*
X30450Y-45310D01*
X30450Y-45310D02*
X29550Y-45310D01*
X29550Y-45310D02*
X29550Y-44690D01*
X29550Y-45690D02*
X30450Y-45690D01*
X30450Y-45690D02*
X30450Y-46310D01*
X30450Y-46310D02*
X29550Y-46310D01*
X29550Y-46310D02*
X29550Y-45690D01*
X29550Y-46690D02*
X30450Y-46690D01*
X30450Y-46690D02*
X30450Y-47310D01*
X30450Y-47310D02*
X29550Y-47310D01*
X29550Y-47310D02*
X29550Y-46690D01*
X32550Y-46690D02*
X33450Y-46690D01*
X33450Y-46690D02*
X33450Y-47310D01*
X33450Y-47310D02*
X32550Y-47310D01*
X32550Y-47310D02*
X32550Y-46690D01*
X32550Y-45690D02*
X33450Y-45690D01*
X33450Y-45690D02*
X33450Y-46310D01*
X33450Y-46310D02*
X32550Y-46310D01*
X32550Y-46310D02*
X32550Y-45690D01*
X32550Y-44690D02*
X33450Y-44690D01*
X33450Y-44690D02*
X33450Y-45310D01*
X33450Y-45310D02*
X32550Y-45310D01*
X32550Y-45310D02*
X32550Y-44690D01*
X32550Y-43690D02*
X33450Y-43690D01*
X33450Y-43690D02*
X33450Y-44310D01*
X33450Y-44310D02*
X32550Y-44310D01*
X32550Y-44310D02*
X32550Y-43690D01*
X65275Y-32500D02*
X65268Y-32557D01*
X65268Y-32557D02*
X65251Y-32611D01*
X65251Y-32611D02*
X65222Y-32661D01*
X65222Y-32661D02*
X65184Y-32704D01*
X65184Y-32704D02*
X65137Y-32738D01*
X65137Y-32738D02*
X65084Y-32761D01*
X65084Y-32761D02*
X65028Y-32773D01*
X65028Y-32773D02*
X64972Y-32773D01*
X64972Y-32773D02*
X64916Y-32761D01*
X64916Y-32761D02*
X64863Y-32738D01*
X64863Y-32738D02*
X64816Y-32704D01*
X64816Y-32704D02*
X64778Y-32661D01*
X64778Y-32661D02*
X64749Y-32611D01*
X64749Y-32611D02*
X64732Y-32557D01*
X64732Y-32557D02*
X64725Y-32500D01*
X64725Y-32500D02*
X64732Y-32443D01*
X64732Y-32443D02*
X64749Y-32389D01*
X64749Y-32389D02*
X64778Y-32339D01*
X64778Y-32339D02*
X64816Y-32296D01*
X64816Y-32296D02*
X64863Y-32262D01*
X64863Y-32262D02*
X64916Y-32239D01*
X64916Y-32239D02*
X64972Y-32227D01*
X64972Y-32227D02*
X65028Y-32227D01*
X65028Y-32227D02*
X65084Y-32239D01*
X65084Y-32239D02*
X65137Y-32262D01*
X65137Y-32262D02*
X65184Y-32296D01*
X65184Y-32296D02*
X65222Y-32339D01*
X65222Y-32339D02*
X65251Y-32389D01*
X65251Y-32389D02*
X65268Y-32443D01*
X65268Y-32443D02*
X65275Y-32500D01*
X65275Y-33500D02*
X65268Y-33557D01*
X65268Y-33557D02*
X65251Y-33611D01*
X65251Y-33611D02*
X65222Y-33661D01*
X65222Y-33661D02*
X65184Y-33704D01*
X65184Y-33704D02*
X65137Y-33738D01*
X65137Y-33738D02*
X65084Y-33761D01*
X65084Y-33761D02*
X65028Y-33773D01*
X65028Y-33773D02*
X64972Y-33773D01*
X64972Y-33773D02*
X64916Y-33761D01*
X64916Y-33761D02*
X64863Y-33738D01*
X64863Y-33738D02*
X64816Y-33704D01*
X64816Y-33704D02*
X64778Y-33661D01*
X64778Y-33661D02*
X64749Y-33611D01*
X64749Y-33611D02*
X64732Y-33557D01*
X64732Y-33557D02*
X64725Y-33500D01*
X64725Y-33500D02*
X64732Y-33443D01*
X64732Y-33443D02*
X64749Y-33389D01*
X64749Y-33389D02*
X64778Y-33339D01*
X64778Y-33339D02*
X64816Y-33296D01*
X64816Y-33296D02*
X64863Y-33262D01*
X64863Y-33262D02*
X64916Y-33239D01*
X64916Y-33239D02*
X64972Y-33227D01*
X64972Y-33227D02*
X65028Y-33227D01*
X65028Y-33227D02*
X65084Y-33239D01*
X65084Y-33239D02*
X65137Y-33262D01*
X65137Y-33262D02*
X65184Y-33296D01*
X65184Y-33296D02*
X65222Y-33339D01*
X65222Y-33339D02*
X65251Y-33389D01*
X65251Y-33389D02*
X65268Y-33443D01*
X65268Y-33443D02*
X65275Y-33500D01*
X65275Y-36000D02*
X65268Y-36057D01*
X65268Y-36057D02*
X65251Y-36111D01*
X65251Y-36111D02*
X65222Y-36161D01*
X65222Y-36161D02*
X65184Y-36204D01*
X65184Y-36204D02*
X65137Y-36238D01*
X65137Y-36238D02*
X65084Y-36261D01*
X65084Y-36261D02*
X65028Y-36273D01*
X65028Y-36273D02*
X64972Y-36273D01*
X64972Y-36273D02*
X64916Y-36261D01*
X64916Y-36261D02*
X64863Y-36238D01*
X64863Y-36238D02*
X64816Y-36204D01*
X64816Y-36204D02*
X64778Y-36161D01*
X64778Y-36161D02*
X64749Y-36111D01*
X64749Y-36111D02*
X64732Y-36057D01*
X64732Y-36057D02*
X64725Y-36000D01*
X64725Y-36000D02*
X64732Y-35943D01*
X64732Y-35943D02*
X64749Y-35889D01*
X64749Y-35889D02*
X64778Y-35839D01*
X64778Y-35839D02*
X64816Y-35796D01*
X64816Y-35796D02*
X64863Y-35762D01*
X64863Y-35762D02*
X64916Y-35739D01*
X64916Y-35739D02*
X64972Y-35727D01*
X64972Y-35727D02*
X65028Y-35727D01*
X65028Y-35727D02*
X65084Y-35739D01*
X65084Y-35739D02*
X65137Y-35762D01*
X65137Y-35762D02*
X65184Y-35796D01*
X65184Y-35796D02*
X65222Y-35839D01*
X65222Y-35839D02*
X65251Y-35889D01*
X65251Y-35889D02*
X65268Y-35943D01*
X65268Y-35943D02*
X65275Y-36000D01*
X65275Y-35000D02*
X65268Y-35057D01*
X65268Y-35057D02*
X65251Y-35111D01*
X65251Y-35111D02*
X65222Y-35161D01*
X65222Y-35161D02*
X65184Y-35204D01*
X65184Y-35204D02*
X65137Y-35238D01*
X65137Y-35238D02*
X65084Y-35261D01*
X65084Y-35261D02*
X65028Y-35273D01*
X65028Y-35273D02*
X64972Y-35273D01*
X64972Y-35273D02*
X64916Y-35261D01*
X64916Y-35261D02*
X64863Y-35238D01*
X64863Y-35238D02*
X64816Y-35204D01*
X64816Y-35204D02*
X64778Y-35161D01*
X64778Y-35161D02*
X64749Y-35111D01*
X64749Y-35111D02*
X64732Y-35057D01*
X64732Y-35057D02*
X64725Y-35000D01*
X64725Y-35000D02*
X64732Y-34943D01*
X64732Y-34943D02*
X64749Y-34889D01*
X64749Y-34889D02*
X64778Y-34839D01*
X64778Y-34839D02*
X64816Y-34796D01*
X64816Y-34796D02*
X64863Y-34762D01*
X64863Y-34762D02*
X64916Y-34739D01*
X64916Y-34739D02*
X64972Y-34727D01*
X64972Y-34727D02*
X65028Y-34727D01*
X65028Y-34727D02*
X65084Y-34739D01*
X65084Y-34739D02*
X65137Y-34762D01*
X65137Y-34762D02*
X65184Y-34796D01*
X65184Y-34796D02*
X65222Y-34839D01*
X65222Y-34839D02*
X65251Y-34889D01*
X65251Y-34889D02*
X65268Y-34943D01*
X65268Y-34943D02*
X65275Y-35000D01*
X50275Y-44000D02*
X50268Y-44057D01*
X50268Y-44057D02*
X50251Y-44111D01*
X50251Y-44111D02*
X50222Y-44161D01*
X50222Y-44161D02*
X50184Y-44204D01*
X50184Y-44204D02*
X50137Y-44238D01*
X50137Y-44238D02*
X50084Y-44261D01*
X50084Y-44261D02*
X50028Y-44273D01*
X50028Y-44273D02*
X49972Y-44273D01*
X49972Y-44273D02*
X49916Y-44261D01*
X49916Y-44261D02*
X49863Y-44238D01*
X49863Y-44238D02*
X49816Y-44204D01*
X49816Y-44204D02*
X49778Y-44161D01*
X49778Y-44161D02*
X49749Y-44111D01*
X49749Y-44111D02*
X49732Y-44057D01*
X49732Y-44057D02*
X49725Y-44000D01*
X49725Y-44000D02*
X49732Y-43943D01*
X49732Y-43943D02*
X49749Y-43889D01*
X49749Y-43889D02*
X49778Y-43839D01*
X49778Y-43839D02*
X49816Y-43796D01*
X49816Y-43796D02*
X49863Y-43762D01*
X49863Y-43762D02*
X49916Y-43739D01*
X49916Y-43739D02*
X49972Y-43727D01*
X49972Y-43727D02*
X50028Y-43727D01*
X50028Y-43727D02*
X50084Y-43739D01*
X50084Y-43739D02*
X50137Y-43762D01*
X50137Y-43762D02*
X50184Y-43796D01*
X50184Y-43796D02*
X50222Y-43839D01*
X50222Y-43839D02*
X50251Y-43889D01*
X50251Y-43889D02*
X50268Y-43943D01*
X50268Y-43943D02*
X50275Y-44000D01*
X50275Y-45000D02*
X50268Y-45057D01*
X50268Y-45057D02*
X50251Y-45111D01*
X50251Y-45111D02*
X50222Y-45161D01*
X50222Y-45161D02*
X50184Y-45204D01*
X50184Y-45204D02*
X50137Y-45238D01*
X50137Y-45238D02*
X50084Y-45261D01*
X50084Y-45261D02*
X50028Y-45273D01*
X50028Y-45273D02*
X49972Y-45273D01*
X49972Y-45273D02*
X49916Y-45261D01*
X49916Y-45261D02*
X49863Y-45238D01*
X49863Y-45238D02*
X49816Y-45204D01*
X49816Y-45204D02*
X49778Y-45161D01*
X49778Y-45161D02*
X49749Y-45111D01*
X49749Y-45111D02*
X49732Y-45057D01*
X49732Y-45057D02*
X49725Y-45000D01*
X49725Y-45000D02*
X49732Y-44943D01*
X49732Y-44943D02*
X49749Y-44889D01*
X49749Y-44889D02*
X49778Y-44839D01*
X49778Y-44839D02*
X49816Y-44796D01*
X49816Y-44796D02*
X49863Y-44762D01*
X49863Y-44762D02*
X49916Y-44739D01*
X49916Y-44739D02*
X49972Y-44727D01*
X49972Y-44727D02*
X50028Y-44727D01*
X50028Y-44727D02*
X50084Y-44739D01*
X50084Y-44739D02*
X50137Y-44762D01*
X50137Y-44762D02*
X50184Y-44796D01*
X50184Y-44796D02*
X50222Y-44839D01*
X50222Y-44839D02*
X50251Y-44889D01*
X50251Y-44889D02*
X50268Y-44943D01*
X50268Y-44943D02*
X50275Y-45000D01*
X48275Y-44000D02*
X48268Y-44057D01*
X48268Y-44057D02*
X48251Y-44111D01*
X48251Y-44111D02*
X48222Y-44161D01*
X48222Y-44161D02*
X48184Y-44204D01*
X48184Y-44204D02*
X48137Y-44238D01*
X48137Y-44238D02*
X48084Y-44261D01*
X48084Y-44261D02*
X48028Y-44273D01*
X48028Y-44273D02*
X47972Y-44273D01*
X47972Y-44273D02*
X47916Y-44261D01*
X47916Y-44261D02*
X47863Y-44238D01*
X47863Y-44238D02*
X47816Y-44204D01*
X47816Y-44204D02*
X47778Y-44161D01*
X47778Y-44161D02*
X47749Y-44111D01*
X47749Y-44111D02*
X47732Y-44057D01*
X47732Y-44057D02*
X47725Y-44000D01*
X47725Y-44000D02*
X47732Y-43943D01*
X47732Y-43943D02*
X47749Y-43889D01*
X47749Y-43889D02*
X47778Y-43839D01*
X47778Y-43839D02*
X47816Y-43796D01*
X47816Y-43796D02*
X47863Y-43762D01*
X47863Y-43762D02*
X47916Y-43739D01*
X47916Y-43739D02*
X47972Y-43727D01*
X47972Y-43727D02*
X48028Y-43727D01*
X48028Y-43727D02*
X48084Y-43739D01*
X48084Y-43739D02*
X48137Y-43762D01*
X48137Y-43762D02*
X48184Y-43796D01*
X48184Y-43796D02*
X48222Y-43839D01*
X48222Y-43839D02*
X48251Y-43889D01*
X48251Y-43889D02*
X48268Y-43943D01*
X48268Y-43943D02*
X48275Y-44000D01*
X48275Y-45000D02*
X48268Y-45057D01*
X48268Y-45057D02*
X48251Y-45111D01*
X48251Y-45111D02*
X48222Y-45161D01*
X48222Y-45161D02*
X48184Y-45204D01*
X48184Y-45204D02*
X48137Y-45238D01*
X48137Y-45238D02*
X48084Y-45261D01*
X48084Y-45261D02*
X48028Y-45273D01*
X48028Y-45273D02*
X47972Y-45273D01*
X47972Y-45273D02*
X47916Y-45261D01*
X47916Y-45261D02*
X47863Y-45238D01*
X47863Y-45238D02*
X47816Y-45204D01*
X47816Y-45204D02*
X47778Y-45161D01*
X47778Y-45161D02*
X47749Y-45111D01*
X47749Y-45111D02*
X47732Y-45057D01*
X47732Y-45057D02*
X47725Y-45000D01*
X47725Y-45000D02*
X47732Y-44943D01*
X47732Y-44943D02*
X47749Y-44889D01*
X47749Y-44889D02*
X47778Y-44839D01*
X47778Y-44839D02*
X47816Y-44796D01*
X47816Y-44796D02*
X47863Y-44762D01*
X47863Y-44762D02*
X47916Y-44739D01*
X47916Y-44739D02*
X47972Y-44727D01*
X47972Y-44727D02*
X48028Y-44727D01*
X48028Y-44727D02*
X48084Y-44739D01*
X48084Y-44739D02*
X48137Y-44762D01*
X48137Y-44762D02*
X48184Y-44796D01*
X48184Y-44796D02*
X48222Y-44839D01*
X48222Y-44839D02*
X48251Y-44889D01*
X48251Y-44889D02*
X48268Y-44943D01*
X48268Y-44943D02*
X48275Y-45000D01*
X36775Y-42500D02*
X36768Y-42557D01*
X36768Y-42557D02*
X36751Y-42611D01*
X36751Y-42611D02*
X36722Y-42661D01*
X36722Y-42661D02*
X36684Y-42704D01*
X36684Y-42704D02*
X36637Y-42738D01*
X36637Y-42738D02*
X36584Y-42761D01*
X36584Y-42761D02*
X36528Y-42773D01*
X36528Y-42773D02*
X36472Y-42773D01*
X36472Y-42773D02*
X36416Y-42761D01*
X36416Y-42761D02*
X36363Y-42738D01*
X36363Y-42738D02*
X36316Y-42704D01*
X36316Y-42704D02*
X36278Y-42661D01*
X36278Y-42661D02*
X36249Y-42611D01*
X36249Y-42611D02*
X36232Y-42557D01*
X36232Y-42557D02*
X36225Y-42500D01*
X36225Y-42500D02*
X36232Y-42443D01*
X36232Y-42443D02*
X36249Y-42389D01*
X36249Y-42389D02*
X36278Y-42339D01*
X36278Y-42339D02*
X36316Y-42296D01*
X36316Y-42296D02*
X36363Y-42262D01*
X36363Y-42262D02*
X36416Y-42239D01*
X36416Y-42239D02*
X36472Y-42227D01*
X36472Y-42227D02*
X36528Y-42227D01*
X36528Y-42227D02*
X36584Y-42239D01*
X36584Y-42239D02*
X36637Y-42262D01*
X36637Y-42262D02*
X36684Y-42296D01*
X36684Y-42296D02*
X36722Y-42339D01*
X36722Y-42339D02*
X36751Y-42389D01*
X36751Y-42389D02*
X36768Y-42443D01*
X36768Y-42443D02*
X36775Y-42500D01*
X37775Y-42500D02*
X37768Y-42557D01*
X37768Y-42557D02*
X37751Y-42611D01*
X37751Y-42611D02*
X37722Y-42661D01*
X37722Y-42661D02*
X37684Y-42704D01*
X37684Y-42704D02*
X37637Y-42738D01*
X37637Y-42738D02*
X37584Y-42761D01*
X37584Y-42761D02*
X37528Y-42773D01*
X37528Y-42773D02*
X37472Y-42773D01*
X37472Y-42773D02*
X37416Y-42761D01*
X37416Y-42761D02*
X37363Y-42738D01*
X37363Y-42738D02*
X37316Y-42704D01*
X37316Y-42704D02*
X37278Y-42661D01*
X37278Y-42661D02*
X37249Y-42611D01*
X37249Y-42611D02*
X37232Y-42557D01*
X37232Y-42557D02*
X37225Y-42500D01*
X37225Y-42500D02*
X37232Y-42443D01*
X37232Y-42443D02*
X37249Y-42389D01*
X37249Y-42389D02*
X37278Y-42339D01*
X37278Y-42339D02*
X37316Y-42296D01*
X37316Y-42296D02*
X37363Y-42262D01*
X37363Y-42262D02*
X37416Y-42239D01*
X37416Y-42239D02*
X37472Y-42227D01*
X37472Y-42227D02*
X37528Y-42227D01*
X37528Y-42227D02*
X37584Y-42239D01*
X37584Y-42239D02*
X37637Y-42262D01*
X37637Y-42262D02*
X37684Y-42296D01*
X37684Y-42296D02*
X37722Y-42339D01*
X37722Y-42339D02*
X37751Y-42389D01*
X37751Y-42389D02*
X37768Y-42443D01*
X37768Y-42443D02*
X37775Y-42500D01*
X57725Y-44725D02*
X58275Y-44725D01*
X58275Y-44725D02*
X58275Y-45275D01*
X58275Y-45275D02*
X57725Y-45275D01*
X57725Y-45275D02*
X57725Y-44725D01*
X58275Y-46000D02*
X58268Y-46057D01*
X58268Y-46057D02*
X58251Y-46111D01*
X58251Y-46111D02*
X58222Y-46161D01*
X58222Y-46161D02*
X58184Y-46204D01*
X58184Y-46204D02*
X58137Y-46238D01*
X58137Y-46238D02*
X58084Y-46261D01*
X58084Y-46261D02*
X58028Y-46273D01*
X58028Y-46273D02*
X57972Y-46273D01*
X57972Y-46273D02*
X57916Y-46261D01*
X57916Y-46261D02*
X57863Y-46238D01*
X57863Y-46238D02*
X57816Y-46204D01*
X57816Y-46204D02*
X57778Y-46161D01*
X57778Y-46161D02*
X57749Y-46111D01*
X57749Y-46111D02*
X57732Y-46057D01*
X57732Y-46057D02*
X57725Y-46000D01*
X57725Y-46000D02*
X57732Y-45943D01*
X57732Y-45943D02*
X57749Y-45889D01*
X57749Y-45889D02*
X57778Y-45839D01*
X57778Y-45839D02*
X57816Y-45796D01*
X57816Y-45796D02*
X57863Y-45762D01*
X57863Y-45762D02*
X57916Y-45739D01*
X57916Y-45739D02*
X57972Y-45727D01*
X57972Y-45727D02*
X58028Y-45727D01*
X58028Y-45727D02*
X58084Y-45739D01*
X58084Y-45739D02*
X58137Y-45762D01*
X58137Y-45762D02*
X58184Y-45796D01*
X58184Y-45796D02*
X58222Y-45839D01*
X58222Y-45839D02*
X58251Y-45889D01*
X58251Y-45889D02*
X58268Y-45943D01*
X58268Y-45943D02*
X58275Y-46000D01*
X43725Y-31275D02*
X43725Y-30725D01*
X43725Y-30725D02*
X44275Y-30725D01*
X44275Y-30725D02*
X44275Y-31275D01*
X44275Y-31275D02*
X43725Y-31275D01*
X45275Y-31000D02*
X45268Y-31057D01*
X45268Y-31057D02*
X45251Y-31111D01*
X45251Y-31111D02*
X45222Y-31161D01*
X45222Y-31161D02*
X45184Y-31204D01*
X45184Y-31204D02*
X45137Y-31238D01*
X45137Y-31238D02*
X45084Y-31261D01*
X45084Y-31261D02*
X45028Y-31273D01*
X45028Y-31273D02*
X44972Y-31273D01*
X44972Y-31273D02*
X44916Y-31261D01*
X44916Y-31261D02*
X44863Y-31238D01*
X44863Y-31238D02*
X44816Y-31204D01*
X44816Y-31204D02*
X44778Y-31161D01*
X44778Y-31161D02*
X44749Y-31111D01*
X44749Y-31111D02*
X44732Y-31057D01*
X44732Y-31057D02*
X44725Y-31000D01*
X44725Y-31000D02*
X44732Y-30943D01*
X44732Y-30943D02*
X44749Y-30889D01*
X44749Y-30889D02*
X44778Y-30839D01*
X44778Y-30839D02*
X44816Y-30796D01*
X44816Y-30796D02*
X44863Y-30762D01*
X44863Y-30762D02*
X44916Y-30739D01*
X44916Y-30739D02*
X44972Y-30727D01*
X44972Y-30727D02*
X45028Y-30727D01*
X45028Y-30727D02*
X45084Y-30739D01*
X45084Y-30739D02*
X45137Y-30762D01*
X45137Y-30762D02*
X45184Y-30796D01*
X45184Y-30796D02*
X45222Y-30839D01*
X45222Y-30839D02*
X45251Y-30889D01*
X45251Y-30889D02*
X45268Y-30943D01*
X45268Y-30943D02*
X45275Y-31000D01*
X46225Y-31275D02*
X46225Y-30725D01*
X46225Y-30725D02*
X46775Y-30725D01*
X46775Y-30725D02*
X46775Y-31275D01*
X46775Y-31275D02*
X46225Y-31275D01*
X47775Y-31000D02*
X47768Y-31057D01*
X47768Y-31057D02*
X47751Y-31111D01*
X47751Y-31111D02*
X47722Y-31161D01*
X47722Y-31161D02*
X47684Y-31204D01*
X47684Y-31204D02*
X47637Y-31238D01*
X47637Y-31238D02*
X47584Y-31261D01*
X47584Y-31261D02*
X47528Y-31273D01*
X47528Y-31273D02*
X47472Y-31273D01*
X47472Y-31273D02*
X47416Y-31261D01*
X47416Y-31261D02*
X47363Y-31238D01*
X47363Y-31238D02*
X47316Y-31204D01*
X47316Y-31204D02*
X47278Y-31161D01*
X47278Y-31161D02*
X47249Y-31111D01*
X47249Y-31111D02*
X47232Y-31057D01*
X47232Y-31057D02*
X47225Y-31000D01*
X47225Y-31000D02*
X47232Y-30943D01*
X47232Y-30943D02*
X47249Y-30889D01*
X47249Y-30889D02*
X47278Y-30839D01*
X47278Y-30839D02*
X47316Y-30796D01*
X47316Y-30796D02*
X47363Y-30762D01*
X47363Y-30762D02*
X47416Y-30739D01*
X47416Y-30739D02*
X47472Y-30727D01*
X47472Y-30727D02*
X47528Y-30727D01*
X47528Y-30727D02*
X47584Y-30739D01*
X47584Y-30739D02*
X47637Y-30762D01*
X47637Y-30762D02*
X47684Y-30796D01*
X47684Y-30796D02*
X47722Y-30839D01*
X47722Y-30839D02*
X47751Y-30889D01*
X47751Y-30889D02*
X47768Y-30943D01*
X47768Y-30943D02*
X47775Y-31000D01*
X36725Y-46725D02*
X37275Y-46725D01*
X37275Y-46725D02*
X37275Y-47275D01*
X37275Y-47275D02*
X36725Y-47275D01*
X36725Y-47275D02*
X36725Y-46725D01*
X37275Y-48000D02*
X37268Y-48057D01*
X37268Y-48057D02*
X37251Y-48111D01*
X37251Y-48111D02*
X37222Y-48161D01*
X37222Y-48161D02*
X37184Y-48204D01*
X37184Y-48204D02*
X37137Y-48238D01*
X37137Y-48238D02*
X37084Y-48261D01*
X37084Y-48261D02*
X37028Y-48273D01*
X37028Y-48273D02*
X36972Y-48273D01*
X36972Y-48273D02*
X36916Y-48261D01*
X36916Y-48261D02*
X36863Y-48238D01*
X36863Y-48238D02*
X36816Y-48204D01*
X36816Y-48204D02*
X36778Y-48161D01*
X36778Y-48161D02*
X36749Y-48111D01*
X36749Y-48111D02*
X36732Y-48057D01*
X36732Y-48057D02*
X36725Y-48000D01*
X36725Y-48000D02*
X36732Y-47943D01*
X36732Y-47943D02*
X36749Y-47889D01*
X36749Y-47889D02*
X36778Y-47839D01*
X36778Y-47839D02*
X36816Y-47796D01*
X36816Y-47796D02*
X36863Y-47762D01*
X36863Y-47762D02*
X36916Y-47739D01*
X36916Y-47739D02*
X36972Y-47727D01*
X36972Y-47727D02*
X37028Y-47727D01*
X37028Y-47727D02*
X37084Y-47739D01*
X37084Y-47739D02*
X37137Y-47762D01*
X37137Y-47762D02*
X37184Y-47796D01*
X37184Y-47796D02*
X37222Y-47839D01*
X37222Y-47839D02*
X37251Y-47889D01*
X37251Y-47889D02*
X37268Y-47943D01*
X37268Y-47943D02*
X37275Y-48000D01*
X52775Y-50275D02*
X52225Y-50275D01*
X52225Y-50275D02*
X52225Y-49725D01*
X52225Y-49725D02*
X52775Y-49725D01*
X52775Y-49725D02*
X52775Y-50275D01*
X52775Y-49000D02*
X52768Y-49057D01*
X52768Y-49057D02*
X52751Y-49111D01*
X52751Y-49111D02*
X52722Y-49161D01*
X52722Y-49161D02*
X52684Y-49204D01*
X52684Y-49204D02*
X52637Y-49238D01*
X52637Y-49238D02*
X52584Y-49261D01*
X52584Y-49261D02*
X52528Y-49273D01*
X52528Y-49273D02*
X52472Y-49273D01*
X52472Y-49273D02*
X52416Y-49261D01*
X52416Y-49261D02*
X52363Y-49238D01*
X52363Y-49238D02*
X52316Y-49204D01*
X52316Y-49204D02*
X52278Y-49161D01*
X52278Y-49161D02*
X52249Y-49111D01*
X52249Y-49111D02*
X52232Y-49057D01*
X52232Y-49057D02*
X52225Y-49000D01*
X52225Y-49000D02*
X52232Y-48943D01*
X52232Y-48943D02*
X52249Y-48889D01*
X52249Y-48889D02*
X52278Y-48839D01*
X52278Y-48839D02*
X52316Y-48796D01*
X52316Y-48796D02*
X52363Y-48762D01*
X52363Y-48762D02*
X52416Y-48739D01*
X52416Y-48739D02*
X52472Y-48727D01*
X52472Y-48727D02*
X52528Y-48727D01*
X52528Y-48727D02*
X52584Y-48739D01*
X52584Y-48739D02*
X52637Y-48762D01*
X52637Y-48762D02*
X52684Y-48796D01*
X52684Y-48796D02*
X52722Y-48839D01*
X52722Y-48839D02*
X52751Y-48889D01*
X52751Y-48889D02*
X52768Y-48943D01*
X52768Y-48943D02*
X52775Y-49000D01*
X41725Y-30225D02*
X42275Y-30225D01*
X42275Y-30225D02*
X42275Y-30775D01*
X42275Y-30775D02*
X41725Y-30775D01*
X41725Y-30775D02*
X41725Y-30225D01*
X42275Y-31500D02*
X42268Y-31557D01*
X42268Y-31557D02*
X42251Y-31611D01*
X42251Y-31611D02*
X42222Y-31661D01*
X42222Y-31661D02*
X42184Y-31704D01*
X42184Y-31704D02*
X42137Y-31738D01*
X42137Y-31738D02*
X42084Y-31761D01*
X42084Y-31761D02*
X42028Y-31773D01*
X42028Y-31773D02*
X41972Y-31773D01*
X41972Y-31773D02*
X41916Y-31761D01*
X41916Y-31761D02*
X41863Y-31738D01*
X41863Y-31738D02*
X41816Y-31704D01*
X41816Y-31704D02*
X41778Y-31661D01*
X41778Y-31661D02*
X41749Y-31611D01*
X41749Y-31611D02*
X41732Y-31557D01*
X41732Y-31557D02*
X41725Y-31500D01*
X41725Y-31500D02*
X41732Y-31443D01*
X41732Y-31443D02*
X41749Y-31389D01*
X41749Y-31389D02*
X41778Y-31339D01*
X41778Y-31339D02*
X41816Y-31296D01*
X41816Y-31296D02*
X41863Y-31262D01*
X41863Y-31262D02*
X41916Y-31239D01*
X41916Y-31239D02*
X41972Y-31227D01*
X41972Y-31227D02*
X42028Y-31227D01*
X42028Y-31227D02*
X42084Y-31239D01*
X42084Y-31239D02*
X42137Y-31262D01*
X42137Y-31262D02*
X42184Y-31296D01*
X42184Y-31296D02*
X42222Y-31339D01*
X42222Y-31339D02*
X42251Y-31389D01*
X42251Y-31389D02*
X42268Y-31443D01*
X42268Y-31443D02*
X42275Y-31500D01*
X51725Y-27225D02*
X52275Y-27225D01*
X52275Y-27225D02*
X52275Y-27775D01*
X52275Y-27775D02*
X51725Y-27775D01*
X51725Y-27775D02*
X51725Y-27225D01*
X52275Y-28500D02*
X52268Y-28557D01*
X52268Y-28557D02*
X52251Y-28611D01*
X52251Y-28611D02*
X52222Y-28661D01*
X52222Y-28661D02*
X52184Y-28704D01*
X52184Y-28704D02*
X52137Y-28738D01*
X52137Y-28738D02*
X52084Y-28761D01*
X52084Y-28761D02*
X52028Y-28773D01*
X52028Y-28773D02*
X51972Y-28773D01*
X51972Y-28773D02*
X51916Y-28761D01*
X51916Y-28761D02*
X51863Y-28738D01*
X51863Y-28738D02*
X51816Y-28704D01*
X51816Y-28704D02*
X51778Y-28661D01*
X51778Y-28661D02*
X51749Y-28611D01*
X51749Y-28611D02*
X51732Y-28557D01*
X51732Y-28557D02*
X51725Y-28500D01*
X51725Y-28500D02*
X51732Y-28443D01*
X51732Y-28443D02*
X51749Y-28389D01*
X51749Y-28389D02*
X51778Y-28339D01*
X51778Y-28339D02*
X51816Y-28296D01*
X51816Y-28296D02*
X51863Y-28262D01*
X51863Y-28262D02*
X51916Y-28239D01*
X51916Y-28239D02*
X51972Y-28227D01*
X51972Y-28227D02*
X52028Y-28227D01*
X52028Y-28227D02*
X52084Y-28239D01*
X52084Y-28239D02*
X52137Y-28262D01*
X52137Y-28262D02*
X52184Y-28296D01*
X52184Y-28296D02*
X52222Y-28339D01*
X52222Y-28339D02*
X52251Y-28389D01*
X52251Y-28389D02*
X52268Y-28443D01*
X52268Y-28443D02*
X52275Y-28500D01*
X45275Y-43725D02*
X45275Y-44275D01*
X45275Y-44275D02*
X44725Y-44275D01*
X44725Y-44275D02*
X44725Y-43725D01*
X44725Y-43725D02*
X45275Y-43725D01*
X44275Y-44000D02*
X44268Y-44057D01*
X44268Y-44057D02*
X44251Y-44111D01*
X44251Y-44111D02*
X44222Y-44161D01*
X44222Y-44161D02*
X44184Y-44204D01*
X44184Y-44204D02*
X44137Y-44238D01*
X44137Y-44238D02*
X44084Y-44261D01*
X44084Y-44261D02*
X44028Y-44273D01*
X44028Y-44273D02*
X43972Y-44273D01*
X43972Y-44273D02*
X43916Y-44261D01*
X43916Y-44261D02*
X43863Y-44238D01*
X43863Y-44238D02*
X43816Y-44204D01*
X43816Y-44204D02*
X43778Y-44161D01*
X43778Y-44161D02*
X43749Y-44111D01*
X43749Y-44111D02*
X43732Y-44057D01*
X43732Y-44057D02*
X43725Y-44000D01*
X43725Y-44000D02*
X43732Y-43943D01*
X43732Y-43943D02*
X43749Y-43889D01*
X43749Y-43889D02*
X43778Y-43839D01*
X43778Y-43839D02*
X43816Y-43796D01*
X43816Y-43796D02*
X43863Y-43762D01*
X43863Y-43762D02*
X43916Y-43739D01*
X43916Y-43739D02*
X43972Y-43727D01*
X43972Y-43727D02*
X44028Y-43727D01*
X44028Y-43727D02*
X44084Y-43739D01*
X44084Y-43739D02*
X44137Y-43762D01*
X44137Y-43762D02*
X44184Y-43796D01*
X44184Y-43796D02*
X44222Y-43839D01*
X44222Y-43839D02*
X44251Y-43889D01*
X44251Y-43889D02*
X44268Y-43943D01*
X44268Y-43943D02*
X44275Y-44000D01*
X33725Y-31275D02*
X33725Y-30725D01*
X33725Y-30725D02*
X34275Y-30725D01*
X34275Y-30725D02*
X34275Y-31275D01*
X34275Y-31275D02*
X33725Y-31275D01*
X31275Y-31000D02*
X31268Y-31057D01*
X31268Y-31057D02*
X31251Y-31111D01*
X31251Y-31111D02*
X31222Y-31161D01*
X31222Y-31161D02*
X31184Y-31204D01*
X31184Y-31204D02*
X31137Y-31238D01*
X31137Y-31238D02*
X31084Y-31261D01*
X31084Y-31261D02*
X31028Y-31273D01*
X31028Y-31273D02*
X30972Y-31273D01*
X30972Y-31273D02*
X30916Y-31261D01*
X30916Y-31261D02*
X30863Y-31238D01*
X30863Y-31238D02*
X30816Y-31204D01*
X30816Y-31204D02*
X30778Y-31161D01*
X30778Y-31161D02*
X30749Y-31111D01*
X30749Y-31111D02*
X30732Y-31057D01*
X30732Y-31057D02*
X30725Y-31000D01*
X30725Y-31000D02*
X30732Y-30943D01*
X30732Y-30943D02*
X30749Y-30889D01*
X30749Y-30889D02*
X30778Y-30839D01*
X30778Y-30839D02*
X30816Y-30796D01*
X30816Y-30796D02*
X30863Y-30762D01*
X30863Y-30762D02*
X30916Y-30739D01*
X30916Y-30739D02*
X30972Y-30727D01*
X30972Y-30727D02*
X31028Y-30727D01*
X31028Y-30727D02*
X31084Y-30739D01*
X31084Y-30739D02*
X31137Y-30762D01*
X31137Y-30762D02*
X31184Y-30796D01*
X31184Y-30796D02*
X31222Y-30839D01*
X31222Y-30839D02*
X31251Y-30889D01*
X31251Y-30889D02*
X31268Y-30943D01*
X31268Y-30943D02*
X31275Y-31000D01*
X47850Y-42000D02*
X47842Y-42072D01*
X47842Y-42072D02*
X47819Y-42142D01*
X47819Y-42142D02*
X47783Y-42205D01*
X47783Y-42205D02*
X47734Y-42260D01*
X47734Y-42260D02*
X47675Y-42303D01*
X47675Y-42303D02*
X47608Y-42332D01*
X47608Y-42332D02*
X47536Y-42348D01*
X47536Y-42348D02*
X47464Y-42348D01*
X47464Y-42348D02*
X47392Y-42332D01*
X47392Y-42332D02*
X47325Y-42303D01*
X47325Y-42303D02*
X47266Y-42260D01*
X47266Y-42260D02*
X47217Y-42205D01*
X47217Y-42205D02*
X47181Y-42142D01*
X47181Y-42142D02*
X47158Y-42072D01*
X47158Y-42072D02*
X47150Y-42000D01*
X47150Y-42000D02*
X47158Y-41928D01*
X47158Y-41928D02*
X47181Y-41858D01*
X47181Y-41858D02*
X47217Y-41795D01*
X47217Y-41795D02*
X47266Y-41740D01*
X47266Y-41740D02*
X47325Y-41697D01*
X47325Y-41697D02*
X47392Y-41668D01*
X47392Y-41668D02*
X47464Y-41652D01*
X47464Y-41652D02*
X47536Y-41652D01*
X47536Y-41652D02*
X47608Y-41668D01*
X47608Y-41668D02*
X47675Y-41697D01*
X47675Y-41697D02*
X47734Y-41740D01*
X47734Y-41740D02*
X47783Y-41795D01*
X47783Y-41795D02*
X47819Y-41858D01*
X47819Y-41858D02*
X47842Y-41928D01*
X47842Y-41928D02*
X47850Y-42000D01*
X49850Y-42000D02*
X49842Y-42072D01*
X49842Y-42072D02*
X49819Y-42142D01*
X49819Y-42142D02*
X49783Y-42205D01*
X49783Y-42205D02*
X49734Y-42260D01*
X49734Y-42260D02*
X49675Y-42303D01*
X49675Y-42303D02*
X49608Y-42332D01*
X49608Y-42332D02*
X49536Y-42348D01*
X49536Y-42348D02*
X49464Y-42348D01*
X49464Y-42348D02*
X49392Y-42332D01*
X49392Y-42332D02*
X49325Y-42303D01*
X49325Y-42303D02*
X49266Y-42260D01*
X49266Y-42260D02*
X49217Y-42205D01*
X49217Y-42205D02*
X49181Y-42142D01*
X49181Y-42142D02*
X49158Y-42072D01*
X49158Y-42072D02*
X49150Y-42000D01*
X49150Y-42000D02*
X49158Y-41928D01*
X49158Y-41928D02*
X49181Y-41858D01*
X49181Y-41858D02*
X49217Y-41795D01*
X49217Y-41795D02*
X49266Y-41740D01*
X49266Y-41740D02*
X49325Y-41697D01*
X49325Y-41697D02*
X49392Y-41668D01*
X49392Y-41668D02*
X49464Y-41652D01*
X49464Y-41652D02*
X49536Y-41652D01*
X49536Y-41652D02*
X49608Y-41668D01*
X49608Y-41668D02*
X49675Y-41697D01*
X49675Y-41697D02*
X49734Y-41740D01*
X49734Y-41740D02*
X49783Y-41795D01*
X49783Y-41795D02*
X49819Y-41858D01*
X49819Y-41858D02*
X49842Y-41928D01*
X49842Y-41928D02*
X49850Y-42000D01*
X62350Y-35500D02*
X62342Y-35572D01*
X62342Y-35572D02*
X62319Y-35642D01*
X62319Y-35642D02*
X62283Y-35705D01*
X62283Y-35705D02*
X62234Y-35760D01*
X62234Y-35760D02*
X62175Y-35803D01*
X62175Y-35803D02*
X62108Y-35832D01*
X62108Y-35832D02*
X62036Y-35848D01*
X62036Y-35848D02*
X61964Y-35848D01*
X61964Y-35848D02*
X61892Y-35832D01*
X61892Y-35832D02*
X61825Y-35803D01*
X61825Y-35803D02*
X61766Y-35760D01*
X61766Y-35760D02*
X61717Y-35705D01*
X61717Y-35705D02*
X61681Y-35642D01*
X61681Y-35642D02*
X61658Y-35572D01*
X61658Y-35572D02*
X61650Y-35500D01*
X61650Y-35500D02*
X61658Y-35428D01*
X61658Y-35428D02*
X61681Y-35358D01*
X61681Y-35358D02*
X61717Y-35295D01*
X61717Y-35295D02*
X61766Y-35240D01*
X61766Y-35240D02*
X61825Y-35197D01*
X61825Y-35197D02*
X61892Y-35168D01*
X61892Y-35168D02*
X61964Y-35152D01*
X61964Y-35152D02*
X62036Y-35152D01*
X62036Y-35152D02*
X62108Y-35168D01*
X62108Y-35168D02*
X62175Y-35197D01*
X62175Y-35197D02*
X62234Y-35240D01*
X62234Y-35240D02*
X62283Y-35295D01*
X62283Y-35295D02*
X62319Y-35358D01*
X62319Y-35358D02*
X62342Y-35428D01*
X62342Y-35428D02*
X62350Y-35500D01*
X62350Y-33500D02*
X62342Y-33572D01*
X62342Y-33572D02*
X62319Y-33642D01*
X62319Y-33642D02*
X62283Y-33705D01*
X62283Y-33705D02*
X62234Y-33760D01*
X62234Y-33760D02*
X62175Y-33803D01*
X62175Y-33803D02*
X62108Y-33832D01*
X62108Y-33832D02*
X62036Y-33848D01*
X62036Y-33848D02*
X61964Y-33848D01*
X61964Y-33848D02*
X61892Y-33832D01*
X61892Y-33832D02*
X61825Y-33803D01*
X61825Y-33803D02*
X61766Y-33760D01*
X61766Y-33760D02*
X61717Y-33705D01*
X61717Y-33705D02*
X61681Y-33642D01*
X61681Y-33642D02*
X61658Y-33572D01*
X61658Y-33572D02*
X61650Y-33500D01*
X61650Y-33500D02*
X61658Y-33428D01*
X61658Y-33428D02*
X61681Y-33358D01*
X61681Y-33358D02*
X61717Y-33295D01*
X61717Y-33295D02*
X61766Y-33240D01*
X61766Y-33240D02*
X61825Y-33197D01*
X61825Y-33197D02*
X61892Y-33168D01*
X61892Y-33168D02*
X61964Y-33152D01*
X61964Y-33152D02*
X62036Y-33152D01*
X62036Y-33152D02*
X62108Y-33168D01*
X62108Y-33168D02*
X62175Y-33197D01*
X62175Y-33197D02*
X62234Y-33240D01*
X62234Y-33240D02*
X62283Y-33295D01*
X62283Y-33295D02*
X62319Y-33358D01*
X62319Y-33358D02*
X62342Y-33428D01*
X62342Y-33428D02*
X62350Y-33500D01*
X45800Y-45700D02*
X45800Y-46300D01*
X45800Y-46300D02*
X45200Y-46300D01*
X45200Y-46300D02*
X45200Y-45700D01*
X45200Y-45700D02*
X45800Y-45700D01*
X44800Y-46000D02*
X44793Y-46062D01*
X44793Y-46062D02*
X44774Y-46122D01*
X44774Y-46122D02*
X44742Y-46176D01*
X44742Y-46176D02*
X44700Y-46222D01*
X44700Y-46222D02*
X44650Y-46259D01*
X44650Y-46259D02*
X44592Y-46285D01*
X44592Y-46285D02*
X44531Y-46298D01*
X44531Y-46298D02*
X44469Y-46298D01*
X44469Y-46298D02*
X44408Y-46285D01*
X44408Y-46285D02*
X44350Y-46259D01*
X44350Y-46259D02*
X44300Y-46222D01*
X44300Y-46222D02*
X44258Y-46176D01*
X44258Y-46176D02*
X44226Y-46122D01*
X44226Y-46122D02*
X44207Y-46062D01*
X44207Y-46062D02*
X44200Y-46000D01*
X44200Y-46000D02*
X44207Y-45938D01*
X44207Y-45938D02*
X44226Y-45878D01*
X44226Y-45878D02*
X44258Y-45824D01*
X44258Y-45824D02*
X44300Y-45778D01*
X44300Y-45778D02*
X44350Y-45741D01*
X44350Y-45741D02*
X44408Y-45715D01*
X44408Y-45715D02*
X44469Y-45702D01*
X44469Y-45702D02*
X44531Y-45702D01*
X44531Y-45702D02*
X44592Y-45715D01*
X44592Y-45715D02*
X44650Y-45741D01*
X44650Y-45741D02*
X44700Y-45778D01*
X44700Y-45778D02*
X44742Y-45824D01*
X44742Y-45824D02*
X44774Y-45878D01*
X44774Y-45878D02*
X44793Y-45938D01*
X44793Y-45938D02*
X44800Y-46000D01*
X49200Y-49800D02*
X49200Y-49200D01*
X49200Y-49200D02*
X49800Y-49200D01*
X49800Y-49200D02*
X49800Y-49800D01*
X49800Y-49800D02*
X49200Y-49800D01*
X50800Y-49500D02*
X50793Y-49562D01*
X50793Y-49562D02*
X50774Y-49622D01*
X50774Y-49622D02*
X50742Y-49676D01*
X50742Y-49676D02*
X50700Y-49722D01*
X50700Y-49722D02*
X50650Y-49759D01*
X50650Y-49759D02*
X50592Y-49785D01*
X50592Y-49785D02*
X50531Y-49798D01*
X50531Y-49798D02*
X50469Y-49798D01*
X50469Y-49798D02*
X50408Y-49785D01*
X50408Y-49785D02*
X50350Y-49759D01*
X50350Y-49759D02*
X50300Y-49722D01*
X50300Y-49722D02*
X50258Y-49676D01*
X50258Y-49676D02*
X50226Y-49622D01*
X50226Y-49622D02*
X50207Y-49562D01*
X50207Y-49562D02*
X50200Y-49500D01*
X50200Y-49500D02*
X50207Y-49438D01*
X50207Y-49438D02*
X50226Y-49378D01*
X50226Y-49378D02*
X50258Y-49324D01*
X50258Y-49324D02*
X50300Y-49278D01*
X50300Y-49278D02*
X50350Y-49241D01*
X50350Y-49241D02*
X50408Y-49215D01*
X50408Y-49215D02*
X50469Y-49202D01*
X50469Y-49202D02*
X50531Y-49202D01*
X50531Y-49202D02*
X50592Y-49215D01*
X50592Y-49215D02*
X50650Y-49241D01*
X50650Y-49241D02*
X50700Y-49278D01*
X50700Y-49278D02*
X50742Y-49324D01*
X50742Y-49324D02*
X50774Y-49378D01*
X50774Y-49378D02*
X50793Y-49438D01*
X50793Y-49438D02*
X50800Y-49500D01*
X40200Y-25700D02*
X40800Y-25700D01*
X40800Y-25700D02*
X40800Y-26300D01*
X40800Y-26300D02*
X40200Y-26300D01*
X40200Y-26300D02*
X40200Y-25700D01*
X40800Y-27000D02*
X40793Y-27062D01*
X40793Y-27062D02*
X40774Y-27122D01*
X40774Y-27122D02*
X40742Y-27176D01*
X40742Y-27176D02*
X40700Y-27222D01*
X40700Y-27222D02*
X40650Y-27259D01*
X40650Y-27259D02*
X40592Y-27285D01*
X40592Y-27285D02*
X40531Y-27298D01*
X40531Y-27298D02*
X40469Y-27298D01*
X40469Y-27298D02*
X40408Y-27285D01*
X40408Y-27285D02*
X40350Y-27259D01*
X40350Y-27259D02*
X40300Y-27222D01*
X40300Y-27222D02*
X40258Y-27176D01*
X40258Y-27176D02*
X40226Y-27122D01*
X40226Y-27122D02*
X40207Y-27062D01*
X40207Y-27062D02*
X40200Y-27000D01*
X40200Y-27000D02*
X40207Y-26938D01*
X40207Y-26938D02*
X40226Y-26878D01*
X40226Y-26878D02*
X40258Y-26824D01*
X40258Y-26824D02*
X40300Y-26778D01*
X40300Y-26778D02*
X40350Y-26741D01*
X40350Y-26741D02*
X40408Y-26715D01*
X40408Y-26715D02*
X40469Y-26702D01*
X40469Y-26702D02*
X40531Y-26702D01*
X40531Y-26702D02*
X40592Y-26715D01*
X40592Y-26715D02*
X40650Y-26741D01*
X40650Y-26741D02*
X40700Y-26778D01*
X40700Y-26778D02*
X40742Y-26824D01*
X40742Y-26824D02*
X40774Y-26878D01*
X40774Y-26878D02*
X40793Y-26938D01*
X40793Y-26938D02*
X40800Y-27000D01*
X40800Y-28000D02*
X40793Y-28062D01*
X40793Y-28062D02*
X40774Y-28122D01*
X40774Y-28122D02*
X40742Y-28176D01*
X40742Y-28176D02*
X40700Y-28222D01*
X40700Y-28222D02*
X40650Y-28259D01*
X40650Y-28259D02*
X40592Y-28285D01*
X40592Y-28285D02*
X40531Y-28298D01*
X40531Y-28298D02*
X40469Y-28298D01*
X40469Y-28298D02*
X40408Y-28285D01*
X40408Y-28285D02*
X40350Y-28259D01*
X40350Y-28259D02*
X40300Y-28222D01*
X40300Y-28222D02*
X40258Y-28176D01*
X40258Y-28176D02*
X40226Y-28122D01*
X40226Y-28122D02*
X40207Y-28062D01*
X40207Y-28062D02*
X40200Y-28000D01*
X40200Y-28000D02*
X40207Y-27938D01*
X40207Y-27938D02*
X40226Y-27878D01*
X40226Y-27878D02*
X40258Y-27824D01*
X40258Y-27824D02*
X40300Y-27778D01*
X40300Y-27778D02*
X40350Y-27741D01*
X40350Y-27741D02*
X40408Y-27715D01*
X40408Y-27715D02*
X40469Y-27702D01*
X40469Y-27702D02*
X40531Y-27702D01*
X40531Y-27702D02*
X40592Y-27715D01*
X40592Y-27715D02*
X40650Y-27741D01*
X40650Y-27741D02*
X40700Y-27778D01*
X40700Y-27778D02*
X40742Y-27824D01*
X40742Y-27824D02*
X40774Y-27878D01*
X40774Y-27878D02*
X40793Y-27938D01*
X40793Y-27938D02*
X40800Y-28000D01*
X63200Y-42800D02*
X63200Y-42200D01*
X63200Y-42200D02*
X63800Y-42200D01*
X63800Y-42200D02*
X63800Y-42800D01*
X63800Y-42800D02*
X63200Y-42800D01*
X64800Y-42500D02*
X64793Y-42562D01*
X64793Y-42562D02*
X64774Y-42622D01*
X64774Y-42622D02*
X64742Y-42676D01*
X64742Y-42676D02*
X64700Y-42722D01*
X64700Y-42722D02*
X64650Y-42759D01*
X64650Y-42759D02*
X64592Y-42785D01*
X64592Y-42785D02*
X64531Y-42798D01*
X64531Y-42798D02*
X64469Y-42798D01*
X64469Y-42798D02*
X64408Y-42785D01*
X64408Y-42785D02*
X64350Y-42759D01*
X64350Y-42759D02*
X64300Y-42722D01*
X64300Y-42722D02*
X64258Y-42676D01*
X64258Y-42676D02*
X64226Y-42622D01*
X64226Y-42622D02*
X64207Y-42562D01*
X64207Y-42562D02*
X64200Y-42500D01*
X64200Y-42500D02*
X64207Y-42438D01*
X64207Y-42438D02*
X64226Y-42378D01*
X64226Y-42378D02*
X64258Y-42324D01*
X64258Y-42324D02*
X64300Y-42278D01*
X64300Y-42278D02*
X64350Y-42241D01*
X64350Y-42241D02*
X64408Y-42215D01*
X64408Y-42215D02*
X64469Y-42202D01*
X64469Y-42202D02*
X64531Y-42202D01*
X64531Y-42202D02*
X64592Y-42215D01*
X64592Y-42215D02*
X64650Y-42241D01*
X64650Y-42241D02*
X64700Y-42278D01*
X64700Y-42278D02*
X64742Y-42324D01*
X64742Y-42324D02*
X64774Y-42378D01*
X64774Y-42378D02*
X64793Y-42438D01*
X64793Y-42438D02*
X64800Y-42500D01*
X65800Y-42500D02*
X65793Y-42562D01*
X65793Y-42562D02*
X65774Y-42622D01*
X65774Y-42622D02*
X65742Y-42676D01*
X65742Y-42676D02*
X65700Y-42722D01*
X65700Y-42722D02*
X65650Y-42759D01*
X65650Y-42759D02*
X65592Y-42785D01*
X65592Y-42785D02*
X65531Y-42798D01*
X65531Y-42798D02*
X65469Y-42798D01*
X65469Y-42798D02*
X65408Y-42785D01*
X65408Y-42785D02*
X65350Y-42759D01*
X65350Y-42759D02*
X65300Y-42722D01*
X65300Y-42722D02*
X65258Y-42676D01*
X65258Y-42676D02*
X65226Y-42622D01*
X65226Y-42622D02*
X65207Y-42562D01*
X65207Y-42562D02*
X65200Y-42500D01*
X65200Y-42500D02*
X65207Y-42438D01*
X65207Y-42438D02*
X65226Y-42378D01*
X65226Y-42378D02*
X65258Y-42324D01*
X65258Y-42324D02*
X65300Y-42278D01*
X65300Y-42278D02*
X65350Y-42241D01*
X65350Y-42241D02*
X65408Y-42215D01*
X65408Y-42215D02*
X65469Y-42202D01*
X65469Y-42202D02*
X65531Y-42202D01*
X65531Y-42202D02*
X65592Y-42215D01*
X65592Y-42215D02*
X65650Y-42241D01*
X65650Y-42241D02*
X65700Y-42278D01*
X65700Y-42278D02*
X65742Y-42324D01*
X65742Y-42324D02*
X65774Y-42378D01*
X65774Y-42378D02*
X65793Y-42438D01*
X65793Y-42438D02*
X65800Y-42500D01*
X63200Y-40300D02*
X63200Y-39700D01*
X63200Y-39700D02*
X63800Y-39700D01*
X63800Y-39700D02*
X63800Y-40300D01*
X63800Y-40300D02*
X63200Y-40300D01*
X64800Y-40000D02*
X64793Y-40062D01*
X64793Y-40062D02*
X64774Y-40122D01*
X64774Y-40122D02*
X64742Y-40176D01*
X64742Y-40176D02*
X64700Y-40222D01*
X64700Y-40222D02*
X64650Y-40259D01*
X64650Y-40259D02*
X64592Y-40285D01*
X64592Y-40285D02*
X64531Y-40298D01*
X64531Y-40298D02*
X64469Y-40298D01*
X64469Y-40298D02*
X64408Y-40285D01*
X64408Y-40285D02*
X64350Y-40259D01*
X64350Y-40259D02*
X64300Y-40222D01*
X64300Y-40222D02*
X64258Y-40176D01*
X64258Y-40176D02*
X64226Y-40122D01*
X64226Y-40122D02*
X64207Y-40062D01*
X64207Y-40062D02*
X64200Y-40000D01*
X64200Y-40000D02*
X64207Y-39938D01*
X64207Y-39938D02*
X64226Y-39878D01*
X64226Y-39878D02*
X64258Y-39824D01*
X64258Y-39824D02*
X64300Y-39778D01*
X64300Y-39778D02*
X64350Y-39741D01*
X64350Y-39741D02*
X64408Y-39715D01*
X64408Y-39715D02*
X64469Y-39702D01*
X64469Y-39702D02*
X64531Y-39702D01*
X64531Y-39702D02*
X64592Y-39715D01*
X64592Y-39715D02*
X64650Y-39741D01*
X64650Y-39741D02*
X64700Y-39778D01*
X64700Y-39778D02*
X64742Y-39824D01*
X64742Y-39824D02*
X64774Y-39878D01*
X64774Y-39878D02*
X64793Y-39938D01*
X64793Y-39938D02*
X64800Y-40000D01*
X65800Y-40000D02*
X65793Y-40062D01*
X65793Y-40062D02*
X65774Y-40122D01*
X65774Y-40122D02*
X65742Y-40176D01*
X65742Y-40176D02*
X65700Y-40222D01*
X65700Y-40222D02*
X65650Y-40259D01*
X65650Y-40259D02*
X65592Y-40285D01*
X65592Y-40285D02*
X65531Y-40298D01*
X65531Y-40298D02*
X65469Y-40298D01*
X65469Y-40298D02*
X65408Y-40285D01*
X65408Y-40285D02*
X65350Y-40259D01*
X65350Y-40259D02*
X65300Y-40222D01*
X65300Y-40222D02*
X65258Y-40176D01*
X65258Y-40176D02*
X65226Y-40122D01*
X65226Y-40122D02*
X65207Y-40062D01*
X65207Y-40062D02*
X65200Y-40000D01*
X65200Y-40000D02*
X65207Y-39938D01*
X65207Y-39938D02*
X65226Y-39878D01*
X65226Y-39878D02*
X65258Y-39824D01*
X65258Y-39824D02*
X65300Y-39778D01*
X65300Y-39778D02*
X65350Y-39741D01*
X65350Y-39741D02*
X65408Y-39715D01*
X65408Y-39715D02*
X65469Y-39702D01*
X65469Y-39702D02*
X65531Y-39702D01*
X65531Y-39702D02*
X65592Y-39715D01*
X65592Y-39715D02*
X65650Y-39741D01*
X65650Y-39741D02*
X65700Y-39778D01*
X65700Y-39778D02*
X65742Y-39824D01*
X65742Y-39824D02*
X65774Y-39878D01*
X65774Y-39878D02*
X65793Y-39938D01*
X65793Y-39938D02*
X65800Y-40000D01*
X63200Y-37800D02*
X63200Y-37200D01*
X63200Y-37200D02*
X63800Y-37200D01*
X63800Y-37200D02*
X63800Y-37800D01*
X63800Y-37800D02*
X63200Y-37800D01*
X64800Y-37500D02*
X64793Y-37562D01*
X64793Y-37562D02*
X64774Y-37622D01*
X64774Y-37622D02*
X64742Y-37676D01*
X64742Y-37676D02*
X64700Y-37722D01*
X64700Y-37722D02*
X64650Y-37759D01*
X64650Y-37759D02*
X64592Y-37785D01*
X64592Y-37785D02*
X64531Y-37798D01*
X64531Y-37798D02*
X64469Y-37798D01*
X64469Y-37798D02*
X64408Y-37785D01*
X64408Y-37785D02*
X64350Y-37759D01*
X64350Y-37759D02*
X64300Y-37722D01*
X64300Y-37722D02*
X64258Y-37676D01*
X64258Y-37676D02*
X64226Y-37622D01*
X64226Y-37622D02*
X64207Y-37562D01*
X64207Y-37562D02*
X64200Y-37500D01*
X64200Y-37500D02*
X64207Y-37438D01*
X64207Y-37438D02*
X64226Y-37378D01*
X64226Y-37378D02*
X64258Y-37324D01*
X64258Y-37324D02*
X64300Y-37278D01*
X64300Y-37278D02*
X64350Y-37241D01*
X64350Y-37241D02*
X64408Y-37215D01*
X64408Y-37215D02*
X64469Y-37202D01*
X64469Y-37202D02*
X64531Y-37202D01*
X64531Y-37202D02*
X64592Y-37215D01*
X64592Y-37215D02*
X64650Y-37241D01*
X64650Y-37241D02*
X64700Y-37278D01*
X64700Y-37278D02*
X64742Y-37324D01*
X64742Y-37324D02*
X64774Y-37378D01*
X64774Y-37378D02*
X64793Y-37438D01*
X64793Y-37438D02*
X64800Y-37500D01*
X65800Y-37500D02*
X65793Y-37562D01*
X65793Y-37562D02*
X65774Y-37622D01*
X65774Y-37622D02*
X65742Y-37676D01*
X65742Y-37676D02*
X65700Y-37722D01*
X65700Y-37722D02*
X65650Y-37759D01*
X65650Y-37759D02*
X65592Y-37785D01*
X65592Y-37785D02*
X65531Y-37798D01*
X65531Y-37798D02*
X65469Y-37798D01*
X65469Y-37798D02*
X65408Y-37785D01*
X65408Y-37785D02*
X65350Y-37759D01*
X65350Y-37759D02*
X65300Y-37722D01*
X65300Y-37722D02*
X65258Y-37676D01*
X65258Y-37676D02*
X65226Y-37622D01*
X65226Y-37622D02*
X65207Y-37562D01*
X65207Y-37562D02*
X65200Y-37500D01*
X65200Y-37500D02*
X65207Y-37438D01*
X65207Y-37438D02*
X65226Y-37378D01*
X65226Y-37378D02*
X65258Y-37324D01*
X65258Y-37324D02*
X65300Y-37278D01*
X65300Y-37278D02*
X65350Y-37241D01*
X65350Y-37241D02*
X65408Y-37215D01*
X65408Y-37215D02*
X65469Y-37202D01*
X65469Y-37202D02*
X65531Y-37202D01*
X65531Y-37202D02*
X65592Y-37215D01*
X65592Y-37215D02*
X65650Y-37241D01*
X65650Y-37241D02*
X65700Y-37278D01*
X65700Y-37278D02*
X65742Y-37324D01*
X65742Y-37324D02*
X65774Y-37378D01*
X65774Y-37378D02*
X65793Y-37438D01*
X65793Y-37438D02*
X65800Y-37500D01*
X35800Y-31700D02*
X35800Y-32300D01*
X35800Y-32300D02*
X35200Y-32300D01*
X35200Y-32300D02*
X35200Y-31700D01*
X35200Y-31700D02*
X35800Y-31700D01*
X34800Y-32000D02*
X34793Y-32062D01*
X34793Y-32062D02*
X34774Y-32122D01*
X34774Y-32122D02*
X34742Y-32176D01*
X34742Y-32176D02*
X34700Y-32222D01*
X34700Y-32222D02*
X34650Y-32259D01*
X34650Y-32259D02*
X34592Y-32285D01*
X34592Y-32285D02*
X34531Y-32298D01*
X34531Y-32298D02*
X34469Y-32298D01*
X34469Y-32298D02*
X34408Y-32285D01*
X34408Y-32285D02*
X34350Y-32259D01*
X34350Y-32259D02*
X34300Y-32222D01*
X34300Y-32222D02*
X34258Y-32176D01*
X34258Y-32176D02*
X34226Y-32122D01*
X34226Y-32122D02*
X34207Y-32062D01*
X34207Y-32062D02*
X34200Y-32000D01*
X34200Y-32000D02*
X34207Y-31938D01*
X34207Y-31938D02*
X34226Y-31878D01*
X34226Y-31878D02*
X34258Y-31824D01*
X34258Y-31824D02*
X34300Y-31778D01*
X34300Y-31778D02*
X34350Y-31741D01*
X34350Y-31741D02*
X34408Y-31715D01*
X34408Y-31715D02*
X34469Y-31702D01*
X34469Y-31702D02*
X34531Y-31702D01*
X34531Y-31702D02*
X34592Y-31715D01*
X34592Y-31715D02*
X34650Y-31741D01*
X34650Y-31741D02*
X34700Y-31778D01*
X34700Y-31778D02*
X34742Y-31824D01*
X34742Y-31824D02*
X34774Y-31878D01*
X34774Y-31878D02*
X34793Y-31938D01*
X34793Y-31938D02*
X34800Y-32000D01*
X33800Y-32000D02*
X33793Y-32062D01*
X33793Y-32062D02*
X33774Y-32122D01*
X33774Y-32122D02*
X33742Y-32176D01*
X33742Y-32176D02*
X33700Y-32222D01*
X33700Y-32222D02*
X33650Y-32259D01*
X33650Y-32259D02*
X33592Y-32285D01*
X33592Y-32285D02*
X33531Y-32298D01*
X33531Y-32298D02*
X33469Y-32298D01*
X33469Y-32298D02*
X33408Y-32285D01*
X33408Y-32285D02*
X33350Y-32259D01*
X33350Y-32259D02*
X33300Y-32222D01*
X33300Y-32222D02*
X33258Y-32176D01*
X33258Y-32176D02*
X33226Y-32122D01*
X33226Y-32122D02*
X33207Y-32062D01*
X33207Y-32062D02*
X33200Y-32000D01*
X33200Y-32000D02*
X33207Y-31938D01*
X33207Y-31938D02*
X33226Y-31878D01*
X33226Y-31878D02*
X33258Y-31824D01*
X33258Y-31824D02*
X33300Y-31778D01*
X33300Y-31778D02*
X33350Y-31741D01*
X33350Y-31741D02*
X33408Y-31715D01*
X33408Y-31715D02*
X33469Y-31702D01*
X33469Y-31702D02*
X33531Y-31702D01*
X33531Y-31702D02*
X33592Y-31715D01*
X33592Y-31715D02*
X33650Y-31741D01*
X33650Y-31741D02*
X33700Y-31778D01*
X33700Y-31778D02*
X33742Y-31824D01*
X33742Y-31824D02*
X33774Y-31878D01*
X33774Y-31878D02*
X33793Y-31938D01*
X33793Y-31938D02*
X33800Y-32000D01*
X32800Y-32000D02*
X32793Y-32062D01*
X32793Y-32062D02*
X32774Y-32122D01*
X32774Y-32122D02*
X32742Y-32176D01*
X32742Y-32176D02*
X32700Y-32222D01*
X32700Y-32222D02*
X32650Y-32259D01*
X32650Y-32259D02*
X32592Y-32285D01*
X32592Y-32285D02*
X32531Y-32298D01*
X32531Y-32298D02*
X32469Y-32298D01*
X32469Y-32298D02*
X32408Y-32285D01*
X32408Y-32285D02*
X32350Y-32259D01*
X32350Y-32259D02*
X32300Y-32222D01*
X32300Y-32222D02*
X32258Y-32176D01*
X32258Y-32176D02*
X32226Y-32122D01*
X32226Y-32122D02*
X32207Y-32062D01*
X32207Y-32062D02*
X32200Y-32000D01*
X32200Y-32000D02*
X32207Y-31938D01*
X32207Y-31938D02*
X32226Y-31878D01*
X32226Y-31878D02*
X32258Y-31824D01*
X32258Y-31824D02*
X32300Y-31778D01*
X32300Y-31778D02*
X32350Y-31741D01*
X32350Y-31741D02*
X32408Y-31715D01*
X32408Y-31715D02*
X32469Y-31702D01*
X32469Y-31702D02*
X32531Y-31702D01*
X32531Y-31702D02*
X32592Y-31715D01*
X32592Y-31715D02*
X32650Y-31741D01*
X32650Y-31741D02*
X32700Y-31778D01*
X32700Y-31778D02*
X32742Y-31824D01*
X32742Y-31824D02*
X32774Y-31878D01*
X32774Y-31878D02*
X32793Y-31938D01*
X32793Y-31938D02*
X32800Y-32000D01*
X31800Y-32000D02*
X31793Y-32062D01*
X31793Y-32062D02*
X31774Y-32122D01*
X31774Y-32122D02*
X31742Y-32176D01*
X31742Y-32176D02*
X31700Y-32222D01*
X31700Y-32222D02*
X31650Y-32259D01*
X31650Y-32259D02*
X31592Y-32285D01*
X31592Y-32285D02*
X31531Y-32298D01*
X31531Y-32298D02*
X31469Y-32298D01*
X31469Y-32298D02*
X31408Y-32285D01*
X31408Y-32285D02*
X31350Y-32259D01*
X31350Y-32259D02*
X31300Y-32222D01*
X31300Y-32222D02*
X31258Y-32176D01*
X31258Y-32176D02*
X31226Y-32122D01*
X31226Y-32122D02*
X31207Y-32062D01*
X31207Y-32062D02*
X31200Y-32000D01*
X31200Y-32000D02*
X31207Y-31938D01*
X31207Y-31938D02*
X31226Y-31878D01*
X31226Y-31878D02*
X31258Y-31824D01*
X31258Y-31824D02*
X31300Y-31778D01*
X31300Y-31778D02*
X31350Y-31741D01*
X31350Y-31741D02*
X31408Y-31715D01*
X31408Y-31715D02*
X31469Y-31702D01*
X31469Y-31702D02*
X31531Y-31702D01*
X31531Y-31702D02*
X31592Y-31715D01*
X31592Y-31715D02*
X31650Y-31741D01*
X31650Y-31741D02*
X31700Y-31778D01*
X31700Y-31778D02*
X31742Y-31824D01*
X31742Y-31824D02*
X31774Y-31878D01*
X31774Y-31878D02*
X31793Y-31938D01*
X31793Y-31938D02*
X31800Y-32000D01*
X35800Y-29200D02*
X35800Y-29800D01*
X35800Y-29800D02*
X35200Y-29800D01*
X35200Y-29800D02*
X35200Y-29200D01*
X35200Y-29200D02*
X35800Y-29200D01*
X34800Y-29500D02*
X34793Y-29562D01*
X34793Y-29562D02*
X34774Y-29622D01*
X34774Y-29622D02*
X34742Y-29676D01*
X34742Y-29676D02*
X34700Y-29722D01*
X34700Y-29722D02*
X34650Y-29759D01*
X34650Y-29759D02*
X34592Y-29785D01*
X34592Y-29785D02*
X34531Y-29798D01*
X34531Y-29798D02*
X34469Y-29798D01*
X34469Y-29798D02*
X34408Y-29785D01*
X34408Y-29785D02*
X34350Y-29759D01*
X34350Y-29759D02*
X34300Y-29722D01*
X34300Y-29722D02*
X34258Y-29676D01*
X34258Y-29676D02*
X34226Y-29622D01*
X34226Y-29622D02*
X34207Y-29562D01*
X34207Y-29562D02*
X34200Y-29500D01*
X34200Y-29500D02*
X34207Y-29438D01*
X34207Y-29438D02*
X34226Y-29378D01*
X34226Y-29378D02*
X34258Y-29324D01*
X34258Y-29324D02*
X34300Y-29278D01*
X34300Y-29278D02*
X34350Y-29241D01*
X34350Y-29241D02*
X34408Y-29215D01*
X34408Y-29215D02*
X34469Y-29202D01*
X34469Y-29202D02*
X34531Y-29202D01*
X34531Y-29202D02*
X34592Y-29215D01*
X34592Y-29215D02*
X34650Y-29241D01*
X34650Y-29241D02*
X34700Y-29278D01*
X34700Y-29278D02*
X34742Y-29324D01*
X34742Y-29324D02*
X34774Y-29378D01*
X34774Y-29378D02*
X34793Y-29438D01*
X34793Y-29438D02*
X34800Y-29500D01*
X33800Y-29500D02*
X33793Y-29562D01*
X33793Y-29562D02*
X33774Y-29622D01*
X33774Y-29622D02*
X33742Y-29676D01*
X33742Y-29676D02*
X33700Y-29722D01*
X33700Y-29722D02*
X33650Y-29759D01*
X33650Y-29759D02*
X33592Y-29785D01*
X33592Y-29785D02*
X33531Y-29798D01*
X33531Y-29798D02*
X33469Y-29798D01*
X33469Y-29798D02*
X33408Y-29785D01*
X33408Y-29785D02*
X33350Y-29759D01*
X33350Y-29759D02*
X33300Y-29722D01*
X33300Y-29722D02*
X33258Y-29676D01*
X33258Y-29676D02*
X33226Y-29622D01*
X33226Y-29622D02*
X33207Y-29562D01*
X33207Y-29562D02*
X33200Y-29500D01*
X33200Y-29500D02*
X33207Y-29438D01*
X33207Y-29438D02*
X33226Y-29378D01*
X33226Y-29378D02*
X33258Y-29324D01*
X33258Y-29324D02*
X33300Y-29278D01*
X33300Y-29278D02*
X33350Y-29241D01*
X33350Y-29241D02*
X33408Y-29215D01*
X33408Y-29215D02*
X33469Y-29202D01*
X33469Y-29202D02*
X33531Y-29202D01*
X33531Y-29202D02*
X33592Y-29215D01*
X33592Y-29215D02*
X33650Y-29241D01*
X33650Y-29241D02*
X33700Y-29278D01*
X33700Y-29278D02*
X33742Y-29324D01*
X33742Y-29324D02*
X33774Y-29378D01*
X33774Y-29378D02*
X33793Y-29438D01*
X33793Y-29438D02*
X33800Y-29500D01*
X32800Y-29500D02*
X32793Y-29562D01*
X32793Y-29562D02*
X32774Y-29622D01*
X32774Y-29622D02*
X32742Y-29676D01*
X32742Y-29676D02*
X32700Y-29722D01*
X32700Y-29722D02*
X32650Y-29759D01*
X32650Y-29759D02*
X32592Y-29785D01*
X32592Y-29785D02*
X32531Y-29798D01*
X32531Y-29798D02*
X32469Y-29798D01*
X32469Y-29798D02*
X32408Y-29785D01*
X32408Y-29785D02*
X32350Y-29759D01*
X32350Y-29759D02*
X32300Y-29722D01*
X32300Y-29722D02*
X32258Y-29676D01*
X32258Y-29676D02*
X32226Y-29622D01*
X32226Y-29622D02*
X32207Y-29562D01*
X32207Y-29562D02*
X32200Y-29500D01*
X32200Y-29500D02*
X32207Y-29438D01*
X32207Y-29438D02*
X32226Y-29378D01*
X32226Y-29378D02*
X32258Y-29324D01*
X32258Y-29324D02*
X32300Y-29278D01*
X32300Y-29278D02*
X32350Y-29241D01*
X32350Y-29241D02*
X32408Y-29215D01*
X32408Y-29215D02*
X32469Y-29202D01*
X32469Y-29202D02*
X32531Y-29202D01*
X32531Y-29202D02*
X32592Y-29215D01*
X32592Y-29215D02*
X32650Y-29241D01*
X32650Y-29241D02*
X32700Y-29278D01*
X32700Y-29278D02*
X32742Y-29324D01*
X32742Y-29324D02*
X32774Y-29378D01*
X32774Y-29378D02*
X32793Y-29438D01*
X32793Y-29438D02*
X32800Y-29500D01*
X31800Y-29500D02*
X31793Y-29562D01*
X31793Y-29562D02*
X31774Y-29622D01*
X31774Y-29622D02*
X31742Y-29676D01*
X31742Y-29676D02*
X31700Y-29722D01*
X31700Y-29722D02*
X31650Y-29759D01*
X31650Y-29759D02*
X31592Y-29785D01*
X31592Y-29785D02*
X31531Y-29798D01*
X31531Y-29798D02*
X31469Y-29798D01*
X31469Y-29798D02*
X31408Y-29785D01*
X31408Y-29785D02*
X31350Y-29759D01*
X31350Y-29759D02*
X31300Y-29722D01*
X31300Y-29722D02*
X31258Y-29676D01*
X31258Y-29676D02*
X31226Y-29622D01*
X31226Y-29622D02*
X31207Y-29562D01*
X31207Y-29562D02*
X31200Y-29500D01*
X31200Y-29500D02*
X31207Y-29438D01*
X31207Y-29438D02*
X31226Y-29378D01*
X31226Y-29378D02*
X31258Y-29324D01*
X31258Y-29324D02*
X31300Y-29278D01*
X31300Y-29278D02*
X31350Y-29241D01*
X31350Y-29241D02*
X31408Y-29215D01*
X31408Y-29215D02*
X31469Y-29202D01*
X31469Y-29202D02*
X31531Y-29202D01*
X31531Y-29202D02*
X31592Y-29215D01*
X31592Y-29215D02*
X31650Y-29241D01*
X31650Y-29241D02*
X31700Y-29278D01*
X31700Y-29278D02*
X31742Y-29324D01*
X31742Y-29324D02*
X31774Y-29378D01*
X31774Y-29378D02*
X31793Y-29438D01*
X31793Y-29438D02*
X31800Y-29500D01*
X38700Y-41800D02*
X38700Y-41200D01*
X38700Y-41200D02*
X39300Y-41200D01*
X39300Y-41200D02*
X39300Y-41800D01*
X39300Y-41800D02*
X38700Y-41800D01*
X40300Y-41500D02*
X40293Y-41562D01*
X40293Y-41562D02*
X40274Y-41622D01*
X40274Y-41622D02*
X40242Y-41676D01*
X40242Y-41676D02*
X40200Y-41722D01*
X40200Y-41722D02*
X40150Y-41759D01*
X40150Y-41759D02*
X40092Y-41785D01*
X40092Y-41785D02*
X40031Y-41798D01*
X40031Y-41798D02*
X39969Y-41798D01*
X39969Y-41798D02*
X39908Y-41785D01*
X39908Y-41785D02*
X39850Y-41759D01*
X39850Y-41759D02*
X39800Y-41722D01*
X39800Y-41722D02*
X39758Y-41676D01*
X39758Y-41676D02*
X39726Y-41622D01*
X39726Y-41622D02*
X39707Y-41562D01*
X39707Y-41562D02*
X39700Y-41500D01*
X39700Y-41500D02*
X39707Y-41438D01*
X39707Y-41438D02*
X39726Y-41378D01*
X39726Y-41378D02*
X39758Y-41324D01*
X39758Y-41324D02*
X39800Y-41278D01*
X39800Y-41278D02*
X39850Y-41241D01*
X39850Y-41241D02*
X39908Y-41215D01*
X39908Y-41215D02*
X39969Y-41202D01*
X39969Y-41202D02*
X40031Y-41202D01*
X40031Y-41202D02*
X40092Y-41215D01*
X40092Y-41215D02*
X40150Y-41241D01*
X40150Y-41241D02*
X40200Y-41278D01*
X40200Y-41278D02*
X40242Y-41324D01*
X40242Y-41324D02*
X40274Y-41378D01*
X40274Y-41378D02*
X40293Y-41438D01*
X40293Y-41438D02*
X40300Y-41500D01*
X41300Y-41500D02*
X41293Y-41562D01*
X41293Y-41562D02*
X41274Y-41622D01*
X41274Y-41622D02*
X41242Y-41676D01*
X41242Y-41676D02*
X41200Y-41722D01*
X41200Y-41722D02*
X41150Y-41759D01*
X41150Y-41759D02*
X41092Y-41785D01*
X41092Y-41785D02*
X41031Y-41798D01*
X41031Y-41798D02*
X40969Y-41798D01*
X40969Y-41798D02*
X40908Y-41785D01*
X40908Y-41785D02*
X40850Y-41759D01*
X40850Y-41759D02*
X40800Y-41722D01*
X40800Y-41722D02*
X40758Y-41676D01*
X40758Y-41676D02*
X40726Y-41622D01*
X40726Y-41622D02*
X40707Y-41562D01*
X40707Y-41562D02*
X40700Y-41500D01*
X40700Y-41500D02*
X40707Y-41438D01*
X40707Y-41438D02*
X40726Y-41378D01*
X40726Y-41378D02*
X40758Y-41324D01*
X40758Y-41324D02*
X40800Y-41278D01*
X40800Y-41278D02*
X40850Y-41241D01*
X40850Y-41241D02*
X40908Y-41215D01*
X40908Y-41215D02*
X40969Y-41202D01*
X40969Y-41202D02*
X41031Y-41202D01*
X41031Y-41202D02*
X41092Y-41215D01*
X41092Y-41215D02*
X41150Y-41241D01*
X41150Y-41241D02*
X41200Y-41278D01*
X41200Y-41278D02*
X41242Y-41324D01*
X41242Y-41324D02*
X41274Y-41378D01*
X41274Y-41378D02*
X41293Y-41438D01*
X41293Y-41438D02*
X41300Y-41500D01*
X42300Y-41500D02*
X42293Y-41562D01*
X42293Y-41562D02*
X42274Y-41622D01*
X42274Y-41622D02*
X42242Y-41676D01*
X42242Y-41676D02*
X42200Y-41722D01*
X42200Y-41722D02*
X42150Y-41759D01*
X42150Y-41759D02*
X42092Y-41785D01*
X42092Y-41785D02*
X42031Y-41798D01*
X42031Y-41798D02*
X41969Y-41798D01*
X41969Y-41798D02*
X41908Y-41785D01*
X41908Y-41785D02*
X41850Y-41759D01*
X41850Y-41759D02*
X41800Y-41722D01*
X41800Y-41722D02*
X41758Y-41676D01*
X41758Y-41676D02*
X41726Y-41622D01*
X41726Y-41622D02*
X41707Y-41562D01*
X41707Y-41562D02*
X41700Y-41500D01*
X41700Y-41500D02*
X41707Y-41438D01*
X41707Y-41438D02*
X41726Y-41378D01*
X41726Y-41378D02*
X41758Y-41324D01*
X41758Y-41324D02*
X41800Y-41278D01*
X41800Y-41278D02*
X41850Y-41241D01*
X41850Y-41241D02*
X41908Y-41215D01*
X41908Y-41215D02*
X41969Y-41202D01*
X41969Y-41202D02*
X42031Y-41202D01*
X42031Y-41202D02*
X42092Y-41215D01*
X42092Y-41215D02*
X42150Y-41241D01*
X42150Y-41241D02*
X42200Y-41278D01*
X42200Y-41278D02*
X42242Y-41324D01*
X42242Y-41324D02*
X42274Y-41378D01*
X42274Y-41378D02*
X42293Y-41438D01*
X42293Y-41438D02*
X42300Y-41500D01*
X43300Y-41500D02*
X43293Y-41562D01*
X43293Y-41562D02*
X43274Y-41622D01*
X43274Y-41622D02*
X43242Y-41676D01*
X43242Y-41676D02*
X43200Y-41722D01*
X43200Y-41722D02*
X43150Y-41759D01*
X43150Y-41759D02*
X43092Y-41785D01*
X43092Y-41785D02*
X43031Y-41798D01*
X43031Y-41798D02*
X42969Y-41798D01*
X42969Y-41798D02*
X42908Y-41785D01*
X42908Y-41785D02*
X42850Y-41759D01*
X42850Y-41759D02*
X42800Y-41722D01*
X42800Y-41722D02*
X42758Y-41676D01*
X42758Y-41676D02*
X42726Y-41622D01*
X42726Y-41622D02*
X42707Y-41562D01*
X42707Y-41562D02*
X42700Y-41500D01*
X42700Y-41500D02*
X42707Y-41438D01*
X42707Y-41438D02*
X42726Y-41378D01*
X42726Y-41378D02*
X42758Y-41324D01*
X42758Y-41324D02*
X42800Y-41278D01*
X42800Y-41278D02*
X42850Y-41241D01*
X42850Y-41241D02*
X42908Y-41215D01*
X42908Y-41215D02*
X42969Y-41202D01*
X42969Y-41202D02*
X43031Y-41202D01*
X43031Y-41202D02*
X43092Y-41215D01*
X43092Y-41215D02*
X43150Y-41241D01*
X43150Y-41241D02*
X43200Y-41278D01*
X43200Y-41278D02*
X43242Y-41324D01*
X43242Y-41324D02*
X43274Y-41378D01*
X43274Y-41378D02*
X43293Y-41438D01*
X43293Y-41438D02*
X43300Y-41500D01*
X31775Y-49000D02*
X31768Y-49057D01*
X31768Y-49057D02*
X31751Y-49111D01*
X31751Y-49111D02*
X31722Y-49161D01*
X31722Y-49161D02*
X31684Y-49204D01*
X31684Y-49204D02*
X31637Y-49238D01*
X31637Y-49238D02*
X31584Y-49261D01*
X31584Y-49261D02*
X31528Y-49273D01*
X31528Y-49273D02*
X31472Y-49273D01*
X31472Y-49273D02*
X31416Y-49261D01*
X31416Y-49261D02*
X31363Y-49238D01*
X31363Y-49238D02*
X31316Y-49204D01*
X31316Y-49204D02*
X31278Y-49161D01*
X31278Y-49161D02*
X31249Y-49111D01*
X31249Y-49111D02*
X31232Y-49057D01*
X31232Y-49057D02*
X31225Y-49000D01*
X31225Y-49000D02*
X31232Y-48943D01*
X31232Y-48943D02*
X31249Y-48889D01*
X31249Y-48889D02*
X31278Y-48839D01*
X31278Y-48839D02*
X31316Y-48796D01*
X31316Y-48796D02*
X31363Y-48762D01*
X31363Y-48762D02*
X31416Y-48739D01*
X31416Y-48739D02*
X31472Y-48727D01*
X31472Y-48727D02*
X31528Y-48727D01*
X31528Y-48727D02*
X31584Y-48739D01*
X31584Y-48739D02*
X31637Y-48762D01*
X31637Y-48762D02*
X31684Y-48796D01*
X31684Y-48796D02*
X31722Y-48839D01*
X31722Y-48839D02*
X31751Y-48889D01*
X31751Y-48889D02*
X31768Y-48943D01*
X31768Y-48943D02*
X31775Y-49000D01*
X28775Y-49000D02*
X28768Y-49057D01*
X28768Y-49057D02*
X28751Y-49111D01*
X28751Y-49111D02*
X28722Y-49161D01*
X28722Y-49161D02*
X28684Y-49204D01*
X28684Y-49204D02*
X28637Y-49238D01*
X28637Y-49238D02*
X28584Y-49261D01*
X28584Y-49261D02*
X28528Y-49273D01*
X28528Y-49273D02*
X28472Y-49273D01*
X28472Y-49273D02*
X28416Y-49261D01*
X28416Y-49261D02*
X28363Y-49238D01*
X28363Y-49238D02*
X28316Y-49204D01*
X28316Y-49204D02*
X28278Y-49161D01*
X28278Y-49161D02*
X28249Y-49111D01*
X28249Y-49111D02*
X28232Y-49057D01*
X28232Y-49057D02*
X28225Y-49000D01*
X28225Y-49000D02*
X28232Y-48943D01*
X28232Y-48943D02*
X28249Y-48889D01*
X28249Y-48889D02*
X28278Y-48839D01*
X28278Y-48839D02*
X28316Y-48796D01*
X28316Y-48796D02*
X28363Y-48762D01*
X28363Y-48762D02*
X28416Y-48739D01*
X28416Y-48739D02*
X28472Y-48727D01*
X28472Y-48727D02*
X28528Y-48727D01*
X28528Y-48727D02*
X28584Y-48739D01*
X28584Y-48739D02*
X28637Y-48762D01*
X28637Y-48762D02*
X28684Y-48796D01*
X28684Y-48796D02*
X28722Y-48839D01*
X28722Y-48839D02*
X28751Y-48889D01*
X28751Y-48889D02*
X28768Y-48943D01*
X28768Y-48943D02*
X28775Y-49000D01*
X36275Y-45500D02*
X36268Y-45557D01*
X36268Y-45557D02*
X36251Y-45611D01*
X36251Y-45611D02*
X36222Y-45661D01*
X36222Y-45661D02*
X36184Y-45704D01*
X36184Y-45704D02*
X36137Y-45738D01*
X36137Y-45738D02*
X36084Y-45761D01*
X36084Y-45761D02*
X36028Y-45773D01*
X36028Y-45773D02*
X35972Y-45773D01*
X35972Y-45773D02*
X35916Y-45761D01*
X35916Y-45761D02*
X35863Y-45738D01*
X35863Y-45738D02*
X35816Y-45704D01*
X35816Y-45704D02*
X35778Y-45661D01*
X35778Y-45661D02*
X35749Y-45611D01*
X35749Y-45611D02*
X35732Y-45557D01*
X35732Y-45557D02*
X35725Y-45500D01*
X35725Y-45500D02*
X35732Y-45443D01*
X35732Y-45443D02*
X35749Y-45389D01*
X35749Y-45389D02*
X35778Y-45339D01*
X35778Y-45339D02*
X35816Y-45296D01*
X35816Y-45296D02*
X35863Y-45262D01*
X35863Y-45262D02*
X35916Y-45239D01*
X35916Y-45239D02*
X35972Y-45227D01*
X35972Y-45227D02*
X36028Y-45227D01*
X36028Y-45227D02*
X36084Y-45239D01*
X36084Y-45239D02*
X36137Y-45262D01*
X36137Y-45262D02*
X36184Y-45296D01*
X36184Y-45296D02*
X36222Y-45339D01*
X36222Y-45339D02*
X36251Y-45389D01*
X36251Y-45389D02*
X36268Y-45443D01*
X36268Y-45443D02*
X36275Y-45500D01*
X39275Y-45500D02*
X39268Y-45557D01*
X39268Y-45557D02*
X39251Y-45611D01*
X39251Y-45611D02*
X39222Y-45661D01*
X39222Y-45661D02*
X39184Y-45704D01*
X39184Y-45704D02*
X39137Y-45738D01*
X39137Y-45738D02*
X39084Y-45761D01*
X39084Y-45761D02*
X39028Y-45773D01*
X39028Y-45773D02*
X38972Y-45773D01*
X38972Y-45773D02*
X38916Y-45761D01*
X38916Y-45761D02*
X38863Y-45738D01*
X38863Y-45738D02*
X38816Y-45704D01*
X38816Y-45704D02*
X38778Y-45661D01*
X38778Y-45661D02*
X38749Y-45611D01*
X38749Y-45611D02*
X38732Y-45557D01*
X38732Y-45557D02*
X38725Y-45500D01*
X38725Y-45500D02*
X38732Y-45443D01*
X38732Y-45443D02*
X38749Y-45389D01*
X38749Y-45389D02*
X38778Y-45339D01*
X38778Y-45339D02*
X38816Y-45296D01*
X38816Y-45296D02*
X38863Y-45262D01*
X38863Y-45262D02*
X38916Y-45239D01*
X38916Y-45239D02*
X38972Y-45227D01*
X38972Y-45227D02*
X39028Y-45227D01*
X39028Y-45227D02*
X39084Y-45239D01*
X39084Y-45239D02*
X39137Y-45262D01*
X39137Y-45262D02*
X39184Y-45296D01*
X39184Y-45296D02*
X39222Y-45339D01*
X39222Y-45339D02*
X39251Y-45389D01*
X39251Y-45389D02*
X39268Y-45443D01*
X39268Y-45443D02*
X39275Y-45500D01*
X61775Y-41500D02*
X61768Y-41557D01*
X61768Y-41557D02*
X61751Y-41611D01*
X61751Y-41611D02*
X61722Y-41661D01*
X61722Y-41661D02*
X61684Y-41704D01*
X61684Y-41704D02*
X61637Y-41738D01*
X61637Y-41738D02*
X61584Y-41761D01*
X61584Y-41761D02*
X61528Y-41773D01*
X61528Y-41773D02*
X61472Y-41773D01*
X61472Y-41773D02*
X61416Y-41761D01*
X61416Y-41761D02*
X61363Y-41738D01*
X61363Y-41738D02*
X61316Y-41704D01*
X61316Y-41704D02*
X61278Y-41661D01*
X61278Y-41661D02*
X61249Y-41611D01*
X61249Y-41611D02*
X61232Y-41557D01*
X61232Y-41557D02*
X61225Y-41500D01*
X61225Y-41500D02*
X61232Y-41443D01*
X61232Y-41443D02*
X61249Y-41389D01*
X61249Y-41389D02*
X61278Y-41339D01*
X61278Y-41339D02*
X61316Y-41296D01*
X61316Y-41296D02*
X61363Y-41262D01*
X61363Y-41262D02*
X61416Y-41239D01*
X61416Y-41239D02*
X61472Y-41227D01*
X61472Y-41227D02*
X61528Y-41227D01*
X61528Y-41227D02*
X61584Y-41239D01*
X61584Y-41239D02*
X61637Y-41262D01*
X61637Y-41262D02*
X61684Y-41296D01*
X61684Y-41296D02*
X61722Y-41339D01*
X61722Y-41339D02*
X61751Y-41389D01*
X61751Y-41389D02*
X61768Y-41443D01*
X61768Y-41443D02*
X61775Y-41500D01*
X61775Y-38500D02*
X61768Y-38557D01*
X61768Y-38557D02*
X61751Y-38611D01*
X61751Y-38611D02*
X61722Y-38661D01*
X61722Y-38661D02*
X61684Y-38704D01*
X61684Y-38704D02*
X61637Y-38738D01*
X61637Y-38738D02*
X61584Y-38761D01*
X61584Y-38761D02*
X61528Y-38773D01*
X61528Y-38773D02*
X61472Y-38773D01*
X61472Y-38773D02*
X61416Y-38761D01*
X61416Y-38761D02*
X61363Y-38738D01*
X61363Y-38738D02*
X61316Y-38704D01*
X61316Y-38704D02*
X61278Y-38661D01*
X61278Y-38661D02*
X61249Y-38611D01*
X61249Y-38611D02*
X61232Y-38557D01*
X61232Y-38557D02*
X61225Y-38500D01*
X61225Y-38500D02*
X61232Y-38443D01*
X61232Y-38443D02*
X61249Y-38389D01*
X61249Y-38389D02*
X61278Y-38339D01*
X61278Y-38339D02*
X61316Y-38296D01*
X61316Y-38296D02*
X61363Y-38262D01*
X61363Y-38262D02*
X61416Y-38239D01*
X61416Y-38239D02*
X61472Y-38227D01*
X61472Y-38227D02*
X61528Y-38227D01*
X61528Y-38227D02*
X61584Y-38239D01*
X61584Y-38239D02*
X61637Y-38262D01*
X61637Y-38262D02*
X61684Y-38296D01*
X61684Y-38296D02*
X61722Y-38339D01*
X61722Y-38339D02*
X61751Y-38389D01*
X61751Y-38389D02*
X61768Y-38443D01*
X61768Y-38443D02*
X61775Y-38500D01*
X65775Y-38500D02*
X65768Y-38557D01*
X65768Y-38557D02*
X65751Y-38611D01*
X65751Y-38611D02*
X65722Y-38661D01*
X65722Y-38661D02*
X65684Y-38704D01*
X65684Y-38704D02*
X65637Y-38738D01*
X65637Y-38738D02*
X65584Y-38761D01*
X65584Y-38761D02*
X65528Y-38773D01*
X65528Y-38773D02*
X65472Y-38773D01*
X65472Y-38773D02*
X65416Y-38761D01*
X65416Y-38761D02*
X65363Y-38738D01*
X65363Y-38738D02*
X65316Y-38704D01*
X65316Y-38704D02*
X65278Y-38661D01*
X65278Y-38661D02*
X65249Y-38611D01*
X65249Y-38611D02*
X65232Y-38557D01*
X65232Y-38557D02*
X65225Y-38500D01*
X65225Y-38500D02*
X65232Y-38443D01*
X65232Y-38443D02*
X65249Y-38389D01*
X65249Y-38389D02*
X65278Y-38339D01*
X65278Y-38339D02*
X65316Y-38296D01*
X65316Y-38296D02*
X65363Y-38262D01*
X65363Y-38262D02*
X65416Y-38239D01*
X65416Y-38239D02*
X65472Y-38227D01*
X65472Y-38227D02*
X65528Y-38227D01*
X65528Y-38227D02*
X65584Y-38239D01*
X65584Y-38239D02*
X65637Y-38262D01*
X65637Y-38262D02*
X65684Y-38296D01*
X65684Y-38296D02*
X65722Y-38339D01*
X65722Y-38339D02*
X65751Y-38389D01*
X65751Y-38389D02*
X65768Y-38443D01*
X65768Y-38443D02*
X65775Y-38500D01*
X62775Y-38500D02*
X62768Y-38557D01*
X62768Y-38557D02*
X62751Y-38611D01*
X62751Y-38611D02*
X62722Y-38661D01*
X62722Y-38661D02*
X62684Y-38704D01*
X62684Y-38704D02*
X62637Y-38738D01*
X62637Y-38738D02*
X62584Y-38761D01*
X62584Y-38761D02*
X62528Y-38773D01*
X62528Y-38773D02*
X62472Y-38773D01*
X62472Y-38773D02*
X62416Y-38761D01*
X62416Y-38761D02*
X62363Y-38738D01*
X62363Y-38738D02*
X62316Y-38704D01*
X62316Y-38704D02*
X62278Y-38661D01*
X62278Y-38661D02*
X62249Y-38611D01*
X62249Y-38611D02*
X62232Y-38557D01*
X62232Y-38557D02*
X62225Y-38500D01*
X62225Y-38500D02*
X62232Y-38443D01*
X62232Y-38443D02*
X62249Y-38389D01*
X62249Y-38389D02*
X62278Y-38339D01*
X62278Y-38339D02*
X62316Y-38296D01*
X62316Y-38296D02*
X62363Y-38262D01*
X62363Y-38262D02*
X62416Y-38239D01*
X62416Y-38239D02*
X62472Y-38227D01*
X62472Y-38227D02*
X62528Y-38227D01*
X62528Y-38227D02*
X62584Y-38239D01*
X62584Y-38239D02*
X62637Y-38262D01*
X62637Y-38262D02*
X62684Y-38296D01*
X62684Y-38296D02*
X62722Y-38339D01*
X62722Y-38339D02*
X62751Y-38389D01*
X62751Y-38389D02*
X62768Y-38443D01*
X62768Y-38443D02*
X62775Y-38500D01*
X43275Y-43500D02*
X43268Y-43557D01*
X43268Y-43557D02*
X43251Y-43611D01*
X43251Y-43611D02*
X43222Y-43661D01*
X43222Y-43661D02*
X43184Y-43704D01*
X43184Y-43704D02*
X43137Y-43738D01*
X43137Y-43738D02*
X43084Y-43761D01*
X43084Y-43761D02*
X43028Y-43773D01*
X43028Y-43773D02*
X42972Y-43773D01*
X42972Y-43773D02*
X42916Y-43761D01*
X42916Y-43761D02*
X42863Y-43738D01*
X42863Y-43738D02*
X42816Y-43704D01*
X42816Y-43704D02*
X42778Y-43661D01*
X42778Y-43661D02*
X42749Y-43611D01*
X42749Y-43611D02*
X42732Y-43557D01*
X42732Y-43557D02*
X42725Y-43500D01*
X42725Y-43500D02*
X42732Y-43443D01*
X42732Y-43443D02*
X42749Y-43389D01*
X42749Y-43389D02*
X42778Y-43339D01*
X42778Y-43339D02*
X42816Y-43296D01*
X42816Y-43296D02*
X42863Y-43262D01*
X42863Y-43262D02*
X42916Y-43239D01*
X42916Y-43239D02*
X42972Y-43227D01*
X42972Y-43227D02*
X43028Y-43227D01*
X43028Y-43227D02*
X43084Y-43239D01*
X43084Y-43239D02*
X43137Y-43262D01*
X43137Y-43262D02*
X43184Y-43296D01*
X43184Y-43296D02*
X43222Y-43339D01*
X43222Y-43339D02*
X43251Y-43389D01*
X43251Y-43389D02*
X43268Y-43443D01*
X43268Y-43443D02*
X43275Y-43500D01*
X40275Y-43500D02*
X40268Y-43557D01*
X40268Y-43557D02*
X40251Y-43611D01*
X40251Y-43611D02*
X40222Y-43661D01*
X40222Y-43661D02*
X40184Y-43704D01*
X40184Y-43704D02*
X40137Y-43738D01*
X40137Y-43738D02*
X40084Y-43761D01*
X40084Y-43761D02*
X40028Y-43773D01*
X40028Y-43773D02*
X39972Y-43773D01*
X39972Y-43773D02*
X39916Y-43761D01*
X39916Y-43761D02*
X39863Y-43738D01*
X39863Y-43738D02*
X39816Y-43704D01*
X39816Y-43704D02*
X39778Y-43661D01*
X39778Y-43661D02*
X39749Y-43611D01*
X39749Y-43611D02*
X39732Y-43557D01*
X39732Y-43557D02*
X39725Y-43500D01*
X39725Y-43500D02*
X39732Y-43443D01*
X39732Y-43443D02*
X39749Y-43389D01*
X39749Y-43389D02*
X39778Y-43339D01*
X39778Y-43339D02*
X39816Y-43296D01*
X39816Y-43296D02*
X39863Y-43262D01*
X39863Y-43262D02*
X39916Y-43239D01*
X39916Y-43239D02*
X39972Y-43227D01*
X39972Y-43227D02*
X40028Y-43227D01*
X40028Y-43227D02*
X40084Y-43239D01*
X40084Y-43239D02*
X40137Y-43262D01*
X40137Y-43262D02*
X40184Y-43296D01*
X40184Y-43296D02*
X40222Y-43339D01*
X40222Y-43339D02*
X40251Y-43389D01*
X40251Y-43389D02*
X40268Y-43443D01*
X40268Y-43443D02*
X40275Y-43500D01*
X34775Y-45000D02*
X34768Y-45057D01*
X34768Y-45057D02*
X34751Y-45111D01*
X34751Y-45111D02*
X34722Y-45161D01*
X34722Y-45161D02*
X34684Y-45204D01*
X34684Y-45204D02*
X34637Y-45238D01*
X34637Y-45238D02*
X34584Y-45261D01*
X34584Y-45261D02*
X34528Y-45273D01*
X34528Y-45273D02*
X34472Y-45273D01*
X34472Y-45273D02*
X34416Y-45261D01*
X34416Y-45261D02*
X34363Y-45238D01*
X34363Y-45238D02*
X34316Y-45204D01*
X34316Y-45204D02*
X34278Y-45161D01*
X34278Y-45161D02*
X34249Y-45111D01*
X34249Y-45111D02*
X34232Y-45057D01*
X34232Y-45057D02*
X34225Y-45000D01*
X34225Y-45000D02*
X34232Y-44943D01*
X34232Y-44943D02*
X34249Y-44889D01*
X34249Y-44889D02*
X34278Y-44839D01*
X34278Y-44839D02*
X34316Y-44796D01*
X34316Y-44796D02*
X34363Y-44762D01*
X34363Y-44762D02*
X34416Y-44739D01*
X34416Y-44739D02*
X34472Y-44727D01*
X34472Y-44727D02*
X34528Y-44727D01*
X34528Y-44727D02*
X34584Y-44739D01*
X34584Y-44739D02*
X34637Y-44762D01*
X34637Y-44762D02*
X34684Y-44796D01*
X34684Y-44796D02*
X34722Y-44839D01*
X34722Y-44839D02*
X34751Y-44889D01*
X34751Y-44889D02*
X34768Y-44943D01*
X34768Y-44943D02*
X34775Y-45000D01*
X34775Y-48000D02*
X34768Y-48057D01*
X34768Y-48057D02*
X34751Y-48111D01*
X34751Y-48111D02*
X34722Y-48161D01*
X34722Y-48161D02*
X34684Y-48204D01*
X34684Y-48204D02*
X34637Y-48238D01*
X34637Y-48238D02*
X34584Y-48261D01*
X34584Y-48261D02*
X34528Y-48273D01*
X34528Y-48273D02*
X34472Y-48273D01*
X34472Y-48273D02*
X34416Y-48261D01*
X34416Y-48261D02*
X34363Y-48238D01*
X34363Y-48238D02*
X34316Y-48204D01*
X34316Y-48204D02*
X34278Y-48161D01*
X34278Y-48161D02*
X34249Y-48111D01*
X34249Y-48111D02*
X34232Y-48057D01*
X34232Y-48057D02*
X34225Y-48000D01*
X34225Y-48000D02*
X34232Y-47943D01*
X34232Y-47943D02*
X34249Y-47889D01*
X34249Y-47889D02*
X34278Y-47839D01*
X34278Y-47839D02*
X34316Y-47796D01*
X34316Y-47796D02*
X34363Y-47762D01*
X34363Y-47762D02*
X34416Y-47739D01*
X34416Y-47739D02*
X34472Y-47727D01*
X34472Y-47727D02*
X34528Y-47727D01*
X34528Y-47727D02*
X34584Y-47739D01*
X34584Y-47739D02*
X34637Y-47762D01*
X34637Y-47762D02*
X34684Y-47796D01*
X34684Y-47796D02*
X34722Y-47839D01*
X34722Y-47839D02*
X34751Y-47889D01*
X34751Y-47889D02*
X34768Y-47943D01*
X34768Y-47943D02*
X34775Y-48000D01*
X45275Y-42500D02*
X45268Y-42557D01*
X45268Y-42557D02*
X45251Y-42611D01*
X45251Y-42611D02*
X45222Y-42661D01*
X45222Y-42661D02*
X45184Y-42704D01*
X45184Y-42704D02*
X45137Y-42738D01*
X45137Y-42738D02*
X45084Y-42761D01*
X45084Y-42761D02*
X45028Y-42773D01*
X45028Y-42773D02*
X44972Y-42773D01*
X44972Y-42773D02*
X44916Y-42761D01*
X44916Y-42761D02*
X44863Y-42738D01*
X44863Y-42738D02*
X44816Y-42704D01*
X44816Y-42704D02*
X44778Y-42661D01*
X44778Y-42661D02*
X44749Y-42611D01*
X44749Y-42611D02*
X44732Y-42557D01*
X44732Y-42557D02*
X44725Y-42500D01*
X44725Y-42500D02*
X44732Y-42443D01*
X44732Y-42443D02*
X44749Y-42389D01*
X44749Y-42389D02*
X44778Y-42339D01*
X44778Y-42339D02*
X44816Y-42296D01*
X44816Y-42296D02*
X44863Y-42262D01*
X44863Y-42262D02*
X44916Y-42239D01*
X44916Y-42239D02*
X44972Y-42227D01*
X44972Y-42227D02*
X45028Y-42227D01*
X45028Y-42227D02*
X45084Y-42239D01*
X45084Y-42239D02*
X45137Y-42262D01*
X45137Y-42262D02*
X45184Y-42296D01*
X45184Y-42296D02*
X45222Y-42339D01*
X45222Y-42339D02*
X45251Y-42389D01*
X45251Y-42389D02*
X45268Y-42443D01*
X45268Y-42443D02*
X45275Y-42500D01*
X42275Y-42500D02*
X42268Y-42557D01*
X42268Y-42557D02*
X42251Y-42611D01*
X42251Y-42611D02*
X42222Y-42661D01*
X42222Y-42661D02*
X42184Y-42704D01*
X42184Y-42704D02*
X42137Y-42738D01*
X42137Y-42738D02*
X42084Y-42761D01*
X42084Y-42761D02*
X42028Y-42773D01*
X42028Y-42773D02*
X41972Y-42773D01*
X41972Y-42773D02*
X41916Y-42761D01*
X41916Y-42761D02*
X41863Y-42738D01*
X41863Y-42738D02*
X41816Y-42704D01*
X41816Y-42704D02*
X41778Y-42661D01*
X41778Y-42661D02*
X41749Y-42611D01*
X41749Y-42611D02*
X41732Y-42557D01*
X41732Y-42557D02*
X41725Y-42500D01*
X41725Y-42500D02*
X41732Y-42443D01*
X41732Y-42443D02*
X41749Y-42389D01*
X41749Y-42389D02*
X41778Y-42339D01*
X41778Y-42339D02*
X41816Y-42296D01*
X41816Y-42296D02*
X41863Y-42262D01*
X41863Y-42262D02*
X41916Y-42239D01*
X41916Y-42239D02*
X41972Y-42227D01*
X41972Y-42227D02*
X42028Y-42227D01*
X42028Y-42227D02*
X42084Y-42239D01*
X42084Y-42239D02*
X42137Y-42262D01*
X42137Y-42262D02*
X42184Y-42296D01*
X42184Y-42296D02*
X42222Y-42339D01*
X42222Y-42339D02*
X42251Y-42389D01*
X42251Y-42389D02*
X42268Y-42443D01*
X42268Y-42443D02*
X42275Y-42500D01*
X33275Y-42500D02*
X33268Y-42557D01*
X33268Y-42557D02*
X33251Y-42611D01*
X33251Y-42611D02*
X33222Y-42661D01*
X33222Y-42661D02*
X33184Y-42704D01*
X33184Y-42704D02*
X33137Y-42738D01*
X33137Y-42738D02*
X33084Y-42761D01*
X33084Y-42761D02*
X33028Y-42773D01*
X33028Y-42773D02*
X32972Y-42773D01*
X32972Y-42773D02*
X32916Y-42761D01*
X32916Y-42761D02*
X32863Y-42738D01*
X32863Y-42738D02*
X32816Y-42704D01*
X32816Y-42704D02*
X32778Y-42661D01*
X32778Y-42661D02*
X32749Y-42611D01*
X32749Y-42611D02*
X32732Y-42557D01*
X32732Y-42557D02*
X32725Y-42500D01*
X32725Y-42500D02*
X32732Y-42443D01*
X32732Y-42443D02*
X32749Y-42389D01*
X32749Y-42389D02*
X32778Y-42339D01*
X32778Y-42339D02*
X32816Y-42296D01*
X32816Y-42296D02*
X32863Y-42262D01*
X32863Y-42262D02*
X32916Y-42239D01*
X32916Y-42239D02*
X32972Y-42227D01*
X32972Y-42227D02*
X33028Y-42227D01*
X33028Y-42227D02*
X33084Y-42239D01*
X33084Y-42239D02*
X33137Y-42262D01*
X33137Y-42262D02*
X33184Y-42296D01*
X33184Y-42296D02*
X33222Y-42339D01*
X33222Y-42339D02*
X33251Y-42389D01*
X33251Y-42389D02*
X33268Y-42443D01*
X33268Y-42443D02*
X33275Y-42500D01*
X30275Y-42500D02*
X30268Y-42557D01*
X30268Y-42557D02*
X30251Y-42611D01*
X30251Y-42611D02*
X30222Y-42661D01*
X30222Y-42661D02*
X30184Y-42704D01*
X30184Y-42704D02*
X30137Y-42738D01*
X30137Y-42738D02*
X30084Y-42761D01*
X30084Y-42761D02*
X30028Y-42773D01*
X30028Y-42773D02*
X29972Y-42773D01*
X29972Y-42773D02*
X29916Y-42761D01*
X29916Y-42761D02*
X29863Y-42738D01*
X29863Y-42738D02*
X29816Y-42704D01*
X29816Y-42704D02*
X29778Y-42661D01*
X29778Y-42661D02*
X29749Y-42611D01*
X29749Y-42611D02*
X29732Y-42557D01*
X29732Y-42557D02*
X29725Y-42500D01*
X29725Y-42500D02*
X29732Y-42443D01*
X29732Y-42443D02*
X29749Y-42389D01*
X29749Y-42389D02*
X29778Y-42339D01*
X29778Y-42339D02*
X29816Y-42296D01*
X29816Y-42296D02*
X29863Y-42262D01*
X29863Y-42262D02*
X29916Y-42239D01*
X29916Y-42239D02*
X29972Y-42227D01*
X29972Y-42227D02*
X30028Y-42227D01*
X30028Y-42227D02*
X30084Y-42239D01*
X30084Y-42239D02*
X30137Y-42262D01*
X30137Y-42262D02*
X30184Y-42296D01*
X30184Y-42296D02*
X30222Y-42339D01*
X30222Y-42339D02*
X30251Y-42389D01*
X30251Y-42389D02*
X30268Y-42443D01*
X30268Y-42443D02*
X30275Y-42500D01*
X33775Y-33000D02*
X33768Y-33057D01*
X33768Y-33057D02*
X33751Y-33111D01*
X33751Y-33111D02*
X33722Y-33161D01*
X33722Y-33161D02*
X33684Y-33204D01*
X33684Y-33204D02*
X33637Y-33238D01*
X33637Y-33238D02*
X33584Y-33261D01*
X33584Y-33261D02*
X33528Y-33273D01*
X33528Y-33273D02*
X33472Y-33273D01*
X33472Y-33273D02*
X33416Y-33261D01*
X33416Y-33261D02*
X33363Y-33238D01*
X33363Y-33238D02*
X33316Y-33204D01*
X33316Y-33204D02*
X33278Y-33161D01*
X33278Y-33161D02*
X33249Y-33111D01*
X33249Y-33111D02*
X33232Y-33057D01*
X33232Y-33057D02*
X33225Y-33000D01*
X33225Y-33000D02*
X33232Y-32943D01*
X33232Y-32943D02*
X33249Y-32889D01*
X33249Y-32889D02*
X33278Y-32839D01*
X33278Y-32839D02*
X33316Y-32796D01*
X33316Y-32796D02*
X33363Y-32762D01*
X33363Y-32762D02*
X33416Y-32739D01*
X33416Y-32739D02*
X33472Y-32727D01*
X33472Y-32727D02*
X33528Y-32727D01*
X33528Y-32727D02*
X33584Y-32739D01*
X33584Y-32739D02*
X33637Y-32762D01*
X33637Y-32762D02*
X33684Y-32796D01*
X33684Y-32796D02*
X33722Y-32839D01*
X33722Y-32839D02*
X33751Y-32889D01*
X33751Y-32889D02*
X33768Y-32943D01*
X33768Y-32943D02*
X33775Y-33000D01*
X30775Y-33000D02*
X30768Y-33057D01*
X30768Y-33057D02*
X30751Y-33111D01*
X30751Y-33111D02*
X30722Y-33161D01*
X30722Y-33161D02*
X30684Y-33204D01*
X30684Y-33204D02*
X30637Y-33238D01*
X30637Y-33238D02*
X30584Y-33261D01*
X30584Y-33261D02*
X30528Y-33273D01*
X30528Y-33273D02*
X30472Y-33273D01*
X30472Y-33273D02*
X30416Y-33261D01*
X30416Y-33261D02*
X30363Y-33238D01*
X30363Y-33238D02*
X30316Y-33204D01*
X30316Y-33204D02*
X30278Y-33161D01*
X30278Y-33161D02*
X30249Y-33111D01*
X30249Y-33111D02*
X30232Y-33057D01*
X30232Y-33057D02*
X30225Y-33000D01*
X30225Y-33000D02*
X30232Y-32943D01*
X30232Y-32943D02*
X30249Y-32889D01*
X30249Y-32889D02*
X30278Y-32839D01*
X30278Y-32839D02*
X30316Y-32796D01*
X30316Y-32796D02*
X30363Y-32762D01*
X30363Y-32762D02*
X30416Y-32739D01*
X30416Y-32739D02*
X30472Y-32727D01*
X30472Y-32727D02*
X30528Y-32727D01*
X30528Y-32727D02*
X30584Y-32739D01*
X30584Y-32739D02*
X30637Y-32762D01*
X30637Y-32762D02*
X30684Y-32796D01*
X30684Y-32796D02*
X30722Y-32839D01*
X30722Y-32839D02*
X30751Y-32889D01*
X30751Y-32889D02*
X30768Y-32943D01*
X30768Y-32943D02*
X30775Y-33000D01*
X40275Y-44500D02*
X40268Y-44557D01*
X40268Y-44557D02*
X40251Y-44611D01*
X40251Y-44611D02*
X40222Y-44661D01*
X40222Y-44661D02*
X40184Y-44704D01*
X40184Y-44704D02*
X40137Y-44738D01*
X40137Y-44738D02*
X40084Y-44761D01*
X40084Y-44761D02*
X40028Y-44773D01*
X40028Y-44773D02*
X39972Y-44773D01*
X39972Y-44773D02*
X39916Y-44761D01*
X39916Y-44761D02*
X39863Y-44738D01*
X39863Y-44738D02*
X39816Y-44704D01*
X39816Y-44704D02*
X39778Y-44661D01*
X39778Y-44661D02*
X39749Y-44611D01*
X39749Y-44611D02*
X39732Y-44557D01*
X39732Y-44557D02*
X39725Y-44500D01*
X39725Y-44500D02*
X39732Y-44443D01*
X39732Y-44443D02*
X39749Y-44389D01*
X39749Y-44389D02*
X39778Y-44339D01*
X39778Y-44339D02*
X39816Y-44296D01*
X39816Y-44296D02*
X39863Y-44262D01*
X39863Y-44262D02*
X39916Y-44239D01*
X39916Y-44239D02*
X39972Y-44227D01*
X39972Y-44227D02*
X40028Y-44227D01*
X40028Y-44227D02*
X40084Y-44239D01*
X40084Y-44239D02*
X40137Y-44262D01*
X40137Y-44262D02*
X40184Y-44296D01*
X40184Y-44296D02*
X40222Y-44339D01*
X40222Y-44339D02*
X40251Y-44389D01*
X40251Y-44389D02*
X40268Y-44443D01*
X40268Y-44443D02*
X40275Y-44500D01*
X43275Y-44500D02*
X43268Y-44557D01*
X43268Y-44557D02*
X43251Y-44611D01*
X43251Y-44611D02*
X43222Y-44661D01*
X43222Y-44661D02*
X43184Y-44704D01*
X43184Y-44704D02*
X43137Y-44738D01*
X43137Y-44738D02*
X43084Y-44761D01*
X43084Y-44761D02*
X43028Y-44773D01*
X43028Y-44773D02*
X42972Y-44773D01*
X42972Y-44773D02*
X42916Y-44761D01*
X42916Y-44761D02*
X42863Y-44738D01*
X42863Y-44738D02*
X42816Y-44704D01*
X42816Y-44704D02*
X42778Y-44661D01*
X42778Y-44661D02*
X42749Y-44611D01*
X42749Y-44611D02*
X42732Y-44557D01*
X42732Y-44557D02*
X42725Y-44500D01*
X42725Y-44500D02*
X42732Y-44443D01*
X42732Y-44443D02*
X42749Y-44389D01*
X42749Y-44389D02*
X42778Y-44339D01*
X42778Y-44339D02*
X42816Y-44296D01*
X42816Y-44296D02*
X42863Y-44262D01*
X42863Y-44262D02*
X42916Y-44239D01*
X42916Y-44239D02*
X42972Y-44227D01*
X42972Y-44227D02*
X43028Y-44227D01*
X43028Y-44227D02*
X43084Y-44239D01*
X43084Y-44239D02*
X43137Y-44262D01*
X43137Y-44262D02*
X43184Y-44296D01*
X43184Y-44296D02*
X43222Y-44339D01*
X43222Y-44339D02*
X43251Y-44389D01*
X43251Y-44389D02*
X43268Y-44443D01*
X43268Y-44443D02*
X43275Y-44500D01*
X52275Y-45500D02*
X52268Y-45557D01*
X52268Y-45557D02*
X52251Y-45611D01*
X52251Y-45611D02*
X52222Y-45661D01*
X52222Y-45661D02*
X52184Y-45704D01*
X52184Y-45704D02*
X52137Y-45738D01*
X52137Y-45738D02*
X52084Y-45761D01*
X52084Y-45761D02*
X52028Y-45773D01*
X52028Y-45773D02*
X51972Y-45773D01*
X51972Y-45773D02*
X51916Y-45761D01*
X51916Y-45761D02*
X51863Y-45738D01*
X51863Y-45738D02*
X51816Y-45704D01*
X51816Y-45704D02*
X51778Y-45661D01*
X51778Y-45661D02*
X51749Y-45611D01*
X51749Y-45611D02*
X51732Y-45557D01*
X51732Y-45557D02*
X51725Y-45500D01*
X51725Y-45500D02*
X51732Y-45443D01*
X51732Y-45443D02*
X51749Y-45389D01*
X51749Y-45389D02*
X51778Y-45339D01*
X51778Y-45339D02*
X51816Y-45296D01*
X51816Y-45296D02*
X51863Y-45262D01*
X51863Y-45262D02*
X51916Y-45239D01*
X51916Y-45239D02*
X51972Y-45227D01*
X51972Y-45227D02*
X52028Y-45227D01*
X52028Y-45227D02*
X52084Y-45239D01*
X52084Y-45239D02*
X52137Y-45262D01*
X52137Y-45262D02*
X52184Y-45296D01*
X52184Y-45296D02*
X52222Y-45339D01*
X52222Y-45339D02*
X52251Y-45389D01*
X52251Y-45389D02*
X52268Y-45443D01*
X52268Y-45443D02*
X52275Y-45500D01*
X52275Y-42500D02*
X52268Y-42557D01*
X52268Y-42557D02*
X52251Y-42611D01*
X52251Y-42611D02*
X52222Y-42661D01*
X52222Y-42661D02*
X52184Y-42704D01*
X52184Y-42704D02*
X52137Y-42738D01*
X52137Y-42738D02*
X52084Y-42761D01*
X52084Y-42761D02*
X52028Y-42773D01*
X52028Y-42773D02*
X51972Y-42773D01*
X51972Y-42773D02*
X51916Y-42761D01*
X51916Y-42761D02*
X51863Y-42738D01*
X51863Y-42738D02*
X51816Y-42704D01*
X51816Y-42704D02*
X51778Y-42661D01*
X51778Y-42661D02*
X51749Y-42611D01*
X51749Y-42611D02*
X51732Y-42557D01*
X51732Y-42557D02*
X51725Y-42500D01*
X51725Y-42500D02*
X51732Y-42443D01*
X51732Y-42443D02*
X51749Y-42389D01*
X51749Y-42389D02*
X51778Y-42339D01*
X51778Y-42339D02*
X51816Y-42296D01*
X51816Y-42296D02*
X51863Y-42262D01*
X51863Y-42262D02*
X51916Y-42239D01*
X51916Y-42239D02*
X51972Y-42227D01*
X51972Y-42227D02*
X52028Y-42227D01*
X52028Y-42227D02*
X52084Y-42239D01*
X52084Y-42239D02*
X52137Y-42262D01*
X52137Y-42262D02*
X52184Y-42296D01*
X52184Y-42296D02*
X52222Y-42339D01*
X52222Y-42339D02*
X52251Y-42389D01*
X52251Y-42389D02*
X52268Y-42443D01*
X52268Y-42443D02*
X52275Y-42500D01*
X55275Y-32500D02*
X55268Y-32557D01*
X55268Y-32557D02*
X55251Y-32611D01*
X55251Y-32611D02*
X55222Y-32661D01*
X55222Y-32661D02*
X55184Y-32704D01*
X55184Y-32704D02*
X55137Y-32738D01*
X55137Y-32738D02*
X55084Y-32761D01*
X55084Y-32761D02*
X55028Y-32773D01*
X55028Y-32773D02*
X54972Y-32773D01*
X54972Y-32773D02*
X54916Y-32761D01*
X54916Y-32761D02*
X54863Y-32738D01*
X54863Y-32738D02*
X54816Y-32704D01*
X54816Y-32704D02*
X54778Y-32661D01*
X54778Y-32661D02*
X54749Y-32611D01*
X54749Y-32611D02*
X54732Y-32557D01*
X54732Y-32557D02*
X54725Y-32500D01*
X54725Y-32500D02*
X54732Y-32443D01*
X54732Y-32443D02*
X54749Y-32389D01*
X54749Y-32389D02*
X54778Y-32339D01*
X54778Y-32339D02*
X54816Y-32296D01*
X54816Y-32296D02*
X54863Y-32262D01*
X54863Y-32262D02*
X54916Y-32239D01*
X54916Y-32239D02*
X54972Y-32227D01*
X54972Y-32227D02*
X55028Y-32227D01*
X55028Y-32227D02*
X55084Y-32239D01*
X55084Y-32239D02*
X55137Y-32262D01*
X55137Y-32262D02*
X55184Y-32296D01*
X55184Y-32296D02*
X55222Y-32339D01*
X55222Y-32339D02*
X55251Y-32389D01*
X55251Y-32389D02*
X55268Y-32443D01*
X55268Y-32443D02*
X55275Y-32500D01*
X52275Y-32500D02*
X52268Y-32557D01*
X52268Y-32557D02*
X52251Y-32611D01*
X52251Y-32611D02*
X52222Y-32661D01*
X52222Y-32661D02*
X52184Y-32704D01*
X52184Y-32704D02*
X52137Y-32738D01*
X52137Y-32738D02*
X52084Y-32761D01*
X52084Y-32761D02*
X52028Y-32773D01*
X52028Y-32773D02*
X51972Y-32773D01*
X51972Y-32773D02*
X51916Y-32761D01*
X51916Y-32761D02*
X51863Y-32738D01*
X51863Y-32738D02*
X51816Y-32704D01*
X51816Y-32704D02*
X51778Y-32661D01*
X51778Y-32661D02*
X51749Y-32611D01*
X51749Y-32611D02*
X51732Y-32557D01*
X51732Y-32557D02*
X51725Y-32500D01*
X51725Y-32500D02*
X51732Y-32443D01*
X51732Y-32443D02*
X51749Y-32389D01*
X51749Y-32389D02*
X51778Y-32339D01*
X51778Y-32339D02*
X51816Y-32296D01*
X51816Y-32296D02*
X51863Y-32262D01*
X51863Y-32262D02*
X51916Y-32239D01*
X51916Y-32239D02*
X51972Y-32227D01*
X51972Y-32227D02*
X52028Y-32227D01*
X52028Y-32227D02*
X52084Y-32239D01*
X52084Y-32239D02*
X52137Y-32262D01*
X52137Y-32262D02*
X52184Y-32296D01*
X52184Y-32296D02*
X52222Y-32339D01*
X52222Y-32339D02*
X52251Y-32389D01*
X52251Y-32389D02*
X52268Y-32443D01*
X52268Y-32443D02*
X52275Y-32500D01*
X36275Y-44500D02*
X36268Y-44557D01*
X36268Y-44557D02*
X36251Y-44611D01*
X36251Y-44611D02*
X36222Y-44661D01*
X36222Y-44661D02*
X36184Y-44704D01*
X36184Y-44704D02*
X36137Y-44738D01*
X36137Y-44738D02*
X36084Y-44761D01*
X36084Y-44761D02*
X36028Y-44773D01*
X36028Y-44773D02*
X35972Y-44773D01*
X35972Y-44773D02*
X35916Y-44761D01*
X35916Y-44761D02*
X35863Y-44738D01*
X35863Y-44738D02*
X35816Y-44704D01*
X35816Y-44704D02*
X35778Y-44661D01*
X35778Y-44661D02*
X35749Y-44611D01*
X35749Y-44611D02*
X35732Y-44557D01*
X35732Y-44557D02*
X35725Y-44500D01*
X35725Y-44500D02*
X35732Y-44443D01*
X35732Y-44443D02*
X35749Y-44389D01*
X35749Y-44389D02*
X35778Y-44339D01*
X35778Y-44339D02*
X35816Y-44296D01*
X35816Y-44296D02*
X35863Y-44262D01*
X35863Y-44262D02*
X35916Y-44239D01*
X35916Y-44239D02*
X35972Y-44227D01*
X35972Y-44227D02*
X36028Y-44227D01*
X36028Y-44227D02*
X36084Y-44239D01*
X36084Y-44239D02*
X36137Y-44262D01*
X36137Y-44262D02*
X36184Y-44296D01*
X36184Y-44296D02*
X36222Y-44339D01*
X36222Y-44339D02*
X36251Y-44389D01*
X36251Y-44389D02*
X36268Y-44443D01*
X36268Y-44443D02*
X36275Y-44500D01*
X39275Y-44500D02*
X39268Y-44557D01*
X39268Y-44557D02*
X39251Y-44611D01*
X39251Y-44611D02*
X39222Y-44661D01*
X39222Y-44661D02*
X39184Y-44704D01*
X39184Y-44704D02*
X39137Y-44738D01*
X39137Y-44738D02*
X39084Y-44761D01*
X39084Y-44761D02*
X39028Y-44773D01*
X39028Y-44773D02*
X38972Y-44773D01*
X38972Y-44773D02*
X38916Y-44761D01*
X38916Y-44761D02*
X38863Y-44738D01*
X38863Y-44738D02*
X38816Y-44704D01*
X38816Y-44704D02*
X38778Y-44661D01*
X38778Y-44661D02*
X38749Y-44611D01*
X38749Y-44611D02*
X38732Y-44557D01*
X38732Y-44557D02*
X38725Y-44500D01*
X38725Y-44500D02*
X38732Y-44443D01*
X38732Y-44443D02*
X38749Y-44389D01*
X38749Y-44389D02*
X38778Y-44339D01*
X38778Y-44339D02*
X38816Y-44296D01*
X38816Y-44296D02*
X38863Y-44262D01*
X38863Y-44262D02*
X38916Y-44239D01*
X38916Y-44239D02*
X38972Y-44227D01*
X38972Y-44227D02*
X39028Y-44227D01*
X39028Y-44227D02*
X39084Y-44239D01*
X39084Y-44239D02*
X39137Y-44262D01*
X39137Y-44262D02*
X39184Y-44296D01*
X39184Y-44296D02*
X39222Y-44339D01*
X39222Y-44339D02*
X39251Y-44389D01*
X39251Y-44389D02*
X39268Y-44443D01*
X39268Y-44443D02*
X39275Y-44500D01*
X65775Y-41000D02*
X65768Y-41057D01*
X65768Y-41057D02*
X65751Y-41111D01*
X65751Y-41111D02*
X65722Y-41161D01*
X65722Y-41161D02*
X65684Y-41204D01*
X65684Y-41204D02*
X65637Y-41238D01*
X65637Y-41238D02*
X65584Y-41261D01*
X65584Y-41261D02*
X65528Y-41273D01*
X65528Y-41273D02*
X65472Y-41273D01*
X65472Y-41273D02*
X65416Y-41261D01*
X65416Y-41261D02*
X65363Y-41238D01*
X65363Y-41238D02*
X65316Y-41204D01*
X65316Y-41204D02*
X65278Y-41161D01*
X65278Y-41161D02*
X65249Y-41111D01*
X65249Y-41111D02*
X65232Y-41057D01*
X65232Y-41057D02*
X65225Y-41000D01*
X65225Y-41000D02*
X65232Y-40943D01*
X65232Y-40943D02*
X65249Y-40889D01*
X65249Y-40889D02*
X65278Y-40839D01*
X65278Y-40839D02*
X65316Y-40796D01*
X65316Y-40796D02*
X65363Y-40762D01*
X65363Y-40762D02*
X65416Y-40739D01*
X65416Y-40739D02*
X65472Y-40727D01*
X65472Y-40727D02*
X65528Y-40727D01*
X65528Y-40727D02*
X65584Y-40739D01*
X65584Y-40739D02*
X65637Y-40762D01*
X65637Y-40762D02*
X65684Y-40796D01*
X65684Y-40796D02*
X65722Y-40839D01*
X65722Y-40839D02*
X65751Y-40889D01*
X65751Y-40889D02*
X65768Y-40943D01*
X65768Y-40943D02*
X65775Y-41000D01*
X62775Y-41000D02*
X62768Y-41057D01*
X62768Y-41057D02*
X62751Y-41111D01*
X62751Y-41111D02*
X62722Y-41161D01*
X62722Y-41161D02*
X62684Y-41204D01*
X62684Y-41204D02*
X62637Y-41238D01*
X62637Y-41238D02*
X62584Y-41261D01*
X62584Y-41261D02*
X62528Y-41273D01*
X62528Y-41273D02*
X62472Y-41273D01*
X62472Y-41273D02*
X62416Y-41261D01*
X62416Y-41261D02*
X62363Y-41238D01*
X62363Y-41238D02*
X62316Y-41204D01*
X62316Y-41204D02*
X62278Y-41161D01*
X62278Y-41161D02*
X62249Y-41111D01*
X62249Y-41111D02*
X62232Y-41057D01*
X62232Y-41057D02*
X62225Y-41000D01*
X62225Y-41000D02*
X62232Y-40943D01*
X62232Y-40943D02*
X62249Y-40889D01*
X62249Y-40889D02*
X62278Y-40839D01*
X62278Y-40839D02*
X62316Y-40796D01*
X62316Y-40796D02*
X62363Y-40762D01*
X62363Y-40762D02*
X62416Y-40739D01*
X62416Y-40739D02*
X62472Y-40727D01*
X62472Y-40727D02*
X62528Y-40727D01*
X62528Y-40727D02*
X62584Y-40739D01*
X62584Y-40739D02*
X62637Y-40762D01*
X62637Y-40762D02*
X62684Y-40796D01*
X62684Y-40796D02*
X62722Y-40839D01*
X62722Y-40839D02*
X62751Y-40889D01*
X62751Y-40889D02*
X62768Y-40943D01*
X62768Y-40943D02*
X62775Y-41000D01*
X28225Y-44725D02*
X28775Y-44725D01*
X28775Y-44725D02*
X28775Y-45275D01*
X28775Y-45275D02*
X28225Y-45275D01*
X28225Y-45275D02*
X28225Y-44725D01*
X28775Y-46000D02*
X28768Y-46057D01*
X28768Y-46057D02*
X28751Y-46111D01*
X28751Y-46111D02*
X28722Y-46161D01*
X28722Y-46161D02*
X28684Y-46204D01*
X28684Y-46204D02*
X28637Y-46238D01*
X28637Y-46238D02*
X28584Y-46261D01*
X28584Y-46261D02*
X28528Y-46273D01*
X28528Y-46273D02*
X28472Y-46273D01*
X28472Y-46273D02*
X28416Y-46261D01*
X28416Y-46261D02*
X28363Y-46238D01*
X28363Y-46238D02*
X28316Y-46204D01*
X28316Y-46204D02*
X28278Y-46161D01*
X28278Y-46161D02*
X28249Y-46111D01*
X28249Y-46111D02*
X28232Y-46057D01*
X28232Y-46057D02*
X28225Y-46000D01*
X28225Y-46000D02*
X28232Y-45943D01*
X28232Y-45943D02*
X28249Y-45889D01*
X28249Y-45889D02*
X28278Y-45839D01*
X28278Y-45839D02*
X28316Y-45796D01*
X28316Y-45796D02*
X28363Y-45762D01*
X28363Y-45762D02*
X28416Y-45739D01*
X28416Y-45739D02*
X28472Y-45727D01*
X28472Y-45727D02*
X28528Y-45727D01*
X28528Y-45727D02*
X28584Y-45739D01*
X28584Y-45739D02*
X28637Y-45762D01*
X28637Y-45762D02*
X28684Y-45796D01*
X28684Y-45796D02*
X28722Y-45839D01*
X28722Y-45839D02*
X28751Y-45889D01*
X28751Y-45889D02*
X28768Y-45943D01*
X28768Y-45943D02*
X28775Y-46000D01*
X28775Y-47000D02*
X28768Y-47057D01*
X28768Y-47057D02*
X28751Y-47111D01*
X28751Y-47111D02*
X28722Y-47161D01*
X28722Y-47161D02*
X28684Y-47204D01*
X28684Y-47204D02*
X28637Y-47238D01*
X28637Y-47238D02*
X28584Y-47261D01*
X28584Y-47261D02*
X28528Y-47273D01*
X28528Y-47273D02*
X28472Y-47273D01*
X28472Y-47273D02*
X28416Y-47261D01*
X28416Y-47261D02*
X28363Y-47238D01*
X28363Y-47238D02*
X28316Y-47204D01*
X28316Y-47204D02*
X28278Y-47161D01*
X28278Y-47161D02*
X28249Y-47111D01*
X28249Y-47111D02*
X28232Y-47057D01*
X28232Y-47057D02*
X28225Y-47000D01*
X28225Y-47000D02*
X28232Y-46943D01*
X28232Y-46943D02*
X28249Y-46889D01*
X28249Y-46889D02*
X28278Y-46839D01*
X28278Y-46839D02*
X28316Y-46796D01*
X28316Y-46796D02*
X28363Y-46762D01*
X28363Y-46762D02*
X28416Y-46739D01*
X28416Y-46739D02*
X28472Y-46727D01*
X28472Y-46727D02*
X28528Y-46727D01*
X28528Y-46727D02*
X28584Y-46739D01*
X28584Y-46739D02*
X28637Y-46762D01*
X28637Y-46762D02*
X28684Y-46796D01*
X28684Y-46796D02*
X28722Y-46839D01*
X28722Y-46839D02*
X28751Y-46889D01*
X28751Y-46889D02*
X28768Y-46943D01*
X28768Y-46943D02*
X28775Y-47000D01*
X28775Y-48000D02*
X28768Y-48057D01*
X28768Y-48057D02*
X28751Y-48111D01*
X28751Y-48111D02*
X28722Y-48161D01*
X28722Y-48161D02*
X28684Y-48204D01*
X28684Y-48204D02*
X28637Y-48238D01*
X28637Y-48238D02*
X28584Y-48261D01*
X28584Y-48261D02*
X28528Y-48273D01*
X28528Y-48273D02*
X28472Y-48273D01*
X28472Y-48273D02*
X28416Y-48261D01*
X28416Y-48261D02*
X28363Y-48238D01*
X28363Y-48238D02*
X28316Y-48204D01*
X28316Y-48204D02*
X28278Y-48161D01*
X28278Y-48161D02*
X28249Y-48111D01*
X28249Y-48111D02*
X28232Y-48057D01*
X28232Y-48057D02*
X28225Y-48000D01*
X28225Y-48000D02*
X28232Y-47943D01*
X28232Y-47943D02*
X28249Y-47889D01*
X28249Y-47889D02*
X28278Y-47839D01*
X28278Y-47839D02*
X28316Y-47796D01*
X28316Y-47796D02*
X28363Y-47762D01*
X28363Y-47762D02*
X28416Y-47739D01*
X28416Y-47739D02*
X28472Y-47727D01*
X28472Y-47727D02*
X28528Y-47727D01*
X28528Y-47727D02*
X28584Y-47739D01*
X28584Y-47739D02*
X28637Y-47762D01*
X28637Y-47762D02*
X28684Y-47796D01*
X28684Y-47796D02*
X28722Y-47839D01*
X28722Y-47839D02*
X28751Y-47889D01*
X28751Y-47889D02*
X28768Y-47943D01*
X28768Y-47943D02*
X28775Y-48000D01*
X45850Y-47500D02*
X45842Y-47572D01*
X45842Y-47572D02*
X45819Y-47642D01*
X45819Y-47642D02*
X45783Y-47705D01*
X45783Y-47705D02*
X45734Y-47760D01*
X45734Y-47760D02*
X45675Y-47803D01*
X45675Y-47803D02*
X45608Y-47832D01*
X45608Y-47832D02*
X45536Y-47848D01*
X45536Y-47848D02*
X45464Y-47848D01*
X45464Y-47848D02*
X45392Y-47832D01*
X45392Y-47832D02*
X45325Y-47803D01*
X45325Y-47803D02*
X45266Y-47760D01*
X45266Y-47760D02*
X45217Y-47705D01*
X45217Y-47705D02*
X45181Y-47642D01*
X45181Y-47642D02*
X45158Y-47572D01*
X45158Y-47572D02*
X45150Y-47500D01*
X45150Y-47500D02*
X45158Y-47428D01*
X45158Y-47428D02*
X45181Y-47358D01*
X45181Y-47358D02*
X45217Y-47295D01*
X45217Y-47295D02*
X45266Y-47240D01*
X45266Y-47240D02*
X45325Y-47197D01*
X45325Y-47197D02*
X45392Y-47168D01*
X45392Y-47168D02*
X45464Y-47152D01*
X45464Y-47152D02*
X45536Y-47152D01*
X45536Y-47152D02*
X45608Y-47168D01*
X45608Y-47168D02*
X45675Y-47197D01*
X45675Y-47197D02*
X45734Y-47240D01*
X45734Y-47240D02*
X45783Y-47295D01*
X45783Y-47295D02*
X45819Y-47358D01*
X45819Y-47358D02*
X45842Y-47428D01*
X45842Y-47428D02*
X45850Y-47500D01*
X44850Y-47500D02*
X44842Y-47572D01*
X44842Y-47572D02*
X44819Y-47642D01*
X44819Y-47642D02*
X44783Y-47705D01*
X44783Y-47705D02*
X44734Y-47760D01*
X44734Y-47760D02*
X44675Y-47803D01*
X44675Y-47803D02*
X44608Y-47832D01*
X44608Y-47832D02*
X44536Y-47848D01*
X44536Y-47848D02*
X44464Y-47848D01*
X44464Y-47848D02*
X44392Y-47832D01*
X44392Y-47832D02*
X44325Y-47803D01*
X44325Y-47803D02*
X44266Y-47760D01*
X44266Y-47760D02*
X44217Y-47705D01*
X44217Y-47705D02*
X44181Y-47642D01*
X44181Y-47642D02*
X44158Y-47572D01*
X44158Y-47572D02*
X44150Y-47500D01*
X44150Y-47500D02*
X44158Y-47428D01*
X44158Y-47428D02*
X44181Y-47358D01*
X44181Y-47358D02*
X44217Y-47295D01*
X44217Y-47295D02*
X44266Y-47240D01*
X44266Y-47240D02*
X44325Y-47197D01*
X44325Y-47197D02*
X44392Y-47168D01*
X44392Y-47168D02*
X44464Y-47152D01*
X44464Y-47152D02*
X44536Y-47152D01*
X44536Y-47152D02*
X44608Y-47168D01*
X44608Y-47168D02*
X44675Y-47197D01*
X44675Y-47197D02*
X44734Y-47240D01*
X44734Y-47240D02*
X44783Y-47295D01*
X44783Y-47295D02*
X44819Y-47358D01*
X44819Y-47358D02*
X44842Y-47428D01*
X44842Y-47428D02*
X44850Y-47500D01*
X43150Y-47150D02*
X43850Y-47150D01*
X43850Y-47150D02*
X43850Y-47850D01*
X43850Y-47850D02*
X43150Y-47850D01*
X43150Y-47850D02*
X43150Y-47150D01*
X49850Y-47500D02*
X49842Y-47572D01*
X49842Y-47572D02*
X49819Y-47642D01*
X49819Y-47642D02*
X49783Y-47705D01*
X49783Y-47705D02*
X49734Y-47760D01*
X49734Y-47760D02*
X49675Y-47803D01*
X49675Y-47803D02*
X49608Y-47832D01*
X49608Y-47832D02*
X49536Y-47848D01*
X49536Y-47848D02*
X49464Y-47848D01*
X49464Y-47848D02*
X49392Y-47832D01*
X49392Y-47832D02*
X49325Y-47803D01*
X49325Y-47803D02*
X49266Y-47760D01*
X49266Y-47760D02*
X49217Y-47705D01*
X49217Y-47705D02*
X49181Y-47642D01*
X49181Y-47642D02*
X49158Y-47572D01*
X49158Y-47572D02*
X49150Y-47500D01*
X49150Y-47500D02*
X49158Y-47428D01*
X49158Y-47428D02*
X49181Y-47358D01*
X49181Y-47358D02*
X49217Y-47295D01*
X49217Y-47295D02*
X49266Y-47240D01*
X49266Y-47240D02*
X49325Y-47197D01*
X49325Y-47197D02*
X49392Y-47168D01*
X49392Y-47168D02*
X49464Y-47152D01*
X49464Y-47152D02*
X49536Y-47152D01*
X49536Y-47152D02*
X49608Y-47168D01*
X49608Y-47168D02*
X49675Y-47197D01*
X49675Y-47197D02*
X49734Y-47240D01*
X49734Y-47240D02*
X49783Y-47295D01*
X49783Y-47295D02*
X49819Y-47358D01*
X49819Y-47358D02*
X49842Y-47428D01*
X49842Y-47428D02*
X49850Y-47500D01*
X50850Y-47500D02*
X50842Y-47572D01*
X50842Y-47572D02*
X50819Y-47642D01*
X50819Y-47642D02*
X50783Y-47705D01*
X50783Y-47705D02*
X50734Y-47760D01*
X50734Y-47760D02*
X50675Y-47803D01*
X50675Y-47803D02*
X50608Y-47832D01*
X50608Y-47832D02*
X50536Y-47848D01*
X50536Y-47848D02*
X50464Y-47848D01*
X50464Y-47848D02*
X50392Y-47832D01*
X50392Y-47832D02*
X50325Y-47803D01*
X50325Y-47803D02*
X50266Y-47760D01*
X50266Y-47760D02*
X50217Y-47705D01*
X50217Y-47705D02*
X50181Y-47642D01*
X50181Y-47642D02*
X50158Y-47572D01*
X50158Y-47572D02*
X50150Y-47500D01*
X50150Y-47500D02*
X50158Y-47428D01*
X50158Y-47428D02*
X50181Y-47358D01*
X50181Y-47358D02*
X50217Y-47295D01*
X50217Y-47295D02*
X50266Y-47240D01*
X50266Y-47240D02*
X50325Y-47197D01*
X50325Y-47197D02*
X50392Y-47168D01*
X50392Y-47168D02*
X50464Y-47152D01*
X50464Y-47152D02*
X50536Y-47152D01*
X50536Y-47152D02*
X50608Y-47168D01*
X50608Y-47168D02*
X50675Y-47197D01*
X50675Y-47197D02*
X50734Y-47240D01*
X50734Y-47240D02*
X50783Y-47295D01*
X50783Y-47295D02*
X50819Y-47358D01*
X50819Y-47358D02*
X50842Y-47428D01*
X50842Y-47428D02*
X50850Y-47500D01*
X51850Y-47850D02*
X51150Y-47850D01*
X51150Y-47850D02*
X51150Y-47150D01*
X51150Y-47150D02*
X51850Y-47150D01*
X51850Y-47150D02*
X51850Y-47850D01*
X40725Y-46775D02*
X40725Y-46225D01*
X40725Y-46225D02*
X41275Y-46225D01*
X41275Y-46225D02*
X41275Y-46775D01*
X41275Y-46775D02*
X40725Y-46775D01*
X40275Y-46500D02*
X40268Y-46557D01*
X40268Y-46557D02*
X40251Y-46611D01*
X40251Y-46611D02*
X40222Y-46661D01*
X40222Y-46661D02*
X40184Y-46704D01*
X40184Y-46704D02*
X40137Y-46738D01*
X40137Y-46738D02*
X40084Y-46761D01*
X40084Y-46761D02*
X40028Y-46773D01*
X40028Y-46773D02*
X39972Y-46773D01*
X39972Y-46773D02*
X39916Y-46761D01*
X39916Y-46761D02*
X39863Y-46738D01*
X39863Y-46738D02*
X39816Y-46704D01*
X39816Y-46704D02*
X39778Y-46661D01*
X39778Y-46661D02*
X39749Y-46611D01*
X39749Y-46611D02*
X39732Y-46557D01*
X39732Y-46557D02*
X39725Y-46500D01*
X39725Y-46500D02*
X39732Y-46443D01*
X39732Y-46443D02*
X39749Y-46389D01*
X39749Y-46389D02*
X39778Y-46339D01*
X39778Y-46339D02*
X39816Y-46296D01*
X39816Y-46296D02*
X39863Y-46262D01*
X39863Y-46262D02*
X39916Y-46239D01*
X39916Y-46239D02*
X39972Y-46227D01*
X39972Y-46227D02*
X40028Y-46227D01*
X40028Y-46227D02*
X40084Y-46239D01*
X40084Y-46239D02*
X40137Y-46262D01*
X40137Y-46262D02*
X40184Y-46296D01*
X40184Y-46296D02*
X40222Y-46339D01*
X40222Y-46339D02*
X40251Y-46389D01*
X40251Y-46389D02*
X40268Y-46443D01*
X40268Y-46443D02*
X40275Y-46500D01*
X40275Y-47500D02*
X40268Y-47557D01*
X40268Y-47557D02*
X40251Y-47611D01*
X40251Y-47611D02*
X40222Y-47661D01*
X40222Y-47661D02*
X40184Y-47704D01*
X40184Y-47704D02*
X40137Y-47738D01*
X40137Y-47738D02*
X40084Y-47761D01*
X40084Y-47761D02*
X40028Y-47773D01*
X40028Y-47773D02*
X39972Y-47773D01*
X39972Y-47773D02*
X39916Y-47761D01*
X39916Y-47761D02*
X39863Y-47738D01*
X39863Y-47738D02*
X39816Y-47704D01*
X39816Y-47704D02*
X39778Y-47661D01*
X39778Y-47661D02*
X39749Y-47611D01*
X39749Y-47611D02*
X39732Y-47557D01*
X39732Y-47557D02*
X39725Y-47500D01*
X39725Y-47500D02*
X39732Y-47443D01*
X39732Y-47443D02*
X39749Y-47389D01*
X39749Y-47389D02*
X39778Y-47339D01*
X39778Y-47339D02*
X39816Y-47296D01*
X39816Y-47296D02*
X39863Y-47262D01*
X39863Y-47262D02*
X39916Y-47239D01*
X39916Y-47239D02*
X39972Y-47227D01*
X39972Y-47227D02*
X40028Y-47227D01*
X40028Y-47227D02*
X40084Y-47239D01*
X40084Y-47239D02*
X40137Y-47262D01*
X40137Y-47262D02*
X40184Y-47296D01*
X40184Y-47296D02*
X40222Y-47339D01*
X40222Y-47339D02*
X40251Y-47389D01*
X40251Y-47389D02*
X40268Y-47443D01*
X40268Y-47443D02*
X40275Y-47500D01*
G54D29*
X30900Y-38416D02*
X30500Y-38416D01*
X30500Y-38416D02*
X30500Y-38116D01*
X30500Y-38116D02*
X30545Y-38066D01*
X30545Y-38066D02*
X30678Y-38066D01*
X30678Y-38066D02*
X30723Y-38116D01*
X30723Y-38116D02*
X30723Y-38416D01*
X30500Y-37892D02*
X30500Y-37542D01*
X30500Y-37542D02*
X30900Y-37892D01*
X33456Y-39638D02*
X33500Y-39688D01*
X33500Y-39688D02*
X33500Y-39938D01*
X33500Y-39938D02*
X33456Y-39988D01*
X33456Y-39988D02*
X33145Y-39988D01*
X33145Y-39988D02*
X33100Y-39938D01*
X33100Y-39938D02*
X33100Y-39688D01*
X33100Y-39688D02*
X33145Y-39638D01*
X33500Y-39414D02*
X33456Y-39464D01*
X33456Y-39464D02*
X33145Y-39464D01*
X33145Y-39464D02*
X33100Y-39414D01*
X33100Y-39414D02*
X33100Y-39164D01*
X33100Y-39164D02*
X33145Y-39114D01*
X33145Y-39114D02*
X33456Y-39114D01*
X33456Y-39114D02*
X33500Y-39164D01*
X33500Y-39164D02*
X33500Y-39414D01*
X33500Y-38940D02*
X33100Y-38940D01*
X33100Y-38940D02*
X33500Y-38590D01*
X33500Y-38590D02*
X33100Y-38590D01*
X33500Y-38416D02*
X33100Y-38416D01*
X33100Y-38416D02*
X33500Y-38066D01*
X33500Y-38066D02*
X33100Y-38066D01*
X33500Y-37892D02*
X33500Y-37542D01*
X33500Y-37318D02*
X33456Y-37368D01*
X33456Y-37368D02*
X33323Y-37368D01*
X33323Y-37368D02*
X33278Y-37318D01*
X33278Y-37318D02*
X33278Y-37068D01*
X33278Y-37068D02*
X33234Y-37018D01*
X33234Y-37018D02*
X33145Y-37018D01*
X33145Y-37018D02*
X33100Y-37068D01*
X33100Y-37068D02*
X33100Y-37318D01*
X33100Y-37318D02*
X33145Y-37368D01*
X33145Y-37368D02*
X33234Y-37368D01*
X33234Y-37368D02*
X33278Y-37318D01*
X33278Y-37068D02*
X33323Y-37018D01*
X33323Y-37018D02*
X33456Y-37018D01*
X33456Y-37018D02*
X33500Y-37068D01*
X33500Y-37068D02*
X33500Y-37318D01*
X33500Y-36844D02*
X33100Y-36494D01*
X33100Y-36844D02*
X33500Y-36494D01*
X33500Y-35970D02*
X33500Y-36320D01*
X33500Y-36320D02*
X33367Y-36320D01*
X33367Y-36320D02*
X33323Y-36270D01*
X33323Y-36270D02*
X33323Y-36020D01*
X33323Y-36020D02*
X33278Y-35970D01*
X33278Y-35970D02*
X33145Y-35970D01*
X33145Y-35970D02*
X33100Y-36020D01*
X33100Y-36020D02*
X33100Y-36270D01*
X33100Y-36270D02*
X33145Y-36320D01*
X36000Y-43678D02*
X35600Y-43678D01*
X35600Y-43678D02*
X35600Y-43378D01*
X35600Y-43378D02*
X35645Y-43328D01*
X35645Y-43328D02*
X35778Y-43328D01*
X35778Y-43328D02*
X35823Y-43378D01*
X35823Y-43378D02*
X35823Y-43678D01*
X35823Y-43528D02*
X36000Y-43328D01*
X35600Y-43154D02*
X36000Y-42954D01*
X36000Y-42954D02*
X35600Y-42754D01*
X36000Y-42530D02*
X36000Y-42330D01*
X36000Y-42430D02*
X35600Y-42430D01*
X35645Y-42430D02*
X35734Y-42530D01*
G54D10*
X34734Y-43460D02*
X34800Y-43535D01*
X34800Y-43535D02*
X34800Y-43760D01*
X34800Y-43760D02*
X34734Y-43835D01*
X34734Y-43835D02*
X34200Y-43835D01*
X34400Y-43835D02*
X34400Y-43610D01*
X34600Y-43124D02*
X34600Y-42599D01*
X34600Y-42599D02*
X34467Y-42599D01*
X34467Y-42599D02*
X34400Y-42674D01*
X34400Y-42674D02*
X34400Y-43049D01*
X34400Y-43049D02*
X34467Y-43124D01*
X34467Y-43124D02*
X34734Y-43124D01*
X34734Y-43124D02*
X34800Y-43049D01*
X34800Y-43049D02*
X34800Y-42674D01*
X34800Y-42674D02*
X34734Y-42599D01*
X34800Y-42338D02*
X34400Y-41813D01*
X34400Y-42338D02*
X34800Y-41813D01*
X34734Y-41102D02*
X34800Y-41177D01*
X34800Y-41177D02*
X34800Y-41402D01*
X34800Y-41402D02*
X34734Y-41477D01*
X34734Y-41477D02*
X34200Y-41477D01*
X34400Y-41477D02*
X34400Y-41252D01*
X35234Y-43460D02*
X35300Y-43535D01*
X35300Y-43535D02*
X35300Y-43760D01*
X35300Y-43760D02*
X35234Y-43835D01*
X35234Y-43835D02*
X34700Y-43835D01*
X34900Y-43835D02*
X34900Y-43610D01*
X35100Y-43124D02*
X35100Y-42599D01*
X35100Y-42599D02*
X34967Y-42599D01*
X34967Y-42599D02*
X34900Y-42674D01*
X34900Y-42674D02*
X34900Y-43049D01*
X34900Y-43049D02*
X34967Y-43124D01*
X34967Y-43124D02*
X35234Y-43124D01*
X35234Y-43124D02*
X35300Y-43049D01*
X35300Y-43049D02*
X35300Y-42674D01*
X35300Y-42674D02*
X35234Y-42599D01*
X35300Y-42338D02*
X34900Y-41813D01*
X34900Y-42338D02*
X35300Y-41813D01*
X35234Y-41102D02*
X35300Y-41177D01*
X35300Y-41177D02*
X35300Y-41402D01*
X35300Y-41402D02*
X35234Y-41477D01*
X35234Y-41477D02*
X34700Y-41477D01*
X34900Y-41477D02*
X34900Y-41252D01*
X43504Y-26700D02*
X43504Y-27234D01*
X43504Y-27234D02*
X43560Y-27300D01*
X43560Y-27300D02*
X43841Y-27300D01*
X43841Y-27300D02*
X43898Y-27234D01*
X43898Y-27234D02*
X43898Y-26700D01*
X44518Y-27300D02*
X44124Y-27300D01*
X44124Y-27300D02*
X44124Y-27100D01*
X44124Y-27100D02*
X44180Y-27034D01*
X44180Y-27034D02*
X44461Y-27034D01*
X44461Y-27034D02*
X44518Y-26967D01*
X44518Y-26967D02*
X44518Y-26767D01*
X44518Y-26767D02*
X44461Y-26700D01*
X44461Y-26700D02*
X44180Y-26700D01*
X44180Y-26700D02*
X44124Y-26767D01*
X45264Y-28300D02*
X45264Y-27700D01*
X45264Y-27700D02*
X45489Y-27967D01*
X45489Y-27967D02*
X45714Y-27700D01*
X45714Y-27700D02*
X45714Y-28300D01*
X45884Y-28300D02*
X45884Y-27834D01*
X45884Y-27834D02*
X45996Y-27700D01*
X45996Y-27700D02*
X46165Y-27700D01*
X46165Y-27700D02*
X46278Y-27834D01*
X46278Y-27834D02*
X46278Y-28300D01*
X45884Y-27967D02*
X46278Y-27967D01*
X46504Y-28300D02*
X46898Y-27700D01*
X46504Y-27700D02*
X46898Y-28300D01*
X47518Y-28300D02*
X47124Y-28300D01*
X47124Y-28300D02*
X47124Y-28100D01*
X47124Y-28100D02*
X47180Y-28034D01*
X47180Y-28034D02*
X47461Y-28034D01*
X47461Y-28034D02*
X47518Y-27967D01*
X47518Y-27967D02*
X47518Y-27767D01*
X47518Y-27767D02*
X47461Y-27700D01*
X47461Y-27700D02*
X47180Y-27700D01*
X47180Y-27700D02*
X47124Y-27767D01*
X47744Y-28300D02*
X48138Y-27700D01*
X47744Y-28234D02*
X47744Y-27767D01*
X47744Y-27767D02*
X47800Y-27700D01*
X47800Y-27700D02*
X48081Y-27700D01*
X48081Y-27700D02*
X48138Y-27767D01*
X48138Y-27767D02*
X48138Y-28234D01*
X48138Y-28234D02*
X48081Y-28300D01*
X48081Y-28300D02*
X47800Y-28300D01*
X47800Y-28300D02*
X47744Y-28234D01*
X48758Y-28300D02*
X48364Y-28300D01*
X48364Y-28300D02*
X48364Y-28100D01*
X48364Y-28100D02*
X48420Y-28034D01*
X48420Y-28034D02*
X48701Y-28034D01*
X48701Y-28034D02*
X48758Y-27967D01*
X48758Y-27967D02*
X48758Y-27767D01*
X48758Y-27767D02*
X48701Y-27700D01*
X48701Y-27700D02*
X48420Y-27700D01*
X48420Y-27700D02*
X48364Y-27767D01*
X59850Y-33250D02*
X59850Y-33025D01*
X59850Y-33137D02*
X59150Y-33137D01*
X59150Y-33250D02*
X59150Y-33025D01*
X59773Y-32292D02*
X59850Y-32349D01*
X59850Y-32349D02*
X59850Y-32630D01*
X59850Y-32630D02*
X59773Y-32686D01*
X59773Y-32686D02*
X59228Y-32686D01*
X59228Y-32686D02*
X59150Y-32630D01*
X59150Y-32630D02*
X59150Y-32349D01*
X59150Y-32349D02*
X59228Y-32292D01*
X59695Y-32066D02*
X59773Y-32066D01*
X59773Y-32066D02*
X59850Y-32010D01*
X59850Y-32010D02*
X59850Y-31729D01*
X59850Y-31729D02*
X59773Y-31672D01*
X59773Y-31672D02*
X59539Y-31672D01*
X59539Y-31672D02*
X59384Y-31785D01*
X59384Y-31785D02*
X59384Y-32066D01*
X59384Y-32066D02*
X59150Y-32066D01*
X59150Y-32066D02*
X59150Y-31672D01*
X58950Y-39076D02*
X58250Y-39076D01*
X58250Y-39076D02*
X58250Y-38739D01*
X58250Y-38739D02*
X58328Y-38682D01*
X58328Y-38682D02*
X58562Y-38682D01*
X58562Y-38682D02*
X58639Y-38739D01*
X58639Y-38739D02*
X58639Y-39076D01*
X58950Y-38400D02*
X58950Y-38175D01*
X58950Y-38287D02*
X58250Y-38287D01*
X58250Y-38400D02*
X58250Y-38175D01*
X58873Y-37442D02*
X58950Y-37499D01*
X58950Y-37499D02*
X58950Y-37780D01*
X58950Y-37780D02*
X58873Y-37836D01*
X58873Y-37836D02*
X58328Y-37836D01*
X58328Y-37836D02*
X58250Y-37780D01*
X58250Y-37780D02*
X58250Y-37499D01*
X58250Y-37499D02*
X58328Y-37442D01*
X58950Y-37104D02*
X58950Y-36879D01*
X58950Y-36991D02*
X58250Y-36991D01*
X58328Y-36991D02*
X58484Y-37104D01*
X58328Y-36202D02*
X58250Y-36259D01*
X58250Y-36259D02*
X58250Y-36540D01*
X58250Y-36540D02*
X58328Y-36596D01*
X58328Y-36596D02*
X58873Y-36596D01*
X58873Y-36596D02*
X58950Y-36540D01*
X58950Y-36540D02*
X58950Y-36259D01*
X58950Y-36259D02*
X58873Y-36202D01*
X58873Y-36202D02*
X58639Y-36202D01*
X58639Y-36202D02*
X58562Y-36259D01*
X58562Y-36259D02*
X58562Y-36540D01*
X58562Y-36540D02*
X58639Y-36596D01*
X58950Y-35976D02*
X58250Y-35976D01*
X58250Y-35976D02*
X58250Y-35582D01*
X58562Y-35976D02*
X58562Y-35751D01*
X58950Y-35300D02*
X58873Y-35356D01*
X58873Y-35356D02*
X58639Y-35356D01*
X58639Y-35356D02*
X58562Y-35300D01*
X58562Y-35300D02*
X58562Y-35019D01*
X58562Y-35019D02*
X58484Y-34962D01*
X58484Y-34962D02*
X58328Y-34962D01*
X58328Y-34962D02*
X58250Y-35019D01*
X58250Y-35019D02*
X58250Y-35300D01*
X58250Y-35300D02*
X58328Y-35356D01*
X58328Y-35356D02*
X58484Y-35356D01*
X58484Y-35356D02*
X58562Y-35300D01*
X58562Y-35019D02*
X58639Y-34962D01*
X58639Y-34962D02*
X58873Y-34962D01*
X58873Y-34962D02*
X58950Y-35019D01*
X58950Y-35019D02*
X58950Y-35300D01*
X58950Y-34455D02*
X58250Y-34455D01*
X58250Y-34455D02*
X58795Y-34736D01*
X58795Y-34736D02*
X58795Y-34342D01*
X58950Y-34116D02*
X58406Y-34116D01*
X58406Y-34116D02*
X58250Y-34004D01*
X58250Y-34004D02*
X58250Y-33835D01*
X58250Y-33835D02*
X58406Y-33722D01*
X58406Y-33722D02*
X58950Y-33722D01*
X58562Y-34116D02*
X58562Y-33722D01*
X58950Y-33496D02*
X58250Y-33496D01*
X58250Y-33496D02*
X58250Y-33159D01*
X58250Y-33159D02*
X58328Y-33102D01*
X58328Y-33102D02*
X58562Y-33102D01*
X58562Y-33102D02*
X58639Y-33159D01*
X58639Y-33159D02*
X58639Y-33496D01*
X35574Y-35150D02*
X35574Y-35773D01*
X35574Y-35773D02*
X35630Y-35850D01*
X35630Y-35850D02*
X35911Y-35850D01*
X35911Y-35850D02*
X35968Y-35773D01*
X35968Y-35773D02*
X35968Y-35150D01*
X36363Y-35773D02*
X36363Y-35306D01*
X36194Y-35539D02*
X36531Y-35539D01*
X36250Y-35695D02*
X36475Y-35384D01*
X36250Y-35384D02*
X36475Y-35695D01*
X36983Y-35773D02*
X36983Y-35306D01*
X36814Y-35539D02*
X37151Y-35539D01*
X36870Y-35695D02*
X37095Y-35384D01*
X36870Y-35384D02*
X37095Y-35695D01*
X37603Y-35773D02*
X37603Y-35306D01*
X37434Y-35539D02*
X37771Y-35539D01*
X37490Y-35695D02*
X37715Y-35384D01*
X37490Y-35384D02*
X37715Y-35695D01*
X38166Y-35850D02*
X38391Y-35850D01*
X38279Y-35850D02*
X38279Y-35150D01*
X38279Y-35228D02*
X38166Y-35384D01*
X40201Y-38350D02*
X40201Y-37650D01*
X40201Y-37650D02*
X40726Y-37650D01*
X40726Y-37650D02*
X40814Y-37728D01*
X40814Y-37728D02*
X40814Y-37962D01*
X40814Y-37962D02*
X40726Y-38039D01*
X40726Y-38039D02*
X40201Y-38039D01*
X41186Y-38350D02*
X41536Y-38350D01*
X41361Y-38350D02*
X41361Y-37650D01*
X41186Y-37650D02*
X41536Y-37650D01*
X42608Y-38273D02*
X42520Y-38350D01*
X42520Y-38350D02*
X42083Y-38350D01*
X42083Y-38350D02*
X41995Y-38273D01*
X41995Y-38273D02*
X41995Y-37728D01*
X41995Y-37728D02*
X42083Y-37650D01*
X42083Y-37650D02*
X42520Y-37650D01*
X42520Y-37650D02*
X42608Y-37728D01*
X43067Y-38350D02*
X43417Y-38350D01*
X43242Y-38350D02*
X43242Y-37650D01*
X43242Y-37728D02*
X43067Y-37884D01*
X43877Y-38350D02*
X43789Y-38273D01*
X43789Y-38273D02*
X43789Y-38039D01*
X43789Y-38039D02*
X43877Y-37962D01*
X43877Y-37962D02*
X44314Y-37962D01*
X44314Y-37962D02*
X44402Y-37884D01*
X44402Y-37884D02*
X44402Y-37728D01*
X44402Y-37728D02*
X44314Y-37650D01*
X44314Y-37650D02*
X43877Y-37650D01*
X43877Y-37650D02*
X43789Y-37728D01*
X43789Y-37728D02*
X43789Y-37884D01*
X43789Y-37884D02*
X43877Y-37962D01*
X44314Y-37962D02*
X44402Y-38039D01*
X44402Y-38039D02*
X44402Y-38273D01*
X44402Y-38273D02*
X44314Y-38350D01*
X44314Y-38350D02*
X43877Y-38350D01*
X44686Y-38350D02*
X44686Y-37650D01*
X44686Y-37650D02*
X45299Y-37650D01*
X44686Y-37962D02*
X45036Y-37962D01*
X46021Y-38350D02*
X46021Y-37650D01*
X46021Y-37650D02*
X45583Y-38195D01*
X45583Y-38195D02*
X46196Y-38195D01*
X46480Y-38195D02*
X46480Y-38273D01*
X46480Y-38273D02*
X46568Y-38350D01*
X46568Y-38350D02*
X47005Y-38350D01*
X47005Y-38350D02*
X47093Y-38273D01*
X47093Y-38273D02*
X47093Y-38039D01*
X47093Y-38039D02*
X46918Y-37884D01*
X46918Y-37884D02*
X46480Y-37884D01*
X46480Y-37884D02*
X46480Y-37650D01*
X46480Y-37650D02*
X47093Y-37650D01*
X47377Y-38195D02*
X47377Y-38273D01*
X47377Y-38273D02*
X47465Y-38350D01*
X47465Y-38350D02*
X47902Y-38350D01*
X47902Y-38350D02*
X47990Y-38273D01*
X47990Y-38273D02*
X47990Y-38039D01*
X47990Y-38039D02*
X47815Y-37884D01*
X47815Y-37884D02*
X47377Y-37884D01*
X47377Y-37884D02*
X47377Y-37650D01*
X47377Y-37650D02*
X47990Y-37650D01*
X48274Y-38350D02*
X48887Y-37650D01*
X48274Y-38273D02*
X48274Y-37728D01*
X48274Y-37728D02*
X48362Y-37650D01*
X48362Y-37650D02*
X48799Y-37650D01*
X48799Y-37650D02*
X48887Y-37728D01*
X48887Y-37728D02*
X48887Y-38273D01*
X48887Y-38273D02*
X48799Y-38350D01*
X48799Y-38350D02*
X48362Y-38350D01*
X48362Y-38350D02*
X48274Y-38273D01*
X54504Y-46650D02*
X54504Y-47273D01*
X54504Y-47273D02*
X54560Y-47350D01*
X54560Y-47350D02*
X54841Y-47350D01*
X54841Y-47350D02*
X54898Y-47273D01*
X54898Y-47273D02*
X54898Y-46650D01*
X55236Y-47350D02*
X55461Y-47350D01*
X55349Y-47350D02*
X55349Y-46650D01*
X55349Y-46728D02*
X55236Y-46884D01*
X55350Y-45730D02*
X55350Y-46080D01*
X55350Y-46080D02*
X55117Y-46080D01*
X55117Y-46080D02*
X55039Y-46030D01*
X55039Y-46030D02*
X55039Y-45780D01*
X55039Y-45780D02*
X54962Y-45730D01*
X54962Y-45730D02*
X54728Y-45730D01*
X54728Y-45730D02*
X54650Y-45780D01*
X54650Y-45780D02*
X54650Y-46030D01*
X54650Y-46030D02*
X54728Y-46080D01*
X55350Y-45266D02*
X54650Y-45266D01*
X54650Y-45266D02*
X55195Y-45516D01*
X55195Y-45516D02*
X55195Y-45166D01*
X55273Y-44602D02*
X55350Y-44652D01*
X55350Y-44652D02*
X55350Y-44902D01*
X55350Y-44902D02*
X55273Y-44952D01*
X55273Y-44952D02*
X54728Y-44952D01*
X54728Y-44952D02*
X54650Y-44902D01*
X54650Y-44902D02*
X54650Y-44652D01*
X54650Y-44652D02*
X54728Y-44602D01*
X55195Y-44388D02*
X55273Y-44388D01*
X55273Y-44388D02*
X55350Y-44338D01*
X55350Y-44338D02*
X55350Y-44088D01*
X55350Y-44088D02*
X55273Y-44038D01*
X55273Y-44038D02*
X55039Y-44038D01*
X55039Y-44038D02*
X54884Y-44138D01*
X54884Y-44138D02*
X54884Y-44388D01*
X54884Y-44388D02*
X54650Y-44388D01*
X54650Y-44388D02*
X54650Y-44038D01*
X55350Y-43724D02*
X55350Y-43524D01*
X55350Y-43624D02*
X54650Y-43624D01*
X54728Y-43624D02*
X54884Y-43724D01*
X55350Y-42910D02*
X55350Y-43260D01*
X55350Y-43260D02*
X55117Y-43260D01*
X55117Y-43260D02*
X55039Y-43210D01*
X55039Y-43210D02*
X55039Y-42960D01*
X55039Y-42960D02*
X54962Y-42910D01*
X54962Y-42910D02*
X54728Y-42910D01*
X54728Y-42910D02*
X54650Y-42960D01*
X54650Y-42960D02*
X54650Y-43210D01*
X54650Y-43210D02*
X54728Y-43260D01*
X30750Y-43350D02*
X30975Y-43350D01*
X30863Y-43350D02*
X30863Y-42650D01*
X30750Y-42650D02*
X30975Y-42650D01*
X31708Y-43273D02*
X31651Y-43350D01*
X31651Y-43350D02*
X31370Y-43350D01*
X31370Y-43350D02*
X31314Y-43273D01*
X31314Y-43273D02*
X31314Y-42728D01*
X31314Y-42728D02*
X31370Y-42650D01*
X31370Y-42650D02*
X31651Y-42650D01*
X31651Y-42650D02*
X31708Y-42728D01*
X31934Y-42650D02*
X32328Y-42650D01*
X32328Y-42650D02*
X32328Y-42728D01*
X32328Y-42728D02*
X32103Y-42962D01*
X32103Y-42962D02*
X32271Y-42962D01*
X32271Y-42962D02*
X32328Y-43039D01*
X32328Y-43039D02*
X32328Y-43273D01*
X32328Y-43273D02*
X32271Y-43350D01*
X32271Y-43350D02*
X31990Y-43350D01*
X31990Y-43350D02*
X31934Y-43273D01*
X31850Y-47312D02*
X31850Y-47112D01*
X31850Y-47212D02*
X31150Y-47212D01*
X31150Y-47312D02*
X31150Y-47112D01*
X31850Y-46798D02*
X31150Y-46798D01*
X31150Y-46798D02*
X31850Y-46448D01*
X31850Y-46448D02*
X31150Y-46448D01*
X31850Y-46234D02*
X31306Y-46234D01*
X31306Y-46234D02*
X31150Y-46134D01*
X31150Y-46134D02*
X31150Y-45984D01*
X31150Y-45984D02*
X31306Y-45884D01*
X31306Y-45884D02*
X31850Y-45884D01*
X31462Y-46234D02*
X31462Y-45884D01*
X31850Y-45570D02*
X31850Y-45370D01*
X31850Y-45470D02*
X31150Y-45470D01*
X31228Y-45470D02*
X31384Y-45570D01*
X31850Y-45006D02*
X31850Y-44806D01*
X31850Y-44906D02*
X31150Y-44906D01*
X31228Y-44906D02*
X31384Y-45006D01*
X31850Y-44492D02*
X31773Y-44542D01*
X31773Y-44542D02*
X31539Y-44542D01*
X31539Y-44542D02*
X31462Y-44492D01*
X31462Y-44492D02*
X31462Y-44242D01*
X31462Y-44242D02*
X31384Y-44192D01*
X31384Y-44192D02*
X31228Y-44192D01*
X31228Y-44192D02*
X31150Y-44242D01*
X31150Y-44242D02*
X31150Y-44492D01*
X31150Y-44492D02*
X31228Y-44542D01*
X31228Y-44542D02*
X31384Y-44542D01*
X31384Y-44542D02*
X31462Y-44492D01*
X31462Y-44242D02*
X31539Y-44192D01*
X31539Y-44192D02*
X31773Y-44192D01*
X31773Y-44192D02*
X31850Y-44242D01*
X31850Y-44242D02*
X31850Y-44492D01*
X31850Y-43978D02*
X31150Y-43978D01*
X31150Y-43978D02*
X31150Y-43678D01*
X31150Y-43678D02*
X31228Y-43628D01*
X31228Y-43628D02*
X31462Y-43628D01*
X31462Y-43628D02*
X31539Y-43678D01*
X31539Y-43678D02*
X31539Y-43978D01*
G54D29*
X66056Y-33428D02*
X66100Y-33478D01*
X66100Y-33478D02*
X66100Y-33728D01*
X66100Y-33728D02*
X66056Y-33778D01*
X66056Y-33778D02*
X65745Y-33778D01*
X65745Y-33778D02*
X65700Y-33728D01*
X65700Y-33728D02*
X65700Y-33478D01*
X65700Y-33478D02*
X65745Y-33428D01*
X66100Y-33154D02*
X66100Y-32954D01*
X66100Y-33054D02*
X65700Y-33054D01*
X65745Y-33054D02*
X65834Y-33154D01*
X66100Y-32630D02*
X66100Y-32430D01*
X66100Y-32530D02*
X65700Y-32530D01*
X65745Y-32530D02*
X65834Y-32630D01*
X64256Y-35728D02*
X64300Y-35778D01*
X64300Y-35778D02*
X64300Y-36028D01*
X64300Y-36028D02*
X64256Y-36078D01*
X64256Y-36078D02*
X63945Y-36078D01*
X63945Y-36078D02*
X63900Y-36028D01*
X63900Y-36028D02*
X63900Y-35778D01*
X63900Y-35778D02*
X63945Y-35728D01*
X64300Y-35454D02*
X64300Y-35254D01*
X64300Y-35354D02*
X63900Y-35354D01*
X63945Y-35354D02*
X64034Y-35454D01*
X64300Y-35030D02*
X63900Y-34680D01*
X64256Y-35030D02*
X63945Y-35030D01*
X63945Y-35030D02*
X63900Y-34980D01*
X63900Y-34980D02*
X63900Y-34730D01*
X63900Y-34730D02*
X63945Y-34680D01*
X63945Y-34680D02*
X64256Y-34680D01*
X64256Y-34680D02*
X64300Y-34730D01*
X64300Y-34730D02*
X64300Y-34980D01*
X64300Y-34980D02*
X64256Y-35030D01*
X51056Y-44666D02*
X51100Y-44716D01*
X51100Y-44716D02*
X51100Y-44966D01*
X51100Y-44966D02*
X51056Y-45016D01*
X51056Y-45016D02*
X50745Y-45016D01*
X50745Y-45016D02*
X50700Y-44966D01*
X50700Y-44966D02*
X50700Y-44716D01*
X50700Y-44716D02*
X50745Y-44666D01*
X50700Y-44492D02*
X50700Y-44142D01*
X50700Y-44142D02*
X51100Y-44492D01*
X49056Y-44666D02*
X49100Y-44716D01*
X49100Y-44716D02*
X49100Y-44966D01*
X49100Y-44966D02*
X49056Y-45016D01*
X49056Y-45016D02*
X48745Y-45016D01*
X48745Y-45016D02*
X48700Y-44966D01*
X48700Y-44966D02*
X48700Y-44716D01*
X48700Y-44716D02*
X48745Y-44666D01*
X49012Y-44492D02*
X49056Y-44492D01*
X49056Y-44492D02*
X49100Y-44442D01*
X49100Y-44442D02*
X49100Y-44192D01*
X49100Y-44192D02*
X49056Y-44142D01*
X49056Y-44142D02*
X48923Y-44142D01*
X48923Y-44142D02*
X48834Y-44242D01*
X48834Y-44242D02*
X48834Y-44492D01*
X48834Y-44492D02*
X48700Y-44492D01*
X48700Y-44492D02*
X48700Y-44142D01*
X37034Y-41756D02*
X36984Y-41800D01*
X36984Y-41800D02*
X36734Y-41800D01*
X36734Y-41800D02*
X36684Y-41756D01*
X36684Y-41756D02*
X36684Y-41445D01*
X36684Y-41445D02*
X36734Y-41400D01*
X36734Y-41400D02*
X36984Y-41400D01*
X36984Y-41400D02*
X37034Y-41445D01*
X37558Y-41445D02*
X37508Y-41400D01*
X37508Y-41400D02*
X37258Y-41400D01*
X37258Y-41400D02*
X37208Y-41445D01*
X37208Y-41445D02*
X37208Y-41756D01*
X37208Y-41756D02*
X37258Y-41800D01*
X37258Y-41800D02*
X37508Y-41800D01*
X37508Y-41800D02*
X37558Y-41756D01*
X37558Y-41756D02*
X37558Y-41623D01*
X37558Y-41623D02*
X37508Y-41578D01*
X37508Y-41578D02*
X37258Y-41578D01*
X37258Y-41578D02*
X37208Y-41623D01*
G54D26*
X58616Y-45541D02*
X58649Y-45579D01*
X58649Y-45579D02*
X58649Y-45766D01*
X58649Y-45766D02*
X58616Y-45804D01*
X58616Y-45804D02*
X58383Y-45804D01*
X58383Y-45804D02*
X58349Y-45766D01*
X58349Y-45766D02*
X58349Y-45579D01*
X58349Y-45579D02*
X58383Y-45541D01*
X58649Y-45233D02*
X58349Y-45233D01*
X58349Y-45233D02*
X58583Y-45421D01*
X58583Y-45421D02*
X58583Y-45158D01*
X57650Y-45698D02*
X57650Y-45573D01*
X57650Y-45635D02*
X57350Y-45635D01*
X57384Y-45635D02*
X57450Y-45698D01*
X57450Y-45433D02*
X57584Y-45433D01*
X57584Y-45433D02*
X57650Y-45371D01*
X57650Y-45371D02*
X57650Y-45277D01*
X57650Y-45277D02*
X57584Y-45214D01*
X57584Y-45214D02*
X57450Y-45214D01*
G54D29*
X58017Y-44724D02*
X58017Y-44499D01*
X58117Y-44611D02*
X57917Y-44611D01*
G54D26*
X44459Y-30618D02*
X44421Y-30651D01*
X44421Y-30651D02*
X44234Y-30651D01*
X44234Y-30651D02*
X44196Y-30618D01*
X44196Y-30618D02*
X44196Y-30385D01*
X44196Y-30385D02*
X44234Y-30351D01*
X44234Y-30351D02*
X44421Y-30351D01*
X44421Y-30351D02*
X44459Y-30385D01*
X44617Y-30651D02*
X44579Y-30618D01*
X44579Y-30618D02*
X44579Y-30518D01*
X44579Y-30518D02*
X44617Y-30485D01*
X44617Y-30485D02*
X44804Y-30485D01*
X44804Y-30485D02*
X44842Y-30451D01*
X44842Y-30451D02*
X44842Y-30385D01*
X44842Y-30385D02*
X44804Y-30351D01*
X44804Y-30351D02*
X44617Y-30351D01*
X44617Y-30351D02*
X44579Y-30385D01*
X44579Y-30385D02*
X44579Y-30451D01*
X44579Y-30451D02*
X44617Y-30485D01*
X44804Y-30485D02*
X44842Y-30518D01*
X44842Y-30518D02*
X44842Y-30618D01*
X44842Y-30618D02*
X44804Y-30651D01*
X44804Y-30651D02*
X44617Y-30651D01*
X44139Y-31650D02*
X44264Y-31650D01*
X44202Y-31650D02*
X44202Y-31350D01*
X44202Y-31384D02*
X44139Y-31450D01*
X44404Y-31650D02*
X44623Y-31350D01*
X44404Y-31617D02*
X44404Y-31384D01*
X44404Y-31384D02*
X44435Y-31350D01*
X44435Y-31350D02*
X44591Y-31350D01*
X44591Y-31350D02*
X44623Y-31384D01*
X44623Y-31384D02*
X44623Y-31617D01*
X44623Y-31617D02*
X44591Y-31650D01*
X44591Y-31650D02*
X44435Y-31650D01*
X44435Y-31650D02*
X44404Y-31617D01*
X44731Y-31450D02*
X44731Y-31584D01*
X44731Y-31584D02*
X44793Y-31650D01*
X44793Y-31650D02*
X44887Y-31650D01*
X44887Y-31650D02*
X44950Y-31584D01*
X44950Y-31584D02*
X44950Y-31450D01*
G54D29*
X43476Y-31017D02*
X43701Y-31017D01*
X43589Y-31117D02*
X43589Y-30917D01*
G54D26*
X46959Y-30618D02*
X46921Y-30651D01*
X46921Y-30651D02*
X46734Y-30651D01*
X46734Y-30651D02*
X46696Y-30618D01*
X46696Y-30618D02*
X46696Y-30385D01*
X46696Y-30385D02*
X46734Y-30351D01*
X46734Y-30351D02*
X46921Y-30351D01*
X46921Y-30351D02*
X46959Y-30385D01*
X47117Y-30651D02*
X47304Y-30651D01*
X47304Y-30651D02*
X47342Y-30618D01*
X47342Y-30618D02*
X47342Y-30385D01*
X47342Y-30385D02*
X47304Y-30351D01*
X47304Y-30351D02*
X47117Y-30351D01*
X47117Y-30351D02*
X47079Y-30385D01*
X47079Y-30385D02*
X47079Y-30485D01*
X47079Y-30485D02*
X47117Y-30518D01*
X47117Y-30518D02*
X47304Y-30518D01*
X47304Y-30518D02*
X47342Y-30485D01*
X46639Y-31650D02*
X46764Y-31650D01*
X46702Y-31650D02*
X46702Y-31350D01*
X46702Y-31384D02*
X46639Y-31450D01*
X46904Y-31650D02*
X47123Y-31350D01*
X46904Y-31617D02*
X46904Y-31384D01*
X46904Y-31384D02*
X46935Y-31350D01*
X46935Y-31350D02*
X47091Y-31350D01*
X47091Y-31350D02*
X47123Y-31384D01*
X47123Y-31384D02*
X47123Y-31617D01*
X47123Y-31617D02*
X47091Y-31650D01*
X47091Y-31650D02*
X46935Y-31650D01*
X46935Y-31650D02*
X46904Y-31617D01*
X47231Y-31450D02*
X47231Y-31584D01*
X47231Y-31584D02*
X47293Y-31650D01*
X47293Y-31650D02*
X47387Y-31650D01*
X47387Y-31650D02*
X47450Y-31584D01*
X47450Y-31584D02*
X47450Y-31450D01*
G54D29*
X45976Y-31017D02*
X46201Y-31017D01*
X46089Y-31117D02*
X46089Y-30917D01*
G54D26*
X37616Y-47541D02*
X37649Y-47579D01*
X37649Y-47579D02*
X37649Y-47766D01*
X37649Y-47766D02*
X37616Y-47804D01*
X37616Y-47804D02*
X37383Y-47804D01*
X37383Y-47804D02*
X37349Y-47766D01*
X37349Y-47766D02*
X37349Y-47579D01*
X37349Y-47579D02*
X37383Y-47541D01*
X37349Y-47421D02*
X37349Y-47158D01*
X37349Y-47158D02*
X37383Y-47158D01*
X37383Y-47158D02*
X37483Y-47308D01*
X37483Y-47308D02*
X37483Y-47196D01*
X37483Y-47196D02*
X37516Y-47158D01*
X37516Y-47158D02*
X37616Y-47158D01*
X37616Y-47158D02*
X37649Y-47196D01*
X37649Y-47196D02*
X37649Y-47383D01*
X37649Y-47383D02*
X37616Y-47421D01*
X36650Y-47698D02*
X36650Y-47573D01*
X36650Y-47635D02*
X36350Y-47635D01*
X36384Y-47635D02*
X36450Y-47698D01*
X36450Y-47433D02*
X36584Y-47433D01*
X36584Y-47433D02*
X36650Y-47371D01*
X36650Y-47371D02*
X36650Y-47277D01*
X36650Y-47277D02*
X36584Y-47214D01*
X36584Y-47214D02*
X36450Y-47214D01*
G54D29*
X37017Y-46724D02*
X37017Y-46499D01*
X37117Y-46611D02*
X36917Y-46611D01*
G54D26*
X52118Y-49541D02*
X52151Y-49579D01*
X52151Y-49579D02*
X52151Y-49766D01*
X52151Y-49766D02*
X52118Y-49804D01*
X52118Y-49804D02*
X51885Y-49804D01*
X51885Y-49804D02*
X51851Y-49766D01*
X51851Y-49766D02*
X51851Y-49579D01*
X51851Y-49579D02*
X51885Y-49541D01*
X52151Y-49158D02*
X52151Y-49421D01*
X52151Y-49421D02*
X52051Y-49421D01*
X52051Y-49421D02*
X52018Y-49383D01*
X52018Y-49383D02*
X52018Y-49196D01*
X52018Y-49196D02*
X51985Y-49158D01*
X51985Y-49158D02*
X51885Y-49158D01*
X51885Y-49158D02*
X51851Y-49196D01*
X51851Y-49196D02*
X51851Y-49383D01*
X51851Y-49383D02*
X51885Y-49421D01*
X53150Y-49868D02*
X53150Y-50087D01*
X53150Y-50087D02*
X53050Y-50087D01*
X53050Y-50087D02*
X53017Y-50056D01*
X53017Y-50056D02*
X53017Y-49900D01*
X53017Y-49900D02*
X52984Y-49868D01*
X52984Y-49868D02*
X52884Y-49868D01*
X52884Y-49868D02*
X52850Y-49900D01*
X52850Y-49900D02*
X52850Y-50056D01*
X52850Y-50056D02*
X52884Y-50087D01*
X53150Y-49666D02*
X53117Y-49666D01*
X53150Y-49214D02*
X53150Y-49433D01*
X53150Y-49433D02*
X53050Y-49433D01*
X53050Y-49433D02*
X53017Y-49402D01*
X53017Y-49402D02*
X53017Y-49246D01*
X53017Y-49246D02*
X52984Y-49214D01*
X52984Y-49214D02*
X52884Y-49214D01*
X52884Y-49214D02*
X52850Y-49246D01*
X52850Y-49246D02*
X52850Y-49402D01*
X52850Y-49402D02*
X52884Y-49433D01*
X52950Y-49106D02*
X53084Y-49106D01*
X53084Y-49106D02*
X53150Y-49044D01*
X53150Y-49044D02*
X53150Y-48950D01*
X53150Y-48950D02*
X53084Y-48887D01*
X53084Y-48887D02*
X52950Y-48887D01*
G54D29*
X52517Y-50524D02*
X52517Y-50299D01*
X52617Y-50411D02*
X52417Y-50411D01*
G54D26*
X42616Y-31232D02*
X42649Y-31270D01*
X42649Y-31270D02*
X42649Y-31457D01*
X42649Y-31457D02*
X42616Y-31495D01*
X42616Y-31495D02*
X42383Y-31495D01*
X42383Y-31495D02*
X42349Y-31457D01*
X42349Y-31457D02*
X42349Y-31270D01*
X42349Y-31270D02*
X42383Y-31232D01*
X42649Y-31037D02*
X42649Y-30887D01*
X42649Y-30962D02*
X42349Y-30962D01*
X42383Y-30962D02*
X42449Y-31037D01*
X42649Y-30466D02*
X42649Y-30729D01*
X42649Y-30729D02*
X42549Y-30729D01*
X42549Y-30729D02*
X42516Y-30691D01*
X42516Y-30691D02*
X42516Y-30504D01*
X42516Y-30504D02*
X42483Y-30466D01*
X42483Y-30466D02*
X42383Y-30466D01*
X42383Y-30466D02*
X42349Y-30504D01*
X42349Y-30504D02*
X42349Y-30691D01*
X42349Y-30691D02*
X42383Y-30729D01*
X41650Y-31361D02*
X41650Y-31236D01*
X41650Y-31298D02*
X41350Y-31298D01*
X41384Y-31298D02*
X41450Y-31361D01*
X41650Y-31096D02*
X41350Y-30877D01*
X41617Y-31096D02*
X41384Y-31096D01*
X41384Y-31096D02*
X41350Y-31065D01*
X41350Y-31065D02*
X41350Y-30909D01*
X41350Y-30909D02*
X41384Y-30877D01*
X41384Y-30877D02*
X41617Y-30877D01*
X41617Y-30877D02*
X41650Y-30909D01*
X41650Y-30909D02*
X41650Y-31065D01*
X41650Y-31065D02*
X41617Y-31096D01*
X41450Y-30769D02*
X41584Y-30769D01*
X41584Y-30769D02*
X41650Y-30707D01*
X41650Y-30707D02*
X41650Y-30613D01*
X41650Y-30613D02*
X41584Y-30550D01*
X41584Y-30550D02*
X41450Y-30550D01*
G54D29*
X42017Y-30224D02*
X42017Y-29999D01*
X42117Y-30111D02*
X41917Y-30111D01*
G54D26*
X52616Y-28232D02*
X52649Y-28270D01*
X52649Y-28270D02*
X52649Y-28457D01*
X52649Y-28457D02*
X52616Y-28495D01*
X52616Y-28495D02*
X52383Y-28495D01*
X52383Y-28495D02*
X52349Y-28457D01*
X52349Y-28457D02*
X52349Y-28270D01*
X52349Y-28270D02*
X52383Y-28232D01*
X52649Y-28037D02*
X52649Y-27887D01*
X52649Y-27962D02*
X52349Y-27962D01*
X52383Y-27962D02*
X52449Y-28037D01*
X52349Y-27729D02*
X52349Y-27466D01*
X52349Y-27466D02*
X52383Y-27466D01*
X52383Y-27466D02*
X52483Y-27616D01*
X52483Y-27616D02*
X52483Y-27504D01*
X52483Y-27504D02*
X52516Y-27466D01*
X52516Y-27466D02*
X52616Y-27466D01*
X52616Y-27466D02*
X52649Y-27504D01*
X52649Y-27504D02*
X52649Y-27691D01*
X52649Y-27691D02*
X52616Y-27729D01*
X51650Y-28361D02*
X51650Y-28236D01*
X51650Y-28298D02*
X51350Y-28298D01*
X51384Y-28298D02*
X51450Y-28361D01*
X51650Y-28096D02*
X51350Y-27877D01*
X51617Y-28096D02*
X51384Y-28096D01*
X51384Y-28096D02*
X51350Y-28065D01*
X51350Y-28065D02*
X51350Y-27909D01*
X51350Y-27909D02*
X51384Y-27877D01*
X51384Y-27877D02*
X51617Y-27877D01*
X51617Y-27877D02*
X51650Y-27909D01*
X51650Y-27909D02*
X51650Y-28065D01*
X51650Y-28065D02*
X51617Y-28096D01*
X51450Y-27769D02*
X51584Y-27769D01*
X51584Y-27769D02*
X51650Y-27707D01*
X51650Y-27707D02*
X51650Y-27613D01*
X51650Y-27613D02*
X51584Y-27550D01*
X51584Y-27550D02*
X51450Y-27550D01*
G54D29*
X52017Y-27224D02*
X52017Y-26999D01*
X52117Y-27111D02*
X51917Y-27111D01*
G54D26*
X44459Y-44616D02*
X44421Y-44649D01*
X44421Y-44649D02*
X44234Y-44649D01*
X44234Y-44649D02*
X44196Y-44616D01*
X44196Y-44616D02*
X44196Y-44383D01*
X44196Y-44383D02*
X44234Y-44349D01*
X44234Y-44349D02*
X44421Y-44349D01*
X44421Y-44349D02*
X44459Y-44383D01*
X44654Y-44649D02*
X44804Y-44649D01*
X44729Y-44649D02*
X44729Y-44349D01*
X44729Y-44383D02*
X44654Y-44449D01*
X44132Y-43650D02*
X43913Y-43650D01*
X43913Y-43650D02*
X43913Y-43550D01*
X43913Y-43550D02*
X43944Y-43517D01*
X43944Y-43517D02*
X44100Y-43517D01*
X44100Y-43517D02*
X44132Y-43484D01*
X44132Y-43484D02*
X44132Y-43384D01*
X44132Y-43384D02*
X44100Y-43350D01*
X44100Y-43350D02*
X43944Y-43350D01*
X43944Y-43350D02*
X43913Y-43384D01*
X44334Y-43650D02*
X44334Y-43617D01*
X44786Y-43650D02*
X44567Y-43650D01*
X44567Y-43650D02*
X44567Y-43550D01*
X44567Y-43550D02*
X44598Y-43517D01*
X44598Y-43517D02*
X44754Y-43517D01*
X44754Y-43517D02*
X44786Y-43484D01*
X44786Y-43484D02*
X44786Y-43384D01*
X44786Y-43384D02*
X44754Y-43350D01*
X44754Y-43350D02*
X44598Y-43350D01*
X44598Y-43350D02*
X44567Y-43384D01*
X44894Y-43450D02*
X44894Y-43584D01*
X44894Y-43584D02*
X44956Y-43650D01*
X44956Y-43650D02*
X45050Y-43650D01*
X45050Y-43650D02*
X45113Y-43584D01*
X45113Y-43584D02*
X45113Y-43450D01*
G54D29*
X45276Y-44017D02*
X45501Y-44017D01*
X45389Y-44117D02*
X45389Y-43917D01*
X32134Y-31200D02*
X32134Y-30800D01*
X32084Y-30800D02*
X32384Y-30800D01*
X32384Y-30800D02*
X32434Y-30845D01*
X32434Y-30845D02*
X32434Y-31156D01*
X32434Y-31156D02*
X32384Y-31200D01*
X32384Y-31200D02*
X32084Y-31200D01*
X32708Y-31200D02*
X32908Y-31200D01*
X32808Y-31200D02*
X32808Y-30800D01*
X32808Y-30845D02*
X32708Y-30934D01*
G54D27*
X47965Y-41525D02*
X48403Y-41075D01*
X47965Y-41075D02*
X48403Y-41525D01*
X48705Y-41525D02*
X48955Y-41525D01*
X48830Y-41525D02*
X48830Y-41075D01*
X48830Y-41125D02*
X48705Y-41225D01*
X47531Y-42875D02*
X47093Y-42875D01*
X47093Y-42875D02*
X47093Y-42725D01*
X47093Y-42725D02*
X47156Y-42675D01*
X47156Y-42675D02*
X47468Y-42675D01*
X47468Y-42675D02*
X47531Y-42625D01*
X47531Y-42625D02*
X47531Y-42475D01*
X47531Y-42475D02*
X47468Y-42425D01*
X47468Y-42425D02*
X47156Y-42425D01*
X47156Y-42425D02*
X47093Y-42475D01*
X47708Y-42875D02*
X48146Y-42425D01*
X47708Y-42825D02*
X47708Y-42475D01*
X47708Y-42475D02*
X47771Y-42425D01*
X47771Y-42425D02*
X48083Y-42425D01*
X48083Y-42425D02*
X48146Y-42475D01*
X48146Y-42475D02*
X48146Y-42825D01*
X48146Y-42825D02*
X48083Y-42875D01*
X48083Y-42875D02*
X47771Y-42875D01*
X47771Y-42875D02*
X47708Y-42825D01*
X48323Y-42875D02*
X48323Y-42425D01*
X48323Y-42425D02*
X48573Y-42625D01*
X48573Y-42625D02*
X48823Y-42425D01*
X48823Y-42425D02*
X48823Y-42875D01*
X48938Y-42875D02*
X48938Y-42425D01*
X48938Y-42625D02*
X49001Y-42575D01*
X49001Y-42575D02*
X49313Y-42575D01*
X49313Y-42575D02*
X49376Y-42625D01*
X49376Y-42625D02*
X49376Y-42875D01*
X49553Y-42575D02*
X49991Y-42575D01*
X49991Y-42575D02*
X49553Y-42875D01*
X49553Y-42875D02*
X49991Y-42875D01*
X61525Y-35035D02*
X61075Y-34597D01*
X61075Y-35035D02*
X61525Y-34597D01*
X61525Y-33982D02*
X61525Y-34420D01*
X61525Y-34420D02*
X61375Y-34420D01*
X61375Y-34420D02*
X61325Y-34357D01*
X61325Y-34357D02*
X61325Y-34045D01*
X61325Y-34045D02*
X61275Y-33982D01*
X61275Y-33982D02*
X61125Y-33982D01*
X61125Y-33982D02*
X61075Y-34045D01*
X61075Y-34045D02*
X61075Y-34357D01*
X61075Y-34357D02*
X61125Y-34420D01*
X62875Y-35287D02*
X62425Y-35287D01*
X62425Y-35287D02*
X62775Y-35600D01*
X62775Y-35600D02*
X62775Y-35162D01*
X62875Y-34985D02*
X62425Y-34985D01*
X62425Y-34985D02*
X62625Y-34735D01*
X62625Y-34735D02*
X62425Y-34485D01*
X62425Y-34485D02*
X62875Y-34485D01*
X62875Y-34370D02*
X62425Y-34370D01*
X62625Y-34370D02*
X62575Y-34307D01*
X62575Y-34307D02*
X62575Y-33995D01*
X62575Y-33995D02*
X62625Y-33932D01*
X62625Y-33932D02*
X62875Y-33932D01*
X62575Y-33755D02*
X62575Y-33317D01*
X62575Y-33317D02*
X62875Y-33755D01*
X62875Y-33755D02*
X62875Y-33317D01*
X44687Y-46900D02*
X44687Y-46600D01*
X44687Y-46600D02*
X44912Y-46600D01*
X44912Y-46600D02*
X44950Y-46634D01*
X44950Y-46634D02*
X44950Y-46734D01*
X44950Y-46734D02*
X44912Y-46767D01*
X44912Y-46767D02*
X44687Y-46767D01*
X45155Y-46900D02*
X45305Y-46900D01*
X45230Y-46900D02*
X45230Y-46600D01*
X45230Y-46634D02*
X45155Y-46700D01*
X49687Y-48900D02*
X49687Y-48600D01*
X49687Y-48600D02*
X49912Y-48600D01*
X49912Y-48600D02*
X49950Y-48634D01*
X49950Y-48634D02*
X49950Y-48734D01*
X49950Y-48734D02*
X49912Y-48767D01*
X49912Y-48767D02*
X49687Y-48767D01*
X50343Y-48900D02*
X50080Y-48900D01*
X50080Y-48900D02*
X50080Y-48800D01*
X50080Y-48800D02*
X50118Y-48767D01*
X50118Y-48767D02*
X50305Y-48767D01*
X50305Y-48767D02*
X50343Y-48734D01*
X50343Y-48734D02*
X50343Y-48634D01*
X50343Y-48634D02*
X50305Y-48600D01*
X50305Y-48600D02*
X50118Y-48600D01*
X50118Y-48600D02*
X50080Y-48634D01*
X41550Y-27498D02*
X41150Y-27498D01*
X41150Y-27198D02*
X41328Y-27498D01*
X41328Y-27498D02*
X41550Y-27148D01*
X41550Y-26744D02*
X41150Y-26744D01*
X41150Y-26744D02*
X41462Y-26994D01*
X41462Y-26994D02*
X41462Y-26644D01*
X64202Y-41850D02*
X64202Y-41450D01*
X64502Y-41450D02*
X64202Y-41628D01*
X64202Y-41628D02*
X64552Y-41850D01*
X64706Y-41450D02*
X65056Y-41450D01*
X65056Y-41450D02*
X65056Y-41495D01*
X65056Y-41495D02*
X64856Y-41628D01*
X64856Y-41628D02*
X65006Y-41628D01*
X65006Y-41628D02*
X65056Y-41673D01*
X65056Y-41673D02*
X65056Y-41806D01*
X65056Y-41806D02*
X65006Y-41850D01*
X65006Y-41850D02*
X64756Y-41850D01*
X64756Y-41850D02*
X64706Y-41806D01*
X64202Y-39350D02*
X64202Y-38950D01*
X64502Y-38950D02*
X64202Y-39128D01*
X64202Y-39128D02*
X64552Y-39350D01*
X64806Y-39350D02*
X65006Y-39350D01*
X64906Y-39350D02*
X64906Y-38950D01*
X64906Y-38995D02*
X64806Y-39084D01*
X64202Y-36850D02*
X64202Y-36450D01*
X64502Y-36450D02*
X64202Y-36628D01*
X64202Y-36628D02*
X64552Y-36850D01*
X65056Y-36850D02*
X64706Y-36850D01*
X64706Y-36850D02*
X64706Y-36717D01*
X64706Y-36717D02*
X64756Y-36673D01*
X64756Y-36673D02*
X65006Y-36673D01*
X65006Y-36673D02*
X65056Y-36628D01*
X65056Y-36628D02*
X65056Y-36495D01*
X65056Y-36495D02*
X65006Y-36450D01*
X65006Y-36450D02*
X64756Y-36450D01*
X64756Y-36450D02*
X64706Y-36495D01*
G54D29*
X33084Y-33200D02*
X33084Y-32800D01*
X33084Y-32800D02*
X33384Y-32800D01*
X33384Y-32800D02*
X33434Y-32845D01*
X33434Y-32845D02*
X33434Y-32978D01*
X33434Y-32978D02*
X33384Y-33023D01*
X33384Y-33023D02*
X33084Y-33023D01*
X33608Y-33112D02*
X33608Y-33156D01*
X33608Y-33156D02*
X33658Y-33200D01*
X33658Y-33200D02*
X33908Y-33200D01*
X33908Y-33200D02*
X33958Y-33156D01*
X33958Y-33156D02*
X33958Y-33023D01*
X33958Y-33023D02*
X33858Y-32934D01*
X33858Y-32934D02*
X33608Y-32934D01*
X33608Y-32934D02*
X33608Y-32800D01*
X33608Y-32800D02*
X33958Y-32800D01*
X33084Y-30700D02*
X33084Y-30300D01*
X33084Y-30300D02*
X33384Y-30300D01*
X33384Y-30300D02*
X33434Y-30345D01*
X33434Y-30345D02*
X33434Y-30478D01*
X33434Y-30478D02*
X33384Y-30523D01*
X33384Y-30523D02*
X33084Y-30523D01*
X33958Y-30345D02*
X33908Y-30300D01*
X33908Y-30300D02*
X33658Y-30300D01*
X33658Y-30300D02*
X33608Y-30345D01*
X33608Y-30345D02*
X33608Y-30656D01*
X33608Y-30656D02*
X33658Y-30700D01*
X33658Y-30700D02*
X33908Y-30700D01*
X33908Y-30700D02*
X33958Y-30656D01*
X33958Y-30656D02*
X33958Y-30523D01*
X33958Y-30523D02*
X33908Y-30478D01*
X33908Y-30478D02*
X33658Y-30478D01*
X33658Y-30478D02*
X33608Y-30523D01*
X40584Y-40700D02*
X40584Y-40300D01*
X40584Y-40300D02*
X40884Y-40300D01*
X40884Y-40300D02*
X40934Y-40345D01*
X40934Y-40345D02*
X40934Y-40478D01*
X40934Y-40478D02*
X40884Y-40523D01*
X40884Y-40523D02*
X40584Y-40523D01*
X41108Y-40300D02*
X41458Y-40300D01*
X41458Y-40300D02*
X41458Y-40345D01*
X41458Y-40345D02*
X41258Y-40478D01*
X41258Y-40478D02*
X41408Y-40478D01*
X41408Y-40478D02*
X41458Y-40523D01*
X41458Y-40523D02*
X41458Y-40656D01*
X41458Y-40656D02*
X41408Y-40700D01*
X41408Y-40700D02*
X41158Y-40700D01*
X41158Y-40700D02*
X41108Y-40656D01*
X29497Y-49275D02*
X29497Y-48725D01*
X29497Y-48725D02*
X29872Y-48725D01*
X29872Y-48725D02*
X29935Y-48787D01*
X29935Y-48787D02*
X29935Y-48970D01*
X29935Y-48970D02*
X29872Y-49031D01*
X29872Y-49031D02*
X29497Y-49031D01*
X29685Y-49031D02*
X29935Y-49275D01*
X30257Y-49275D02*
X30507Y-49275D01*
X30382Y-49275D02*
X30382Y-48725D01*
X30382Y-48787D02*
X30257Y-48909D01*
X36997Y-45775D02*
X36997Y-45225D01*
X36997Y-45225D02*
X37372Y-45225D01*
X37372Y-45225D02*
X37435Y-45287D01*
X37435Y-45287D02*
X37435Y-45470D01*
X37435Y-45470D02*
X37372Y-45531D01*
X37372Y-45531D02*
X36997Y-45531D01*
X37185Y-45531D02*
X37435Y-45775D01*
X38070Y-45775D02*
X37632Y-45775D01*
X37632Y-45775D02*
X37632Y-45592D01*
X37632Y-45592D02*
X37695Y-45531D01*
X37695Y-45531D02*
X38007Y-45531D01*
X38007Y-45531D02*
X38070Y-45470D01*
X38070Y-45470D02*
X38070Y-45287D01*
X38070Y-45287D02*
X38007Y-45225D01*
X38007Y-45225D02*
X37695Y-45225D01*
X37695Y-45225D02*
X37632Y-45287D01*
X61775Y-40820D02*
X61225Y-40820D01*
X61225Y-40820D02*
X61225Y-40445D01*
X61225Y-40445D02*
X61287Y-40382D01*
X61287Y-40382D02*
X61470Y-40382D01*
X61470Y-40382D02*
X61531Y-40445D01*
X61531Y-40445D02*
X61531Y-40820D01*
X61531Y-40632D02*
X61775Y-40382D01*
X61775Y-40060D02*
X61775Y-39810D01*
X61775Y-39935D02*
X61225Y-39935D01*
X61287Y-39935D02*
X61409Y-40060D01*
X61775Y-39237D02*
X61225Y-39237D01*
X61225Y-39237D02*
X61653Y-39550D01*
X61653Y-39550D02*
X61653Y-39112D01*
X63180Y-38775D02*
X63180Y-38225D01*
X63180Y-38225D02*
X63555Y-38225D01*
X63555Y-38225D02*
X63618Y-38287D01*
X63618Y-38287D02*
X63618Y-38470D01*
X63618Y-38470D02*
X63555Y-38531D01*
X63555Y-38531D02*
X63180Y-38531D01*
X63368Y-38531D02*
X63618Y-38775D01*
X63940Y-38775D02*
X64190Y-38775D01*
X64065Y-38775D02*
X64065Y-38225D01*
X64065Y-38287D02*
X63940Y-38409D01*
X64450Y-38225D02*
X64888Y-38225D01*
X64888Y-38225D02*
X64888Y-38287D01*
X64888Y-38287D02*
X64638Y-38470D01*
X64638Y-38470D02*
X64825Y-38470D01*
X64825Y-38470D02*
X64888Y-38531D01*
X64888Y-38531D02*
X64888Y-38714D01*
X64888Y-38714D02*
X64825Y-38775D01*
X64825Y-38775D02*
X64513Y-38775D01*
X64513Y-38775D02*
X64450Y-38714D01*
X40997Y-43775D02*
X40997Y-43225D01*
X40997Y-43225D02*
X41372Y-43225D01*
X41372Y-43225D02*
X41435Y-43287D01*
X41435Y-43287D02*
X41435Y-43470D01*
X41435Y-43470D02*
X41372Y-43531D01*
X41372Y-43531D02*
X40997Y-43531D01*
X41185Y-43531D02*
X41435Y-43775D01*
X41632Y-43225D02*
X42070Y-43225D01*
X42070Y-43225D02*
X42070Y-43287D01*
X42070Y-43287D02*
X41820Y-43470D01*
X41820Y-43470D02*
X42007Y-43470D01*
X42007Y-43470D02*
X42070Y-43531D01*
X42070Y-43531D02*
X42070Y-43714D01*
X42070Y-43714D02*
X42007Y-43775D01*
X42007Y-43775D02*
X41695Y-43775D01*
X41695Y-43775D02*
X41632Y-43714D01*
X34775Y-47003D02*
X34225Y-47003D01*
X34225Y-47003D02*
X34225Y-46628D01*
X34225Y-46628D02*
X34287Y-46565D01*
X34287Y-46565D02*
X34470Y-46565D01*
X34470Y-46565D02*
X34531Y-46628D01*
X34531Y-46628D02*
X34531Y-47003D01*
X34531Y-46815D02*
X34775Y-46565D01*
X34775Y-46055D02*
X34225Y-46055D01*
X34225Y-46055D02*
X34653Y-46368D01*
X34653Y-46368D02*
X34653Y-45930D01*
X42997Y-42775D02*
X42997Y-42225D01*
X42997Y-42225D02*
X43372Y-42225D01*
X43372Y-42225D02*
X43435Y-42287D01*
X43435Y-42287D02*
X43435Y-42470D01*
X43435Y-42470D02*
X43372Y-42531D01*
X43372Y-42531D02*
X42997Y-42531D01*
X43185Y-42531D02*
X43435Y-42775D01*
X43632Y-42653D02*
X43632Y-42714D01*
X43632Y-42714D02*
X43695Y-42775D01*
X43695Y-42775D02*
X44007Y-42775D01*
X44007Y-42775D02*
X44070Y-42714D01*
X44070Y-42714D02*
X44070Y-42531D01*
X44070Y-42531D02*
X43945Y-42409D01*
X43945Y-42409D02*
X43632Y-42409D01*
X43632Y-42409D02*
X43632Y-42225D01*
X43632Y-42225D02*
X44070Y-42225D01*
X30997Y-42775D02*
X30997Y-42225D01*
X30997Y-42225D02*
X31372Y-42225D01*
X31372Y-42225D02*
X31435Y-42287D01*
X31435Y-42287D02*
X31435Y-42470D01*
X31435Y-42470D02*
X31372Y-42531D01*
X31372Y-42531D02*
X30997Y-42531D01*
X31185Y-42531D02*
X31435Y-42775D01*
X32070Y-42287D02*
X32007Y-42225D01*
X32007Y-42225D02*
X31695Y-42225D01*
X31695Y-42225D02*
X31632Y-42287D01*
X31632Y-42287D02*
X31632Y-42714D01*
X31632Y-42714D02*
X31695Y-42775D01*
X31695Y-42775D02*
X32007Y-42775D01*
X32007Y-42775D02*
X32070Y-42714D01*
X32070Y-42714D02*
X32070Y-42531D01*
X32070Y-42531D02*
X32007Y-42470D01*
X32007Y-42470D02*
X31695Y-42470D01*
X31695Y-42470D02*
X31632Y-42531D01*
X31497Y-33275D02*
X31497Y-32725D01*
X31497Y-32725D02*
X31872Y-32725D01*
X31872Y-32725D02*
X31935Y-32787D01*
X31935Y-32787D02*
X31935Y-32970D01*
X31935Y-32970D02*
X31872Y-33031D01*
X31872Y-33031D02*
X31497Y-33031D01*
X31685Y-33031D02*
X31935Y-33275D01*
X32132Y-32725D02*
X32570Y-32725D01*
X32570Y-32725D02*
X32132Y-33275D01*
X40997Y-44775D02*
X40997Y-44225D01*
X40997Y-44225D02*
X41372Y-44225D01*
X41372Y-44225D02*
X41435Y-44287D01*
X41435Y-44287D02*
X41435Y-44470D01*
X41435Y-44470D02*
X41372Y-44531D01*
X41372Y-44531D02*
X40997Y-44531D01*
X41185Y-44531D02*
X41435Y-44775D01*
X41695Y-44775D02*
X41632Y-44714D01*
X41632Y-44714D02*
X41632Y-44531D01*
X41632Y-44531D02*
X41695Y-44470D01*
X41695Y-44470D02*
X42007Y-44470D01*
X42007Y-44470D02*
X42070Y-44409D01*
X42070Y-44409D02*
X42070Y-44287D01*
X42070Y-44287D02*
X42007Y-44225D01*
X42007Y-44225D02*
X41695Y-44225D01*
X41695Y-44225D02*
X41632Y-44287D01*
X41632Y-44287D02*
X41632Y-44409D01*
X41632Y-44409D02*
X41695Y-44470D01*
X42007Y-44470D02*
X42070Y-44531D01*
X42070Y-44531D02*
X42070Y-44714D01*
X42070Y-44714D02*
X42007Y-44775D01*
X42007Y-44775D02*
X41695Y-44775D01*
X52275Y-44503D02*
X51725Y-44503D01*
X51725Y-44503D02*
X51725Y-44128D01*
X51725Y-44128D02*
X51787Y-44065D01*
X51787Y-44065D02*
X51970Y-44065D01*
X51970Y-44065D02*
X52031Y-44128D01*
X52031Y-44128D02*
X52031Y-44503D01*
X52031Y-44315D02*
X52275Y-44065D01*
X52275Y-43805D02*
X52275Y-43493D01*
X52275Y-43493D02*
X52214Y-43430D01*
X52214Y-43430D02*
X51787Y-43430D01*
X51787Y-43430D02*
X51725Y-43493D01*
X51725Y-43493D02*
X51725Y-43805D01*
X51725Y-43805D02*
X51787Y-43868D01*
X51787Y-43868D02*
X51970Y-43868D01*
X51970Y-43868D02*
X52031Y-43805D01*
X52031Y-43805D02*
X52031Y-43493D01*
X52031Y-43493D02*
X51970Y-43430D01*
X52680Y-32775D02*
X52680Y-32225D01*
X52680Y-32225D02*
X53055Y-32225D01*
X53055Y-32225D02*
X53118Y-32287D01*
X53118Y-32287D02*
X53118Y-32470D01*
X53118Y-32470D02*
X53055Y-32531D01*
X53055Y-32531D02*
X52680Y-32531D01*
X52868Y-32531D02*
X53118Y-32775D01*
X53440Y-32775D02*
X53690Y-32775D01*
X53565Y-32775D02*
X53565Y-32225D01*
X53565Y-32287D02*
X53440Y-32409D01*
X53950Y-32775D02*
X54388Y-32225D01*
X53950Y-32714D02*
X53950Y-32287D01*
X53950Y-32287D02*
X54013Y-32225D01*
X54013Y-32225D02*
X54325Y-32225D01*
X54325Y-32225D02*
X54388Y-32287D01*
X54388Y-32287D02*
X54388Y-32714D01*
X54388Y-32714D02*
X54325Y-32775D01*
X54325Y-32775D02*
X54013Y-32775D01*
X54013Y-32775D02*
X53950Y-32714D01*
X36680Y-44775D02*
X36680Y-44225D01*
X36680Y-44225D02*
X37055Y-44225D01*
X37055Y-44225D02*
X37118Y-44287D01*
X37118Y-44287D02*
X37118Y-44470D01*
X37118Y-44470D02*
X37055Y-44531D01*
X37055Y-44531D02*
X36680Y-44531D01*
X36868Y-44531D02*
X37118Y-44775D01*
X37440Y-44775D02*
X37690Y-44775D01*
X37565Y-44775D02*
X37565Y-44225D01*
X37565Y-44287D02*
X37440Y-44409D01*
X38075Y-44775D02*
X38325Y-44775D01*
X38200Y-44775D02*
X38200Y-44225D01*
X38200Y-44287D02*
X38075Y-44409D01*
X63180Y-41275D02*
X63180Y-40725D01*
X63180Y-40725D02*
X63555Y-40725D01*
X63555Y-40725D02*
X63618Y-40787D01*
X63618Y-40787D02*
X63618Y-40970D01*
X63618Y-40970D02*
X63555Y-41031D01*
X63555Y-41031D02*
X63180Y-41031D01*
X63368Y-41031D02*
X63618Y-41275D01*
X63940Y-41275D02*
X64190Y-41275D01*
X64065Y-41275D02*
X64065Y-40725D01*
X64065Y-40787D02*
X63940Y-40909D01*
X64888Y-41275D02*
X64450Y-41275D01*
X64450Y-41275D02*
X64450Y-41092D01*
X64450Y-41092D02*
X64513Y-41031D01*
X64513Y-41031D02*
X64825Y-41031D01*
X64825Y-41031D02*
X64888Y-40970D01*
X64888Y-40970D02*
X64888Y-40787D01*
X64888Y-40787D02*
X64825Y-40725D01*
X64825Y-40725D02*
X64513Y-40725D01*
X64513Y-40725D02*
X64450Y-40787D01*
G54D10*
X29841Y-46976D02*
X29158Y-46976D01*
X29158Y-46976D02*
X29158Y-46655D01*
X29158Y-46655D02*
X29234Y-46601D01*
X29234Y-46601D02*
X29462Y-46601D01*
X29462Y-46601D02*
X29538Y-46655D01*
X29538Y-46655D02*
X29538Y-46976D01*
X29841Y-46113D02*
X29158Y-46113D01*
X29158Y-46113D02*
X29690Y-46381D01*
X29690Y-46381D02*
X29690Y-46006D01*
G54D29*
X43872Y-46550D02*
X44072Y-46550D01*
X43972Y-46550D02*
X43972Y-45950D01*
X43872Y-45950D02*
X44072Y-45950D01*
X44696Y-46484D02*
X44646Y-46550D01*
X44646Y-46550D02*
X44396Y-46550D01*
X44396Y-46550D02*
X44346Y-46484D01*
X44346Y-46484D02*
X44346Y-46017D01*
X44346Y-46017D02*
X44396Y-45950D01*
X44396Y-45950D02*
X44646Y-45950D01*
X44646Y-45950D02*
X44696Y-46017D01*
X44970Y-46550D02*
X45170Y-46550D01*
X45070Y-46550D02*
X45070Y-45950D01*
X45070Y-46017D02*
X44970Y-46150D01*
X46700Y-49738D02*
X46700Y-49388D01*
X46700Y-49388D02*
X47300Y-49738D01*
X47300Y-49164D02*
X47234Y-49214D01*
X47234Y-49214D02*
X47034Y-49214D01*
X47034Y-49214D02*
X46967Y-49164D01*
X46967Y-49164D02*
X46967Y-48914D01*
X46967Y-48914D02*
X46900Y-48864D01*
X46900Y-48864D02*
X46767Y-48864D01*
X46767Y-48864D02*
X46700Y-48914D01*
X46700Y-48914D02*
X46700Y-49164D01*
X46700Y-49164D02*
X46767Y-49214D01*
X46767Y-49214D02*
X46900Y-49214D01*
X46900Y-49214D02*
X46967Y-49164D01*
X46967Y-48914D02*
X47034Y-48864D01*
X47034Y-48864D02*
X47234Y-48864D01*
X47234Y-48864D02*
X47300Y-48914D01*
X47300Y-48914D02*
X47300Y-49164D01*
X47300Y-48690D02*
X46700Y-48340D01*
X46700Y-48690D02*
X47300Y-48340D01*
X47300Y-48166D02*
X46700Y-47816D01*
X46700Y-48166D02*
X47300Y-47816D01*
X47300Y-47592D02*
X46700Y-47392D01*
X46700Y-47118D02*
X46700Y-46718D01*
X46700Y-46918D02*
X47300Y-46918D01*
X47300Y-46544D02*
X47234Y-46594D01*
X47234Y-46594D02*
X46767Y-46594D01*
X46767Y-46594D02*
X46700Y-46544D01*
X46700Y-46544D02*
X46700Y-46294D01*
X46700Y-46294D02*
X46767Y-46244D01*
X46767Y-46244D02*
X47234Y-46244D01*
X47234Y-46244D02*
X47300Y-46294D01*
X47300Y-46294D02*
X47300Y-46544D01*
X46700Y-46070D02*
X46700Y-45720D01*
X46700Y-45720D02*
X46767Y-45720D01*
X46767Y-45720D02*
X46967Y-45920D01*
X46967Y-45920D02*
X46967Y-45770D01*
X46967Y-45770D02*
X47034Y-45720D01*
X47034Y-45720D02*
X47234Y-45720D01*
X47234Y-45720D02*
X47300Y-45770D01*
X47300Y-45770D02*
X47300Y-46020D01*
X47300Y-46020D02*
X47234Y-46070D01*
X49872Y-49050D02*
X50072Y-49050D01*
X49972Y-49050D02*
X49972Y-48450D01*
X49872Y-48450D02*
X50072Y-48450D01*
X50696Y-48984D02*
X50646Y-49050D01*
X50646Y-49050D02*
X50396Y-49050D01*
X50396Y-49050D02*
X50346Y-48984D01*
X50346Y-48984D02*
X50346Y-48517D01*
X50346Y-48517D02*
X50396Y-48450D01*
X50396Y-48450D02*
X50646Y-48450D01*
X50646Y-48450D02*
X50696Y-48517D01*
X51220Y-49050D02*
X50870Y-49050D01*
X50870Y-49050D02*
X50870Y-48850D01*
X50870Y-48850D02*
X50920Y-48784D01*
X50920Y-48784D02*
X51170Y-48784D01*
X51170Y-48784D02*
X51220Y-48717D01*
X51220Y-48717D02*
X51220Y-48517D01*
X51220Y-48517D02*
X51170Y-48450D01*
X51170Y-48450D02*
X50920Y-48450D01*
X50920Y-48450D02*
X50870Y-48517D01*
X47700Y-49238D02*
X47700Y-48888D01*
X47700Y-48888D02*
X48300Y-49238D01*
X48300Y-48664D02*
X48300Y-48414D01*
X48300Y-48414D02*
X48234Y-48364D01*
X48234Y-48364D02*
X47767Y-48364D01*
X47767Y-48364D02*
X47700Y-48414D01*
X47700Y-48414D02*
X47700Y-48664D01*
X47700Y-48664D02*
X47767Y-48714D01*
X47767Y-48714D02*
X47967Y-48714D01*
X47967Y-48714D02*
X48034Y-48664D01*
X48034Y-48664D02*
X48034Y-48414D01*
X48034Y-48414D02*
X47967Y-48364D01*
X48300Y-48190D02*
X47700Y-47840D01*
X47700Y-48190D02*
X48300Y-47840D01*
X48300Y-47666D02*
X47700Y-47316D01*
X47700Y-47666D02*
X48300Y-47316D01*
X48034Y-47092D02*
X48034Y-46842D01*
X47700Y-46618D02*
X47700Y-46218D01*
X47700Y-46418D02*
X48300Y-46418D01*
X48300Y-46044D02*
X48234Y-46094D01*
X48234Y-46094D02*
X47767Y-46094D01*
X47767Y-46094D02*
X47700Y-46044D01*
X47700Y-46044D02*
X47700Y-45794D01*
X47700Y-45794D02*
X47767Y-45744D01*
X47767Y-45744D02*
X48234Y-45744D01*
X48234Y-45744D02*
X48300Y-45794D01*
X48300Y-45794D02*
X48300Y-46044D01*
X47700Y-45570D02*
X47700Y-45220D01*
X47700Y-45220D02*
X47767Y-45220D01*
X47767Y-45220D02*
X47967Y-45420D01*
X47967Y-45420D02*
X47967Y-45270D01*
X47967Y-45270D02*
X48034Y-45220D01*
X48034Y-45220D02*
X48234Y-45220D01*
X48234Y-45220D02*
X48300Y-45270D01*
X48300Y-45270D02*
X48300Y-45520D01*
X48300Y-45520D02*
X48234Y-45570D01*
X39372Y-48700D02*
X39572Y-48700D01*
X39472Y-48700D02*
X39472Y-48300D01*
X39372Y-48300D02*
X39572Y-48300D01*
X40196Y-48656D02*
X40146Y-48700D01*
X40146Y-48700D02*
X39896Y-48700D01*
X39896Y-48700D02*
X39846Y-48656D01*
X39846Y-48656D02*
X39846Y-48345D01*
X39846Y-48345D02*
X39896Y-48300D01*
X39896Y-48300D02*
X40146Y-48300D01*
X40146Y-48300D02*
X40196Y-48345D01*
X40620Y-48700D02*
X40620Y-48300D01*
X40620Y-48300D02*
X40370Y-48612D01*
X40370Y-48612D02*
X40720Y-48612D01*
X38012Y-44800D02*
X38012Y-45200D01*
X38012Y-45200D02*
X38412Y-45200D01*
X38536Y-44800D02*
X38936Y-44800D01*
X38736Y-44800D02*
X38736Y-45200D01*
X39160Y-45200D02*
X39360Y-45200D01*
X39260Y-45200D02*
X39260Y-44800D01*
X39260Y-44845D02*
X39160Y-44934D01*
X39584Y-45200D02*
X39934Y-44800D01*
X39584Y-45156D02*
X39584Y-44845D01*
X39584Y-44845D02*
X39634Y-44800D01*
X39634Y-44800D02*
X39884Y-44800D01*
X39884Y-44800D02*
X39934Y-44845D01*
X39934Y-44845D02*
X39934Y-45156D01*
X39934Y-45156D02*
X39884Y-45200D01*
X39884Y-45200D02*
X39634Y-45200D01*
X39634Y-45200D02*
X39584Y-45156D01*
X40108Y-45200D02*
X40458Y-44800D01*
X40108Y-45156D02*
X40108Y-44845D01*
X40108Y-44845D02*
X40158Y-44800D01*
X40158Y-44800D02*
X40408Y-44800D01*
X40408Y-44800D02*
X40458Y-44845D01*
X40458Y-44845D02*
X40458Y-45156D01*
X40458Y-45156D02*
X40408Y-45200D01*
X40408Y-45200D02*
X40158Y-45200D01*
X40158Y-45200D02*
X40108Y-45156D01*
X40682Y-45200D02*
X40932Y-45200D01*
X40932Y-45200D02*
X40982Y-45156D01*
X40982Y-45156D02*
X40982Y-44845D01*
X40982Y-44845D02*
X40932Y-44800D01*
X40932Y-44800D02*
X40682Y-44800D01*
X40682Y-44800D02*
X40632Y-44845D01*
X40632Y-44845D02*
X40632Y-44978D01*
X40632Y-44978D02*
X40682Y-45023D01*
X40682Y-45023D02*
X40932Y-45023D01*
X40932Y-45023D02*
X40982Y-44978D01*
X41506Y-45156D02*
X41456Y-45200D01*
X41456Y-45200D02*
X41206Y-45200D01*
X41206Y-45200D02*
X41156Y-45156D01*
X41156Y-45156D02*
X41156Y-44845D01*
X41156Y-44845D02*
X41206Y-44800D01*
X41206Y-44800D02*
X41456Y-44800D01*
X41456Y-44800D02*
X41506Y-44845D01*
X41680Y-44800D02*
X42030Y-44800D01*
X42030Y-44800D02*
X41680Y-45200D01*
X41680Y-45200D02*
X42030Y-45200D01*
M02*
