M48
;DRILL file {PCBnew (20080825c)} date 29/9/2009-04:46:22
;FORMAT={-.-/ absolute / metric / decimal}
R,T
VER,1
FMAT,2
METRIC,TZ
TCST,OFF
ICI,OFF
ATC,ON
T1C0.635
T2C0.813
T3C1.016
T4C1.524
%
M47
G05
M71
T1
X179.070Y96.520
X179.070Y109.220
X182.880Y106.680
X182.880Y111.760
X194.310Y91.440
X194.310Y96.520
X195.580Y115.570
X200.660Y115.570
T2
X161.290Y104.140
X163.830Y104.140
X165.100Y96.520
X165.100Y99.060
X167.640Y119.380
X167.640Y127.000
X170.180Y119.380
X170.180Y127.000
X170.180Y130.810
X172.720Y115.570
X172.720Y119.380
X172.720Y127.000
X175.260Y119.380
X175.260Y127.000
X177.800Y119.380
X177.800Y127.000
X177.800Y130.810
X180.340Y115.570
X180.340Y119.380
X180.340Y127.000
X182.880Y101.600
X182.880Y104.140
X182.880Y119.380
X182.880Y127.000
X182.880Y130.810
X182.880Y133.350
X185.420Y113.030
X185.420Y115.570
X189.230Y119.380
X189.230Y127.000
X190.500Y130.810
X190.500Y133.350
X191.770Y113.030
X191.770Y115.570
X191.770Y119.380
X191.770Y127.000
X193.040Y110.490
X194.310Y119.380
X194.310Y127.000
X196.850Y119.380
X196.850Y127.000
X198.120Y113.030
X199.390Y119.380
X199.390Y127.000
X200.660Y110.490
X201.930Y119.380
X201.930Y127.000
X204.470Y115.570
X204.470Y119.380
X204.470Y127.000
X204.470Y130.810
X205.740Y113.030
X207.010Y101.600
X207.010Y104.140
X207.010Y115.570
X207.010Y119.380
X207.010Y127.000
X207.010Y130.810
T3
X186.228Y105.588
X187.930Y100.533
X189.631Y105.588
X191.333Y100.533
X193.035Y105.588
X194.734Y100.533
X196.436Y105.588
X198.138Y100.533
X199.840Y105.588
X201.541Y100.533
X203.243Y105.588
T4
X162.560Y110.490
X165.100Y134.620
X165.100Y139.700
X167.640Y110.490
X172.720Y93.980
X172.720Y99.060
X172.720Y110.490
X172.720Y138.430
X177.800Y138.430
X184.150Y138.430
X189.230Y138.430
X194.310Y138.430
X200.660Y138.430
X205.740Y138.430
X210.820Y138.430
T0
M30
