G04 (Genere par PCBNEW (2007-11-29-a)) le 11/9/2008-05:59:57*
G01*
G70*
G90*
%MOIN*%
G04 Gerber Fmt 3.4, Leading zero omitted, Abs format*
%FSLAX34Y34*%
G04 APERTURE LIST*
%ADD10R,0.060000X0.060000*%
%ADD11C,0.012000*%
%ADD12R,0.060000X0.060000*%
%ADD13C,0.060000*%
%ADD14C,0.055000*%
%ADD15R,0.062000X0.090000*%
%ADD16O,0.062000X0.090000*%
%ADD17R,0.090000X0.062000*%
%ADD18O,0.090000X0.062000*%
%ADD19R,0.055000X0.055000*%
%ADD20C,0.070000*%
%ADD21R,0.070000X0.070000*%
%ADD22C,0.045000*%
%ADD23C,0.029500*%
%ADD24C,0.017000*%
%ADD25C,0.015000*%
%ADD26C,0.005000*%
%ADD27C,0.006000*%
%ADD28C,0.001000*%
%ADD29C,0.008000*%
G04 APERTURE END LIST*
G54D10*
X32500Y-41500D03*
G54D13*
X31500Y-41500D03*
X32500Y-40500D03*
X31500Y-40500D03*
X32500Y-39500D03*
X31500Y-39500D03*
X32500Y-38500D03*
X31500Y-38500D03*
X32500Y-37500D03*
X31500Y-37500D03*
X32500Y-36500D03*
X31500Y-36500D03*
X32500Y-35500D03*
X31500Y-35500D03*
X32500Y-34500D03*
X31500Y-34500D03*
G54D14*
X35000Y-44000D03*
X35000Y-42000D03*
X35000Y-43000D03*
G54D15*
X43000Y-29000D03*
G54D16*
X44000Y-29000D03*
X45000Y-29000D03*
X46000Y-29000D03*
X47000Y-29000D03*
X48000Y-29000D03*
X49000Y-29000D03*
X50000Y-29000D03*
X50000Y-26000D03*
X49000Y-26000D03*
X48000Y-26000D03*
X47000Y-26000D03*
X46000Y-26000D03*
X45000Y-26000D03*
X44000Y-26000D03*
X43000Y-26000D03*
G54D17*
X57500Y-31500D03*
G54D18*
X57500Y-32500D03*
X57500Y-33500D03*
X57500Y-34500D03*
X57500Y-35500D03*
X57500Y-36500D03*
X57500Y-37500D03*
X57500Y-38500D03*
X57500Y-39500D03*
X60500Y-39500D03*
X60500Y-38500D03*
X60500Y-37500D03*
X60500Y-36500D03*
X60500Y-35500D03*
X60500Y-34500D03*
X60500Y-33500D03*
X60500Y-32500D03*
X60500Y-31500D03*
G54D15*
X35000Y-40000D03*
G54D16*
X36000Y-40000D03*
X37000Y-40000D03*
X38000Y-40000D03*
X39000Y-40000D03*
X40000Y-40000D03*
X41000Y-40000D03*
X42000Y-40000D03*
X43000Y-40000D03*
X44000Y-40000D03*
X45000Y-40000D03*
X46000Y-40000D03*
X47000Y-40000D03*
X48000Y-40000D03*
X49000Y-40000D03*
X50000Y-40000D03*
X51000Y-40000D03*
X52000Y-40000D03*
X53000Y-40000D03*
X54000Y-40000D03*
X54000Y-34000D03*
X53000Y-34000D03*
X52000Y-34000D03*
X51000Y-34000D03*
X50000Y-34000D03*
X49000Y-34000D03*
X48000Y-34000D03*
X47000Y-34000D03*
X46000Y-34000D03*
X45000Y-34000D03*
X44000Y-34000D03*
X43000Y-34000D03*
X42000Y-34000D03*
X41000Y-34000D03*
X40000Y-34000D03*
X39000Y-34000D03*
X38000Y-34000D03*
X37000Y-34000D03*
X36000Y-34000D03*
X35000Y-34000D03*
G54D17*
X56500Y-46000D03*
G54D18*
X56500Y-45000D03*
X56500Y-44000D03*
X56500Y-43000D03*
X53500Y-43000D03*
X53500Y-44000D03*
X53500Y-45000D03*
X53500Y-46000D03*
G54D17*
X30000Y-44000D03*
G54D18*
X30000Y-45000D03*
X30000Y-46000D03*
X30000Y-47000D03*
X33000Y-47000D03*
X33000Y-46000D03*
X33000Y-45000D03*
X33000Y-44000D03*
G54D14*
X65000Y-32500D03*
X65000Y-33500D03*
X65000Y-36000D03*
X65000Y-35000D03*
X50000Y-44000D03*
X50000Y-45000D03*
X48000Y-44000D03*
X48000Y-45000D03*
X36500Y-42500D03*
X37500Y-42500D03*
G54D19*
X58000Y-45000D03*
G54D14*
X58000Y-46000D03*
G54D19*
X44000Y-31000D03*
G54D14*
X45000Y-31000D03*
G54D19*
X46500Y-31000D03*
G54D14*
X47500Y-31000D03*
G54D19*
X37000Y-47000D03*
G54D14*
X37000Y-48000D03*
G54D19*
X52500Y-50000D03*
G54D14*
X52500Y-49000D03*
G54D19*
X42000Y-30500D03*
G54D14*
X42000Y-31500D03*
G54D19*
X52000Y-27500D03*
G54D14*
X52000Y-28500D03*
G54D19*
X45000Y-44000D03*
G54D14*
X44000Y-44000D03*
G54D19*
X34000Y-31000D03*
G54D14*
X31000Y-31000D03*
G54D20*
X47500Y-42000D03*
X49500Y-42000D03*
X62000Y-35500D03*
X62000Y-33500D03*
G54D10*
X45500Y-46000D03*
G54D13*
X44500Y-46000D03*
G54D10*
X49500Y-49500D03*
G54D13*
X50500Y-49500D03*
G54D10*
X40500Y-26000D03*
G54D13*
X40500Y-27000D03*
X40500Y-28000D03*
G54D10*
X63500Y-42500D03*
G54D13*
X64500Y-42500D03*
X65500Y-42500D03*
G54D10*
X63500Y-40000D03*
G54D13*
X64500Y-40000D03*
X65500Y-40000D03*
G54D10*
X63500Y-37500D03*
G54D13*
X64500Y-37500D03*
X65500Y-37500D03*
G54D10*
X35500Y-32000D03*
G54D13*
X34500Y-32000D03*
X33500Y-32000D03*
X32500Y-32000D03*
X31500Y-32000D03*
G54D10*
X35500Y-29500D03*
G54D13*
X34500Y-29500D03*
X33500Y-29500D03*
X32500Y-29500D03*
X31500Y-29500D03*
G54D10*
X39000Y-41500D03*
G54D13*
X40000Y-41500D03*
X41000Y-41500D03*
X42000Y-41500D03*
X43000Y-41500D03*
G54D14*
X31500Y-49000D03*
X28500Y-49000D03*
X36000Y-45500D03*
X39000Y-45500D03*
X61500Y-41500D03*
X61500Y-38500D03*
X65500Y-38500D03*
X62500Y-38500D03*
X43000Y-43500D03*
X40000Y-43500D03*
X34500Y-45000D03*
X34500Y-48000D03*
X45000Y-42500D03*
X42000Y-42500D03*
X33000Y-42500D03*
X30000Y-42500D03*
X33500Y-33000D03*
X30500Y-33000D03*
X40000Y-44500D03*
X43000Y-44500D03*
X52000Y-45500D03*
X52000Y-42500D03*
X55000Y-32500D03*
X52000Y-32500D03*
X36000Y-44500D03*
X39000Y-44500D03*
X65500Y-41000D03*
X62500Y-41000D03*
G54D19*
X28500Y-45000D03*
G54D14*
X28500Y-46000D03*
X28500Y-47000D03*
X28500Y-48000D03*
G54D20*
X45500Y-47500D03*
X44500Y-47500D03*
G54D21*
X43500Y-47500D03*
G54D20*
X49500Y-47500D03*
X50500Y-47500D03*
G54D21*
X51500Y-47500D03*
G54D19*
X41000Y-46500D03*
G54D14*
X40000Y-46500D03*
X40000Y-47500D03*
G54D22*
X59000Y-39500D03*
X59000Y-42500D03*
X54500Y-46500D03*
X54500Y-48500D03*
X30000Y-31000D03*
X30000Y-24500D03*
X34500Y-41500D03*
X37500Y-41500D03*
X61500Y-49500D03*
X61500Y-43000D03*
X57000Y-30500D03*
X51500Y-30500D03*
X45500Y-33000D03*
X43500Y-33000D03*
X61500Y-37500D03*
X61500Y-36000D03*
X35500Y-49000D03*
X43500Y-49000D03*
X29500Y-41000D03*
X29500Y-35000D03*
X41500Y-39000D03*
X41500Y-37500D03*
X50000Y-35000D03*
X36000Y-35000D03*
X35500Y-41000D03*
X37000Y-41000D03*
X33500Y-50500D03*
X30500Y-35500D03*
X30500Y-42000D03*
X33500Y-41000D03*
X37000Y-43000D03*
X39500Y-43000D03*
X53000Y-26500D03*
X55500Y-26500D03*
X59500Y-42000D03*
X59500Y-39000D03*
X58500Y-41500D03*
X58500Y-40000D03*
X36500Y-39000D03*
X36500Y-35500D03*
X34000Y-46000D03*
X34000Y-43500D03*
X42500Y-49500D03*
X35000Y-49500D03*
X38000Y-43500D03*
X39000Y-43500D03*
X38500Y-47000D03*
X38500Y-48500D03*
X47000Y-49500D03*
X47000Y-48500D03*
X51000Y-46500D03*
X51000Y-44000D03*
X51500Y-44500D03*
X51500Y-46000D03*
X46500Y-47000D03*
X42000Y-47000D03*
X52000Y-39000D03*
X52000Y-35000D03*
G54D23*
X59000Y-39500D02*
X59000Y-42500D01*
X54500Y-48500D02*
X54500Y-46500D01*
X30000Y-24500D02*
X30000Y-31000D01*
X37500Y-41500D02*
X34500Y-41500D01*
X61500Y-43000D02*
X61500Y-49500D01*
X57000Y-30500D02*
X51500Y-30500D01*
X45500Y-33000D02*
X43500Y-33000D01*
X61500Y-36000D02*
X61500Y-37500D01*
X35500Y-49000D02*
X43500Y-49000D01*
X29500Y-35000D02*
X29500Y-41000D01*
X41500Y-37500D02*
X41500Y-39000D01*
X50000Y-35000D02*
X36500Y-35000D01*
X36500Y-35000D02*
X36000Y-35000D01*
X37000Y-41000D02*
X35500Y-41000D01*
G54D24*
X33500Y-41000D02*
X33500Y-50500D01*
G54D23*
X30500Y-42000D02*
X30500Y-35500D01*
X39500Y-43000D02*
X37000Y-43000D01*
X55500Y-26500D02*
X53000Y-26500D01*
X59500Y-39000D02*
X59500Y-42000D01*
X58500Y-40000D02*
X58500Y-41500D01*
X36500Y-35500D02*
X36500Y-39000D01*
X34000Y-43500D02*
X34000Y-46000D01*
X35000Y-49500D02*
X42500Y-49500D01*
X38000Y-43500D02*
X39000Y-43500D01*
X38500Y-48500D02*
X38500Y-47000D01*
X47000Y-48500D02*
X47000Y-49500D01*
X51000Y-44000D02*
X51000Y-46500D01*
X51500Y-46000D02*
X51500Y-44500D01*
G54D24*
X46500Y-47000D02*
X42000Y-47000D01*
G54D23*
X52000Y-35000D02*
X52000Y-39000D01*
M02*
