<?xml version="1.0" encoding="UTF-8" standalone="no"?>
<!-- Created with Inkscape (http://www.inkscape.org/) -->

<svg
   xmlns:dc="http://purl.org/dc/elements/1.1/"
   xmlns:cc="http://creativecommons.org/ns#"
   xmlns:rdf="http://www.w3.org/1999/02/22-rdf-syntax-ns#"
   xmlns:svg="http://www.w3.org/2000/svg"
   xmlns="http://www.w3.org/2000/svg"
   xmlns:sodipodi="http://sodipodi.sourceforge.net/DTD/sodipodi-0.dtd"
   xmlns:inkscape="http://www.inkscape.org/namespaces/inkscape"
   width="210mm"
   height="297mm"
   id="svg2"
   version="1.1"
   inkscape:version="0.47 r22583"
   sodipodi:docname="Documento nuevo 1">
  <defs
     id="defs4">
    <inkscape:perspective
       sodipodi:type="inkscape:persp3d"
       inkscape:vp_x="0 : 526.18109 : 1"
       inkscape:vp_y="0 : 1000 : 0"
       inkscape:vp_z="744.09448 : 526.18109 : 1"
       inkscape:persp3d-origin="372.04724 : 350.78739 : 1"
       id="perspective10" />
    <clipPath
       id="clipPath5874"
       clipPathUnits="userSpaceOnUse">
      <path
         id="path5876"
         d="m 0,841.98 595.2,0 L 595.2,0 0,0 0,841.98 z" />
    </clipPath>
    <clipPath
       id="clipPath5866"
       clipPathUnits="userSpaceOnUse">
      <path
         id="path5868"
         clip-rule="evenodd"
         d="m 297.6,543.98 247.5,0 0,-209.22 -247.5,0 0,209.22 z" />
    </clipPath>
    <clipPath
       id="clipPath5858"
       clipPathUnits="userSpaceOnUse">
      <path
         id="path5860"
         clip-rule="evenodd"
         d="m 299.4,537.98 243.9,0 0,-200.22 -243.9,0 0,200.22 z" />
    </clipPath>
    <clipPath
       id="clipPath5850"
       clipPathUnits="userSpaceOnUse">
      <path
         id="path5852"
         clip-rule="evenodd"
         d="m 305.4,531.98 231.9,0 0,-188.22 -231.9,0 0,188.22 z" />
    </clipPath>
    <clipPath
       id="clipPath5842"
       clipPathUnits="userSpaceOnUse">
      <path
         id="path5844"
         d="m 305.427,343.736 231.856,0 0,188.257 -231.856,0 0,-188.257 z" />
    </clipPath>
    <clipPath
       id="clipPath5830"
       clipPathUnits="userSpaceOnUse">
      <path
         id="path5832"
         d="m 0,841.98 595.2,0 L 595.2,0 0,0 0,841.98 z" />
    </clipPath>
    <clipPath
       id="clipPath5822"
       clipPathUnits="userSpaceOnUse">
      <path
         id="path5824"
         clip-rule="evenodd"
         d="m 297.6,543.98 247.5,0 0,-209.22 -247.5,0 0,209.22 z" />
    </clipPath>
    <clipPath
       id="clipPath5814"
       clipPathUnits="userSpaceOnUse">
      <path
         id="path5816"
         clip-rule="evenodd"
         d="m 299.4,537.98 243.9,0 0,-200.22 -243.9,0 0,200.22 z" />
    </clipPath>
    <clipPath
       id="clipPath5806"
       clipPathUnits="userSpaceOnUse">
      <path
         id="path5808"
         clip-rule="evenodd"
         d="m 305.4,531.98 231.9,0 0,-188.22 -231.9,0 0,188.22 z" />
    </clipPath>
    <clipPath
       id="clipPath5798"
       clipPathUnits="userSpaceOnUse">
      <path
         id="path5800"
         d="m 305.427,343.736 231.856,0 0,188.257 -231.856,0 0,-188.257 z" />
    </clipPath>
    <clipPath
       id="clipPath5790"
       clipPathUnits="userSpaceOnUse">
      <path
         id="path5792"
         clip-rule="evenodd"
         d="m 305.437,531.992 231.836,0 0,-188.636 -231.836,0 0,188.636 z" />
    </clipPath>
    <clipPath
       id="clipPath5700"
       clipPathUnits="userSpaceOnUse">
      <path
         id="path5702"
         d="m 0,841.98 595.2,0 L 595.2,0 0,0 0,841.98 z" />
    </clipPath>
    <clipPath
       id="clipPath5692"
       clipPathUnits="userSpaceOnUse">
      <path
         id="path5694"
         clip-rule="evenodd"
         d="m 297.6,543.98 247.5,0 0,-209.22 -247.5,0 0,209.22 z" />
    </clipPath>
    <clipPath
       id="clipPath5684"
       clipPathUnits="userSpaceOnUse">
      <path
         id="path5686"
         clip-rule="evenodd"
         d="m 299.4,537.98 243.9,0 0,-200.22 -243.9,0 0,200.22 z" />
    </clipPath>
    <clipPath
       id="clipPath5676"
       clipPathUnits="userSpaceOnUse">
      <path
         id="path5678"
         clip-rule="evenodd"
         d="m 305.4,531.98 231.9,0 0,-188.22 -231.9,0 0,188.22 z" />
    </clipPath>
    <clipPath
       id="clipPath5668"
       clipPathUnits="userSpaceOnUse">
      <path
         id="path5670"
         d="m 305.427,343.736 231.856,0 0,188.257 -231.856,0 0,-188.257 z" />
    </clipPath>
    <clipPath
       id="clipPath5656"
       clipPathUnits="userSpaceOnUse">
      <path
         id="path5658"
         d="m 0,841.98 595.2,0 L 595.2,0 0,0 0,841.98 z" />
    </clipPath>
    <clipPath
       id="clipPath5648"
       clipPathUnits="userSpaceOnUse">
      <path
         id="path5650"
         clip-rule="evenodd"
         d="m 297.6,543.98 247.5,0 0,-209.22 -247.5,0 0,209.22 z" />
    </clipPath>
    <clipPath
       id="clipPath5640"
       clipPathUnits="userSpaceOnUse">
      <path
         id="path5642"
         clip-rule="evenodd"
         d="m 299.4,537.98 243.9,0 0,-200.22 -243.9,0 0,200.22 z" />
    </clipPath>
    <clipPath
       id="clipPath5632"
       clipPathUnits="userSpaceOnUse">
      <path
         id="path5634"
         clip-rule="evenodd"
         d="m 305.4,531.98 231.9,0 0,-188.22 -231.9,0 0,188.22 z" />
    </clipPath>
    <clipPath
       id="clipPath5624"
       clipPathUnits="userSpaceOnUse">
      <path
         id="path5626"
         d="m 305.427,343.736 231.856,0 0,188.257 -231.856,0 0,-188.257 z" />
    </clipPath>
    <clipPath
       id="clipPath5616"
       clipPathUnits="userSpaceOnUse">
      <path
         id="path5618"
         clip-rule="evenodd"
         d="m 305.437,531.992 231.836,0 0,-188.636 -231.836,0 0,188.636 z" />
    </clipPath>
    <clipPath
       id="clipPath5602"
       clipPathUnits="userSpaceOnUse">
      <path
         id="path5604"
         d="m 0,841.98 595.2,0 L 595.2,0 0,0 0,841.98 z" />
    </clipPath>
    <clipPath
       id="clipPath5594"
       clipPathUnits="userSpaceOnUse">
      <path
         id="path5596"
         clip-rule="evenodd"
         d="m 297.6,543.98 247.5,0 0,-209.22 -247.5,0 0,209.22 z" />
    </clipPath>
    <clipPath
       id="clipPath5586"
       clipPathUnits="userSpaceOnUse">
      <path
         id="path5588"
         clip-rule="evenodd"
         d="m 299.4,537.98 243.9,0 0,-200.22 -243.9,0 0,200.22 z" />
    </clipPath>
    <clipPath
       id="clipPath5578"
       clipPathUnits="userSpaceOnUse">
      <path
         id="path5580"
         clip-rule="evenodd"
         d="m 305.4,531.98 231.9,0 0,-188.22 -231.9,0 0,188.22 z" />
    </clipPath>
    <clipPath
       id="clipPath5570"
       clipPathUnits="userSpaceOnUse">
      <path
         id="path5572"
         d="m 305.427,343.736 231.856,0 0,188.257 -231.856,0 0,-188.257 z" />
    </clipPath>
    <clipPath
       id="clipPath5558"
       clipPathUnits="userSpaceOnUse">
      <path
         id="path5560"
         d="m 0,841.98 595.2,0 L 595.2,0 0,0 0,841.98 z" />
    </clipPath>
    <clipPath
       id="clipPath5550"
       clipPathUnits="userSpaceOnUse">
      <path
         id="path5552"
         clip-rule="evenodd"
         d="m 297.6,543.98 247.5,0 0,-209.22 -247.5,0 0,209.22 z" />
    </clipPath>
    <clipPath
       id="clipPath5542"
       clipPathUnits="userSpaceOnUse">
      <path
         id="path5544"
         clip-rule="evenodd"
         d="m 299.4,537.98 243.9,0 0,-200.22 -243.9,0 0,200.22 z" />
    </clipPath>
    <clipPath
       id="clipPath5534"
       clipPathUnits="userSpaceOnUse">
      <path
         id="path5536"
         clip-rule="evenodd"
         d="m 305.4,531.98 231.9,0 0,-188.22 -231.9,0 0,188.22 z" />
    </clipPath>
    <clipPath
       id="clipPath5526"
       clipPathUnits="userSpaceOnUse">
      <path
         id="path5528"
         d="m 305.427,343.736 231.856,0 0,188.257 -231.856,0 0,-188.257 z" />
    </clipPath>
    <clipPath
       id="clipPath5518"
       clipPathUnits="userSpaceOnUse">
      <path
         id="path5520"
         clip-rule="evenodd"
         d="m 305.437,531.992 231.836,0 0,-188.636 -231.836,0 0,188.636 z" />
    </clipPath>
    <clipPath
       id="clipPath5506"
       clipPathUnits="userSpaceOnUse">
      <path
         id="path5508"
         d="m 0,841.98 595.2,0 L 595.2,0 0,0 0,841.98 z" />
    </clipPath>
    <clipPath
       id="clipPath5498"
       clipPathUnits="userSpaceOnUse">
      <path
         id="path5500"
         clip-rule="evenodd"
         d="m 297.6,543.98 247.5,0 0,-209.22 -247.5,0 0,209.22 z" />
    </clipPath>
    <clipPath
       id="clipPath5490"
       clipPathUnits="userSpaceOnUse">
      <path
         id="path5492"
         clip-rule="evenodd"
         d="m 299.4,537.98 243.9,0 0,-200.22 -243.9,0 0,200.22 z" />
    </clipPath>
    <clipPath
       id="clipPath5482"
       clipPathUnits="userSpaceOnUse">
      <path
         id="path5484"
         clip-rule="evenodd"
         d="m 305.4,531.98 231.9,0 0,-188.22 -231.9,0 0,188.22 z" />
    </clipPath>
    <clipPath
       id="clipPath5474"
       clipPathUnits="userSpaceOnUse">
      <path
         id="path5476"
         d="m 305.427,343.736 231.856,0 0,188.257 -231.856,0 0,-188.257 z" />
    </clipPath>
    <clipPath
       id="clipPath5386"
       clipPathUnits="userSpaceOnUse">
      <path
         id="path5388"
         d="m 0,841.98 595.2,0 L 595.2,0 0,0 0,841.98 z" />
    </clipPath>
    <clipPath
       id="clipPath5378"
       clipPathUnits="userSpaceOnUse">
      <path
         id="path5380"
         clip-rule="evenodd"
         d="m 50.1,543.98 247.5,0 0,-209.22 -247.5,0 0,209.22 z" />
    </clipPath>
    <clipPath
       id="clipPath5370"
       clipPathUnits="userSpaceOnUse">
      <path
         id="path5372"
         clip-rule="evenodd"
         d="m 51.9,537.98 243.9,0 0,-200.22 -243.9,0 0,200.22 z" />
    </clipPath>
    <clipPath
       id="clipPath5362"
       clipPathUnits="userSpaceOnUse">
      <path
         id="path5364"
         clip-rule="evenodd"
         d="m 57.9,531.98 231.9,0 0,-188.22 -231.9,0 0,188.22 z" />
    </clipPath>
    <clipPath
       id="clipPath5354"
       clipPathUnits="userSpaceOnUse">
      <path
         id="path5356"
         d="m 57.917,343.736 231.856,0 0,188.257 -231.856,0 0,-188.257 z" />
    </clipPath>
    <clipPath
       id="clipPath5342"
       clipPathUnits="userSpaceOnUse">
      <path
         id="path5344"
         d="m 0,841.98 595.2,0 L 595.2,0 0,0 0,841.98 z" />
    </clipPath>
    <clipPath
       id="clipPath5334"
       clipPathUnits="userSpaceOnUse">
      <path
         id="path5336"
         clip-rule="evenodd"
         d="m 50.1,543.98 247.5,0 0,-209.22 -247.5,0 0,209.22 z" />
    </clipPath>
    <clipPath
       id="clipPath5326"
       clipPathUnits="userSpaceOnUse">
      <path
         id="path5328"
         clip-rule="evenodd"
         d="m 51.9,537.98 243.9,0 0,-200.22 -243.9,0 0,200.22 z" />
    </clipPath>
    <clipPath
       id="clipPath5318"
       clipPathUnits="userSpaceOnUse">
      <path
         id="path5320"
         clip-rule="evenodd"
         d="m 57.9,531.98 231.9,0 0,-188.22 -231.9,0 0,188.22 z" />
    </clipPath>
    <clipPath
       id="clipPath5310"
       clipPathUnits="userSpaceOnUse">
      <path
         id="path5312"
         d="m 57.917,343.736 231.856,0 0,188.257 -231.856,0 0,-188.257 z" />
    </clipPath>
    <clipPath
       id="clipPath5302"
       clipPathUnits="userSpaceOnUse">
      <path
         id="path5304"
         clip-rule="evenodd"
         d="m 57.927,531.992 231.836,0 0,-188.636 -231.836,0 0,188.636 z" />
    </clipPath>
    <clipPath
       id="clipPath5280"
       clipPathUnits="userSpaceOnUse">
      <path
         id="path5282"
         d="m 0,841.98 595.2,0 L 595.2,0 0,0 0,841.98 z" />
    </clipPath>
    <clipPath
       id="clipPath5272"
       clipPathUnits="userSpaceOnUse">
      <path
         id="path5274"
         clip-rule="evenodd"
         d="m 50.1,543.98 247.5,0 0,-209.22 -247.5,0 0,209.22 z" />
    </clipPath>
    <clipPath
       id="clipPath5264"
       clipPathUnits="userSpaceOnUse">
      <path
         id="path5266"
         clip-rule="evenodd"
         d="m 51.9,537.98 243.9,0 0,-200.22 -243.9,0 0,200.22 z" />
    </clipPath>
    <clipPath
       id="clipPath5256"
       clipPathUnits="userSpaceOnUse">
      <path
         id="path5258"
         clip-rule="evenodd"
         d="m 57.9,531.98 231.9,0 0,-188.22 -231.9,0 0,188.22 z" />
    </clipPath>
    <clipPath
       id="clipPath5248"
       clipPathUnits="userSpaceOnUse">
      <path
         id="path5250"
         d="m 57.917,343.736 231.856,0 0,188.257 -231.856,0 0,-188.257 z" />
    </clipPath>
    <clipPath
       id="clipPath5236"
       clipPathUnits="userSpaceOnUse">
      <path
         id="path5238"
         d="m 0,841.98 595.2,0 L 595.2,0 0,0 0,841.98 z" />
    </clipPath>
    <clipPath
       id="clipPath5228"
       clipPathUnits="userSpaceOnUse">
      <path
         id="path5230"
         clip-rule="evenodd"
         d="m 50.1,543.98 247.5,0 0,-209.22 -247.5,0 0,209.22 z" />
    </clipPath>
    <clipPath
       id="clipPath5220"
       clipPathUnits="userSpaceOnUse">
      <path
         id="path5222"
         clip-rule="evenodd"
         d="m 51.9,537.98 243.9,0 0,-200.22 -243.9,0 0,200.22 z" />
    </clipPath>
    <clipPath
       id="clipPath5212"
       clipPathUnits="userSpaceOnUse">
      <path
         id="path5214"
         clip-rule="evenodd"
         d="m 57.9,531.98 231.9,0 0,-188.22 -231.9,0 0,188.22 z" />
    </clipPath>
    <clipPath
       id="clipPath5204"
       clipPathUnits="userSpaceOnUse">
      <path
         id="path5206"
         d="m 57.917,343.736 231.856,0 0,188.257 -231.856,0 0,-188.257 z" />
    </clipPath>
    <clipPath
       id="clipPath5196"
       clipPathUnits="userSpaceOnUse">
      <path
         id="path5198"
         clip-rule="evenodd"
         d="m 57.927,531.992 231.836,0 0,-188.636 -231.836,0 0,188.636 z" />
    </clipPath>
    <clipPath
       id="clipPath5182"
       clipPathUnits="userSpaceOnUse">
      <path
         id="path5184"
         d="m 0,841.98 595.2,0 L 595.2,0 0,0 0,841.98 z" />
    </clipPath>
    <clipPath
       id="clipPath5174"
       clipPathUnits="userSpaceOnUse">
      <path
         id="path5176"
         clip-rule="evenodd"
         d="m 50.1,543.98 247.5,0 0,-209.22 -247.5,0 0,209.22 z" />
    </clipPath>
    <clipPath
       id="clipPath5166"
       clipPathUnits="userSpaceOnUse">
      <path
         id="path5168"
         clip-rule="evenodd"
         d="m 51.9,537.98 243.9,0 0,-200.22 -243.9,0 0,200.22 z" />
    </clipPath>
    <clipPath
       id="clipPath5158"
       clipPathUnits="userSpaceOnUse">
      <path
         id="path5160"
         clip-rule="evenodd"
         d="m 57.9,531.98 231.9,0 0,-188.22 -231.9,0 0,188.22 z" />
    </clipPath>
    <clipPath
       id="clipPath5150"
       clipPathUnits="userSpaceOnUse">
      <path
         id="path5152"
         d="m 57.917,343.736 231.856,0 0,188.257 -231.856,0 0,-188.257 z" />
    </clipPath>
    <clipPath
       id="clipPath5138"
       clipPathUnits="userSpaceOnUse">
      <path
         id="path5140"
         d="m 0,841.98 595.2,0 L 595.2,0 0,0 0,841.98 z" />
    </clipPath>
    <clipPath
       id="clipPath5130"
       clipPathUnits="userSpaceOnUse">
      <path
         id="path5132"
         clip-rule="evenodd"
         d="m 50.1,543.98 247.5,0 0,-209.22 -247.5,0 0,209.22 z" />
    </clipPath>
    <clipPath
       id="clipPath5122"
       clipPathUnits="userSpaceOnUse">
      <path
         id="path5124"
         clip-rule="evenodd"
         d="m 51.9,537.98 243.9,0 0,-200.22 -243.9,0 0,200.22 z" />
    </clipPath>
    <clipPath
       id="clipPath5114"
       clipPathUnits="userSpaceOnUse">
      <path
         id="path5116"
         clip-rule="evenodd"
         d="m 57.9,531.98 231.9,0 0,-188.22 -231.9,0 0,188.22 z" />
    </clipPath>
    <clipPath
       id="clipPath5106"
       clipPathUnits="userSpaceOnUse">
      <path
         id="path5108"
         d="m 57.917,343.736 231.856,0 0,188.257 -231.856,0 0,-188.257 z" />
    </clipPath>
    <clipPath
       id="clipPath5098"
       clipPathUnits="userSpaceOnUse">
      <path
         id="path5100"
         clip-rule="evenodd"
         d="m 57.927,531.992 231.836,0 0,-188.636 -231.836,0 0,188.636 z" />
    </clipPath>
    <clipPath
       id="clipPath5086"
       clipPathUnits="userSpaceOnUse">
      <path
         id="path5088"
         d="m 0,841.98 595.2,0 L 595.2,0 0,0 0,841.98 z" />
    </clipPath>
    <clipPath
       id="clipPath5078"
       clipPathUnits="userSpaceOnUse">
      <path
         id="path5080"
         clip-rule="evenodd"
         d="m 50.1,543.98 247.5,0 0,-209.22 -247.5,0 0,209.22 z" />
    </clipPath>
    <clipPath
       id="clipPath5070"
       clipPathUnits="userSpaceOnUse">
      <path
         id="path5072"
         clip-rule="evenodd"
         d="m 51.9,537.98 243.9,0 0,-200.22 -243.9,0 0,200.22 z" />
    </clipPath>
    <clipPath
       id="clipPath5062"
       clipPathUnits="userSpaceOnUse">
      <path
         id="path5064"
         clip-rule="evenodd"
         d="m 57.9,531.98 231.9,0 0,-188.22 -231.9,0 0,188.22 z" />
    </clipPath>
    <clipPath
       id="clipPath5054"
       clipPathUnits="userSpaceOnUse">
      <path
         id="path5056"
         d="m 57.917,343.736 231.856,0 0,188.257 -231.856,0 0,-188.257 z" />
    </clipPath>
    <clipPath
       id="clipPath4996"
       clipPathUnits="userSpaceOnUse">
      <path
         id="path4998"
         d="m 0,841.98 595.2,0 L 595.2,0 0,0 0,841.98 z" />
    </clipPath>
    <clipPath
       id="clipPath4988"
       clipPathUnits="userSpaceOnUse">
      <path
         id="path4990"
         clip-rule="evenodd"
         d="m 192.06,617.54 75.6,0 0,-23.04 -75.6,0 0,23.04 z" />
    </clipPath>
    <clipPath
       id="clipPath4902"
       clipPathUnits="userSpaceOnUse">
      <path
         id="path4904"
         d="m 0,841.98 595.2,0 L 595.2,0 0,0 0,841.98 z" />
    </clipPath>
    <clipPath
       id="clipPath4894"
       clipPathUnits="userSpaceOnUse">
      <path
         id="path4896"
         clip-rule="evenodd"
         d="m 50.1,720.5 495,0 0,-99 -495,0 0,99 z" />
    </clipPath>
    <clipPath
       id="clipPath4886"
       clipPathUnits="userSpaceOnUse">
      <path
         id="path4888"
         clip-rule="evenodd"
         d="m 254.58,714.5 86.04,0 0,-90 -86.04,0 0,90 z" />
    </clipPath>
    <clipPath
       id="clipPath4878"
       clipPathUnits="userSpaceOnUse">
      <path
         id="path4880"
         clip-rule="evenodd"
         d="m 261.36,708.26 72.36,0 0,-77.34 -72.36,0 0,77.34 z" />
    </clipPath>
    <inkscape:perspective
       id="perspective4824"
       inkscape:persp3d-origin="0.5 : 0.33333333 : 1"
       inkscape:vp_z="1 : 0.5 : 1"
       inkscape:vp_y="0 : 1000 : 0"
       inkscape:vp_x="0 : 0.5 : 1"
       sodipodi:type="inkscape:persp3d" />
    <inkscape:perspective
       id="perspective7102"
       inkscape:persp3d-origin="0.5 : 0.33333333 : 1"
       inkscape:vp_z="1 : 0.5 : 1"
       inkscape:vp_y="0 : 1000 : 0"
       inkscape:vp_x="0 : 0.5 : 1"
       sodipodi:type="inkscape:persp3d" />
    <inkscape:perspective
       id="perspective7322"
       inkscape:persp3d-origin="0.5 : 0.33333333 : 1"
       inkscape:vp_z="1 : 0.5 : 1"
       inkscape:vp_y="0 : 1000 : 0"
       inkscape:vp_x="0 : 0.5 : 1"
       sodipodi:type="inkscape:persp3d" />
    <inkscape:perspective
       id="perspective7537"
       inkscape:persp3d-origin="0.5 : 0.33333333 : 1"
       inkscape:vp_z="1 : 0.5 : 1"
       inkscape:vp_y="0 : 1000 : 0"
       inkscape:vp_x="0 : 0.5 : 1"
       sodipodi:type="inkscape:persp3d" />
    <inkscape:perspective
       id="perspective7562"
       inkscape:persp3d-origin="0.5 : 0.33333333 : 1"
       inkscape:vp_z="1 : 0.5 : 1"
       inkscape:vp_y="0 : 1000 : 0"
       inkscape:vp_x="0 : 0.5 : 1"
       sodipodi:type="inkscape:persp3d" />
    <inkscape:perspective
       id="perspective7562-7"
       inkscape:persp3d-origin="0.5 : 0.33333333 : 1"
       inkscape:vp_z="1 : 0.5 : 1"
       inkscape:vp_y="0 : 1000 : 0"
       inkscape:vp_x="0 : 0.5 : 1"
       sodipodi:type="inkscape:persp3d" />
    <inkscape:perspective
       id="perspective7562-5"
       inkscape:persp3d-origin="0.5 : 0.33333333 : 1"
       inkscape:vp_z="1 : 0.5 : 1"
       inkscape:vp_y="0 : 1000 : 0"
       inkscape:vp_x="0 : 0.5 : 1"
       sodipodi:type="inkscape:persp3d" />
    <inkscape:perspective
       id="perspective7630"
       inkscape:persp3d-origin="0.5 : 0.33333333 : 1"
       inkscape:vp_z="1 : 0.5 : 1"
       inkscape:vp_y="0 : 1000 : 0"
       inkscape:vp_x="0 : 0.5 : 1"
       sodipodi:type="inkscape:persp3d" />
    <inkscape:perspective
       id="perspective7655"
       inkscape:persp3d-origin="0.5 : 0.33333333 : 1"
       inkscape:vp_z="1 : 0.5 : 1"
       inkscape:vp_y="0 : 1000 : 0"
       inkscape:vp_x="0 : 0.5 : 1"
       sodipodi:type="inkscape:persp3d" />
    <inkscape:perspective
       id="perspective7655-2"
       inkscape:persp3d-origin="0.5 : 0.33333333 : 1"
       inkscape:vp_z="1 : 0.5 : 1"
       inkscape:vp_y="0 : 1000 : 0"
       inkscape:vp_x="0 : 0.5 : 1"
       sodipodi:type="inkscape:persp3d" />
    <inkscape:perspective
       id="perspective7655-6"
       inkscape:persp3d-origin="0.5 : 0.33333333 : 1"
       inkscape:vp_z="1 : 0.5 : 1"
       inkscape:vp_y="0 : 1000 : 0"
       inkscape:vp_x="0 : 0.5 : 1"
       sodipodi:type="inkscape:persp3d" />
    <inkscape:perspective
       id="perspective7655-64"
       inkscape:persp3d-origin="0.5 : 0.33333333 : 1"
       inkscape:vp_z="1 : 0.5 : 1"
       inkscape:vp_y="0 : 1000 : 0"
       inkscape:vp_x="0 : 0.5 : 1"
       sodipodi:type="inkscape:persp3d" />
    <inkscape:perspective
       id="perspective7713"
       inkscape:persp3d-origin="0.5 : 0.33333333 : 1"
       inkscape:vp_z="1 : 0.5 : 1"
       inkscape:vp_y="0 : 1000 : 0"
       inkscape:vp_x="0 : 0.5 : 1"
       sodipodi:type="inkscape:persp3d" />
    <inkscape:perspective
       id="perspective7758"
       inkscape:persp3d-origin="0.5 : 0.33333333 : 1"
       inkscape:vp_z="1 : 0.5 : 1"
       inkscape:vp_y="0 : 1000 : 0"
       inkscape:vp_x="0 : 0.5 : 1"
       sodipodi:type="inkscape:persp3d" />
  </defs>
  <sodipodi:namedview
     id="base"
     pagecolor="#ffffff"
     bordercolor="#666666"
     borderopacity="1.0"
     inkscape:pageopacity="0.0"
     inkscape:pageshadow="2"
     inkscape:zoom="0.98994949"
     inkscape:cx="1371.0236"
     inkscape:cy="-106.64518"
     inkscape:document-units="px"
     inkscape:current-layer="layer1"
     showgrid="false"
     inkscape:window-width="1366"
     inkscape:window-height="719"
     inkscape:window-x="0"
     inkscape:window-y="0"
     inkscape:window-maximized="1" />
  <metadata
     id="metadata7">
    <rdf:RDF>
      <cc:Work
         rdf:about="">
        <dc:format>image/svg+xml</dc:format>
        <dc:type
           rdf:resource="http://purl.org/dc/dcmitype/StillImage" />
        <dc:title></dc:title>
      </cc:Work>
    </rdf:RDF>
  </metadata>
  <g
     inkscape:label="Capa 1"
     inkscape:groupmode="layer"
     id="layer1">
    <g
       id="g7775">
      <g
         transform="matrix(1.25,0,0,-1.25,1302.2857,1690.8076)"
         id="g5298">
        <g
           clip-path="url(#clipPath5302)"
           id="g5300">
          <g
             id="g5306">
            <g
               clip-path="url(#clipPath5310)"
               id="g5308">
              <g
                 id="g5314">
                <g
                   clip-path="url(#clipPath5318)"
                   id="g5316">
                  <g
                     id="g5322">
                    <g
                       clip-path="url(#clipPath5326)"
                       id="g5324">
                      <g
                         id="g5330">
                        <g
                           clip-path="url(#clipPath5334)"
                           id="g5332">
                          <g
                             id="g5338">
                            <g
                               clip-path="url(#clipPath5342)"
                               id="g5340">
                              <g
                                 transform="translate(289.923,343.826)"
                                 id="g5346">
                                <path
                                   id="path5348"
                                   style="fill:none;stroke:#fefefe;stroke-width:0.18000001;stroke-linecap:butt;stroke-linejoin:miter;stroke-miterlimit:4;stroke-opacity:1;stroke-dasharray:none"
                                   d="m 0,0 -231.996,0 0,187.996 L 0,187.996 0,0" />
                              </g>
                            </g>
                          </g>
                        </g>
                      </g>
                    </g>
                  </g>
                </g>
              </g>
            </g>
          </g>
        </g>
      </g>
      <g
         transform="matrix(1.25,0,0,-1.25,1302.2857,1690.8076)"
         id="g5366">
        <g
           clip-path="url(#clipPath5370)"
           id="g5368">
          <g
             id="g5374">
            <g
               clip-path="url(#clipPath5378)"
               id="g5376">
              <g
                 id="g5382">
                <g
                   clip-path="url(#clipPath5386)"
                   id="g5384">
                  <g
                     transform="translate(93.925995,523.823)"
                     id="g5390">
                    <path
                       id="path5392"
                       style="fill:none;stroke:#000000;stroke-width:0.36000001;stroke-linecap:square;stroke-linejoin:miter;stroke-miterlimit:4;stroke-opacity:1;stroke-dasharray:none"
                       d="M 0,0 159.997,0" />
                  </g>
                  <g
                     transform="translate(93.925995,363.826)"
                     id="g5394">
                    <path
                       id="path5396"
                       style="fill:none;stroke:#000000;stroke-width:0.36000001;stroke-linecap:square;stroke-linejoin:miter;stroke-miterlimit:4;stroke-opacity:1;stroke-dasharray:none"
                       d="M 0,0 159.997,0" />
                  </g>
                  <g
                     transform="translate(93.925995,383.826)"
                     id="g5398">
                    <path
                       id="path5400"
                       style="fill:none;stroke:#000000;stroke-width:0.36000001;stroke-linecap:square;stroke-linejoin:miter;stroke-miterlimit:4;stroke-opacity:1;stroke-dasharray:none"
                       d="M 0,0 159.997,0" />
                  </g>
                  <g
                     transform="translate(93.925995,403.826)"
                     id="g5402">
                    <path
                       id="path5404"
                       style="fill:none;stroke:#000000;stroke-width:0.36000001;stroke-linecap:square;stroke-linejoin:miter;stroke-miterlimit:4;stroke-opacity:1;stroke-dasharray:none"
                       d="M 0,0 159.997,0" />
                  </g>
                  <g
                     transform="translate(93.925995,423.825)"
                     id="g5406">
                    <path
                       id="path5408"
                       style="fill:none;stroke:#000000;stroke-width:0.36000001;stroke-linecap:square;stroke-linejoin:miter;stroke-miterlimit:4;stroke-opacity:1;stroke-dasharray:none"
                       d="M 0,0 159.997,0" />
                  </g>
                  <g
                     transform="translate(93.925995,443.825)"
                     id="g5410">
                    <path
                       id="path5412"
                       style="fill:none;stroke:#000000;stroke-width:0.36000001;stroke-linecap:square;stroke-linejoin:miter;stroke-miterlimit:4;stroke-opacity:1;stroke-dasharray:none"
                       d="M 0,0 159.997,0" />
                  </g>
                  <g
                     transform="translate(93.925995,463.825)"
                     id="g5414">
                    <path
                       id="path5416"
                       style="fill:none;stroke:#000000;stroke-width:0.36000001;stroke-linecap:square;stroke-linejoin:miter;stroke-miterlimit:4;stroke-opacity:1;stroke-dasharray:none"
                       d="M 0,0 159.997,0" />
                  </g>
                  <g
                     transform="translate(93.925995,483.825)"
                     id="g5418">
                    <path
                       id="path5420"
                       style="fill:none;stroke:#000000;stroke-width:0.36000001;stroke-linecap:square;stroke-linejoin:miter;stroke-miterlimit:4;stroke-opacity:1;stroke-dasharray:none"
                       d="M 0,0 159.997,0" />
                  </g>
                  <g
                     transform="translate(93.925995,503.825)"
                     id="g5422">
                    <path
                       id="path5424"
                       style="fill:none;stroke:#000000;stroke-width:0.36000001;stroke-linecap:square;stroke-linejoin:miter;stroke-miterlimit:4;stroke-opacity:1;stroke-dasharray:none"
                       d="M 0,0 159.997,0" />
                  </g>
                  <g
                     transform="translate(253.923,523.825)"
                     id="g5426">
                    <path
                       id="path5428"
                       style="fill:none;stroke:#000000;stroke-width:0.36000001;stroke-linecap:square;stroke-linejoin:miter;stroke-miterlimit:4;stroke-opacity:1;stroke-dasharray:none"
                       d="M 0,0 0,-159.997" />
                  </g>
                  <g
                     transform="translate(93.925995,523.825)"
                     id="g5430">
                    <path
                       id="path5432"
                       style="fill:none;stroke:#000000;stroke-width:0.36000001;stroke-linecap:square;stroke-linejoin:miter;stroke-miterlimit:4;stroke-opacity:1;stroke-dasharray:none"
                       d="M 0,0 0,-159.997" />
                  </g>
                  <g
                     transform="translate(113.92599,523.825)"
                     id="g5434">
                    <path
                       id="path5436"
                       style="fill:none;stroke:#000000;stroke-width:0.36000001;stroke-linecap:square;stroke-linejoin:miter;stroke-miterlimit:4;stroke-opacity:1;stroke-dasharray:none"
                       d="M 0,0 0,-159.997" />
                  </g>
                  <g
                     transform="translate(133.92599,523.825)"
                     id="g5438">
                    <path
                       id="path5440"
                       style="fill:none;stroke:#000000;stroke-width:0.36000001;stroke-linecap:square;stroke-linejoin:miter;stroke-miterlimit:4;stroke-opacity:1;stroke-dasharray:none"
                       d="M 0,0 0,-159.997" />
                  </g>
                  <g
                     transform="translate(153.92599,523.825)"
                     id="g5442">
                    <path
                       id="path5444"
                       style="fill:none;stroke:#000000;stroke-width:0.36000001;stroke-linecap:square;stroke-linejoin:miter;stroke-miterlimit:4;stroke-opacity:1;stroke-dasharray:none"
                       d="M 0,0 0,-159.997" />
                  </g>
                  <g
                     transform="translate(173.92599,523.825)"
                     id="g5446">
                    <path
                       id="path5448"
                       style="fill:none;stroke:#000000;stroke-width:0.36000001;stroke-linecap:square;stroke-linejoin:miter;stroke-miterlimit:4;stroke-opacity:1;stroke-dasharray:none"
                       d="M 0,0 0,-159.997" />
                  </g>
                  <g
                     transform="translate(193.925,523.825)"
                     id="g5450">
                    <path
                       id="path5452"
                       style="fill:none;stroke:#000000;stroke-width:0.36000001;stroke-linecap:square;stroke-linejoin:miter;stroke-miterlimit:4;stroke-opacity:1;stroke-dasharray:none"
                       d="M 0,0 0,-159.997" />
                  </g>
                  <g
                     transform="translate(213.925,523.825)"
                     id="g5454">
                    <path
                       id="path5456"
                       style="fill:none;stroke:#000000;stroke-width:0.36000001;stroke-linecap:square;stroke-linejoin:miter;stroke-miterlimit:4;stroke-opacity:1;stroke-dasharray:none"
                       d="M 0,0 0,-159.997" />
                  </g>
                  <g
                     transform="translate(233.925,523.825)"
                     id="g5458">
                    <path
                       id="path5460"
                       style="fill:none;stroke:#000000;stroke-width:0.36000001;stroke-linecap:square;stroke-linejoin:miter;stroke-miterlimit:4;stroke-opacity:1;stroke-dasharray:none"
                       d="M 0,0 0,-159.997" />
                  </g>
                  <g
                     transform="translate(106.746,485.293)"
                     id="g5462">
                    <path
                       id="path5464"
                       style="fill:none;stroke:#000000;stroke-width:1.08000004;stroke-linecap:butt;stroke-linejoin:miter;stroke-miterlimit:4;stroke-opacity:1;stroke-dasharray:none"
                       d="m 0,0 4.94,-5.89 2.78,-2.91 3.12,-2.53 4.99,-3.51 6.87,-3.77 7.679,-3.98 0.08,-0.09 15.01,-6.009 13.81,-4.35 11.219,-2.98 11.841,-2.73 10.039,-1.99 13.56,-2.27 13.539,-1.93 11.081,-1.38 9.789,-1.17 6.96,-0.86" />
                  </g>
                  <g
                     transform="translate(106.686,485.39301)"
                     id="g5466">
                    <path
                       id="path5468"
                       style="fill:none;stroke:#000000;stroke-width:1.08000004;stroke-linecap:butt;stroke-linejoin:miter;stroke-miterlimit:4;stroke-opacity:1;stroke-dasharray:none"
                       d="m 0,0 c 0.03,-0.02 0.07,-0.05 0.08,-0.1 -0.04,0.04 -0.1,0.07 -0.12,0.12 l -0.04,0.13 -4.18,5.66 -8.48,11.29" />
                  </g>
                </g>
              </g>
            </g>
          </g>
        </g>
      </g>
      <text
         sodipodi:linespacing="100%"
         id="text4892-0-9"
         y="1251.0405"
         x="1417.1859"
         style="font-size:15.65794373px;font-style:normal;font-variant:normal;font-weight:normal;font-stretch:normal;text-align:start;line-height:100%;writing-mode:lr-tb;text-anchor:start;fill:#000000;fill-opacity:1;stroke:none;font-family:LMRoman9;-inkscape-font-specification:LMRoman9"
         xml:space="preserve"><tspan
           y="1251.0405"
           x="1417.1859"
           id="tspan4894-4-8"
           sodipodi:role="line">2</tspan></text>
      <text
         sodipodi:linespacing="100%"
         id="text4892-0-9-9"
         y="1250.8683"
         x="1465.6266"
         style="font-size:15.65794373px;font-style:normal;font-variant:normal;font-weight:normal;font-stretch:normal;text-align:start;line-height:100%;writing-mode:lr-tb;text-anchor:start;fill:#000000;fill-opacity:1;stroke:none;font-family:LMRoman9;-inkscape-font-specification:LMRoman9"
         xml:space="preserve"><tspan
           y="1250.8683"
           x="1465.6266"
           id="tspan4894-4-8-9"
           sodipodi:role="line">3</tspan></text>
      <text
         sodipodi:linespacing="100%"
         id="text4892-0-9-9-3"
         y="1251.1266"
         x="1515.6266"
         style="font-size:15.65794373px;font-style:normal;font-variant:normal;font-weight:normal;font-stretch:normal;text-align:start;line-height:100%;writing-mode:lr-tb;text-anchor:start;fill:#000000;fill-opacity:1;stroke:none;font-family:LMRoman9;-inkscape-font-specification:LMRoman9"
         xml:space="preserve"><tspan
           y="1251.1266"
           x="1515.6266"
           id="tspan4894-4-8-9-1"
           sodipodi:role="line">4</tspan></text>
      <text
         sodipodi:linespacing="100%"
         id="text4892-0-9-9-7"
         y="1250.8683"
         x="1567.948"
         style="font-size:15.65794373px;font-style:normal;font-variant:normal;font-weight:normal;font-stretch:normal;text-align:start;line-height:100%;writing-mode:lr-tb;text-anchor:start;fill:#000000;fill-opacity:1;stroke:none;font-family:LMRoman9;-inkscape-font-specification:LMRoman9"
         xml:space="preserve"><tspan
           y="1250.8683"
           x="1567.948"
           id="tspan4894-4-8-9-4"
           sodipodi:role="line">5</tspan></text>
      <text
         sodipodi:linespacing="100%"
         id="text4892-0-9-9-1"
         y="1250.8683"
         x="1616.5101"
         style="font-size:15.65794373px;font-style:normal;font-variant:normal;font-weight:normal;font-stretch:normal;text-align:start;line-height:100%;writing-mode:lr-tb;text-anchor:start;fill:#000000;fill-opacity:1;stroke:none;font-family:LMRoman9;-inkscape-font-specification:LMRoman9"
         xml:space="preserve"><tspan
           y="1250.8683"
           x="1616.5101"
           id="tspan4894-4-8-9-6"
           sodipodi:role="line">6</tspan></text>
      <text
         sodipodi:linespacing="100%"
         id="text4892-0-9-2"
         y="1236.0415"
         x="1402.2498"
         style="font-size:15.65794373px;font-style:normal;font-variant:normal;font-weight:normal;font-stretch:normal;text-align:start;line-height:100%;writing-mode:lr-tb;text-anchor:start;fill:#000000;fill-opacity:1;stroke:none;font-family:LMRoman9;-inkscape-font-specification:LMRoman9"
         xml:space="preserve"><tspan
           y="1236.0415"
           x="1402.2498"
           id="tspan4894-4-8-0"
           sodipodi:role="line">0</tspan></text>
      <text
         sodipodi:linespacing="100%"
         id="text4892-0-9-2-9"
         y="1191.5017"
         x="1389.9139"
         style="font-size:15.65794373px;font-style:normal;font-variant:normal;font-weight:normal;font-stretch:normal;text-align:start;line-height:100%;writing-mode:lr-tb;text-anchor:start;fill:#000000;fill-opacity:1;stroke:none;font-family:LMRoman9;-inkscape-font-specification:LMRoman9"
         xml:space="preserve"><tspan
           y="1191.5017"
           x="1389.9139"
           id="tspan4894-4-8-0-7"
           sodipodi:role="line">0.5</tspan></text>
      <text
         sodipodi:linespacing="100%"
         id="text4892-0-9-2-3"
         y="1141.4993"
         x="1389.7417"
         style="font-size:15.65794373px;font-style:normal;font-variant:normal;font-weight:normal;font-stretch:normal;text-align:start;line-height:100%;writing-mode:lr-tb;text-anchor:start;fill:#000000;fill-opacity:1;stroke:none;font-family:LMRoman9;-inkscape-font-specification:LMRoman9"
         xml:space="preserve"><tspan
           y="1141.4993"
           x="1389.7417"
           id="tspan4894-4-8-0-6"
           sodipodi:role="line">1.0</tspan></text>
      <text
         sodipodi:linespacing="100%"
         id="text4892-0-9-2-7"
         y="1090.4866"
         x="1389.9139"
         style="font-size:15.65794373px;font-style:normal;font-variant:normal;font-weight:normal;font-stretch:normal;text-align:start;line-height:100%;writing-mode:lr-tb;text-anchor:start;fill:#000000;fill-opacity:1;stroke:none;font-family:LMRoman9;-inkscape-font-specification:LMRoman9"
         xml:space="preserve"><tspan
           y="1090.4866"
           x="1389.9139"
           id="tspan4894-4-8-0-61"
           sodipodi:role="line">1.5</tspan></text>
      <text
         sodipodi:linespacing="100%"
         id="text4892-0-9-2-2"
         y="1041.7466"
         x="1389.7417"
         style="font-size:15.65794373px;font-style:normal;font-variant:normal;font-weight:normal;font-stretch:normal;text-align:start;line-height:100%;writing-mode:lr-tb;text-anchor:start;fill:#000000;fill-opacity:1;stroke:none;font-family:LMRoman9;-inkscape-font-specification:LMRoman9"
         xml:space="preserve"><tspan
           y="1041.7466"
           x="1389.7417"
           id="tspan4894-4-8-0-8"
           sodipodi:role="line">2.0</tspan></text>
      <text
         sodipodi:linespacing="100%"
         id="text4892-0"
         y="1270.1742"
         x="1588.7626"
         style="font-size:15.65794373px;font-style:normal;font-variant:normal;font-weight:normal;font-stretch:normal;text-align:start;line-height:100%;writing-mode:lr-tb;text-anchor:start;fill:#000000;fill-opacity:1;stroke:none;font-family:LMRoman9;-inkscape-font-specification:LMRoman9"
         xml:space="preserve"><tspan
           y="1270.1742"
           x="1588.7626"
           id="tspan4894-4"
           sodipodi:role="line">V   [V]</tspan></text>
      <text
         sodipodi:linespacing="100%"
         id="text4892-7-0"
         y="1271.1575"
         x="1599.8723"
         style="font-size:7.20318031px;font-style:normal;font-variant:normal;font-weight:normal;font-stretch:normal;text-align:start;line-height:100%;writing-mode:lr-tb;text-anchor:start;fill:#000000;fill-opacity:1;stroke:none;font-family:LMRoman9;-inkscape-font-specification:LMRoman9"
         xml:space="preserve"><tspan
           y="1271.1575"
           x="1599.8723"
           id="tspan4894-1-0"
           sodipodi:role="line">CC</tspan></text>
      <text
         sodipodi:linespacing="100%"
         id="text4892-0-6"
         y="1063.4196"
         x="1369.745"
         style="font-size:15.65794373px;font-style:normal;font-variant:normal;font-weight:normal;font-stretch:normal;text-align:start;line-height:100%;writing-mode:lr-tb;text-anchor:start;fill:#000000;fill-opacity:1;stroke:none;font-family:LMRoman9;-inkscape-font-specification:LMRoman9"
         xml:space="preserve"><tspan
           style="font-style:italic;-inkscape-font-specification:Bitstream Charter Italic"
           y="1063.4196"
           x="1369.745"
           id="tspan4894-4-7"
           sodipodi:role="line">k</tspan></text>
    </g>
  </g>
</svg>
